<?xml version="1.0" encoding="utf-8"?>
<!-- Generator: Adobe Illustrator 27.5.0, SVG Export Plug-In . SVG Version: 6.00 Build 0)  -->
<svg version="1.1" xmlns="http://www.w3.org/2000/svg" xmlns:xlink="http://www.w3.org/1999/xlink" x="0px" y="0px"
	 viewBox="0 0 3710 3710" style="enable-background:new 0 0 3710 3710;" xml:space="preserve">
<g id="Background">
	<g>
		<g>
			<rect style="fill:#FFFFFF;" width="3710" height="3710"/>
		</g>
	</g>
</g>
<g id="Illustration">
	<g>
		<linearGradient id="SVGID_1_" gradientUnits="userSpaceOnUse" x1="3609.9446" y1="4103.2974" x2="1109.2396" y2="997.5786">
			<stop  offset="0" style="stop-color:#B37CFF"/>
			<stop  offset="1" style="stop-color:#F895E7"/>
		</linearGradient>
		<path style="opacity:0.3;fill:url(#SVGID_1_);" d="M2921.985,2878.514c-57.44,60.47-111.79,99.467-154.73,130.278
			c-504.756,362.168-1102.016,256.598-1228.951,230.816c-187.443-38.071-549.765-111.66-811.718-419.711
			c-396.313-466.055-334.601-1200.312-27.194-1685.006c56.229-88.659,353.25-580.735,956.943-659.648
			c365.349-47.758,791.228,48.564,1099.637,306.95C3403.353,1324.568,3357.266,2420.264,2921.985,2878.514z"/>
		<g>
			<g>
				
					<linearGradient id="SVGID_00000114784958907658991830000015441694546658600069_" gradientUnits="userSpaceOnUse" x1="2522.5598" y1="2522.2615" x2="881.3154" y2="1083.6381" gradientTransform="matrix(0.969 0.2472 -0.2472 0.969 -436.0238 -177.3885)">
					<stop  offset="0" style="stop-color:#A737D5"/>
					<stop  offset="1" style="stop-color:#EF497A"/>
				</linearGradient>
				<path style="fill:url(#SVGID_00000114784958907658991830000015441694546658600069_);" d="M519.165,2226.653
					c-35.81-97.248-90.163-376.095-31.014-640.395c0,0,2.768-153.13,165.367-322.92c1.803-1.882,7.097-6.869,13.324-6.641
					c8.153,0.298,15.723,7.101,15.162,17.531c-4.197,77.994-2.248,249.273,51.895,553.338
					c31.387,176.268,8.024,327.027-31.638,444.839C641.229,2257.156,580.197,2241.904,519.165,2226.653z"/>
				<path style="opacity:0.42;fill:#FCFCFC;" d="M603.717,2228.537c0.109,0.028,0.22,0.051,0.334,0.067
					c1.651,0.242,3.155-0.815,3.358-2.364c18.882-143.769,26.24-282.581,22.494-424.365c-0.477-10.126-1.046-20.017-1.596-29.585
					c-0.549-9.552-1.117-19.431-1.591-29.473c-2.661-37.401-6.022-80.717-12.302-122.289c-0.235-1.558-1.758-2.686-3.409-2.512
					c-1.647,0.172-2.792,1.572-2.557,3.13c6.25,41.377,9.601,84.567,12.251,121.8c0.471,10.007,1.04,19.898,1.59,29.465
					c0.549,9.554,1.117,19.432,1.59,29.474c3.736,141.448-3.607,279.986-22.453,423.478
					C601.239,2226.804,602.244,2228.161,603.717,2228.537z"/>
			</g>
			<g>
				
					<linearGradient id="SVGID_00000065766682471614917080000009064258791523515534_" gradientUnits="userSpaceOnUse" x1="2080.1431" y1="758.5583" x2="1533.053" y2="2501.1377" gradientTransform="matrix(0.969 0.2472 -0.2472 0.969 -436.0238 -177.3885)">
					<stop  offset="0" style="stop-color:#CB236D"/>
					<stop  offset="1" style="stop-color:#4C246D"/>
				</linearGradient>
				<path style="fill:url(#SVGID_00000065766682471614917080000009064258791523515534_);" d="M749.92,2284.565
					c-179.451-524.712,105.166-1003.952,230.67-1179.84c23.889-33.479,64.373-31.469,70.691,3.32
					c66.674,367.081,0.455,909.154-53.241,1239.821L749.92,2284.565z"/>
				<path style="opacity:0.42;fill:#FCFCFC;" d="M897.834,2303.905c0.329,0.084,0.675,0.123,1.031,0.108
					c1.846-0.074,3.231-1.547,3.091-3.289c-13.266-165.917-14.987-325.301-5.115-473.728
					c10.902-163.919,36.312-320.391,75.524-465.07c0.454-1.676-0.633-3.427-2.429-3.91c-0.015-0.004-0.031-0.008-0.046-0.012
					c-1.781-0.454-3.577,0.511-4.028,2.171c-39.313,145.054-64.788,301.913-75.716,466.22
					c-9.891,148.714-8.168,308.392,5.121,474.596C895.38,2302.399,896.452,2303.552,897.834,2303.905z"/>
			</g>
		</g>
		
			<linearGradient id="SVGID_00000127032661563902237370000014776391808989253554_" gradientUnits="userSpaceOnUse" x1="3409.1624" y1="1476.678" x2="896.5317" y2="3026.8083">
			<stop  offset="0" style="stop-color:#A737D5"/>
			<stop  offset="1" style="stop-color:#EF497A"/>
		</linearGradient>
		<path style="fill:url(#SVGID_00000127032661563902237370000014776391808989253554_);" d="M523.998,2170.209
			c-21.81-0.079-38.576,18.628-35.477,39.525c31.273,210.852,114.354,409.691,260.137,574.115
			c259.126,292.262,617.539,362.482,802.96,398.601c125.566,24.46,716.381,124.82,1215.691-218.784
			c42.478-29.231,96.241-66.934,153.061-124.305c151.78-153.252,261.95-372.345,305.386-626.383
			c2.956-17.289-10.918-32.995-29.023-33.061L523.998,2170.209z"/>
		
			<linearGradient id="SVGID_00000118369890637122165790000003363852839005152177_" gradientUnits="userSpaceOnUse" x1="458.4761" y1="2761.8123" x2="3129.6682" y2="2761.8123">
			<stop  offset="0" style="stop-color:#B37CFF"/>
			<stop  offset="1" style="stop-color:#F895E7"/>
		</linearGradient>
		<path style="fill:url(#SVGID_00000118369890637122165790000003363852839005152177_);" d="M3040.956,2262.625
			c-5.006-20.728-1124.578,40.588-1130.257,170.946c-3.858,88.568,411.504,263.554,410.314,342.997
			c-2.516,167.952-1841.982,18.057-1862.361,214.113c-10.426,100.31,444.925,220.56,760.898,257.722
			c160.861,18.919,1245.799,62.763,1801.442-159.558c144.188-57.692,164.363-257.423-59.405-376.725
			c-149.857-79.896-693.453-203.304-695.818-291.008C2263.321,2330.286,3044.781,2278.461,3040.956,2262.625z"/>
		
			<linearGradient id="SVGID_00000000193951481171583190000003428187241146301840_" gradientUnits="userSpaceOnUse" x1="427.6748" y1="2709.3557" x2="3223.9824" y2="1594.8846">
			<stop  offset="0" style="stop-color:#B37CFF"/>
			<stop  offset="1" style="stop-color:#F895E7"/>
		</linearGradient>
		<path style="fill:url(#SVGID_00000000193951481171583190000003428187241146301840_);" d="M3212.918,2219.494
			c18.047,0.147,16.327-23.556,2.469-35.388l-175.866-158.088c-22.749-19.425-52.372-24.561-79.067-13.71l-109.976,44.703
			c-28.258,11.486-59.67,5.021-82.74-17.03l-196.388-187.719c-26.223-25.066-62.864-29.726-93.192-11.853l-463.691,273.257
			c-28.824,16.987-63.503,13.681-89.519-8.533l-138.468-118.232c-22.748-19.424-52.372-24.562-79.066-13.711l-126.054,51.238
			c-28.258,11.486-59.67,5.021-82.739-17.03l-218.839-209.178c-26.223-25.066-62.864-29.726-93.192-11.853l-664.037,391.323
			c-1.711,1.009-2.604,3.235-2.16,5.392c0.443,2.157,2.106,3.686,4.028,3.7l1347.392,10.953v0
			c-5.108,3.01-3.008,10.834,2.921,10.882L3212.918,2219.494z"/>
		
			<linearGradient id="SVGID_00000042697849316434683680000007654429704051468944_" gradientUnits="userSpaceOnUse" x1="1205.9277" y1="993.6678" x2="1886.0771" y2="993.6678">
			<stop  offset="0" style="stop-color:#B37CFF"/>
			<stop  offset="1" style="stop-color:#F895E7"/>
		</linearGradient>
		<path style="opacity:0.5;fill:url(#SVGID_00000042697849316434683680000007654429704051468944_);" d="M1416.835,927.737
			c23.085-28.199,57.542-39.807,91.3-31.364c36.792,9.202,57.589,44.366,91.828,58.427c59.745,24.534,142.363-23.941,187.737,39.305
			c55.495,77.356,98.378,19.339,98.378,71.831c0,52.491-383.422,13.814-572.61,16.576c-27.332,0.399-145.998-1.593-94.917-58.329
			c15.863-17.618,38.498-20.569,59.596-24.692c27.511-5.376,92.924-8.326,112.85-29.729c10.725-11.52,14.851-28.073,24.538-40.403
			C1415.964,928.813,1416.397,928.271,1416.835,927.737z"/>
		
			<linearGradient id="SVGID_00000166659072730950099720000010147215475525660562_" gradientUnits="userSpaceOnUse" x1="1846.8347" y1="827.8927" x2="2272.0115" y2="827.8927">
			<stop  offset="0" style="stop-color:#B37CFF"/>
			<stop  offset="1" style="stop-color:#F895E7"/>
		</linearGradient>
		<path style="opacity:0.5;fill:url(#SVGID_00000166659072730950099720000010147215475525660562_);" d="M1978.677,786.678
			c14.431-17.628,35.971-24.884,57.073-19.607c23,5.752,36,27.734,57.404,36.524c37.347,15.337,88.995-14.966,117.358,24.57
			c34.691,48.357,61.498,12.089,61.498,44.903c0,32.814-239.685,8.635-357.952,10.362c-17.086,0.249-91.267-0.996-59.335-36.463
			c9.916-11.014,24.066-12.858,37.255-15.436c17.198-3.361,58.089-5.205,70.545-18.584c6.705-7.201,9.283-17.549,15.339-25.257
			C1978.133,787.35,1978.404,787.012,1978.677,786.678z"/>
		<g>
			<g>
				<g>
					
						<linearGradient id="SVGID_00000111178174316900869810000014366734541117821059_" gradientUnits="userSpaceOnUse" x1="3050.0894" y1="-2524.2148" x2="3122.8247" y2="-2524.2148" gradientTransform="matrix(0.8138 0.5963 -0.4686 0.9968 -805.7201 2293.2808)">
						<stop  offset="0" style="stop-color:#53D8FF"/>
						<stop  offset="1" style="stop-color:#3840F7"/>
					</linearGradient>
					<path style="fill:url(#SVGID_00000111178174316900869810000014366734541117821059_);" d="M2839.923,1637.109
						c2.035,3.885,6.306,5.99,10.484,5.237c16.441-2.963,59.865-13.097,85.517-40.674c1.693-1.821,1.536-4.568,0-6.281
						c-6.631,6.978-17.973,15.515-37.249,25.27C2869.051,1635.654,2850.761,1637.957,2839.923,1637.109z"/>
					
						<linearGradient id="SVGID_00000062872475492826863150000006659701601708464559_" gradientUnits="userSpaceOnUse" x1="3033.6025" y1="-2524.7417" x2="3119.9072" y2="-2524.7417" gradientTransform="matrix(0.8138 0.5963 -0.4686 0.9968 -805.7201 2293.2808)">
						<stop  offset="0" style="stop-color:#8D55D1"/>
						<stop  offset="0.9964" style="stop-color:#1C2873"/>
					</linearGradient>
					<path style="fill:url(#SVGID_00000062872475492826863150000006659701601708464559_);" d="M2839.214,1600.245
						c0,0-8.793,18.068,0.629,36.733c0.023,0.046,0.056,0.085,0.08,0.131c10.839,0.847,29.128-1.455,58.753-16.449
						c19.275-9.756,30.618-18.292,37.249-25.27c-0.486-0.542-1.103-0.986-1.852-1.259
						C2917.611,1588.163,2871.883,1575.152,2839.214,1600.245z"/>
				</g>
				<g>
					
						<linearGradient id="SVGID_00000169531539854818004960000013154325429930902916_" gradientUnits="userSpaceOnUse" x1="2015.3589" y1="934.8195" x2="2079.043" y2="934.8195" gradientTransform="matrix(0.8988 0.4384 -0.4384 0.8988 1471.175 -170.1804)">
						<stop  offset="0" style="stop-color:#8D55D1"/>
						<stop  offset="0.9964" style="stop-color:#1C2873"/>
					</linearGradient>
					<path style="fill:url(#SVGID_00000169531539854818004960000013154325429930902916_);" d="M2855.049,1589.868
						c2.238,3.471,6.529,5.083,10.538,4.023c15.776-4.171,57.285-17.35,80.358-45.383c1.523-1.852,1.186-4.414-0.421-5.891
						c-5.974,7.105-16.422,16.071-34.495,26.851C2883.252,1586.038,2865.637,1589.745,2855.049,1589.868z"/>
					
						<linearGradient id="SVGID_00000003075690752519977460000005154438049397770387_" gradientUnits="userSpaceOnUse" x1="1997.3881" y1="934.0494" x2="2075.9607" y2="934.0494" gradientTransform="matrix(0.8988 0.4384 -0.4384 0.8988 1471.175 -170.1804)">
						<stop  offset="0" style="stop-color:#8D55D1"/>
						<stop  offset="0.9964" style="stop-color:#1C2873"/>
					</linearGradient>
					<path style="fill:url(#SVGID_00000003075690752519977460000005154438049397770387_);" d="M2851.887,1555.358
						c0,0-7.331,17.688,3.076,34.394c0.026,0.042,0.06,0.075,0.086,0.116c10.588-0.123,28.203-3.83,55.979-20.399
						c18.073-10.78,28.521-19.746,34.495-26.851c-0.508-0.467-1.138-0.832-1.884-1.023
						C2927.246,1537.391,2881.944,1529.06,2851.887,1555.358z"/>
				</g>
				
					<linearGradient id="SVGID_00000179626475577500367990000001857089523742702481_" gradientUnits="userSpaceOnUse" x1="4782.4297" y1="1127.1866" x2="5254.2852" y2="1127.1866" gradientTransform="matrix(0.9996 -0.0252 0.0252 0.9996 -2417.6636 511.2378)">
					<stop  offset="0" style="stop-color:#F9B776"/>
					<stop  offset="1" style="stop-color:#F47960"/>
				</linearGradient>
				<path style="fill:url(#SVGID_00000179626475577500367990000001857089523742702481_);" d="M2398.61,1459.086l-7.985,33.276
					c0,0,4.359,73.406,111.479,60.624c107.12-12.782,157.024-19.565,157.024-19.565s55.372,47.884,196.336,40.546
					c0,0,13.217-8.635,7.218-23.413l-183.956-67.381c-11.3-9.878-24.706-7.86-45.954-11.892
					c-50.605-9.603-152.155-21.614-165.498-24.163L2398.61,1459.086z"/>
				
					<linearGradient id="SVGID_00000179635139341830817460000017216021827195756463_" gradientUnits="userSpaceOnUse" x1="3509.7498" y1="-3356.7485" x2="3988.6636" y2="-3356.7485" gradientTransform="matrix(0.9544 0.2984 -0.2984 0.9544 -1951.179 3653.4612)">
					<stop  offset="0" style="stop-color:#F9B776"/>
					<stop  offset="1" style="stop-color:#F47960"/>
				</linearGradient>
				<path style="fill:url(#SVGID_00000179635139341830817460000017216021827195756463_);" d="M2422.329,1465.855l-20.962,27.467
					c0,0-24.01,66.34,89.328,83.01c113.338,16.67,184.271,11.911,184.271,11.911s51.745,60.86,184.72,36.086
					c0,0,10.091-9.243,4.574-24.212c-56.539-18.029-113.077-36.06-169.615-54.089c-6.015-4.067-11.139-5.293-14.769-5.641
					c-4.591-0.44-6.692,0.534-12.653,0.129c0,0-5.993,0.494-12.679-2.57c-47.487-21.768-145.59-59.002-158.104-64.757
					L2422.329,1465.855z"/>
				
					<linearGradient id="SVGID_00000139981424788085042380000018403679730253279145_" gradientUnits="userSpaceOnUse" x1="6406.5747" y1="4709.5454" x2="7386.7666" y2="4709.5454" gradientTransform="matrix(0.7141 -0.7 0.7 0.7141 -5490.2759 2761.3098)">
					<stop  offset="0" style="stop-color:#CB236D"/>
					<stop  offset="1" style="stop-color:#4C246D"/>
				</linearGradient>
				<path style="fill:url(#SVGID_00000139981424788085042380000018403679730253279145_);" d="M2373.507,1517.037
					c0,0,22.239,29.816,67.576,35.079c37.441,4.347,127.129,10.484,152.236,7.576c4.816-0.558,8.232-4.525,8.06-9.445l-1.225-76.801
					c0.134-6.114-4.589-11.663-10.659-12.526l-131.922-16.73L2373.507,1517.037z"/>
				
					<linearGradient id="SVGID_00000143581780822937376950000006585096411317939080_" gradientUnits="userSpaceOnUse" x1="6553.3882" y1="11214.1543" x2="7637.5479" y2="11214.1543" gradientTransform="matrix(-0.1928 -0.9812 0.9812 -0.1928 -7224.6943 10254.375)">
					<stop  offset="0" style="stop-color:#CB236D"/>
					<stop  offset="1" style="stop-color:#4C246D"/>
				</linearGradient>
				<path style="fill:url(#SVGID_00000143581780822937376950000006585096411317939080_);" d="M2377.235,1563.544
					c15.508,15.862,36.905,19.659,76.432,26.676c27.779,4.931,113.052,19.244,129.32,19.219c2.946-0.315,7.037-1.029,11.645-2.769
					c0,0,7.631-2.882,13.857-8.168c13.804-11.719,5.172-37.994,10.365-60.86c1.315-5.79-2.145-11.454-8.114-13.362
					c-51.321-16.36-151.556-13.548-154.175-69.306c-1.153-24.543-55.264,6.375-81.017-0.769l-12.463,11.918
					C2360.586,1475.634,2346.534,1532.143,2377.235,1563.544z"/>
				<g>
					
						<linearGradient id="SVGID_00000093895007437424696470000003682413930954600578_" gradientUnits="userSpaceOnUse" x1="7561.3848" y1="6107.3325" x2="7260.0083" y2="7061.9609" gradientTransform="matrix(0.4666 -0.8997 0.7124 0.3695 -5346.729 5694.4468)">
						<stop  offset="0" style="stop-color:#53D8FF"/>
						<stop  offset="1" style="stop-color:#3840F7"/>
					</linearGradient>
					<path style="fill:url(#SVGID_00000093895007437424696470000003682413930954600578_);" d="M2540.002,1219.405
						c15.484,18.06,18.034,49.087,33.439,67.237c40.88-33.771,35.235-62.262,64.451-107.275
						c-19.255-4.203-33.067-13.481-45.074-29.633C2566.568,1190.87,2565.342,1190.522,2540.002,1219.405z"/>
					
						<linearGradient id="SVGID_00000099635224411674747550000013915607154673033608_" gradientUnits="userSpaceOnUse" x1="7783.9604" y1="6130.5874" x2="7364.939" y2="6333.5737" gradientTransform="matrix(0.4666 -0.8997 0.7124 0.3695 -5346.729 5694.4468)">
						<stop  offset="0" style="stop-color:#F9B776"/>
						<stop  offset="1" style="stop-color:#F47960"/>
					</linearGradient>
					<path style="fill:url(#SVGID_00000099635224411674747550000013915607154673033608_);" d="M2660.708,993.631
						c-10.956,55.917-37.847,106.881-67.889,156.103c12.008,16.155,25.819,25.425,45.074,29.633
						c23.416-41.792,52.862-145.912,44.533-188.989C2675.289,991.306,2667.859,991.492,2660.708,993.631z"/>
				</g>
				
					<linearGradient id="SVGID_00000123409279030348680450000000583578052370214570_" gradientUnits="userSpaceOnUse" x1="3522.0498" y1="1538.9996" x2="3216.6802" y2="2506.2783" gradientTransform="matrix(0.9883 -0.1522 0.1522 0.9883 -1231.884 193.3728)">
					<stop  offset="0" style="stop-color:#53D8FF"/>
					<stop  offset="1" style="stop-color:#3840F7"/>
				</linearGradient>
				<path style="fill:url(#SVGID_00000123409279030348680450000000583578052370214570_);" d="M2576.653,1254.274l-0.4-28.547
					c-22.035-5.655-40.776-9.283-54.672-11.638c-77.807-13.183-105.644-3.684-118.229,1.771c-6.729,2.916-11.984,5.929-15.36,8.008
					c-4.738,2.485-11.436,6.822-16.782,14.193c-11.586,15.976-8.407,43.079-7.238,50.921c2.263,15.187-0.659,74.117-6.505,191.979
					c-0.522,10.525-0.703,32.284,4.562,25.427c6.04-7.866,63.179-67.184,113.149-51.405l89.652-141.702
					C2572.896,1294.984,2576.941,1274.793,2576.653,1254.274z"/>
				
					<linearGradient id="SVGID_00000044154830708049963750000004182350180123434134_" gradientUnits="userSpaceOnUse" x1="3507.2229" y1="1617.9944" x2="3529.0044" y2="1555.8767" gradientTransform="matrix(0.9883 -0.1522 0.1522 0.9883 -1231.884 193.3728)">
					<stop  offset="0" style="stop-color:#F9B776"/>
					<stop  offset="1" style="stop-color:#F47960"/>
				</linearGradient>
				<path style="fill:url(#SVGID_00000044154830708049963750000004182350180123434134_);" d="M2476.628,1161.01l-17.308,59.304
					c-1.056,3.618,0.042,7.624,2.789,10.088c7.428,6.66,24.107,16.767,48.435,3.936c2.682-1.415,4.301-4.454,4.236-7.737
					l-1.013-51.282L2476.628,1161.01z"/>
				<g>
					
						<linearGradient id="SVGID_00000061466415338141515640000008310106880982312065_" gradientUnits="userSpaceOnUse" x1="-4758.6382" y1="793.3787" x2="-4653.5435" y2="793.3787" gradientTransform="matrix(-0.9852 -0.1716 -0.1716 0.9852 -1977.491 -456.9164)">
						<stop  offset="0" style="stop-color:#2B3582"/>
						<stop  offset="1" style="stop-color:#150E42"/>
					</linearGradient>
					<path style="fill:url(#SVGID_00000061466415338141515640000008310106880982312065_);" d="M2498.829,1173.866
						c0,0-10.271,4.56-14.43,0.268c-5.049-5.209-7.366-13.417-8.829-20.318c-1.604-7.564-2.088-15.304-2.131-23.02
						c-0.024-4.396,0.086-8.79,0.206-13.183c0.187-6.832-0.048-14.338,2.712-20.739c1.287-2.985,3.442-6.283,6.513-7.642
						c2.232-0.988,5.472,0.225,7.318,1.447c1.146,0.759,3.172,3.568,4.595,3.652c0.952,0.056,3.039-1.645,3.867-2.253
						c5.06-3.722,9.241-7.069,15.586-8.518c5.009-1.144,10.117-0.847,15.116,0.307c23.584,5.444,73.73,34.245,35.449,43.192
						C2526.518,1136.005,2498.829,1173.866,2498.829,1173.866z"/>
					
						<linearGradient id="SVGID_00000006686431935697992140000006543339591789685647_" gradientUnits="userSpaceOnUse" x1="-50.7927" y1="957.8488" x2="24.2181" y2="957.8488" gradientTransform="matrix(0.9313 0.3643 -0.3643 0.9313 2885.4468 276.5272)">
						<stop  offset="0" style="stop-color:#F9B776"/>
						<stop  offset="1" style="stop-color:#F47960"/>
					</linearGradient>
					<path style="fill:url(#SVGID_00000006686431935697992140000006543339591789685647_);" d="M2560.111,1156.184
						c-0.774-14.816-0.613-22.276-0.279-26.025c0.088-0.992-0.237-1.975-0.898-2.719c-0.662-0.742-1.601-1.179-2.596-1.207
						c-11.049-0.31-39.953-0.293-42.553,8.233c-3.223,10.564-3.487,17.503-3.487,17.503s-8.033-19.735-15.53-12.776
						c-7.497,6.959-7.377,30.199-1.101,33.336c6.277,3.137,2.685,32.481,26.978,40.081
						C2544.938,1220.21,2561.6,1184.695,2560.111,1156.184z"/>
				</g>
				<g>
					
						<linearGradient id="SVGID_00000104695202368449117260000003125917680810730141_" gradientUnits="userSpaceOnUse" x1="7472.1021" y1="5908.2456" x2="7172.5337" y2="6857.1484" gradientTransform="matrix(0.4666 -0.8997 0.7124 0.3695 -5346.729 5694.4468)">
						<stop  offset="0" style="stop-color:#53D8FF"/>
						<stop  offset="1" style="stop-color:#3840F7"/>
					</linearGradient>
					<path style="fill:url(#SVGID_00000104695202368449117260000003125917680810730141_);" d="M2362.115,1239.184
						c-5.271,25.155,3.171,45.476,15.868,49.738c2.237,0.751,8.289,2.239,17.571-2.28c6.137-5.697,13.922-13.464,22.233-23.308
						c2.473-2.929,11.118-13.221,18.245-24.306c6.932-10.783,17.577-30.323,23.974-59.662c-5.738-1.152-14.254-3.558-23.289-9.085
						c-8.187-5.008-15.253-11.761-21.785-20.547c-8.754,11.536-17.843,24.671-26.763,39.449
						C2377.469,1206.91,2368.938,1223.81,2362.115,1239.184z"/>
					
						<linearGradient id="SVGID_00000163058094986800212050000015091848830447254679_" gradientUnits="userSpaceOnUse" x1="7703.1479" y1="5933.8164" x2="7284.1265" y2="6136.8027" gradientTransform="matrix(0.4666 -0.8997 0.7124 0.3695 -5346.729 5694.4468)">
						<stop  offset="0" style="stop-color:#F9B776"/>
						<stop  offset="1" style="stop-color:#F47960"/>
					</linearGradient>
					<path style="fill:url(#SVGID_00000163058094986800212050000015091848830447254679_);" d="M2482.821,993.631
						c-10.956,55.917-37.847,106.881-67.889,156.103c12.008,16.155,25.819,25.425,45.074,29.633
						c23.416-41.792,52.862-145.912,44.533-188.989C2497.402,991.306,2489.972,991.492,2482.821,993.631z"/>
				</g>
			</g>
			<g>
				<g>
					
						<linearGradient id="SVGID_00000140008900810470277350000002342808113554234780_" gradientUnits="userSpaceOnUse" x1="3312.1267" y1="-24.8967" x2="1471.7401" y2="2652.9524">
						<stop  offset="0" style="stop-color:#5AB6FF"/>
						<stop  offset="1" style="stop-color:#2F68E3"/>
					</linearGradient>
					
						<rect x="2184.078" y="973.269" style="fill:url(#SVGID_00000140008900810470277350000002342808113554234780_);" width="33.841" height="1237.157"/>
					
						<linearGradient id="SVGID_00000112605477768570206390000014634299422703881628_" gradientUnits="userSpaceOnUse" x1="2939.7976" y1="-13.2114" x2="1297.2848" y2="2376.7222">
						<stop  offset="0" style="stop-color:#5AB6FF"/>
						<stop  offset="1" style="stop-color:#2F68E3"/>
					</linearGradient>
					
						<rect x="1597.905" y="1618.944" style="fill:url(#SVGID_00000112605477768570206390000014634299422703881628_);" width="33.841" height="591.482"/>
					
						<linearGradient id="SVGID_00000009591915595558924450000006009299971323202239_" gradientUnits="userSpaceOnUse" x1="3964.4436" y1="423.4115" x2="2124.0603" y2="3101.2559">
						<stop  offset="0" style="stop-color:#5AB6FF"/>
						<stop  offset="1" style="stop-color:#2F68E3"/>
					</linearGradient>
					
						<rect x="3140.74" y="973.269" style="fill:url(#SVGID_00000009591915595558924450000006009299971323202239_);" width="41.361" height="1237.157"/>
					
						<linearGradient id="SVGID_00000003105081258072886660000010635172636250894467_" gradientUnits="userSpaceOnUse" x1="3352.0806" y1="2.5559" x2="1511.6991" y2="2680.3977">
						<stop  offset="0" style="stop-color:#5AB6FF"/>
						<stop  offset="1" style="stop-color:#2F68E3"/>
					</linearGradient>
					<path style="fill:url(#SVGID_00000003105081258072886660000010635172636250894467_);" d="M3261.064,975.136
						c0-6.247-5.064-11.312-11.312-11.312H2116.427c-6.247,0-11.312,5.064-11.312,11.312v1.666c0,6.247,5.064,11.312,11.312,11.312
						h1133.325c6.247,0,11.312-5.065,11.312-11.312V975.136z"/>
					
						<linearGradient id="SVGID_00000109024314954622681580000004947832753073356208_" gradientUnits="userSpaceOnUse" x1="2881.0984" y1="204.7374" x2="1439.813" y2="2301.8755">
						<stop  offset="0" style="stop-color:#5AB6FF"/>
						<stop  offset="1" style="stop-color:#2F68E3"/>
					</linearGradient>
					
						<rect x="1617.285" y="1587.87" style="fill:url(#SVGID_00000109024314954622681580000004947832753073356208_);" width="600.634" height="37.601"/>
					
						<linearGradient id="SVGID_00000160877960878095423250000010668561216155888774_" gradientUnits="userSpaceOnUse" x1="3595.9324" y1="170.1444" x2="1755.5476" y2="2847.991">
						<stop  offset="0" style="stop-color:#5AB6FF"/>
						<stop  offset="1" style="stop-color:#2F68E3"/>
					</linearGradient>
					<path style="fill:url(#SVGID_00000160877960878095423250000010668561216155888774_);" d="M2251.333,2184.105H2144.32
						c-7.897,0-16.644,8.468-16.644,16.365v13.715H2266.8v-13.715C2266.8,2192.573,2259.231,2184.105,2251.333,2184.105z"/>
					
						<linearGradient id="SVGID_00000096052639570242967820000017301928824597781379_" gradientUnits="userSpaceOnUse" x1="3253.1594" y1="-176.8264" x2="1412.7778" y2="2501.0154">
						<stop  offset="0" style="stop-color:#5AB6FF"/>
						<stop  offset="1" style="stop-color:#2F68E3"/>
					</linearGradient>
					<path style="fill:url(#SVGID_00000096052639570242967820000017301928824597781379_);" d="M1668.937,2184.105h-107.014
						c-7.897,0-12.899,8.468-12.899,16.365v13.715h135.364v-13.715C1684.388,2192.573,1676.834,2184.105,1668.937,2184.105z"/>
					
						<linearGradient id="SVGID_00000138538693732655420860000014140974269588738715_" gradientUnits="userSpaceOnUse" x1="4252.1079" y1="621.1116" x2="2411.7241" y2="3298.9565">
						<stop  offset="0" style="stop-color:#5AB6FF"/>
						<stop  offset="1" style="stop-color:#2F68E3"/>
					</linearGradient>
					<path style="fill:url(#SVGID_00000138538693732655420860000014140974269588738715_);" d="M3215.387,2184.105h-107.014
						c-7.897,0-8.994,8.468-8.994,16.365v13.715h131.604v-13.715C3230.983,2192.573,3223.285,2184.105,3215.387,2184.105z"/>
					
						<linearGradient id="SVGID_00000119807282460415511730000008899931545277079970_" gradientUnits="userSpaceOnUse" x1="2225.2791" y1="905.8054" x2="2026.0444" y2="1581.1755">
						<stop  offset="0" style="stop-color:#5AB6FF"/>
						<stop  offset="1" style="stop-color:#2F68E3"/>
					</linearGradient>
					<path style="fill:url(#SVGID_00000119807282460415511730000008899931545277079970_);" d="M2231.079,952.724
						c0-7.451-6.041-13.492-13.492-13.492h-33.178c-7.451,0-13.492,6.041-13.492,13.492v70.779c0,7.451,6.041,13.492,13.492,13.492
						h33.178c7.451,0,13.492-6.041,13.492-13.492V952.724z"/>
					
						<linearGradient id="SVGID_00000134230557682917849300000013144614805066010009_" gradientUnits="userSpaceOnUse" x1="1695.9757" y1="1408.3136" x2="1358.2898" y2="2205.2512">
						<stop  offset="0" style="stop-color:#5AB6FF"/>
						<stop  offset="1" style="stop-color:#2F68E3"/>
					</linearGradient>
					<path style="fill:url(#SVGID_00000134230557682917849300000013144614805066010009_);" d="M1646.787,1560.001
						c0-7.451-6.041-13.492-13.492-13.492h-33.178c-7.451,0-13.492,6.041-13.492,13.492v70.779c0,7.451,6.041,13.492,13.492,13.492
						h33.178c7.451,0,13.492-6.041,13.492-13.492V1560.001z"/>
					
						<linearGradient id="SVGID_00000142134937035082458140000003328886908535195837_" gradientUnits="userSpaceOnUse" x1="2261.4731" y1="1390.8661" x2="1923.7878" y2="2498.4744">
						<stop  offset="0" style="stop-color:#5AB6FF"/>
						<stop  offset="1" style="stop-color:#2F68E3"/>
					</linearGradient>
					<path style="fill:url(#SVGID_00000142134937035082458140000003328886908535195837_);" d="M2229.199,1560.001
						c0-7.451-6.041-13.492-13.492-13.492h-33.177c-7.451,0-13.492,6.041-13.492,13.492v70.779c0,7.451,6.041,13.492,13.492,13.492
						h33.177c7.451,0,13.492-6.041,13.492-13.492V1560.001z"/>
					
						<linearGradient id="SVGID_00000092432821250755394730000008658826600516244646_" gradientUnits="userSpaceOnUse" x1="3178.8809" y1="917.2084" x2="3013.4153" y2="1670.2466">
						<stop  offset="0" style="stop-color:#5AB6FF"/>
						<stop  offset="1" style="stop-color:#2F68E3"/>
					</linearGradient>
					<path style="fill:url(#SVGID_00000092432821250755394730000008658826600516244646_);" d="M3193.382,952.724
						c0-7.451-6.041-13.492-13.492-13.492h-33.178c-7.451,0-13.492,6.041-13.492,13.492v70.779c0,7.451,6.041,13.492,13.492,13.492
						h33.178c7.451,0,13.492-6.041,13.492-13.492V952.724z"/>
				</g>
			</g>
			<g>
				
					<linearGradient id="SVGID_00000081630799397820741790000013901966665058577852_" gradientUnits="userSpaceOnUse" x1="7873.3232" y1="6519.1572" x2="7545.2046" y2="6678.1074" gradientTransform="matrix(0.4604 -0.8877 0.8877 0.4604 -6740.8765 4957.2158)">
					<stop  offset="0" style="stop-color:#F9B776"/>
					<stop  offset="1" style="stop-color:#F47960"/>
				</linearGradient>
				<path style="fill:url(#SVGID_00000081630799397820741790000013901966665058577852_);" d="M2675.725,1007.198
					c0,0-25.406,0.11-32.936-22.902c0,0-3.543-7.998,8.126-8.712c0,0-7.692-24.545,1.088-25.613
					c8.78-1.068,30.921-4.486,43.282,16.478C2707.785,987.649,2687.401,1006.763,2675.725,1007.198z"/>
				
					<linearGradient id="SVGID_00000111153875112479810840000007509194452400952480_" gradientUnits="userSpaceOnUse" x1="7791.4224" y1="6361.2441" x2="7463.3042" y2="6520.1938" gradientTransform="matrix(0.4604 -0.8877 0.8877 0.4604 -6740.8765 4957.2158)">
					<stop  offset="0" style="stop-color:#F9B776"/>
					<stop  offset="1" style="stop-color:#F47960"/>
				</linearGradient>
				<path style="fill:url(#SVGID_00000111153875112479810840000007509194452400952480_);" d="M2497.838,1007.198
					c0,0-25.406,0.11-32.936-22.902c0,0-3.543-7.998,8.126-8.712c0,0-7.692-24.545,1.088-25.613
					c8.78-1.068,30.921-4.486,43.282,16.478C2529.898,987.649,2509.514,1006.763,2497.838,1007.198z"/>
			</g>
		</g>
		<g>
			
				<linearGradient id="SVGID_00000110441018147406988700000010051190714002739116_" gradientUnits="userSpaceOnUse" x1="1845.1942" y1="2975.394" x2="1802.2356" y2="3374.7488">
				<stop  offset="0" style="stop-color:#2B3582"/>
				<stop  offset="1" style="stop-color:#150E42"/>
			</linearGradient>
			<path style="fill:url(#SVGID_00000110441018147406988700000010051190714002739116_);" d="M1721.776,3106.306l-5.965,19.544
				c-1.603,5.253-0.273,10.981,3.522,14.95c34.885,36.487,71.208,68.944,112.397,87.49c11.72,5.277,24.608,7.388,37.446,6.751
				c32.655-1.619,66.102-7.351,63.086-17.414l-0.871-22.712L1721.776,3106.306z"/>
			<g>
				
					<linearGradient id="SVGID_00000044137451532093770270000012235816798729621632_" gradientUnits="userSpaceOnUse" x1="1149.0292" y1="953.2632" x2="1037.5339" y2="1989.7539">
					<stop  offset="0" style="stop-color:#2B3582"/>
					<stop  offset="1" style="stop-color:#150E42"/>
				</linearGradient>
				<path style="fill:url(#SVGID_00000044137451532093770270000012235816798729621632_);" d="M1243.73,1474.731
					c0,0-116.68-90.08-192.041,43.973c-75.36,134.052-107.3,174.207-129.598,138.313c-1.145,8.237-1.717,21.733,4.814,34.422
					c12.425,24.139,41.607,27.971,56.91,29.981c44.31,5.818,85.126-8.662,94.102-20.247
					C1206.628,1535.046,1243.007,1529.271,1243.73,1474.731z"/>
				
					<linearGradient id="SVGID_00000119799156388166785290000003903161339664169384_" gradientUnits="userSpaceOnUse" x1="532.5031" y1="2895.4236" x2="1222.8" y2="2633.804">
					<stop  offset="0" style="stop-color:#F9B776"/>
					<stop  offset="1" style="stop-color:#F47960"/>
				</linearGradient>
				<path style="fill:url(#SVGID_00000119799156388166785290000003903161339664169384_);" d="M1096.889,2661.544
					c-3.843,22.854,0.063,44.617-3.571,66.951c-1.262,7.751-5.097,16.752-12.89,17.71c-4.787,0.589-9.255-2.195-13.368-4.71
					c-53.243-32.564-119.292-36.886-181.341-30.163c-62.036,6.722-122.672,23.49-184.748,29.824
					c-17.998,1.836-37.016,2.85-54.792-1.287c-21.617-5.032-26.799-20-42.248-27.986c-16.348-8.449-8.329-14.64-26.311-10.715
					c-9.443,2.062-35.555,20.687-37.791,30.089c-4.109,17.287-3.492,16.677-15.388,33.616
					c-8.364,11.911-24.865,15.905-35.338,25.508c-25.382,23.276-24.581,57.779-20.179,89.516c1.006,7.259,8.013,16.8,13.148,11.574
					c1.934-1.968,1.899-5.061,2.014-7.818c1.196-28.764,29.807-47.457,55.126-61.158c30.846-16.689,62.942-33.752,97.941-35.968
					c29.297-1.855,58.076,6.881,86.541,14.059c113.393,28.586,232.048,30.403,346.785,54.179
					c43.924,9.102,67.602-12.052,89.033-48.823c22.571-38.727,44.188-78.006,64.89-117.759
					c-39.835-19.015-81.795-32.15-125.533-37.99C1098.206,2653.974,1097.526,2657.756,1096.889,2661.544z"/>
				
					<linearGradient id="SVGID_00000090999911927163142110000004448935052765445545_" gradientUnits="userSpaceOnUse" x1="1072.9557" y1="2589.1741" x2="1378.0313" y2="2473.5518">
					<stop  offset="0" style="stop-color:#2B3582"/>
					<stop  offset="1" style="stop-color:#150E42"/>
				</linearGradient>
				<path style="fill:url(#SVGID_00000090999911927163142110000004448935052765445545_);" d="M1297.68,2362.976
					c-30.011-11.897-65.192-17.533-96.423-7c-34.78,11.731-42.793,48.102-53.018,80.188
					c-16.463,51.667-30.477,104.113-41.984,157.104c-5.755,26.496-10.878,53.127-15.376,79.865
					c-1.492,8.875-1.811,17.584-1.861,26.229c40.663,1.669,81.746,7.921,116.919,24.033c22.661-42.529,44.271-85.615,64.73-129.244
					c18.05-38.491,35.139-77.407,51.521-116.635C1343.902,2425.543,1364.906,2389.625,1297.68,2362.976z"/>
				
					<linearGradient id="SVGID_00000106115717603643280810000015850025152412701107_" gradientUnits="userSpaceOnUse" x1="1940.5883" y1="1875.1045" x2="1040.8932" y2="1940.5363" gradientTransform="matrix(0.9973 -0.0737 0.0737 0.9973 119.499 48.0971)">
					<stop  offset="0" style="stop-color:#F9B776"/>
					<stop  offset="1" style="stop-color:#F47960"/>
				</linearGradient>
				<path style="fill:url(#SVGID_00000106115717603643280810000015850025152412701107_);" d="M1772.67,1874.871
					c66.016-17.152,127.129-69.158,165.428-125.78c4.4-6.505,9.396-13.717,17.001-15.167c7.805-1.488,15.253,3.699,21.507,8.788
					c12.137,9.876,45.101,29.896,34.858,50.589c-6.673,13.483-41.323,27.448-53.788,36.209c6.956-4.89,6.279-23.455,3.997-30.051
					c-3.529,5.793-7.006,12.806-11.985,17.834c-5.107,5.157-11.625,8.543-18.032,11.849c-14.411,7.434-23.877,16.213-36.732,25.39
					c-28.907,28.312-56.914,58.705-92.608,78.193c-30.053,16.407-63.879,24.111-97.491,30.061
					c-14.256,2.524-28.743,4.771-43.173,3.344c-13.262-1.311-26.052-5.685-38.708-10.029
					c-38.146-13.092-76.616-27.757-110.118-51.158c-15.979-11.161-30.671-24.289-43.034-39.577
					c-13.481-16.67-28.492-39.807-30.01-61.971c-1.329-19.402,5.486-45.473,28.187-31.464c49.877,30.779,92.761,71.337,147.723,91.7
					C1665.89,1882.229,1720.763,1888.357,1772.67,1874.871z"/>
				
					<linearGradient id="SVGID_00000182516877059582406290000002666349773887071371_" gradientUnits="userSpaceOnUse" x1="1006.4279" y1="2302.9895" x2="1502.8007" y2="1452.0635">
					<stop  offset="0" style="stop-color:#F9B776"/>
					<stop  offset="1" style="stop-color:#F47960"/>
				</linearGradient>
				<path style="fill:url(#SVGID_00000182516877059582406290000002666349773887071371_);" d="M1202.331,1893.45
					c-9.454,0.748-18.853,1.551-28.149,2.298c-37.211,2.993-64.348,25.515-90.229,51.12c-13.278,13.136-25.613,27.234-36.79,42.201
					c-37.704,50.49-59.732,114.599-51.281,177.043c4.308,31.83,16.184,62.084,28.397,91.792
					c7.743,18.835,15.876,37.948,29.236,53.317c15.985,18.387,38.523,30.307,53.782,49.303c2.729,3.397,5.327,7.46,4.757,11.78
					c-0.591,4.481-4.369,7.764-7.887,10.603c-13.604,10.978-27.208,21.956-40.813,32.933c-1.849,1.493-3.867,3.053-6.24,3.193
					c-3.701,0.219-6.599-3.006-8.811-5.982c-11.094-14.923-26.474-35.363-29.09-54.047c5.971-1.615,20.089,11.567,23.945,4.698
					c-21.686-47.647-64.828-82.746-87.549-129.895c-14.677-30.459-20.1-64.452-24.301-98c-4.166-33.276-7.237-67.554,1.473-99.94
					c4.245-15.786,11.193-30.705,18.61-45.271c40.543-79.621,97.919-153.003,171.091-205.06
					c53.86-38.318,111.271-60.346,176.824-62.279c26.334-0.777,53.048-1.516,78.639,4.744c24.725,6.048,42.872,16.39,65.219,28.414
					c29.235,15.73,64.091,40.415,79.695,70.153c-36.824,6.323-35.277,24.078-58.182,40.576c-10.412,7.5-23.434,10.202-36.061,12.489
					c-40.589,7.351-85.899,16.977-126.893,12.659C1269.281,1888.875,1235.467,1890.828,1202.331,1893.45z"/>
				
					<linearGradient id="SVGID_00000142165787098848841620000006680142733511488953_" gradientUnits="userSpaceOnUse" x1="1255.5699" y1="2243.616" x2="1450.0015" y2="2638.4919">
					<stop  offset="0" style="stop-color:#2B3582"/>
					<stop  offset="1" style="stop-color:#150E42"/>
				</linearGradient>
				<path style="fill:url(#SVGID_00000142165787098848841620000006680142733511488953_);" d="M1231.746,2156.682
					c-12.947,33.033-85.239,176.36-88.392,199.954c-3.152,23.594,8.452,57.557,24.837,74.826
					c12.477,13.152,122.383,44.934,165.751,30.876c32.693-10.599,85.428-175.619,78.599-239.254
					c-1.252-11.666-1.411-23.393-0.805-35.094C1348.647,2184.576,1295.309,2170.163,1231.746,2156.682z"/>
				
					<linearGradient id="SVGID_00000001663677570227316090000001726406791818264982_" gradientUnits="userSpaceOnUse" x1="1530.6294" y1="2603.5833" x2="2512.0029" y2="3847.3867">
					<stop  offset="0" style="stop-color:#F9B776"/>
					<stop  offset="1" style="stop-color:#F47960"/>
				</linearGradient>
				<path style="fill:url(#SVGID_00000001663677570227316090000001726406791818264982_);" d="M1850.302,3147.538
					c-9.802-10.912-19.601-21.821-29.403-32.734c-31.299-32.287-29.935-66.359-34.053-107.914
					c-4.613-46.531-9.723-93.011-15.328-139.433c-6.922-57.316-14.6-114.541-23.033-171.655
					c-5.162-34.962-2.44-72.078-15.768-105.488c-23.191-58.13-112.929-69.124-144.847-110.555
					c-27.691,46.952-47.022,77.22-74.334,123.268c40.631,10.457,81.734,29.906,123.452,38.937
					c-7.497,42.231-3.46,72.9,10.723,114.101c21.486,62.423,42.367,125.11,59.841,188.793c8.368,30.503,12.525,63.629,22.744,93.418
					c7.192,20.969,23.188,39.234,2.571,59.726c-5.42,5.387-12.784,9.493-10.345,20.253c0.688,3.035,2.145,5.889,4.162,8.259
					c6.338,7.448,15.692,10.375,24.068,14.788c20.665,10.89,34.955,30.52,50.64,47.831s35.536,33.696,58.891,34.207
					c20.054,0.439,59.903-4.858,64.355-28.436C1891.656,3181.189,1876.073,3178.405,1850.302,3147.538z"/>
				
					<linearGradient id="SVGID_00000104698337627833014770000016829333580364364687_" gradientUnits="userSpaceOnUse" x1="1260.5308" y1="2297.3335" x2="1890.1873" y2="3095.3667">
					<stop  offset="0" style="stop-color:#2B3582"/>
					<stop  offset="1" style="stop-color:#150E42"/>
				</linearGradient>
				<path style="fill:url(#SVGID_00000104698337627833014770000016829333580364364687_);" d="M1625.317,2505.565
					c-63.682-43.885-127.364-87.769-191.046-131.654c-61.524-42.398-126.618-85.838-205.107-78.372
					c-33.925,3.227-68.568,20.961-82.416,52.097c-13.524,30.408-4.323,67.072,14.858,94.268
					c29.63,42.007,80.492,74.336,126.876,94.836c95.112,42.036,191.731,69.015,291.556,92.016
					c18.621-39.144,41.948-76.355,69.735-108.456C1641.135,2515.523,1632.796,2510.718,1625.317,2505.565z"/>
				
					<linearGradient id="SVGID_00000070802510679814900330000018325383417346764973_" gradientUnits="userSpaceOnUse" x1="1480.1805" y1="1848.8486" x2="-972.9573" y2="3459.4932">
					<stop  offset="0" style="stop-color:#2B3582"/>
					<stop  offset="1" style="stop-color:#150E42"/>
				</linearGradient>
				<path style="fill:url(#SVGID_00000070802510679814900330000018325383417346764973_);" d="M1179.991,1751.739
					c28.401-18.074,31.809,44.199,22.341,141.71l30.271,270.898c37.383,30.991,137.871,47.07,179.133,23.643
					c19.647-117.095,83.946-271.95,71.975-307.261c-20.579-38.462-26.613-78.202-25.199-115.483
					c-11.231-14.958-46.405-25.532-80.565-37.247l-78.639-4.744C1262.815,1722.767,1229.04,1723.239,1179.991,1751.739z"/>
				<g>
					
						<linearGradient id="SVGID_00000088829101499796825960000000035301695518161323_" gradientUnits="userSpaceOnUse" x1="-1167.6012" y1="1920.6884" x2="-1202.7777" y2="1694.9731" gradientTransform="matrix(-0.9973 0.0737 0.0737 0.9973 25.4728 54.5626)">
						<stop  offset="0" style="stop-color:#F9B776"/>
						<stop  offset="1" style="stop-color:#F47960"/>
					</linearGradient>
					<path style="fill:url(#SVGID_00000088829101499796825960000000035301695518161323_);" d="M1407.438,1631.776
						c-0.791,3.559-33.697,116.411-35.612,118.364c-1.916,1.954-57.087,9.029-84.477-6.863l55.32-131.284L1407.438,1631.776z"/>
					
						<linearGradient id="SVGID_00000011740688760937038420000010847710535820790691_" gradientUnits="userSpaceOnUse" x1="-2836.5725" y1="846.3405" x2="-2599.5161" y2="1007.3598" gradientTransform="matrix(-0.9999 0.0171 0.0171 0.9999 -1388.1543 709.9029)">
						<stop  offset="0" style="stop-color:#F9B776"/>
						<stop  offset="1" style="stop-color:#F47960"/>
					</linearGradient>
					<path style="fill:url(#SVGID_00000011740688760937038420000010847710535820790691_);" d="M1383.361,1450.933
						c0,0,49.163,19.777,83.556,89.744c34.395,69.966,10.166,102.956-20.89,107.958c-31.056,5.003-77.624,5.117-127.649-39.604
						C1268.356,1564.308,1319.493,1427.586,1383.361,1450.933z"/>
					
						<linearGradient id="SVGID_00000026854184821833462010000010525754090354393514_" gradientUnits="userSpaceOnUse" x1="4704.0977" y1="682.0697" x2="4118.2842" y2="1383.9586" gradientTransform="matrix(0.9999 -0.0171 0.0171 0.9999 -3268.4204 741.7551)">
						<stop  offset="0" style="stop-color:#2B3582"/>
						<stop  offset="1" style="stop-color:#150E42"/>
					</linearGradient>
					<path style="fill:url(#SVGID_00000026854184821833462010000010525754090354393514_);" d="M1350.84,1570.809
						c0,0-38.588-102.564,52.881-105.347l21.785,14.678c0,0,11.888-43.323-43.675-69.692
						c-55.564-26.37-116.657-15.112-138.837,59.518c-22.178,74.63-7.636,122.328,31.979,157.175
						c39.614,34.849,60.039-3.745,60.039-3.745s-26.847-34.805-18.504-52.724c8.346-17.919,27.111,9.138,27.111,9.138
						L1350.84,1570.809z"/>
				</g>
			</g>
			
				<linearGradient id="SVGID_00000071536311485158636290000005744619094402295200_" gradientUnits="userSpaceOnUse" x1="1879.5243" y1="3039.6409" x2="1694.7316" y2="3443.2947">
				<stop  offset="0" style="stop-color:#5AB6FF"/>
				<stop  offset="1" style="stop-color:#2F68E3"/>
			</linearGradient>
			<path style="fill:url(#SVGID_00000071536311485158636290000005744619094402295200_);" d="M1742.825,3079.494l-21.049,26.812
				c-3.899,4.967-4.529,11.751-1.561,17.325c13.707,25.741,52.526,64.543,109.211,93.159c15.355,7.752,32.746,10.694,49.826,8.658
				c47.307-5.64,56.188-16.845,52.139-30.534l-134.165-118.168C1778.46,3086.948,1760.265,3088.759,1742.825,3079.494z"/>
			
				<linearGradient id="SVGID_00000098196121085334824710000010285758680847067799_" gradientUnits="userSpaceOnUse" x1="3644.7715" y1="-1678.6641" x2="3603.2271" y2="-1292.4551" gradientTransform="matrix(-0.1274 0.9919 -0.9761 -0.1254 -463.7035 -982.0609)">
				<stop  offset="0" style="stop-color:#2B3582"/>
				<stop  offset="1" style="stop-color:#150E42"/>
			</linearGradient>
			<path style="fill:url(#SVGID_00000098196121085334824710000010285758680847067799_);" d="M602.952,2705.948l-18.317-8.365
				c-4.911-2.243-10.683-1.648-15.003,1.59c-40.55,30.392-69.916,57.825-93.41,97.093c-10.451,17.468-19.013,48.545-18.829,68.9
				c0.189,20.807,2.997,36.801,10.089,35.599l10.489,0.934c7.189,0.64,14.094-2.956,17.692-9.211L602.952,2705.948z"/>
			
				<linearGradient id="SVGID_00000027584968538177002330000005893642973504501162_" gradientUnits="userSpaceOnUse" x1="3691.4663" y1="-1632.2454" x2="3518.0559" y2="-1253.4547" gradientTransform="matrix(-0.1274 0.9919 -0.9919 -0.1274 -475.8557 -983.4369)">
				<stop  offset="0" style="stop-color:#5AB6FF"/>
				<stop  offset="1" style="stop-color:#2F68E3"/>
			</linearGradient>
			<path style="fill:url(#SVGID_00000027584968538177002330000005893642973504501162_);" d="M626.865,2730.242l-23.912-24.293
				c-4.43-4.5-9.791-2.608-15.697-0.374c-27.277,10.316-66.256,48.594-101.86,101.171c-9.645,14.243-18.427,26.159-18.583,43.359
				c-0.432,47.64,7.459,54.736,21.552,52.463l134.001-114.214C614.637,2768.443,615.454,2746.359,626.865,2730.242z"/>
		</g>
		<g>
			<g>
				
					<linearGradient id="SVGID_00000041265583902179081380000002754947100105100472_" gradientUnits="userSpaceOnUse" x1="3121.0803" y1="2213.8994" x2="3553.3176" y2="1545.2814">
					<stop  offset="0" style="stop-color:#B37CFF"/>
					<stop  offset="1" style="stop-color:#F895E7"/>
				</linearGradient>
				<path style="fill:url(#SVGID_00000041265583902179081380000002754947100105100472_);" d="M3013.289,2358.41
					c0.493,0.377,1.211,0.922,2.083,1.569c0,0,7.167,5.314,14.396,9.618c6.633,3.949,86.851,35.787,131.311-6.24
					c12.278-11.607,18.852-28.669,32-62.794c3.089-8.017,5.472-16.337,6.083-27.251c2.628-46.923-33.24-56.212-56.614-41.817
					c-23.375,14.397-7.542,62.74-11.728,80.334c-4.186,17.593-24.46,9.107-19.218-2.78c5.241-11.889,13.058-18.195,4.338-40.909
					c-8.72-22.713-1.227-26.724,22.42-75.53c23.648-48.806-8.649-99.451-54.93-98.026c-46.28,1.421-42.257,40.877-38.191,69.045
					c4.066,28.172-1.12,39.698-27.825,62.978s-20.021,44.903-18.321,75.853c0.638,11.612-1.09,18.93-3.897,21.723
					C3000.355,2335.995,3006.445,2347.432,3013.289,2358.41z"/>
				<path style="opacity:0.62;fill:#FFFFFF;" d="M3099.608,2183.14l-0.379,1.168l-0.428,1.146l-0.861,2.293
					c-0.648,1.49-1.232,3.022-1.94,4.484c-0.695,1.471-1.386,2.947-2.163,4.371l-1.136,2.156l-1.136,2.074l-4.553,8.274
					c-6.049,11.034-11.99,22.09-17.346,33.368c-5.293,11.285-9.959,22.876-12.764,34.807c-0.707,2.977-1.292,5.975-1.681,8.983
					c-0.404,3.007-0.663,6.025-0.662,9.027c-0.01,3.001,0.164,5.993,0.617,8.934c0.49,3.32,0.669,6.677,0.639,9.948
					c-0.157,6.543-0.917,12.926-1.877,19.231c-0.98,6.301-2.099,12.54-3.318,18.742c-1.771,9.175-3.598,18.313-5.006,27.484
					c-1.212-0.265-2.422-0.532-3.631-0.802c0.976-9.24,2.445-18.396,3.816-27.514c0.928-6.242,1.93-12.452,2.685-18.66
					c0.761-6.201,1.301-12.405,1.267-18.495c-0.064-3.043-0.255-6-0.743-8.923c-0.569-3.294-0.822-6.618-0.869-9.927
					c-0.057-3.313,0.166-6.605,0.545-9.862c0.364-3.26,0.933-6.48,1.628-9.658c2.812-12.724,7.659-24.698,12.984-36.293
					c5.371-11.591,11.442-22.775,17.818-33.724c1.603-2.733,3.206-5.465,4.836-8.175l1.226-2.03l1.156-1.989
					c0.795-1.314,1.491-2.676,2.215-4.024c0.743-1.343,1.357-2.737,2.045-4.105l0.917-2.097c0.313-0.697,0.61-1.399,0.878-2.11
					c1.181-2.814,2.06-5.726,2.865-8.654c0.789-2.936,1.323-5.932,1.588-8.95c0.25-3.019,0.307-6.067-0.009-9.097
					c-0.177-1.51-0.397-3.022-0.735-4.511c-0.301-1.499-0.723-2.975-1.219-4.429c-1.004-2.892-2.344-5.751-4.18-8.218l0.51-0.498
					c1.21,1.123,2.196,2.387,3.134,3.713c0.932,1.325,1.742,2.736,2.456,4.197c1.452,2.912,2.503,6.038,3.182,9.244
					c1.365,6.425,1.226,13.138,0.063,19.586c-0.119,0.815-0.303,1.612-0.475,2.414c-0.181,0.799-0.343,1.607-0.571,2.39
					l-0.643,2.373L3099.608,2183.14z"/>
			</g>
			<g>
				
					<linearGradient id="SVGID_00000077290675427684221620000018211024725973041074_" gradientUnits="userSpaceOnUse" x1="3369.8523" y1="1642.5281" x2="2551.4382" y2="2842.4583">
					<stop  offset="0" style="stop-color:#CB236D"/>
					<stop  offset="1" style="stop-color:#4C246D"/>
				</linearGradient>
				<path style="fill:url(#SVGID_00000077290675427684221620000018211024725973041074_);" d="M3061.883,2369.814
					c0,0,44.643-56.094,37.386-109.124c-7.257-53.029-43.485-46.703-59.605-15.346c-16.12,31.359-30.612,27.054-21.034-2.427
					c9.577-29.481,21.581-48.669,1.735-78.016c-19.846-29.347-21.903-41.817-10.752-68.005
					c11.15-26.186,25.153-63.291-19.216-76.529c-44.369-13.24-88.57,27.435-78.222,80.672c10.347,53.235,16.562,59.034,2.311,78.753
					s-8.312,27.819-6.293,40.654c2.02,12.834-19.752,15.84-19.289-2.239c0.464-18.078,28.159-60.747,9.256-80.655
					c-18.903-19.906-55.953-20.122-65.441,25.908c-9.488,46.029,20.913,66.713,19.399,83.36
					c-1.513,16.649-17.841-8.595-32.062,8.375c-14.222,16.972,4.926,30.302,19.017,39.498c14.09,9.196,35.337,25.679,15.12,37.648
					c-20.217,11.969-39.359,0.514-26.974,37.473c27.531,12.771,88.643,36.189,163.491,23.232
					C3019.564,2388.05,3043.508,2378.853,3061.883,2369.814z"/>
				<path style="opacity:0.62;fill:#FFFFFF;" d="M2970.105,2058.754c-1.457,0.774-2.735,1.744-3.981,2.784
					c-1.241,1.042-2.385,2.199-3.45,3.427c-2.15,2.443-3.967,5.194-5.445,8.12c-2.966,5.861-4.553,12.385-5.081,18.915
					c-0.094,0.818-0.12,1.636-0.16,2.455c-0.03,0.819-0.081,1.641-0.061,2.458l0.013,2.458l0.119,2.449l0.067,1.225l0.12,1.218
					l0.244,2.438c0.245,1.608,0.416,3.237,0.726,4.833c0.294,1.599,0.584,3.203,0.97,4.779l0.545,2.375l0.566,2.296l2.28,9.166
					c3.019,12.215,5.927,24.425,8.213,36.698c2.223,12.265,3.762,24.666,3.416,36.917c-0.08,3.06-0.283,6.107-0.678,9.115
					c-0.38,3.009-0.904,5.993-1.673,8.895c-0.76,2.903-1.695,5.751-2.887,8.476c-1.324,3.084-2.358,6.283-3.167,9.453
					c-1.526,6.365-2.427,12.73-3.115,19.069c-0.667,6.342-1.186,12.659-1.597,18.967c-0.866,12.605-1.609,25.171-3.427,37.563
					c-0.229,1.548-0.472,3.094-0.763,4.628c-0.256,1.544-0.59,3.067-0.906,4.597c-0.292,1.537-0.714,3.034-1.065,4.557
					c-0.199,0.754-0.424,1.498-0.635,2.248c-0.217,0.749-0.416,1.504-0.68,2.235l-0.748,2.212c-0.251,0.738-0.568,1.446-0.849,2.171
					c-0.542,1.464-1.253,2.841-1.902,4.259c-1.449,2.747-3.15,5.368-5.225,7.708l0.506,0.5c2.302-2.226,4.26-4.788,5.969-7.508
					c1.629-2.761,3.052-5.651,4.205-8.638c2.378-5.957,3.943-12.177,5.227-18.414c2.565-12.494,3.782-25.149,5.165-37.688
					c0.703-6.27,1.326-12.53,2.188-18.724c0.854-6.189,1.923-12.324,3.517-18.201c0.842-2.924,1.784-5.734,3.005-8.433
					c1.395-3.038,2.491-6.188,3.385-9.374c0.904-3.187,1.533-6.427,2.001-9.671c0.484-3.245,0.759-6.502,0.902-9.752
					c0.544-13.02-1.073-25.837-3.247-38.41c-2.22-12.58-5.222-24.945-8.578-37.164c-0.848-3.052-1.698-6.103-2.579-9.142
					l-0.664-2.277l-0.607-2.218c-0.432-1.475-0.756-2.969-1.11-4.459c-0.375-1.487-0.61-2.993-0.925-4.492l-0.349-2.26
					c-0.123-0.754-0.231-1.509-0.308-2.265c-0.42-3.025-0.523-6.063-0.551-9.1c-0.01-3.038,0.241-6.072,0.759-9.058
					c0.532-2.982,1.259-5.942,2.341-8.79c0.558-1.414,1.159-2.819,1.867-4.171c0.675-1.373,1.462-2.69,2.313-3.969
					c1.712-2.537,3.74-4.958,6.146-6.872L2970.105,2058.754z"/>
				<path style="opacity:0.62;fill:#FFFFFF;" d="M3065.144,2248.768c-1.331,9.927-3.224,19.77-5.536,29.478
					c-1.163,4.854-2.444,9.676-3.862,14.451c-0.336,1.2-0.735,2.38-1.1,3.57c-0.361,1.191-0.759,2.371-1.153,3.551
					c-0.754,2.373-1.606,4.709-2.436,7.052c-0.893,2.32-1.76,4.649-2.736,6.933c-0.903,2.315-1.939,4.571-2.939,6.843
					c-2.1,4.496-4.317,8.934-6.781,13.24c-2.454,4.31-5.168,8.463-8.056,12.508c-2.948,4.001-6.156,7.806-9.553,11.498l0.481,0.525
					c3.933-3.173,7.553-6.75,10.89-10.582c3.278-3.879,6.275-7.998,9.015-12.282c2.644-4.338,5.139-8.775,7.292-13.376
					c1.047-2.311,2.131-4.609,3.078-6.961c0.985-2.339,1.844-4.724,2.737-7.096c0.827-2.395,1.675-4.782,2.422-7.201
					c0.394-1.203,0.751-2.417,1.093-3.636c0.341-1.219,0.715-2.427,1.026-3.653c1.348-4.877,2.456-9.813,3.413-14.772
					c1.879-9.923,3.194-19.95,3.417-30.046L3065.144,2248.768z"/>
			</g>
		</g>
	</g>
</g>
</svg>
