<?xml version="1.0" encoding="utf-8"?>
<!-- Generator: Adobe Illustrator 27.5.0, SVG Export Plug-In . SVG Version: 6.00 Build 0)  -->
<svg version="1.1" xmlns="http://www.w3.org/2000/svg" xmlns:xlink="http://www.w3.org/1999/xlink" x="0px" y="0px"
	 viewBox="0 0 3710 3710" style="enable-background:new 0 0 3710 3710;" xml:space="preserve">
<g id="Background">
	<g>
		<g>
			<rect style="fill:#FFFFFF;" width="3710" height="3710"/>
		</g>
	</g>
</g>
<g id="Illustration">
	<g>
		<linearGradient id="SVGID_1_" gradientUnits="userSpaceOnUse" x1="3593.5464" y1="4065.8464" x2="1126.6346" y2="1002.0969">
			<stop  offset="0" style="stop-color:#DAE3FE"/>
			<stop  offset="1" style="stop-color:#E9EFFD"/>
		</linearGradient>
		<path style="fill:url(#SVGID_1_);" d="M2914.883,2857.614c-56.664,59.653-110.279,98.123-152.639,128.517
			c-497.935,357.274-1087.124,253.13-1212.343,227.697c-184.91-37.556-542.336-110.151-800.748-414.039
			c-390.957-459.757-330.079-1184.092-26.826-1662.236c55.47-87.461,348.477-572.887,944.011-650.734
			c360.411-47.112,780.535,47.908,1084.777,302.802C3389.746,1324.668,3344.283,2405.556,2914.883,2857.614z"/>
		
			<linearGradient id="SVGID_00000060718460176856749970000006635392602363709102_" gradientUnits="userSpaceOnUse" x1="1991.6832" y1="204.4677" x2="741.6938" y2="3201.696">
			<stop  offset="0" style="stop-color:#E1473D"/>
			<stop  offset="1" style="stop-color:#E9605A"/>
		</linearGradient>
		<path style="fill:url(#SVGID_00000060718460176856749970000006635392602363709102_);" d="M1660.418,1930.707
			c-19.909-0.942-828.688,375.836-864.78,759.824c0,0-245.134-244.45,33.589-529.982
			c278.723-285.533,797.574-524.329,797.574-524.329L1660.418,1930.707z"/>
		<g>
			<path style="fill:#91B3FA;" d="M1396.726,2796.563c3.358,1.489,22.82,10.112,42.918,2.957
				c120.949-43.053-126.39-518.221,42.947-1000.655c69.02-196.636,177.572-309.89,154.313-514.745
				c-4.223-37.196-18.529-151.649-95.488-263.655c-48.411-70.458-85.381-87.215-150.766-148.375
				c-205.348-192.082-190.215-353.751-283.685-363.73c-104.332-11.139-261.757,175.487-249.748,346.355
				c13.219,188.095,223.523,239.937,209.808,402.589c-10.669,126.521-140.775,129.081-171.202,280.881
				c-40.39,201.505,149.438,393.7,173.647,417.582c107.984,106.529,148.767,64.561,218.417,145.004
				C1477.175,2319.388,1273.469,2741.954,1396.726,2796.563z"/>
			
				<linearGradient id="SVGID_00000041265015522842283120000003933774793400791699_" gradientUnits="userSpaceOnUse" x1="1206.5865" y1="1531.0385" x2="1759.333" y2="1531.0385" gradientTransform="matrix(0.985 0.1728 -0.1728 0.985 87.9347 59.6387)">
				<stop  offset="0" style="stop-color:#41A362"/>
				<stop  offset="1" style="stop-color:#204F2E"/>
			</linearGradient>
			<path style="fill:url(#SVGID_00000041265015522842283120000003933774793400791699_);" d="M1163.701,923.453
				c15.733,11.927,30.631,24.725,44.917,38.271c14.332,13.481,28.135,27.559,41.286,42.25
				c13.174,14.668,25.915,29.774,37.937,45.473c11.879,15.794,23.56,31.806,34.271,48.502c5.553,8.223,10.397,16.894,15.632,25.334
				c4.793,8.697,9.921,17.224,14.434,26.09c4.592,8.825,9.227,17.64,13.358,26.714c2.1,4.519,4.326,8.984,6.322,13.554l5.8,13.801
				c4.014,9.143,7.146,18.65,10.707,27.99c3.383,9.407,6.225,19.015,9.357,28.524c2.581,9.678,5.436,19.294,7.765,29.048
				l3.277,14.693c1.131,4.891,2.206,9.797,2.909,14.777c6.94,39.571,9.517,80.008,7.359,120.228l-0.82,15.087l-1.236,14.567
				l-2.487,29.116c-1.718,19.408-3.096,38.832-4.66,58.249c-5.978,77.678-10.525,155.433-13.751,233.199
				c-6.241,155.586-6.201,311.149,9.6,466.123c6.811,78.281,8.78,156.605,8.703,234.834c-0.172,78.232-2.647,156.382-7.631,234.404
				l-4.5-0.191c0.704-78.022-0.496-156.071-3.037-233.965c-1.434-38.942-3.23-77.862-5.813-116.688
				c-2.535-38.825-5.621-77.605-10.176-116.13c-9.907-77.455-15.49-156.159-18.288-234.421
				c-2.411-78.384-1.823-156.776,0.388-235.056c2.193-78.293,6.97-156.438,12.49-234.478c1.49-19.501,2.795-39.024,4.438-58.507
				l2.377-29.238l1.183-14.61l0.881-14.143c2.353-37.711,0.277-75.693-5.936-113.065c-1.309-9.381-3.503-18.623-5.203-27.956
				c-1.957-9.28-4.435-18.458-6.626-27.703c-2.749-9.1-5.194-18.298-8.182-27.337c-3.167-8.979-5.891-18.122-9.507-26.954
				c-13.422-35.698-29.669-70.543-49.079-103.719c-9.382-16.782-19.779-33.002-30.414-49.087
				c-10.889-15.911-22.091-31.657-33.878-47.004c-23.778-30.469-49.1-60.128-77.021-87.09L1163.701,923.453z"/>
		</g>
		<g>
			<path style="fill:#7D97F4;" d="M1457.985,3001.921c16.295,8.556,42.305,11.387,58.493-0.48
				c62.475-45.797-98.116-254.232-143.282-549.452c-52.295-341.819,95.201-505.495-38.217-666.241
				c-64.164-77.307-119.216-64.677-178.717-162.102c-82.86-135.672-16.789-226.788-82.918-332.712
				c-76.055-121.821-281.662-190.651-421.647-122.307c-188.242,91.903-207.302,407.191-106.739,570.517
				c65.32,106.086,189.574,161.807,175.029,191.792c-13.883,28.618-122.209-32.161-183.189,15.12
				c-79.855,61.915-60.786,295.398,56.929,376.977c108.357,75.093,289.207,13.791,297.761,50.471
				c3.365,14.431-24.614,23.98-25.674,42.245c-1.892,32.594,82.776,78.469,387.86,143.799
				c82.635,52.729,119.995,109.606,138.784,152.62C1447.892,2839.073,1395.826,2969.282,1457.985,3001.921z"/>
			<path style="fill:#91B3FA;" d="M814.206,1417.045c2.155,71.33,11.052,142.078,28.31,210.596
				c17.133,68.566,42.682,134.414,76.228,196.084c16.868,30.807,35.36,60.787,54.905,90.206
				c10.073,14.569,19.869,29.254,30.304,43.651c10.177,14.517,20.509,29.012,30.92,43.46l62.701,87l15.56,21.927l15.222,22.21
				c10.233,14.741,20.09,29.774,30.027,44.745c19.868,29.936,38.925,60.408,57.645,91.074c9.219,15.417,18.539,30.773,27.325,46.443
				l13.359,23.395l13.023,23.584l12.963,23.615l12.563,23.832l12.533,23.843l12.09,24.077l11.947,24.145l11.452,24.39
				c7.626,16.261,15.337,32.475,22.413,48.994l10.846,24.66l5.421,12.325l5.109,12.468c6.656,16.69,13.501,33.29,19.989,50.034
				l18.631,50.55c6.101,16.884,11.418,34.062,17.034,51.105c21.611,68.467,39.28,138.225,50.57,208.966l-3.892,0.769
				c-17.311-69.298-38.875-137.192-63.864-203.765l-9.641-24.865c-3.259-8.268-6.124-16.674-9.689-24.826l-20.579-49.179
				c-14.526-32.447-29.006-64.881-44.559-96.833c-7.495-16.102-15.627-31.907-23.666-47.746l-12.066-23.753l-12.558-23.505
				l-12.415-23.572l-12.84-23.347l-12.865-23.33l-13.259-23.112c-35.555-61.511-72.614-122.142-112.116-181.165
				c-39.51-59.005-81.002-116.725-122.458-175.13c-10.333-14.633-20.71-29.24-30.804-44.136
				c-10.195-14.77-19.885-30.032-29.779-45.079c-19.234-30.576-37.769-61.754-54.193-94.178c-4.059-8.124-7.774-16.438-11.67-24.643
				l-5.751-12.352l-5.213-12.608c-3.407-8.43-7.088-16.74-10.257-25.256l-9.165-25.671c-3.258-8.481-5.578-17.276-8.177-25.97
				l-3.826-13.057c-1.288-4.346-2.592-8.686-3.56-13.118c-4.139-17.647-8.716-35.161-12.022-52.942
				c-13.376-71.06-17.703-143.605-12.172-215.101L814.206,1417.045z"/>
		</g>
		
			<linearGradient id="SVGID_00000097464671596188382550000002548561672687620486_" gradientUnits="userSpaceOnUse" x1="2711.5735" y1="1851.188" x2="3062.8625" y2="1260.7238">
			<stop  offset="0" style="stop-color:#E1473D"/>
			<stop  offset="1" style="stop-color:#E9605A"/>
		</linearGradient>
		<path style="fill:url(#SVGID_00000097464671596188382550000002548561672687620486_);" d="M2769.513,1489.327l18.706,143.992
			c2.616,20.139-12.02,90.768,7.496,96.388c48.914,14.085,170.667-27.619,225.617-113.353
			c55.946-87.286,52.583-332.658-64.239-346.846c-41.462-5.036,15.649,102.058-154.931,165.333
			C2779.915,1443.093,2766.456,1465.797,2769.513,1489.327z"/>
		<g>
			
				<linearGradient id="SVGID_00000106131522848894772900000012050625076647623076_" gradientUnits="userSpaceOnUse" x1="2817.4419" y1="543.913" x2="634.0003" y2="3411.8027" gradientTransform="matrix(1 -0.0039 0.0039 1 43.9036 297.2809)">
				<stop  offset="0" style="stop-color:#09005D"/>
				<stop  offset="1" style="stop-color:#1A0F91"/>
			</linearGradient>
			<path style="fill:url(#SVGID_00000106131522848894772900000012050625076647623076_);" d="M1297.348,794.132l1377.432-5.382
				c75.992-0.297,138.886,59.01,143.046,134.889l109.477,1996.622c3.256,59.377-43.299,109.655-102.751,110.969l-1578.598,34.862
				c-55.864,1.233-101.875-43.597-102.093-99.474l-7.854-2009.879C1135.658,867.282,1207.892,794.481,1297.348,794.132z"/>
			<path style="fill:#91B3FA;" d="M1476.539,3030.787c-0.01,0-0.019,0-0.019,0l-176.67-1.596
				c-58.825-0.53-106.866-48.82-107.096-107.645l-1.04-266.706c-0.006-1.833,1.471-3.325,3.305-3.331h0.013
				c1.828,0,3.312,1.478,3.318,3.305l1.04,266.706c0.214,55.214,45.309,100.537,100.518,101.035l176.66,1.596
				c1.834,0.016,3.305,1.515,3.289,3.349C1479.841,3029.321,1478.357,3030.787,1476.539,3030.787z"/>
			<path style="fill:#FFFFFF;" d="M1194.708,2575.529c-1.828,0-3.312-1.478-3.318-3.305l-0.168-43.19
				c-0.006-1.832,1.471-3.324,3.305-3.331c0.003,0,0.01,0,0.013,0c1.828,0,3.312,1.478,3.318,3.305l0.168,43.19
				c0.006,1.833-1.471,3.325-3.305,3.331C1194.718,2575.529,1194.711,2575.529,1194.708,2575.529z"/>
			<g>
				<path style="fill:#91B3FA;" d="M1301.521,777.927c188.201,24.773,835.338,101.138,1369.969,57.995
					c24.381-1.967,45.618,16.428,47.012,40.849l114.449,2005.504c1.57,27.499-19.341,51.101-46.83,52.835
					c-224.871,14.189-1150.973,69.264-1481.507,35.949c-20.117-2.027-35.447-18.898-35.645-39.116l-20.627-2106.883
					C1248.061,796.442,1273.145,774.192,1301.521,777.927z"/>
				<path style="opacity:0.6;fill:#FFFFFF;" d="M1321.872,829.882c181.114,23.841,803.883,97.33,1318.382,55.812
					c23.463-1.893,43.901,15.81,45.242,39.311l110.139,1929.986c1.51,26.463-18.613,49.176-45.067,50.846
					c-216.403,13.655-1107.633,66.656-1425.72,34.595c-19.359-1.951-34.112-18.186-34.302-37.643l-19.851-2027.547
					C1270.425,847.7,1294.564,826.288,1321.872,829.882z"/>
				<g style="opacity:0.6;">
					<path style="fill:#FFFFFF;" d="M2584.4,1267.988c7.3-0.028,12.856-6.01,12.347-13.293l-0.089-1.278
						c-0.51-7.282-6.899-13.265-14.199-13.294l-1169.606-4.648c-7.3-0.029-9.534,4.605-4.965,10.298l13.145,16.376
						c4.57,5.693,14.281,10.328,21.581,10.299L2584.4,1267.988z"/>
				</g>
				<g style="opacity:0.6;">
					<path style="fill:#FFFFFF;" d="M1413.153,1312.627c-7.3-0.029-9.534,4.605-4.965,10.298l13.145,16.377
						c4.57,5.693,14.281,10.328,21.581,10.299l1141.787-4.462c7.3-0.029,12.856-6.01,12.347-13.293l-0.09-1.279
						c-0.51-7.282-6.899-13.265-14.199-13.293L1413.153,1312.627z"/>
				</g>
				<g>
					<path style="fill:#FFFFFF;" d="M1496.925,1519.988c-0.026,0-0.055,0-0.081,0l-44.023-0.25
						c-7.119-0.041-13.017-4.973-13.724-11.471l-4.015-36.919c-0.285-2.61,0.512-5.188,2.239-7.26
						c1.896-2.275,4.76-3.707,7.858-3.932l0,0c3.707-0.267,8.808-0.723,14.42-1.223c12.275-1.094,26.19-2.333,34.401-2.468
						c6.64-0.029,12.35,3.911,13.957,9.772c2.385,8.673,2.249,24.856,1.88,42.085
						C1509.696,1514.771,1503.912,1519.988,1496.925,1519.988z M1445.66,1466.775c-1.309,0.094-2.492,0.664-3.24,1.562
						c-0.399,0.478-0.849,1.265-0.739,2.294l4.015,36.919c0.337,3.092,3.484,5.53,7.165,5.551l44.022,0.25c0.013,0,0.029,0,0.042,0
						c3.403,0,6.215-2.314,6.277-5.175c0.272-12.632,0.684-31.723-1.64-40.182c-0.797-2.894-3.921-5.081-7.45-4.893
						c-7.975,0.13-22.36,1.411-33.922,2.442C1454.536,1466.046,1449.393,1466.505,1445.66,1466.775L1445.66,1466.775z"/>
					<g style="opacity:0.6;">
						<path style="fill:#FFFFFF;" d="M1545.128,1479.902c-7.3,0.007-11.948,4.957-10.329,11s8.916,10.902,16.215,10.797
							l387.141-5.564c7.299-0.105,13.176-3.885,13.06-8.401c-0.116-4.516-6.185-8.205-13.485-8.198L1545.128,1479.902z"/>
					</g>
					
						<linearGradient id="SVGID_00000012468183485478900860000018013760700096312218_" gradientUnits="userSpaceOnUse" x1="1532.9287" y1="1000.3892" x2="1308.1436" y2="1384.0446" gradientTransform="matrix(1 -0.0039 0.0039 1 43.9036 297.2809)">
						<stop  offset="0" style="stop-color:#FF928E"/>
						<stop  offset="1" style="stop-color:#FE7062"/>
					</linearGradient>
					<path style="fill:url(#SVGID_00000012468183485478900860000018013760700096312218_);" d="M1452.189,1474.729L1452.189,1474.729
						c3.26-1.931,7.471-0.802,9.33,2.5l8.744,15.531c0.875,1.555,3.148,1.447,3.873-0.183l21.348-48.029
						c1.065-2.396,4.63-1.601,4.601,1.021c-0.163,14.667-3.945,42.558-27.286,65.984c0,0-12.933-4.969-23.422-27.764
						C1447.862,1480.495,1449.07,1476.576,1452.189,1474.729z"/>
					<path style="fill:#FFFFFF;" d="M1497.295,1614.336c-0.026,0-0.055,0-0.081,0l-44.022-0.251
						c-7.12-0.041-13.017-4.971-13.724-11.47l-4.015-36.919c-0.285-2.61,0.512-5.191,2.242-7.264
						c1.896-2.273,4.76-3.706,7.855-3.929l0,0c3.707-0.267,8.808-0.723,14.42-1.223c12.275-1.094,26.19-2.333,34.401-2.468
						c6.756-0.117,12.346,3.91,13.957,9.772c2.388,8.696,2.249,24.869,1.876,42.085
						C1510.066,1609.117,1504.285,1614.336,1497.295,1614.336z M1494.625,1557.447c-0.049,0-0.094,0-0.143,0.002
						c-7.975,0.13-22.36,1.411-33.922,2.442c-5.655,0.504-10.797,0.962-14.531,1.233l0,0c-1.309,0.094-2.492,0.663-3.24,1.56
						c-0.399,0.479-0.852,1.266-0.739,2.296l4.015,36.919c0.337,3.091,3.484,5.528,7.165,5.549l44.022,0.251
						c0.013,0,0.029,0,0.042,0c3.402,0,6.212-2.312,6.274-5.173c0.275-12.625,0.69-31.704-1.637-40.186
						C1501.148,1559.488,1498.089,1557.447,1494.625,1557.447z"/>
					<path style="opacity:0.6;fill:#FFFFFF;" d="M1450.661,1563.292c9.245-0.668,29.336-2.787,38.869-2.943
						c4.039-0.066,7.591,2.36,8.552,5.859c1.866,6.796,1.676,20.356,1.405,32.872c-0.081,3.749-3.512,6.754-7.715,6.73l-35.179-0.2
						c-4.326-0.025-7.93-2.961-8.347-6.801l-3.208-29.503C1444.706,1566.254,1447.234,1563.54,1450.661,1563.292z"/>
					<g style="opacity:0.6;">
						<path style="fill:#FFFFFF;" d="M1545.497,1574.25c-7.3,0.007-11.948,4.957-10.329,11s8.916,10.902,16.216,10.797
							l387.141-5.564c7.299-0.105,13.177-3.885,13.06-8.401c-0.116-4.516-6.185-8.205-13.485-8.198L1545.497,1574.25z"/>
					</g>
					<path style="fill:#FFFFFF;" d="M1497.664,1708.683c-0.026,0-0.055,0-0.081,0l-44.023-0.251
						c-7.119-0.041-13.017-4.971-13.724-11.47l-4.015-36.919c-0.285-2.612,0.512-5.191,2.242-7.264
						c1.896-2.273,4.757-3.706,7.852-3.929c3.707-0.267,8.814-0.723,14.433-1.223c12.272-1.094,26.18-2.333,34.392-2.469
						c0.088-0.002,0.175-0.002,0.259-0.002c6.494,0,12.107,3.989,13.698,9.772c2.388,8.699,2.249,24.871,1.876,42.086
						C1510.435,1703.464,1504.654,1708.683,1497.664,1708.683z M1446.396,1655.471c-1.309,0.094-2.489,0.663-3.237,1.56
						c-0.399,0.478-0.852,1.265-0.739,2.296l4.015,36.919c0.34,3.142,3.422,5.528,7.165,5.549l44.022,0.251c0.013,0,0.029,0,0.042,0
						c3.403,0,6.212-2.314,6.274-5.175c0.276-12.625,0.69-31.702-1.636-40.184c-0.8-2.892-3.882-5.06-7.45-4.893
						c-7.972,0.131-22.356,1.413-33.912,2.443C1455.278,1654.742,1450.132,1655.2,1446.396,1655.471L1446.396,1655.471z"/>
					<path style="opacity:0.6;fill:#FFFFFF;" d="M1451.029,1657.64c9.245-0.668,29.337-2.787,38.869-2.943
						c4.04-0.066,7.591,2.36,8.552,5.859c1.866,6.795,1.676,20.356,1.405,32.872c-0.081,3.748-3.512,6.754-7.715,6.73l-35.179-0.2
						c-4.326-0.025-7.929-2.96-8.347-6.8l-3.208-29.504C1445.074,1660.601,1447.602,1657.887,1451.029,1657.64z"/>
					<g style="opacity:0.6;">
						<path style="fill:#FFFFFF;" d="M1545.865,1668.598c-7.3,0.007-11.948,4.957-10.329,11s8.916,10.902,16.216,10.797
							l387.14-5.564c7.3-0.105,13.177-3.885,13.06-8.401c-0.116-4.516-6.185-8.205-13.485-8.198L1545.865,1668.598z"/>
					</g>
					<path style="fill:#FFFFFF;" d="M1498.03,1803.031c-0.026,0-0.052,0-0.078,0l-44.022-0.251
						c-7.116-0.041-13.017-4.971-13.727-11.468l-4.012-36.921c-0.285-2.607,0.509-5.186,2.236-7.26
						c1.899-2.275,4.764-3.709,7.858-3.932c3.697-0.267,8.788-0.721,14.388-1.22c12.288-1.095,26.216-2.336,34.437-2.473
						c6.685-0.168,12.343,3.913,13.954,9.773c2.385,8.673,2.249,24.855,1.88,42.083
						C1510.804,1797.811,1505.02,1803.031,1498.03,1803.031z M1495.36,1746.141c-0.045,0-0.094,0-0.143,0.002
						c-7.978,0.131-22.382,1.414-33.957,2.447c-5.642,0.502-10.768,0.959-14.495,1.23l0,0c-1.309,0.094-2.489,0.663-3.237,1.562
						c-0.399,0.478-0.852,1.264-0.739,2.291l4.012,36.922c0.344,3.142,3.425,5.528,7.168,5.549l44.023,0.251
						c0.013,0,0.026,0,0.042,0c3.403,0,6.212-2.314,6.274-5.175c0.272-12.633,0.684-31.723-1.64-40.182
						C1501.883,1748.182,1498.824,1746.141,1495.36,1746.141z"/>
					<path style="opacity:0.6;fill:#FFFFFF;" d="M1451.398,1751.987c9.245-0.668,29.337-2.787,38.869-2.943
						c4.039-0.066,7.591,2.361,8.552,5.859c1.867,6.795,1.676,20.356,1.405,32.872c-0.081,3.748-3.512,6.754-7.715,6.73l-35.179-0.2
						c-4.326-0.025-7.929-2.96-8.347-6.801l-3.208-29.503C1445.443,1754.949,1447.971,1752.235,1451.398,1751.987z"/>
					<g style="opacity:0.6;">
						<path style="fill:#FFFFFF;" d="M1546.234,1762.945c-7.3,0.007-11.948,4.957-10.329,11c1.619,6.043,8.916,10.902,16.216,10.797
							l387.141-5.563c7.299-0.105,13.177-3.885,13.06-8.401c-0.116-4.516-6.185-8.205-13.485-8.198L1546.234,1762.945z"/>
					</g>
				</g>
				<g>
					<path style="fill:#FFFFFF;" d="M2132.706,1506.874c-0.026,0-0.052,0-0.078,0l-44.022-0.251
						c-7.119-0.041-13.017-4.971-13.724-11.47l-4.015-36.919c-0.285-2.612,0.512-5.191,2.242-7.264
						c1.896-2.273,4.757-3.705,7.852-3.929c3.701-0.267,8.792-0.721,14.394-1.222c12.285-1.095,26.209-2.336,34.431-2.471
						c6.649-0.083,12.35,3.91,13.957,9.772c2.388,8.698,2.249,24.869,1.876,42.085
						C2145.48,1501.653,2139.696,1506.874,2132.706,1506.874z M2130.039,1449.983c-0.049,0-0.094,0-0.143,0.002
						c-7.981,0.13-22.382,1.413-33.951,2.445c-5.645,0.504-10.778,0.961-14.504,1.231l0,0c-1.309,0.094-2.489,0.663-3.237,1.56
						c-0.399,0.478-0.852,1.265-0.739,2.296l4.015,36.919c0.34,3.142,3.422,5.528,7.165,5.549l44.023,0.251c0.013,0,0.026,0,0.042,0
						c3.403,0,6.212-2.314,6.274-5.175c0.275-12.625,0.69-31.702-1.64-40.186
						C2136.562,1452.024,2133.503,1449.983,2130.039,1449.983z"/>
					<g style="opacity:0.6;">
						<path style="fill:#FFFFFF;" d="M2180.91,1466.787c-7.3,0.007-11.948,4.957-10.329,11s8.916,10.902,16.216,10.797l387.14-5.563
							c7.299-0.105,13.177-3.885,13.06-8.401c-0.116-4.516-6.185-8.205-13.485-8.198L2180.91,1466.787z"/>
					</g>
					<path style="fill:#FFFFFF;" d="M2133.079,1601.22c-0.026,0-0.055,0-0.081,0l-44.022-0.25
						c-7.116-0.041-13.017-4.971-13.727-11.468l-4.012-36.923c-0.285-2.61,0.512-5.19,2.239-7.262
						c1.896-2.273,4.76-3.706,7.855-3.931l0,0c3.704-0.267,8.808-0.723,14.42-1.222c12.278-1.095,26.19-2.335,34.405-2.469
						c6.556-0.172,12.346,3.908,13.954,9.772c2.385,8.673,2.249,24.856,1.88,42.085
						C2145.849,1596.001,2140.068,1601.22,2133.079,1601.22z M2081.81,1548.007c-1.309,0.094-2.489,0.664-3.237,1.562
						c-0.399,0.478-0.849,1.264-0.739,2.294l4.012,36.921c0.344,3.142,3.425,5.528,7.168,5.549l44.022,0.25c0.013,0,0.029,0,0.042,0
						c3.402,0,6.212-2.312,6.273-5.173c0.272-12.633,0.684-31.725-1.64-40.184c-0.794-2.894-4.073-4.989-7.447-4.893
						c-7.975,0.13-22.363,1.411-33.925,2.442C2090.686,1547.278,2085.543,1547.736,2081.81,1548.007L2081.81,1548.007z"/>
					<g style="opacity:0.6;">
						<path style="fill:#FFFFFF;" d="M2181.279,1561.134c-7.3,0.007-11.948,4.957-10.329,11c1.619,6.043,8.916,10.902,16.216,10.797
							l387.141-5.564c7.299-0.105,13.177-3.885,13.06-8.401c-0.116-4.516-6.185-8.204-13.485-8.198L2181.279,1561.134z"/>
					</g>
					<path style="fill:#FFFFFF;" d="M2133.448,1695.567c-0.026,0-0.055,0-0.081,0l-44.026-0.25
						c-7.113-0.041-13.014-4.971-13.724-11.47l-4.015-36.921c-0.285-2.61,0.512-5.19,2.242-7.262
						c1.896-2.275,4.76-3.707,7.855-3.931c3.704-0.267,8.808-0.723,14.42-1.222c12.278-1.095,26.19-2.335,34.405-2.469
						c0.087-0.002,0.175-0.002,0.262-0.002c6.494,0,12.104,3.989,13.691,9.773c2.385,8.673,2.249,24.857,1.88,42.085
						C2146.219,1690.349,2140.438,1695.567,2133.448,1695.567z M2082.18,1642.355c-1.309,0.094-2.489,0.663-3.24,1.562
						c-0.399,0.478-0.849,1.265-0.739,2.294l4.015,36.919c0.344,3.142,3.422,5.53,7.165,5.551l44.026,0.25c0.013,0,0.029,0,0.042,0
						c3.402,0,6.212-2.312,6.273-5.173c0.272-12.633,0.684-31.725-1.64-40.184c-0.797-2.894-3.976-5.049-7.447-4.893
						c-7.975,0.13-22.363,1.411-33.925,2.442C2091.052,1641.627,2085.913,1642.084,2082.18,1642.355L2082.18,1642.355z"/>
					<g style="opacity:0.6;">
						<path style="fill:#FFFFFF;" d="M2181.648,1655.482c-7.3,0.007-11.948,4.957-10.329,11s8.916,10.902,16.216,10.797
							l387.141-5.564c7.299-0.105,13.177-3.885,13.06-8.401c-0.116-4.516-6.185-8.205-13.485-8.198L2181.648,1655.482z"/>
					</g>
					<path style="fill:#FFFFFF;" d="M2133.811,1789.915c-0.026,0-0.052,0-0.078,0l-44.022-0.251
						c-7.12-0.04-13.017-4.971-13.724-11.47l-4.015-36.919c-0.285-2.61,0.512-5.191,2.242-7.264c1.896-2.273,4.76-3.706,7.855-3.929
						l0,0c3.707-0.267,8.818-0.723,14.433-1.223c12.272-1.094,26.177-2.333,34.388-2.469c6.588-0.096,12.35,3.915,13.957,9.773
						c2.385,8.673,2.249,24.855,1.88,42.083C2146.585,1784.696,2140.797,1789.915,2133.811,1789.915z M2131.141,1733.025
						c-0.049,0-0.094,0-0.143,0.002c-7.969,0.131-22.35,1.413-33.906,2.443c-5.661,0.504-10.807,0.963-14.543,1.233l0,0
						c-1.309,0.094-2.492,0.663-3.24,1.56c-0.399,0.48-0.852,1.265-0.739,2.296l4.015,36.919c0.337,3.091,3.483,5.528,7.165,5.549
						l44.022,0.251c0.013,0,0.026,0,0.042,0c3.402,0,6.215-2.315,6.277-5.177c0.272-12.631,0.684-31.721-1.64-40.181
						C2137.667,1735.066,2134.605,1733.025,2131.141,1733.025z"/>
					<g style="opacity:0.6;">
						<path style="fill:#FFFFFF;" d="M2182.017,1749.83c-7.3,0.007-11.948,4.957-10.329,11s8.916,10.902,16.216,10.797l387.14-5.564
							c7.3-0.105,13.177-3.885,13.06-8.401c-0.116-4.516-6.185-8.204-13.485-8.198L2182.017,1749.83z"/>
					</g>
				</g>
				<g>
					<path style="fill:#FFFFFF;" d="M1513.173,1977.998c-0.026,0-0.052,0-0.078,0l-44.022-0.251
						c-7.113-0.041-13.014-4.971-13.724-11.468l-4.012-36.921c-0.285-2.607,0.509-5.186,2.236-7.26
						c1.899-2.275,4.764-3.709,7.858-3.932c3.697-0.267,8.788-0.721,14.388-1.22c12.288-1.095,26.216-2.336,34.437-2.473
						c0.088-0.002,0.175-0.002,0.259-0.002c6.497,0,12.107,3.989,13.694,9.773c2.385,8.675,2.249,24.858,1.879,42.085
						C1525.947,1972.779,1520.16,1977.998,1513.173,1977.998z M1510.51,1921.108c-0.049,0-0.094,0-0.143,0.002
						c-7.981,0.131-22.385,1.415-33.961,2.447c-5.642,0.502-10.768,0.959-14.495,1.23l0,0c-1.309,0.094-2.489,0.663-3.237,1.562
						c-0.399,0.478-0.852,1.264-0.739,2.291l4.012,36.923c0.343,3.142,3.422,5.528,7.165,5.549l44.022,0.251
						c0.013,0,0.026,0,0.042,0c3.402,0,6.215-2.315,6.277-5.177c0.272-12.632,0.684-31.721-1.64-40.182
						C1517.029,1923.149,1513.97,1921.108,1510.51,1921.108z"/>
					<g style="opacity:0.6;">
						<path style="fill:#FFFFFF;" d="M1561.38,1937.912c-7.3,0.007-11.948,4.957-10.329,11s8.916,10.902,16.216,10.797
							l387.141-5.564c7.299-0.105,13.177-3.885,13.06-8.401s-6.184-8.205-13.485-8.198L1561.38,1937.912z"/>
					</g>
					<path style="fill:#FFFFFF;" d="M1513.543,2072.346c-0.026,0-0.052,0-0.078,0l-44.022-0.251
						c-7.119-0.041-13.017-4.971-13.724-11.47l-4.015-36.919c-0.285-2.61,0.512-5.19,2.239-7.262
						c1.899-2.275,4.76-3.707,7.858-3.932l0,0c3.707-0.267,8.811-0.723,14.424-1.222c12.275-1.094,26.187-2.333,34.398-2.469
						c0.088-0.002,0.175-0.002,0.259-0.002c6.5,0,12.11,3.989,13.698,9.773c2.388,8.686,2.249,24.863,1.876,42.085
						C1526.317,2067.125,1520.532,2072.346,1513.543,2072.346z M1462.281,2019.132c-1.309,0.094-2.492,0.664-3.24,1.562
						c-0.399,0.48-0.852,1.266-0.739,2.296l4.015,36.919c0.337,3.092,3.484,5.528,7.165,5.549l44.022,0.251c0.013,0,0.026,0,0.042,0
						c3.402,0,6.212-2.314,6.274-5.175c0.276-12.628,0.69-31.713-1.636-40.184c-0.797-2.894-3.915-5.003-7.45-4.893
						c-7.972,0.131-22.36,1.413-33.919,2.442C1471.157,2018.403,1466.014,2018.861,1462.281,2019.132L1462.281,2019.132z"/>
					<g style="opacity:0.6;">
						<path style="fill:#FFFFFF;" d="M1561.748,2032.26c-7.3,0.007-11.948,4.957-10.329,11s8.916,10.901,16.216,10.797l387.14-5.563
							c7.299-0.105,13.177-3.885,13.06-8.401s-6.184-8.205-13.485-8.198L1561.748,2032.26z"/>
					</g>
					<path style="fill:#FFFFFF;" d="M1513.915,2166.692c-0.026,0-0.055,0-0.081,0l-44.023-0.25
						c-7.116-0.041-13.017-4.971-13.724-11.47l-4.015-36.921c-0.285-2.61,0.512-5.191,2.242-7.264
						c1.896-2.273,4.76-3.706,7.855-3.929l0,0c3.707-0.267,8.808-0.722,14.42-1.223c12.275-1.094,26.19-2.333,34.401-2.468
						c6.721-0.087,12.346,3.91,13.957,9.772c2.388,8.696,2.249,24.869,1.876,42.085
						C1526.686,2161.473,1520.905,2166.692,1513.915,2166.692z M1511.245,2109.803c-0.049,0-0.094,0-0.143,0.001
						c-7.975,0.13-22.36,1.411-33.922,2.442c-5.655,0.504-10.797,0.962-14.531,1.233l0,0c-1.309,0.094-2.492,0.663-3.24,1.56
						c-0.399,0.48-0.852,1.266-0.739,2.296l4.015,36.921c0.34,3.142,3.422,5.528,7.165,5.55l44.022,0.25c0.013,0,0.029,0,0.042,0
						c3.402,0,6.212-2.312,6.274-5.174c0.276-12.625,0.69-31.704-1.636-40.186
						C1517.768,2111.845,1514.709,2109.803,1511.245,2109.803z"/>
					<g style="opacity:0.6;">
						<path style="fill:#FFFFFF;" d="M1562.117,2126.607c-7.3,0.007-11.948,4.957-10.329,11s8.916,10.902,16.216,10.797
							l387.141-5.564c7.299-0.105,13.177-3.885,13.06-8.401s-6.184-8.205-13.485-8.198L1562.117,2126.607z"/>
					</g>
					<path style="fill:#FFFFFF;" d="M1514.285,2261.04c-0.026,0-0.055,0-0.081,0l-44.023-0.25
						c-7.119-0.041-13.017-4.973-13.724-11.471l-4.015-36.919c-0.285-2.612,0.512-5.191,2.242-7.264
						c1.896-2.273,4.757-3.705,7.852-3.929c3.704-0.267,8.808-0.723,14.42-1.222c12.278-1.095,26.19-2.335,34.405-2.469
						c6.445-0.136,12.343,3.91,13.954,9.772c2.392,8.694,2.252,24.868,1.88,42.085
						C1527.056,2255.821,1521.275,2261.04,1514.285,2261.04z M1463.016,2207.827c-1.309,0.094-2.489,0.663-3.237,1.56
						c-0.398,0.478-0.852,1.265-0.739,2.296l4.015,36.919c0.34,3.143,3.422,5.53,7.165,5.551l44.022,0.25c0.013,0,0.029,0,0.042,0
						c3.403,0,6.212-2.312,6.274-5.173c0.275-12.625,0.69-31.704-1.64-40.184c-0.797-2.894-3.885-5.024-7.447-4.893
						c-7.975,0.13-22.363,1.411-33.925,2.442C1471.889,2207.1,1466.75,2207.557,1463.016,2207.827L1463.016,2207.827z"/>
					<g style="opacity:0.6;">
						<path style="fill:#FFFFFF;" d="M1562.486,2220.955c-7.3,0.007-11.948,4.957-10.329,11c1.619,6.043,8.916,10.902,16.216,10.797
							l387.141-5.564c7.3-0.105,13.177-3.885,13.06-8.401c-0.117-4.516-6.185-8.205-13.485-8.198L1562.486,2220.955z"/>
					</g>
				</g>
				<g>
					<path style="fill:#FFFFFF;" d="M2148.96,1964.882c-0.026,0-0.055,0-0.081,0l-44.022-0.251
						c-7.119-0.041-13.017-4.971-13.724-11.47l-4.015-36.919c-0.285-2.61,0.512-5.191,2.242-7.264
						c1.896-2.273,4.76-3.705,7.855-3.929l0,0c3.707-0.267,8.808-0.723,14.42-1.223c12.275-1.094,26.19-2.333,34.401-2.468
						c6.737-0.088,12.346,3.91,13.957,9.772c2.388,8.685,2.249,24.863,1.876,42.083
						C2161.731,1959.663,2155.95,1964.882,2148.96,1964.882z M2146.29,1907.993c-0.049,0-0.094,0-0.143,0.002
						c-7.975,0.13-22.36,1.411-33.922,2.442c-5.655,0.504-10.797,0.962-14.53,1.233l0,0c-1.309,0.094-2.492,0.663-3.241,1.56
						c-0.398,0.48-0.852,1.265-0.739,2.296l4.015,36.919c0.337,3.092,3.483,5.528,7.165,5.549l44.023,0.251c0.013,0,0.029,0,0.042,0
						c3.403,0,6.212-2.314,6.274-5.175c0.275-12.628,0.69-31.712-1.636-40.182
						C2152.813,1910.033,2149.754,1907.993,2146.29,1907.993z"/>
					<g style="opacity:0.6;">
						<path style="fill:#FFFFFF;" d="M2197.163,1924.797c-7.3,0.007-11.948,4.957-10.33,11c1.619,6.043,8.916,10.902,16.216,10.797
							l387.141-5.564c7.3-0.105,13.177-3.885,13.06-8.401s-6.185-8.205-13.485-8.198L2197.163,1924.797z"/>
					</g>
					<path style="fill:#FFFFFF;" d="M2149.326,2059.23c-0.026,0-0.052,0-0.078,0l-44.022-0.251
						c-7.12-0.041-13.017-4.971-13.724-11.47l-4.015-36.919c-0.285-2.612,0.512-5.191,2.242-7.264
						c1.896-2.273,4.757-3.706,7.852-3.929c3.698-0.267,8.788-0.721,14.388-1.22c12.288-1.095,26.216-2.336,34.437-2.473
						c0.087-0.002,0.175-0.002,0.259-0.002c6.497,0,12.107,3.988,13.698,9.77c2.388,8.701,2.249,24.873,1.876,42.088
						C2162.101,2054.01,2156.316,2059.23,2149.326,2059.23z M2146.659,2002.339c-0.049,0-0.094,0-0.143,0.002
						c-7.981,0.131-22.385,1.414-33.961,2.447c-5.642,0.502-10.768,0.959-14.495,1.23l0,0c-1.309,0.094-2.489,0.663-3.237,1.56
						c-0.399,0.478-0.853,1.265-0.739,2.296l4.015,36.919c0.34,3.142,3.422,5.528,7.165,5.549l44.022,0.251c0.013,0,0.026,0,0.042,0
						c3.403,0,6.212-2.314,6.274-5.175c0.276-12.625,0.69-31.702-1.64-40.186C2153.179,2004.381,2150.12,2002.339,2146.659,2002.339
						z"/>
					<g style="opacity:0.6;">
						<path style="fill:#FFFFFF;" d="M2197.531,2019.144c-7.3,0.007-11.948,4.957-10.329,11c1.619,6.043,8.916,10.902,16.216,10.797
							l387.141-5.564c7.3-0.105,13.177-3.885,13.06-8.401c-0.116-4.516-6.185-8.205-13.485-8.198L2197.531,2019.144z"/>
					</g>
					<path style="fill:#FFFFFF;" d="M2149.696,2153.578c-0.026,0-0.052,0-0.078,0l-44.022-0.251
						c-7.116-0.041-13.017-4.971-13.727-11.468l-4.012-36.921c-0.285-2.607,0.509-5.185,2.236-7.259
						c1.896-2.276,4.76-3.71,7.858-3.936l0,0c3.707-0.267,8.808-0.723,14.424-1.222c12.275-1.094,26.19-2.333,34.401-2.469
						c0.087-0.002,0.175-0.002,0.259-0.002c6.497,0,12.107,3.989,13.694,9.773c2.385,8.675,2.249,24.858,1.88,42.085
						C2162.47,2148.357,2156.686,2153.578,2149.696,2153.578z M2098.431,2100.364c-1.309,0.094-2.489,0.664-3.237,1.563
						c-0.399,0.478-0.852,1.264-0.739,2.291l4.012,36.922c0.344,3.142,3.425,5.528,7.168,5.55l44.022,0.251c0.013,0,0.026,0,0.042,0
						c3.402,0,6.212-2.314,6.273-5.175c0.272-12.633,0.684-31.723-1.64-40.184c-0.784-2.853-3.843-4.895-7.304-4.895
						c-0.049,0-0.094,0-0.143,0.001c-7.975,0.131-22.363,1.413-33.922,2.442C2107.307,2099.635,2102.164,2100.093,2098.431,2100.364
						L2098.431,2100.364z"/>
					<g style="opacity:0.6;">
						<path style="fill:#FFFFFF;" d="M2197.9,2113.492c-7.3,0.007-11.948,4.957-10.329,11c1.619,6.043,8.916,10.902,16.216,10.797
							l387.14-5.563c7.299-0.105,13.177-3.885,13.06-8.401c-0.116-4.516-6.184-8.205-13.485-8.198L2197.9,2113.492z"/>
					</g>
					<path style="fill:#FFFFFF;" d="M2150.062,2247.926c-0.026,0-0.052,0-0.078,0l-44.022-0.251
						c-7.116-0.041-13.017-4.971-13.724-11.47l-4.015-36.921c-0.285-2.61,0.512-5.188,2.239-7.26
						c1.896-2.275,4.76-3.707,7.858-3.932l0,0c3.704-0.268,8.808-0.723,14.42-1.222c12.278-1.095,26.19-2.335,34.405-2.469
						c6.63-0.183,12.343,3.908,13.954,9.772c2.385,8.675,2.249,24.856,1.88,42.085
						C2162.836,2242.707,2157.049,2247.926,2150.062,2247.926z M2098.8,2194.711c-1.309,0.094-2.492,0.664-3.24,1.562
						c-0.399,0.478-0.849,1.266-0.739,2.294l4.015,36.921c0.337,3.091,3.483,5.528,7.165,5.549l44.022,0.251
						c0.013,0,0.026,0,0.042,0c3.403,0,6.215-2.315,6.277-5.177c0.272-12.632,0.684-31.721-1.64-40.183
						c-0.797-2.894-3.986-5.011-7.447-4.893c-7.975,0.13-22.363,1.411-33.925,2.442
						C2107.673,2193.984,2102.533,2194.441,2098.8,2194.711L2098.8,2194.711z"/>
					<g style="opacity:0.6;">
						<path style="fill:#FFFFFF;" d="M2198.268,2207.839c-7.3,0.007-11.948,4.957-10.329,11c1.619,6.043,8.916,10.902,16.216,10.797
							l387.141-5.564c7.299-0.105,13.177-3.885,13.06-8.401c-0.116-4.515-6.185-8.204-13.485-8.198L2198.268,2207.839z"/>
					</g>
				</g>
				<g>
					<path style="fill:#FFFFFF;" d="M1529.431,2436.007c-0.026,0-0.055,0-0.081,0l-44.022-0.251
						c-7.116-0.041-13.017-4.971-13.727-11.468l-4.012-36.921c-0.285-2.607,0.509-5.186,2.236-7.26
						c1.899-2.275,4.763-3.709,7.858-3.932c3.704-0.267,8.808-0.723,14.42-1.222c12.278-1.095,26.19-2.335,34.405-2.469
						c6.568-0.037,12.346,3.911,13.953,9.772c2.385,8.673,2.249,24.856,1.88,42.085
						C1542.202,2430.788,1536.421,2436.007,1529.431,2436.007z M1478.163,2382.794c-1.309,0.094-2.489,0.663-3.237,1.562
						c-0.398,0.478-0.852,1.264-0.739,2.291l4.012,36.922c0.344,3.142,3.425,5.529,7.168,5.55l44.022,0.251c0.013,0,0.029,0,0.042,0
						c3.403,0,6.212-2.314,6.274-5.174c0.272-12.633,0.684-31.725-1.64-40.184c-0.794-2.896-4.06-4.986-7.447-4.893
						c-7.975,0.13-22.363,1.411-33.925,2.442C1487.035,2382.067,1481.896,2382.524,1478.163,2382.794L1478.163,2382.794z"/>
					<g style="opacity:0.6;">
						<path style="fill:#FFFFFF;" d="M1577.631,2395.921c-7.3,0.007-11.948,4.957-10.329,11s8.916,10.902,16.216,10.797
							l387.141-5.564c7.299-0.105,13.177-3.885,13.06-8.401c-0.116-4.516-6.184-8.205-13.485-8.198L1577.631,2395.921z"/>
					</g>
					<path style="fill:#FFFFFF;" d="M1529.797,2530.355c-0.026,0-0.055,0-0.081,0l-44.022-0.251
						c-7.119-0.041-13.017-4.971-13.724-11.47l-4.015-36.919c-0.285-2.61,0.512-5.191,2.242-7.264
						c1.896-2.273,4.76-3.705,7.855-3.929l0,0c3.707-0.268,8.818-0.723,14.437-1.223c12.269-1.094,26.177-2.333,34.385-2.469
						c0.087-0.002,0.175-0.002,0.259-0.002c6.5,0,12.11,3.989,13.698,9.775c2.385,8.673,2.249,24.855,1.88,42.083
						C1542.568,2525.136,1536.784,2530.355,1529.797,2530.355z M1527.127,2473.464c-0.049,0-0.094,0-0.143,0.002
						c-7.968,0.131-22.35,1.413-33.906,2.442c-5.664,0.505-10.81,0.964-14.547,1.234l0,0c-1.309,0.094-2.492,0.663-3.24,1.561
						c-0.399,0.479-0.852,1.265-0.739,2.296l4.015,36.919c0.337,3.092,3.483,5.528,7.165,5.549l44.022,0.251
						c0.013,0,0.029,0,0.042,0c3.402,0,6.215-2.315,6.277-5.177c0.272-12.632,0.684-31.721-1.64-40.181
						C1533.65,2475.506,1530.591,2473.464,1527.127,2473.464z"/>
					<g style="opacity:0.6;">
						<path style="fill:#FFFFFF;" d="M1578,2490.269c-7.3,0.007-11.948,4.957-10.329,11c1.619,6.043,8.916,10.902,16.216,10.797
							l387.14-5.564c7.3-0.105,13.177-3.885,13.06-8.401c-0.117-4.516-6.185-8.205-13.485-8.198L1578,2490.269z"/>
					</g>
					<path style="fill:#FFFFFF;" d="M1530.163,2624.703c-0.026,0-0.052,0-0.078,0l-44.022-0.251
						c-7.119-0.041-13.017-4.971-13.724-11.47l-4.015-36.919c-0.285-2.61,0.512-5.19,2.239-7.262
						c1.899-2.275,4.76-3.707,7.858-3.932l0,0c3.707-0.267,8.811-0.722,14.424-1.222c12.275-1.094,26.187-2.333,34.398-2.469
						c6.718-0.141,12.346,3.913,13.957,9.772c2.388,8.686,2.249,24.865,1.876,42.084
						C1542.937,2619.482,1537.153,2624.703,1530.163,2624.703z M1478.901,2571.488c-1.309,0.094-2.492,0.664-3.241,1.562
						c-0.398,0.479-0.852,1.266-0.739,2.296l4.015,36.919c0.337,3.092,3.484,5.528,7.165,5.55l44.022,0.251c0.013,0,0.026,0,0.042,0
						c3.403,0,6.212-2.314,6.274-5.175c0.275-12.628,0.69-31.712-1.636-40.184c-0.797-2.894-3.908-5.042-7.45-4.893
						c-7.972,0.131-22.36,1.413-33.919,2.442C1487.777,2570.759,1482.635,2571.218,1478.901,2571.488L1478.901,2571.488z"/>
					<g style="opacity:0.6;">
						<path style="fill:#FFFFFF;" d="M1578.369,2584.617c-7.3,0.007-11.948,4.957-10.329,11c1.619,6.043,8.916,10.902,16.216,10.797
							l387.14-5.563c7.3-0.105,13.177-3.885,13.06-8.401s-6.184-8.205-13.485-8.198L1578.369,2584.617z"/>
					</g>
					<path style="fill:#FFFFFF;" d="M1530.533,2719.05c-0.026,0-0.052,0-0.078,0l-44.023-0.251
						c-7.119-0.041-13.017-4.971-13.724-11.47l-4.015-36.921c-0.285-2.61,0.512-5.188,2.239-7.26
						c1.896-2.275,4.76-3.707,7.855-3.932l0,0c3.71-0.267,8.814-0.723,14.433-1.223c12.272-1.094,26.18-2.332,34.392-2.468
						c0.087-0.002,0.175-0.002,0.259-0.002c6.5,0,12.11,3.989,13.698,9.773c2.388,8.698,2.249,24.869,1.876,42.085
						C1543.307,2713.83,1537.522,2719.05,1530.533,2719.05z M1479.268,2665.836c-1.309,0.094-2.489,0.664-3.237,1.562
						c-0.399,0.478-0.849,1.265-0.739,2.294l4.015,36.921c0.34,3.142,3.422,5.528,7.165,5.549l44.022,0.251c0.013,0,0.026,0,0.042,0
						c3.403,0,6.212-2.314,6.274-5.175c0.275-12.625,0.69-31.702-1.64-40.186c-0.791-2.892-4.041-5.015-7.447-4.892
						c-7.972,0.131-22.356,1.411-33.912,2.442C1488.15,2665.107,1483.004,2665.566,1479.268,2665.836L1479.268,2665.836z"/>
					<g style="opacity:0.6;">
						<path style="fill:#FFFFFF;" d="M1578.737,2678.964c-7.3,0.007-11.948,4.957-10.329,11s8.916,10.902,16.216,10.797
							l387.141-5.564c7.299-0.105,13.177-3.885,13.06-8.401c-0.116-4.516-6.185-8.205-13.485-8.198L1578.737,2678.964z"/>
					</g>
				</g>
				<g>
					<path style="fill:#FFFFFF;" d="M2165.211,2422.891c-0.026,0-0.055,0-0.081,0l-44.023-0.25
						c-7.116-0.041-13.017-4.971-13.723-11.47l-4.015-36.921c-0.285-2.61,0.512-5.188,2.239-7.26
						c1.896-2.275,4.76-3.707,7.858-3.932l0,0c3.707-0.267,8.808-0.723,14.42-1.223c12.275-1.094,26.19-2.333,34.401-2.468
						c6.582-0.091,12.35,3.91,13.957,9.772c2.385,8.673,2.249,24.856,1.88,42.085
						C2177.982,2417.674,2172.198,2422.891,2165.211,2422.891z M2113.946,2369.678c-1.309,0.094-2.492,0.664-3.24,1.562
						c-0.398,0.478-0.849,1.265-0.739,2.294l4.015,36.921c0.337,3.092,3.483,5.528,7.165,5.549l44.022,0.25c0.013,0,0.029,0,0.042,0
						c3.403,0,6.215-2.314,6.277-5.175c0.272-12.632,0.684-31.723-1.64-40.182c-0.794-2.894-4.086-4.981-7.45-4.893
						c-7.975,0.13-22.36,1.411-33.922,2.442C2122.822,2368.949,2117.679,2369.408,2113.946,2369.678L2113.946,2369.678z"/>
					<g style="opacity:0.6;">
						<path style="fill:#FFFFFF;" d="M2213.414,2382.806c-7.3,0.007-11.948,4.957-10.329,11s8.916,10.902,16.216,10.797
							l387.14-5.563c7.3-0.105,13.177-3.885,13.06-8.401c-0.116-4.516-6.185-8.205-13.485-8.198L2213.414,2382.806z"/>
					</g>
					<path style="fill:#FFFFFF;" d="M2165.581,2517.239c-0.026,0-0.055,0-0.081,0l-44.023-0.251
						c-7.119-0.041-13.017-4.971-13.723-11.47l-4.015-36.919c-0.285-2.612,0.512-5.191,2.242-7.264
						c1.896-2.273,4.757-3.706,7.852-3.929c3.707-0.267,8.814-0.723,14.43-1.223c12.272-1.094,26.184-2.333,34.395-2.468
						c6.701-0.057,12.346,3.91,13.957,9.772c2.388,8.696,2.249,24.869,1.876,42.084
						C2178.352,2512.02,2172.571,2517.239,2165.581,2517.239z M2114.313,2464.026c-1.309,0.094-2.489,0.663-3.237,1.56
						c-0.398,0.478-0.852,1.266-0.739,2.296l4.015,36.919c0.34,3.142,3.422,5.528,7.165,5.549l44.022,0.251c0.013,0,0.029,0,0.042,0
						c3.403,0,6.212-2.312,6.274-5.174c0.275-12.625,0.69-31.704-1.636-40.186c-0.797-2.892-3.989-5.068-7.45-4.891
						c-7.972,0.13-22.356,1.411-33.915,2.442C2123.192,2463.297,2118.049,2463.756,2114.313,2464.026L2114.313,2464.026z"/>
					<g style="opacity:0.6;">
						<path style="fill:#FFFFFF;" d="M2213.782,2477.153c-7.3,0.007-11.948,4.957-10.329,11c1.619,6.043,8.917,10.902,16.216,10.797
							l387.14-5.564c7.3-0.105,13.177-3.885,13.06-8.401s-6.185-8.205-13.485-8.198L2213.782,2477.153z"/>
					</g>
					<path style="fill:#FFFFFF;" d="M2165.95,2611.587c-0.026,0-0.055,0-0.081,0l-44.023-0.251
						c-7.119-0.041-13.017-4.971-13.723-11.47l-4.015-36.919c-0.285-2.612,0.512-5.191,2.242-7.263
						c1.896-2.273,4.757-3.706,7.852-3.929c3.707-0.267,8.814-0.723,14.433-1.223c12.272-1.094,26.18-2.333,34.392-2.469
						c0.087-0.002,0.175-0.002,0.259-0.002c6.497,0,12.107,3.989,13.694,9.775c2.385,8.673,2.249,24.855,1.88,42.083
						C2178.721,2606.368,2172.94,2611.587,2165.95,2611.587z M2114.682,2558.374c-1.309,0.094-2.489,0.663-3.237,1.56
						c-0.398,0.478-0.852,1.265-0.739,2.296l4.015,36.919c0.34,3.142,3.422,5.528,7.165,5.55l44.022,0.251c0.013,0,0.029,0,0.042,0
						c3.403,0,6.212-2.314,6.274-5.175c0.272-12.633,0.684-31.723-1.64-40.183c-0.797-2.895-3.957-5.091-7.447-4.895
						c-7.971,0.131-22.356,1.413-33.912,2.444C2123.564,2557.645,2118.418,2558.104,2114.682,2558.374L2114.682,2558.374z"/>
					<g style="opacity:0.6;">
						<path style="fill:#FFFFFF;" d="M2214.151,2571.501c-7.3,0.007-11.948,4.957-10.329,11s8.916,10.902,16.216,10.797
							l387.141-5.564c7.3-0.105,13.177-3.885,13.06-8.401c-0.116-4.516-6.184-8.205-13.485-8.198L2214.151,2571.501z"/>
					</g>
					<path style="fill:#FFFFFF;" d="M2166.316,2705.934c-0.026,0-0.052,0-0.078,0l-44.022-0.251
						c-7.116-0.041-13.017-4.971-13.727-11.468l-4.015-36.921c-0.285-2.61,0.512-5.19,2.242-7.262
						c1.896-2.275,4.76-3.707,7.855-3.931c3.698-0.267,8.788-0.721,14.388-1.22c12.288-1.095,26.216-2.336,34.437-2.473
						c6.497-0.076,12.346,3.913,13.954,9.773c2.385,8.673,2.249,24.855,1.879,42.083
						C2179.091,2700.714,2173.306,2705.934,2166.316,2705.934z M2163.646,2649.044c-0.045,0-0.094,0-0.143,0.002
						c-7.978,0.131-22.382,1.415-33.957,2.447c-5.642,0.502-10.768,0.959-14.495,1.23l0,0c-1.309,0.094-2.489,0.663-3.241,1.562
						c-0.398,0.478-0.849,1.265-0.739,2.294l4.015,36.919c0.344,3.142,3.425,5.528,7.168,5.549l44.022,0.251
						c0.013,0,0.026,0,0.042,0c3.403,0,6.212-2.314,6.274-5.175c0.272-12.633,0.684-31.723-1.64-40.183
						C2170.169,2651.085,2167.11,2649.044,2163.646,2649.044z"/>
					<g style="opacity:0.6;">
						<path style="fill:#FFFFFF;" d="M2214.52,2665.849c-7.3,0.007-11.948,4.957-10.329,11s8.916,10.902,16.216,10.797
							l387.141-5.563c7.299-0.105,13.176-3.885,13.06-8.401s-6.185-8.205-13.485-8.198L2214.52,2665.849z"/>
					</g>
				</g>
			</g>
			
				<linearGradient id="SVGID_00000181056049440849396030000016153832726680960926_" gradientUnits="userSpaceOnUse" x1="2215.2959" y1="-2.2063" x2="1578.4346" y2="835.5699" gradientTransform="matrix(0.9909 0.1346 -0.1346 0.9909 69.0342 49.3067)">
				<stop  offset="0" style="stop-color:#09005D"/>
				<stop  offset="1" style="stop-color:#1A0F91"/>
			</linearGradient>
			<path style="fill:url(#SVGID_00000181056049440849396030000016153832726680960926_);" d="M2070.43,518.823
				c-49.89-34.419-93.149-33.565-123.57-24.459c-27.75,8.306-45.651,35.198-42.895,64.033l13.693,143.303l156.341,13.259
				C2073.999,714.959,2168.272,586.324,2070.43,518.823z M2002.152,634.744c-21.522,0.084-39.037-17.294-39.121-38.817
				c-0.084-21.523,17.295-39.038,38.817-39.122c21.523-0.084,39.038,17.295,39.122,38.818
				C2041.054,617.145,2023.675,634.659,2002.152,634.744z"/>
			<path style="fill:#91B3FA;" d="M1933.022,640.883c-1.692,0-3.137-1.285-3.299-3.002l-2.181-22.821
				c-0.175-1.824,1.163-3.445,2.988-3.62c1.86-0.173,3.445,1.165,3.616,2.988l2.181,22.821c0.175,1.824-1.163,3.445-2.988,3.62
				C1933.232,640.878,1933.125,640.883,1933.022,640.883z M1928.747,596.161c-1.692,0-3.137-1.285-3.299-3.002l-1.656-17.327
				c-2.605-27.256,14.449-52.71,40.549-60.522c18.558-5.556,37.703-6.415,56.894-2.562c1.795,0.361,2.959,2.11,2.599,3.906
				c-0.363,1.797-2.11,2.954-3.908,2.6c-18.105-3.639-36.174-2.826-53.679,2.413c-23.076,6.907-38.151,29.421-35.85,53.532
				l1.656,17.327c0.175,1.825-1.163,3.445-2.988,3.62C1928.958,596.156,1928.851,596.161,1928.747,596.161z"/>
			
				<linearGradient id="SVGID_00000178199558800165034730000001911060218066669460_" gradientUnits="userSpaceOnUse" x1="2248.8118" y1="76.6631" x2="1615.2368" y2="910.1161" gradientTransform="matrix(1 -0.0039 0.0039 1 43.9036 297.2809)">
				<stop  offset="0" style="stop-color:#09005D"/>
				<stop  offset="1" style="stop-color:#1A0F91"/>
			</linearGradient>
			<path style="fill:url(#SVGID_00000178199558800165034730000001911060218066669460_);" d="M1704.718,795.177l-0.282-72.074
				c-0.097-24.881,20.446-44.888,45.315-44.133l496.988,15.083c22.056,0.67,39.983,18.007,41.39,40.028l4.424,69.237
				L1704.718,795.177z"/>
			<path style="fill:#91B3FA;" d="M1868.276,705.212c-1.828,0-3.312-1.478-3.318-3.305c-0.006-1.833,1.471-3.325,3.305-3.331
				l21.368-0.084c0.003,0,0.01,0,0.01,0c1.831,0,3.315,1.478,3.322,3.305c0.006,1.833-1.471,3.325-3.305,3.331l-21.368,0.084
				H1868.276z"/>
			<path style="fill:#91B3FA;" d="M1731.513,771.986c-1.828,0-3.312-1.476-3.318-3.305l-0.117-29.155
				c-0.084-22.279,17.972-40.474,40.247-40.56l78.566-0.308c0.003,0,0.01,0,0.01,0c1.831,0,3.315,1.478,3.322,3.305
				c0.006,1.832-1.471,3.325-3.305,3.331l-78.566,0.308c-18.617,0.073-33.708,15.279-33.637,33.897l0.117,29.155
				c0.006,1.832-1.471,3.323-3.305,3.331H1731.513z"/>
			
				<linearGradient id="SVGID_00000008146920674468593440000005492607728977781392_" gradientUnits="userSpaceOnUse" x1="1500.5171" y1="828.7538" x2="2482.9792" y2="828.7538">
				<stop  offset="0" style="stop-color:#4F52FF"/>
				<stop  offset="1" style="stop-color:#4042E2"/>
			</linearGradient>
			<path style="fill:url(#SVGID_00000008146920674468593440000005492607728977781392_);" d="M1548.911,769.407l868.96-3.419
				c31.245-0.123,58.046,22.258,63.495,53.025l0.752,4.246c5.969,33.7-19.873,64.645-54.097,64.778l-891.502,3.484
				c-20.481,0.08-36.87-16.981-35.967-37.444l1.762-39.909C1503.416,789.205,1523.925,769.505,1548.911,769.407z"/>
			<path style="opacity:0.6;fill:#FFFFFF;" d="M2575.209,1168.929H1450.346c-6.6,0-12-5.4-12-12V989.828c0-6.6,5.4-12,12-12
				h1124.863c6.6,0,12,5.4,12,12v167.101C2587.209,1163.529,2581.809,1168.929,2575.209,1168.929z"/>
		</g>
		<g>
			
				<linearGradient id="SVGID_00000080194455914564300500000001996107605382055833_" gradientUnits="userSpaceOnUse" x1="2424.7559" y1="1009.6011" x2="1210.3245" y2="3119.9255">
				<stop  offset="0" style="stop-color:#FF928E"/>
				<stop  offset="1" style="stop-color:#FE7062"/>
			</linearGradient>
			<path style="fill:url(#SVGID_00000080194455914564300500000001996107605382055833_);" d="M702.171,2382.428
				c0,0-38.725,215.676,229.325,227.819c300.079,13.595,841.243-608.626,1036.658-851.408
				c295.888-367.607,588.433-594.3,844.872-591.66c256.438,2.64,304.954,263.735,227.345,398.824c0,0,5.381-251.383-152.694-220.824
				c-158.075,30.56-388.265,203.095-919.523,792.933c-306.725,340.547-680.802,613.859-1016.626,596.408
				C626.944,2717.653,603.346,2506.629,702.171,2382.428z"/>
			<g>
				<defs>
					<path id="SVGID_00000124155509686314513980000015257220052963037344_" d="M712.903,2375.799c0,0-81.75,229.32,218.593,234.448
						c300.343,5.128,841.243-608.626,1036.658-851.408c295.888-367.607,588.433-594.3,844.872-591.66
						c256.438,2.64,304.954,263.735,227.345,398.824c0,0,5.381-251.383-152.694-220.824
						c-158.075,30.56-388.265,203.095-919.523,792.933c-306.725,340.547-680.443,604.356-1016.626,596.408
						C615.345,2726.572,614.078,2500.001,712.903,2375.799z"/>
				</defs>
				<clipPath id="SVGID_00000175309653436555947320000001306701339045463220_">
					<use xlink:href="#SVGID_00000124155509686314513980000015257220052963037344_"  style="overflow:visible;"/>
				</clipPath>
				<g style="opacity:0.29;clip-path:url(#SVGID_00000175309653436555947320000001306701339045463220_);">
					<path style="fill:#FFFFFF;" d="M2697.99,1329.46c-1.29,0-2.555-0.657-3.313-1.866l-108.312-172.906
						c-1.194-1.907-0.679-4.457,1.149-5.701c1.824-1.244,4.273-0.708,5.469,1.196l108.312,172.906
						c1.194,1.906,0.679,4.456-1.149,5.701C2699.48,1329.243,2698.731,1329.46,2697.99,1329.46z"/>
					<path style="fill:#FFFFFF;" d="M2504.467,1451.613c-1.279,0-2.532-0.644-3.293-1.837l-108.244-169.452
						c-1.209-1.893-0.718-4.451,1.1-5.711c1.815-1.257,4.27-0.748,5.479,1.148l108.244,169.452c1.209,1.893,0.718,4.451-1.1,5.711
						C2505.98,1451.39,2505.219,1451.613,2504.467,1451.613z"/>
					<path style="fill:#FFFFFF;" d="M2346.171,1563.394c-1.176,0-2.34-0.544-3.118-1.585l-105.563-141.07
						c-1.343-1.794-1.036-4.384,0.686-5.781c1.72-1.402,4.206-1.078,5.546,0.713l105.563,141.07
						c1.343,1.794,1.036,4.384-0.686,5.781C2347.877,1563.11,2347.021,1563.394,2346.171,1563.394z"/>
					<path style="fill:#FFFFFF;" d="M2218.156,1682.254c-0.931,0-1.867-0.34-2.619-1.035l-117.684-108.604
						c-1.634-1.507-1.786-4.111-0.339-5.813c1.447-1.703,3.945-1.864,5.58-0.354l117.684,108.604
						c1.634,1.507,1.786,4.111,0.338,5.813C2220.335,1681.785,2219.248,1682.254,2218.156,1682.254z"/>
					<path style="fill:#FFFFFF;" d="M2801.304,1294.189c-1.905,0-3.584-1.44-3.897-3.464c-0.246-1.59-24.595-159.245-26.31-167.586
						c-0.457-2.225,0.903-4.414,3.037-4.891c2.132-0.475,4.234,0.941,4.692,3.164c1.757,8.548,25.38,161.497,26.384,168.005
						c0.347,2.247-1.119,4.36-3.274,4.719C2801.724,1294.173,2801.512,1294.189,2801.304,1294.189z"/>
					<path style="fill:#FFFFFF;" d="M2943.584,1294.189c-2.183,0-3.952-1.845-3.952-4.119v-137.635c0-2.274,1.769-4.119,3.952-4.119
						s3.952,1.845,3.952,4.119v137.635C2947.536,1292.344,2945.767,1294.189,2943.584,1294.189z"/>
					<path style="fill:#FFFFFF;" d="M2066.715,1866.403c-0.962,0-1.927-0.365-2.689-1.102
						c-21.404-20.716-128.362-124.357-131.951-129.966c-1.21-1.893-0.72-4.448,1.096-5.711c1.798-1.249,4.213-0.759,5.438,1.075
						c3.919,5.234,80.326,79.715,130.797,128.569c1.599,1.547,1.69,4.153,0.206,5.819
						C2068.834,1865.961,2067.775,1866.403,2066.715,1866.403z"/>
					<path style="fill:#FFFFFF;" d="M1923.07,2033.708c-1.054,0-2.104-0.437-2.882-1.298l-119.441-132.508
						c-1.495-1.66-1.417-4.266,0.175-5.824c1.591-1.558,4.09-1.472,5.586,0.182l119.441,132.508c1.495,1.66,1.417,4.266-0.175,5.824
						C1925.011,2033.338,1924.04,2033.708,1923.07,2033.708z"/>
					<path style="fill:#FFFFFF;" d="M1764.298,2242.464c-1.172,0-2.332-0.542-3.112-1.577l-124.021-164.68
						c-1.347-1.789-1.047-4.379,0.669-5.781c1.719-1.405,4.203-1.091,5.55,0.697l124.021,164.68
						c1.347,1.789,1.047,4.379-0.669,5.781C1766.012,2242.177,1765.153,2242.464,1764.298,2242.464z"/>
					<path style="fill:#FFFFFF;" d="M1610.419,2388.149c-1.235,0-2.452-0.601-3.223-1.729l-107.146-156.748
						c-1.266-1.853-0.852-4.424,0.926-5.744c1.778-1.322,4.247-0.887,5.511,0.966l107.146,156.748
						c1.266,1.853,0.852,4.424-0.926,5.744C1612.013,2387.902,1611.212,2388.149,1610.419,2388.149z"/>
					<path style="fill:#FFFFFF;" d="M1483.952,2482.697c-1.211,0-2.406-0.579-3.182-1.671l-110.658-156.112
						c-1.297-1.832-0.925-4.408,0.831-5.76c1.755-1.352,4.228-0.962,5.526,0.864l110.658,156.112
						c1.297,1.832,0.925,4.408-0.831,5.76C1485.591,2482.434,1484.767,2482.697,1483.952,2482.697z"/>
					<path style="fill:#FFFFFF;" d="M1328.942,2586.514c-1.209,0-2.402-0.577-3.178-1.665l-88.061-123.797
						c-1.299-1.828-0.932-4.408,0.822-5.762c1.751-1.356,4.227-0.97,5.528,0.855l88.061,123.797
						c1.299,1.829,0.931,4.408-0.822,5.762C1330.586,2586.252,1329.76,2586.514,1328.942,2586.514z"/>
					<path style="fill:#FFFFFF;" d="M1187.107,2657.904c-1.347,0-2.661-0.719-3.399-2.011l-64.989-113.72
						c-1.118-1.955-0.503-4.483,1.373-5.647c1.874-1.156,4.302-0.52,5.417,1.432l64.989,113.72c1.118,1.955,0.503,4.483-1.373,5.647
						C1188.491,2657.716,1187.795,2657.904,1187.107,2657.904z"/>
					<path style="fill:#FFFFFF;" d="M1083.474,2685.361c-1.453,0-2.851-0.837-3.542-2.284l-52.694-110.476
						c-0.971-2.038-0.175-4.51,1.781-5.521c1.95-1.019,4.325-0.185,5.298,1.853l52.694,110.476c0.971,2.038,0.175,4.51-1.78,5.521
						C1084.666,2685.224,1084.066,2685.361,1083.474,2685.361z"/>
					<path style="fill:#FFFFFF;" d="M965.781,2703.667c-1.913,0-3.594-1.45-3.899-3.483l-17.565-117.152
						c-0.337-2.247,1.137-4.354,3.295-4.706c2.142-0.319,4.177,1.188,4.514,3.435l17.564,117.152
						c0.337,2.247-1.137,4.355-3.295,4.706C966.191,2703.65,965.985,2703.667,965.781,2703.667z"/>
					<path style="fill:#FFFFFF;" d="M874.455,2694.512c-0.199,0-0.4-0.016-0.603-0.048c-2.157-0.343-3.638-2.445-3.309-4.693
						l17.564-119.627c0.329-2.252,2.341-3.805,4.505-3.448c2.158,0.343,3.638,2.445,3.309,4.693l-17.564,119.627
						C878.057,2693.053,876.374,2694.512,874.455,2694.512z"/>
					<path style="fill:#FFFFFF;" d="M790.139,2667.055c-0.462,0-0.93-0.083-1.387-0.263c-2.044-0.797-3.08-3.172-2.314-5.301
						l33.373-92.789c0.769-2.132,3.051-3.207,5.088-2.411c2.044,0.797,3.08,3.172,2.314,5.301l-33.373,92.789
						C793.245,2666.036,791.738,2667.055,790.139,2667.055z"/>
					<path style="fill:#FFFFFF;" d="M707.583,2565.042c-0.953,0-1.911-0.357-2.669-1.083c-1.609-1.536-1.717-4.142-0.242-5.818
						l63.233-71.883c1.473-1.673,3.973-1.794,5.583-0.252c1.609,1.536,1.717,4.143,0.242,5.819l-63.233,71.882
						C709.718,2564.591,708.652,2565.042,707.583,2565.042z"/>
					<path style="fill:#FFFFFF;" d="M691.353,2460.876c-1.41,0-2.774-0.786-3.486-2.172c-1.032-2.006-0.309-4.502,1.615-5.577
						c20.757-11.6,61.087-34.255,65.154-36.968c1.841-1.231,4.283-0.667,5.46,1.244c1.177,1.917,0.642,4.464-1.196,5.69
						c-5.336,3.564-63.221,35.92-65.681,37.295C692.622,2460.72,691.983,2460.876,691.353,2460.876z"/>
					<path style="fill:#FFFFFF;" d="M2834.677,1223.999c-1.321,0-2.461-1.035-2.614-2.435l-9.222-84.485
						c-0.165-1.507,0.875-2.869,2.321-3.038c1.41-0.19,2.749,0.909,2.915,2.416l9.221,84.485c0.165,1.507-0.875,2.869-2.321,3.038
						C2834.878,1223.993,2834.778,1223.999,2834.677,1223.999z"/>
					<path style="fill:#FFFFFF;" d="M2871.565,1220.44c-1.374,0-2.532-1.11-2.626-2.561l-5.269-80.927
						c-0.099-1.512,0.998-2.821,2.449-2.926c1.477-0.054,2.708,1.04,2.807,2.555l5.27,80.927c0.099,1.512-0.998,2.821-2.449,2.926
						C2871.685,1220.438,2871.625,1220.44,2871.565,1220.44z"/>
					<path style="fill:#FFFFFF;" d="M2911.088,1223.999c-1.455,0-2.635-1.228-2.635-2.746v-68.818c0-1.517,1.18-2.746,2.635-2.746
						c1.455,0,2.635,1.228,2.635,2.746v68.818C2913.723,1222.77,2912.543,1223.999,2911.088,1223.999z"/>
					<path style="fill:#FFFFFF;" d="M2767.495,1230.123c-1.136,0-2.186-0.772-2.525-1.965
						c-20.581-72.389-18.756-75.805-18.156-76.929c0.344-0.646,1.063-1.247,1.746-1.443c1.405-0.397,2.852,0.464,3.237,1.925
						c0.176,0.673,0.096,1.357-0.177,1.936c0.071,5.591,9.408,41.309,18.405,72.95c0.413,1.453-0.383,2.982-1.778,3.413
						C2767.995,1230.088,2767.743,1230.123,2767.495,1230.123z M2749.955,1155.082L2749.955,1155.082L2749.955,1155.082z"/>
					<path style="fill:#FFFFFF;" d="M2733.244,1241.634c-1.126,0-2.168-0.756-2.517-1.936l-23.712-80.155
						c-0.428-1.45,0.351-2.987,1.742-3.435c1.389-0.448,2.865,0.365,3.293,1.815l23.712,80.154c0.429,1.451-0.351,2.987-1.742,3.435
						C2733.762,1241.596,2733.501,1241.634,2733.244,1241.634z"/>
					<path style="fill:#FFFFFF;" d="M2697.989,1250.716c-0.866,0-1.712-0.442-2.216-1.258l-43.783-70.74
						c-0.789-1.274-0.438-2.974,0.786-3.797c1.226-0.815,2.853-0.453,3.642,0.82l43.783,70.74c0.789,1.274,0.438,2.974-0.786,3.797
						C2698.973,1250.574,2698.478,1250.716,2697.989,1250.716z"/>
					<path style="fill:#FFFFFF;" d="M2614.685,1292.816c-0.881,0-1.743-0.461-2.241-1.298l-46.108-77.47
						c-0.768-1.29-0.387-2.982,0.85-3.781c1.238-0.793,2.863-0.4,3.627,0.885l46.107,77.47c0.768,1.29,0.387,2.982-0.85,3.781
						C2615.638,1292.682,2615.158,1292.816,2614.685,1292.816z"/>
					<path style="fill:#FFFFFF;" d="M2554.087,1318.161c-0.847,0-1.677-0.424-2.186-1.21l-49.621-76.526
						c-0.814-1.255-0.498-2.963,0.708-3.81c1.209-0.85,2.844-0.517,3.659,0.738l49.621,76.527c0.814,1.255,0.498,2.963-0.708,3.81
						C2555.107,1318.008,2554.593,1318.161,2554.087,1318.161z"/>
					<path style="fill:#FFFFFF;" d="M2504.466,1350.935c-0.848,0-1.679-0.424-2.188-1.212l-54.121-83.745
						c-0.813-1.258-0.493-2.963,0.714-3.81c1.209-0.847,2.844-0.515,3.657,0.743l54.121,83.745c0.813,1.257,0.493,2.963-0.714,3.81
						C2505.483,1350.782,2504.971,1350.935,2504.466,1350.935z"/>
					<path style="fill:#FFFFFF;" d="M2421.033,1405.85c-0.827,0-1.642-0.405-2.155-1.161l-52.695-77.763
						c-0.839-1.239-0.555-2.952,0.633-3.826c1.185-0.88,2.831-0.577,3.672,0.657l52.694,77.763c0.839,1.239,0.556,2.952-0.633,3.827
						C2422.089,1405.686,2421.558,1405.85,2421.033,1405.85z"/>
					<path style="fill:#FFFFFF;" d="M2374.843,1431.996c-0.853,0-1.689-0.429-2.196-1.225l-47.343-74.197
						c-0.807-1.263-0.477-2.968,0.735-3.807c1.216-0.839,2.847-0.496,3.652,0.767l47.343,74.196
						c0.807,1.263,0.477,2.968-0.735,3.808C2375.851,1431.848,2375.344,1431.996,2374.843,1431.996z"/>
					<path style="fill:#FFFFFF;" d="M2338.04,1471.747c-0.812,0-1.612-0.389-2.128-1.124l-54.012-76.848
						c-0.861-1.223-0.606-2.942,0.569-3.837c1.175-0.898,2.823-0.633,3.682,0.593l54.012,76.848
						c0.861,1.223,0.606,2.942-0.569,3.837C2339.124,1471.576,2338.58,1471.747,2338.04,1471.747z"/>
					<path style="fill:#FFFFFF;" d="M2261.631,1541.763c-0.766,0-1.526-0.346-2.047-1.014l-58.864-75.508
						c-0.917-1.177-0.745-2.907,0.385-3.864c1.128-0.954,2.787-0.778,3.707,0.4l58.865,75.508c0.917,1.177,0.745,2.907-0.385,3.864
						C2262.803,1541.562,2262.216,1541.763,2261.631,1541.763z"/>
					<path style="fill:#FFFFFF;" d="M2218.156,1584.322c-0.611,0-1.225-0.22-1.724-0.67l-71.137-64.184
						c-1.1-0.992-1.22-2.727-0.266-3.872c0.952-1.145,2.614-1.274,3.717-0.279l71.137,64.184c1.1,0.992,1.219,2.727,0.266,3.872
						C2219.628,1584,2218.895,1584.322,2218.156,1584.322z"/>
					<path style="fill:#FFFFFF;" d="M2137.797,1673.559c-0.614,0-1.23-0.223-1.729-0.676l-71.082-64.525
						c-1.097-0.995-1.212-2.73-0.256-3.875c0.954-1.143,2.616-1.263,3.716-0.266l71.082,64.525c1.097,0.995,1.212,2.73,0.256,3.875
						C2139.263,1673.24,2138.533,1673.559,2137.797,1673.559z"/>
					<path style="fill:#FFFFFF;" d="M2112.766,1711.645c-0.547,0-1.099-0.177-1.572-0.545l-77.724-60.347
						c-1.167-0.906-1.407-2.625-0.538-3.842c0.869-1.218,2.518-1.467,3.687-0.56l77.724,60.347c1.167,0.906,1.407,2.625,0.538,3.842
						C2114.364,1711.264,2113.57,1711.645,2112.766,1711.645z"/>
					<path style="fill:#FFFFFF;" d="M2073.905,1759.915c-0.611,0-1.225-0.22-1.724-0.67l-72.867-65.764
						c-1.1-0.992-1.219-2.727-0.266-3.872c0.952-1.148,2.614-1.274,3.717-0.279l72.867,65.764c1.1,0.992,1.22,2.727,0.266,3.872
						C2075.377,1759.593,2074.644,1759.915,2073.905,1759.915z"/>
					<path style="fill:#FFFFFF;" d="M1986.302,1850.658c-0.674,0-1.348-0.268-1.863-0.805l-63.233-65.898
						c-1.029-1.073-1.029-2.81,0-3.882c1.029-1.073,2.696-1.073,3.725,0l63.233,65.897c1.029,1.073,1.029,2.81,0,3.882
						C1987.65,1850.39,1986.976,1850.658,1986.302,1850.658z"/>
					<path style="fill:#FFFFFF;" d="M1954.687,1892.123c-0.728,0-1.454-0.314-1.974-0.925l-63.233-74.413
						c-0.965-1.137-0.865-2.872,0.225-3.877c1.091-1,2.758-0.896,3.719,0.236l63.233,74.414c0.965,1.137,0.865,2.872-0.225,3.877
						C1955.93,1891.895,1955.307,1892.123,1954.687,1892.123z"/>
					<path style="fill:#FFFFFF;" d="M1915.477,1934.403c-0.652,0-1.306-0.252-1.816-0.756
						c-24.362-24.162-61.646-60.838-64.51-62.857c-1.201-0.847-1.527-2.555-0.717-3.81c0.808-1.258,2.434-1.595,3.641-0.759
						c4.025,2.797,58.966,57.247,65.218,63.447c1.054,1.046,1.095,2.783,0.093,3.882
						C1916.868,1934.116,1916.173,1934.403,1915.477,1934.403z"/>
					<path style="fill:#FFFFFF;" d="M1838.759,2018.148c-0.714,0-1.424-0.3-1.944-0.89c-5.947-6.763-58.185-66.185-60.859-70.432
						c-0.797-1.268-0.458-2.966,0.757-3.797c1.216-0.831,2.848-0.477,3.648,0.783c1.886,2.979,37.118,43.336,60.339,69.735
						c0.983,1.118,0.911,2.856-0.162,3.88C1840.033,2017.909,1839.394,2018.148,1838.759,2018.148z"/>
					<path style="fill:#FFFFFF;" d="M1791.335,2067.571c-0.859,0-1.701-0.437-2.208-1.241l-43.473-69.209
						c-0.796-1.268-0.455-2.971,0.761-3.802c1.219-0.828,2.85-0.472,3.649,0.794l43.473,69.209c0.796,1.268,0.455,2.971-0.762,3.802
						C1792.331,2067.426,1791.83,2067.571,1791.335,2067.571z"/>
					<path style="fill:#FFFFFF;" d="M1764.238,2121.113c-0.695,0-1.388-0.284-1.906-0.85l-70.39-76.88
						c-1.005-1.097-0.965-2.834,0.087-3.883c1.054-1.046,2.72-1.008,3.725,0.091l70.39,76.88c1.005,1.097,0.965,2.834-0.088,3.883
						C1765.546,2120.861,1764.891,2121.113,1764.238,2121.113z"/>
					<path style="fill:#FFFFFF;" d="M1681.994,2207.604c-0.826,0-1.639-0.402-2.152-1.158l-54.095-79.626
						c-0.841-1.239-0.561-2.952,0.628-3.829c1.187-0.875,2.833-0.585,3.672,0.654l54.095,79.626
						c0.841,1.239,0.561,2.952-0.628,3.829C1683.052,2207.44,1682.521,2207.604,1681.994,2207.604z"/>
					<path style="fill:#FFFFFF;" d="M1640.278,2241.091c-0.848,0-1.68-0.427-2.188-1.215l-53.133-82.34
						c-0.813-1.258-0.491-2.963,0.715-3.81c1.209-0.847,2.844-0.509,3.656,0.748l53.133,82.34c0.813,1.258,0.491,2.963-0.715,3.81
						C1641.294,2240.941,1640.783,2241.091,1640.278,2241.091z"/>
					<path style="fill:#FFFFFF;" d="M1600.317,2277.467c-0.775,0-1.541-0.354-2.062-1.035l-59.281-77.546
						c-0.907-1.185-0.719-2.915,0.419-3.859c1.136-0.941,2.794-0.75,3.703,0.437l59.281,77.545c0.907,1.185,0.719,2.915-0.419,3.858
						C1601.472,2277.271,1600.893,2277.467,1600.317,2277.467z"/>
					<path style="fill:#FFFFFF;" d="M1529.181,2343.053c-0.82,0-1.627-0.396-2.142-1.142l-52.694-76.417
						c-0.849-1.234-0.58-2.95,0.602-3.834c1.182-0.888,2.826-0.603,3.677,0.627l52.694,76.417c0.849,1.233,0.58,2.949-0.602,3.834
						C1530.25,2342.887,1529.713,2343.053,1529.181,2343.053z"/>
					<path style="fill:#FFFFFF;" d="M1494.929,2371.921c-0.82,0-1.628-0.397-2.142-1.145l-52.694-76.454
						c-0.849-1.231-0.579-2.947,0.602-3.832c1.181-0.888,2.828-0.603,3.677,0.63l52.694,76.454c0.849,1.231,0.579,2.947-0.602,3.832
						C1495.998,2371.755,1495.46,2371.921,1494.929,2371.921z"/>
					<path style="fill:#FFFFFF;" d="M1468.582,2395.686c-0.797,0-1.582-0.373-2.101-1.086l-51.377-70.475
						c-0.88-1.207-0.655-2.928,0.504-3.845c1.16-0.922,2.814-0.684,3.692,0.526l51.377,70.475c0.88,1.207,0.655,2.928-0.504,3.845
						C1469.698,2395.504,1469.136,2395.686,1468.582,2395.686z"/>
					<path style="fill:#FFFFFF;" d="M1417.204,2447.471c-0.76,0-1.516-0.341-2.037-1.003l-59.596-75.551
						c-0.924-1.172-0.762-2.901,0.361-3.864c1.125-0.965,2.784-0.796,3.709,0.378l59.596,75.551
						c0.924,1.172,0.762,2.901-0.361,3.864C1418.385,2447.268,1417.793,2447.471,1417.204,2447.471z"/>
					<path style="fill:#FFFFFF;" d="M1373.294,2476.766c-0.845,0-1.675-0.421-2.184-1.207l-52.694-81.08
						c-0.816-1.255-0.501-2.963,0.705-3.813c1.203-0.85,2.843-0.523,3.659,0.735l52.694,81.08c0.816,1.255,0.5,2.963-0.705,3.813
						C1374.316,2476.613,1373.802,2476.766,1373.294,2476.766z"/>
					<path style="fill:#FFFFFF;" d="M1335.052,2506.43c-0.806,0-1.599-0.384-2.116-1.107l-50.14-70.204
						c-0.868-1.215-0.626-2.936,0.54-3.84c1.169-0.909,2.82-0.654,3.687,0.563l50.139,70.204c0.868,1.215,0.627,2.936-0.54,3.84
						C1336.15,2506.253,1335.598,2506.43,1335.052,2506.43z"/>
					<path style="fill:#FFFFFF;" d="M1253.853,2563.669c-0.866,0-1.714-0.443-2.217-1.258l-50.938-82.345
						c-0.789-1.274-0.436-2.974,0.786-3.797c1.226-0.815,2.857-0.456,3.642,0.82l50.938,82.345c0.789,1.273,0.436,2.973-0.786,3.797
						C1254.837,2563.527,1254.341,2563.669,1253.853,2563.669z"/>
					<path style="fill:#FFFFFF;" d="M1202.914,2585.142c-0.868,0-1.719-0.448-2.222-1.266l-48.302-78.711
						c-0.785-1.279-0.426-2.977,0.8-3.794c1.22-0.818,2.855-0.445,3.638,0.834l48.302,78.712c0.785,1.279,0.426,2.977-0.8,3.794
						C1203.892,2585.002,1203.4,2585.142,1202.914,2585.142z"/>
					<path style="fill:#FFFFFF;" d="M1122.117,2622.22c-0.941,0-1.849-0.526-2.325-1.448l-38.642-75.06
						c-0.687-1.335-0.206-3,1.077-3.717c1.285-0.716,2.88-0.212,3.567,1.121l38.642,75.06c0.687,1.336,0.206,3-1.077,3.716
						C1122.963,2622.115,1122.537,2622.22,1122.117,2622.22z"/>
					<path style="fill:#FFFFFF;" d="M1094.013,2633.977c-0.876,0-1.732-0.453-2.232-1.284l-36.886-61.084
						c-0.776-1.282-0.405-2.976,0.826-3.786c1.231-0.802,2.858-0.424,3.633,0.863l36.886,61.085
						c0.776,1.281,0.405,2.976-0.826,3.786C1094.978,2633.841,1094.493,2633.977,1094.013,2633.977z"/>
					<path style="fill:#FFFFFF;" d="M1030.777,2656.531c-1.082,0-2.097-0.7-2.482-1.823l-24.591-71.842
						c-0.489-1.429,0.226-2.998,1.596-3.507c1.366-0.517,2.877,0.233,3.367,1.663l24.591,71.842
						c0.489,1.429-0.227,2.998-1.597,3.507C1031.37,2656.479,1031.071,2656.531,1030.777,2656.531z"/>
					<path style="fill:#FFFFFF;" d="M997.365,2665.682c-1.181,0-2.255-0.834-2.554-2.081l-19.284-80.541
						c-0.352-1.472,0.507-2.963,1.918-3.33c1.415-0.349,2.842,0.531,3.194,2l19.284,80.541c0.353,1.472-0.507,2.963-1.918,3.33
						C997.791,2665.655,997.577,2665.682,997.365,2665.682z"/>
					<path style="fill:#FFFFFF;" d="M928.901,2665.682c-1.455,0-2.635-1.228-2.635-2.746v-80.54c0-1.518,1.18-2.746,2.635-2.746
						c1.455,0,2.635,1.228,2.635,2.746v80.54C931.536,2664.454,930.356,2665.682,928.901,2665.682z"/>
					<path style="fill:#FFFFFF;" d="M905.9,2665.682c-1.455,0-2.635-1.228-2.635-2.746v-80.994c0-1.517,1.18-2.746,2.635-2.746
						c1.455,0,2.635,1.228,2.635,2.746v80.994C908.534,2664.454,907.355,2665.682,905.9,2665.682z"/>
					<path style="fill:#FFFFFF;" d="M851.62,2656.531c-0.134,0-0.269-0.01-0.404-0.032c-1.438-0.231-2.425-1.633-2.204-3.132
						l10.539-71.389c0.221-1.501,1.571-2.534,3.004-2.295c1.438,0.231,2.425,1.633,2.204,3.132l-10.539,71.389
						C854.02,2655.56,852.898,2656.531,851.62,2656.531z"/>
					<path style="fill:#FFFFFF;" d="M823.513,2643.716c-0.262,0-0.529-0.041-0.791-0.126c-1.388-0.456-2.16-1.998-1.724-3.443
						c9.012-29.881,17.257-63.458,15.457-67.925c-0.839-1.239-0.52-2.888,0.67-3.762c1.19-0.877,2.869-0.512,3.708,0.724
						c4.427,6.54-8.881,52.957-14.807,72.609C825.672,2642.966,824.633,2643.716,823.513,2643.716z"/>
					<path style="fill:#FFFFFF;" d="M771.825,2622.22c-0.476,0-0.957-0.134-1.391-0.416c-1.235-0.802-1.612-2.494-0.843-3.781
						l34.999-58.551c0.769-1.29,2.393-1.682,3.629-0.88c1.235,0.802,1.612,2.494,0.843,3.781l-34.999,58.551
						C773.564,2621.761,772.705,2622.22,771.825,2622.22z"/>
					<path style="fill:#FFFFFF;" d="M747.981,2584.688c-0.419,0-0.846-0.104-1.243-0.327c-1.282-0.716-1.764-2.381-1.077-3.716
						l31.617-61.444c0.686-1.333,2.282-1.84,3.567-1.121c1.283,0.716,1.764,2.381,1.077,3.716l-31.617,61.444
						C749.831,2584.163,748.922,2584.688,747.981,2584.688z"/>
					<path style="fill:#FFFFFF;" d="M707.587,2506.43c-0.975,0-1.912-0.566-2.369-1.539c-0.641-1.359-0.1-3.006,1.207-3.673
						l49.182-25.106c1.308-0.668,2.887-0.102,3.525,1.26c0.641,1.359,0.1,3.006-1.207,3.674l-49.182,25.105
						C708.37,2506.341,707.975,2506.43,707.587,2506.43z"/>
					<path style="fill:#FFFFFF;" d="M707.587,2475.176c-0.857,0-1.697-0.434-2.204-1.236c-0.8-1.268-0.463-2.971,0.753-3.802
						l40.4-27.704c1.218-0.839,2.849-0.483,3.65,0.783c0.8,1.268,0.463,2.971-0.753,3.802l-40.399,27.704
						C708.586,2475.031,708.083,2475.176,707.587,2475.176z"/>
				</g>
			</g>
		</g>
		<g>
			<g>
				<g>
					
						<linearGradient id="SVGID_00000047041449135586185080000015874232158995557789_" gradientUnits="userSpaceOnUse" x1="1977.5997" y1="-2296.3423" x2="1601.7251" y2="-2001.2045" gradientTransform="matrix(-0.0986 0.9951 -0.9951 -0.0986 -1264.1674 797.1727)">
						<stop  offset="0" style="stop-color:#09005D"/>
						<stop  offset="1" style="stop-color:#1A0F91"/>
					</linearGradient>
					<path style="fill:url(#SVGID_00000047041449135586185080000015874232158995557789_);" d="M763.052,2861.684
						c3.197-25.083,7.448-37.8,10.863-44.253c-2.499-0.263-5.046-0.501-7.691-0.681c-2.825-0.192-5.282,1.671-5.52,4.239
						l-12.795,138.194c-0.408,4.41,4.448,7.492,8.679,5.983C756.887,2946.909,758.111,2900.458,763.052,2861.684z"/>
					
						<linearGradient id="SVGID_00000045603054998757773620000009419408527575311752_" gradientUnits="userSpaceOnUse" x1="-2317.8501" y1="-2223.8118" x2="-1985.2513" y2="-2333.4792" gradientTransform="matrix(0.0986 -0.9951 -0.9951 -0.0986 -1227.3925 423.9935)">
						<stop  offset="0" style="stop-color:#4F52FF"/>
						<stop  offset="1" style="stop-color:#4042E2"/>
					</linearGradient>
					<path style="fill:url(#SVGID_00000045603054998757773620000009419408527575311752_);" d="M819.87,2827.937
						c10.916,4.276,17.507,15.4,15.984,27.024l-1.507,11.497c-20.802,59.924-57.816,87.626-76.067,98.133
						c-0.354,0.204-0.727,0.312-1.096,0.444c0.298-18.256,1.522-64.707,6.463-103.481c3.197-25.083,7.448-37.8,10.864-44.253
						C794.136,2819.363,809.281,2823.79,819.87,2827.937z"/>
				</g>
				
					<linearGradient id="SVGID_00000052796150203572801920000014692904502488660627_" gradientUnits="userSpaceOnUse" x1="-4876.6982" y1="2864.9773" x2="-4814.8491" y2="2864.9773" gradientTransform="matrix(-1 0 0 1 -4004.3562 0)">
					<stop  offset="0" style="stop-color:#FEBBBA"/>
					<stop  offset="1" style="stop-color:#FF928E"/>
				</linearGradient>
				<path style="fill:url(#SVGID_00000052796150203572801920000014692904502488660627_);" d="M810.662,2864.301l4.25-21.759
					c0.994-5.088,7.295-8.608,14.074-7.862l43.356,4.771l-2.051,55.924l-50.423-14.758
					C813.089,2879.871,809.668,2869.388,810.662,2864.301z"/>
			</g>
			<g>
				<g>
					
						<linearGradient id="SVGID_00000068644501891613903950000014056386235834080924_" gradientUnits="userSpaceOnUse" x1="4397.332" y1="4390.4155" x2="4021.4773" y2="4685.5376" gradientTransform="matrix(0.9288 -0.3706 0.3706 0.9288 -3894.5696 653.3018)">
						<stop  offset="0" style="stop-color:#09005D"/>
						<stop  offset="1" style="stop-color:#1A0F91"/>
					</linearGradient>
					<path style="fill:url(#SVGID_00000068644501891613903950000014056386235834080924_);" d="M1730.466,3217.05
						c-23.739,8.709-36.985,10.789-44.286,10.728c0.916,2.34,1.878,4.71,2.935,7.141c1.13,2.597,3.915,3.92,6.304,2.949
						l128.57-52.26c4.103-1.667,4.603-7.397,1.316-10.458C1808.962,3183.289,1767.162,3203.587,1730.466,3217.05z"/>
					
						<linearGradient id="SVGID_00000103987328960352047920000003581614036379074454_" gradientUnits="userSpaceOnUse" x1="-4738.0034" y1="4462.6411" x2="-4405.416" y2="4352.9771" gradientTransform="matrix(-0.9288 0.3706 0.3706 0.9288 -4243.0684 792.8956)">
						<stop  offset="0" style="stop-color:#4F52FF"/>
						<stop  offset="1" style="stop-color:#4042E2"/>
					</linearGradient>
					<path style="fill:url(#SVGID_00000103987328960352047920000003581614036379074454_);" d="M1674.352,3182.146
						c-1.23-11.659,5.612-22.632,16.632-26.63l10.9-3.955c62.773-9.12,104.404,10.986,122.134,22.352
						c0.344,0.22,0.611,0.502,0.898,0.768c-16.344,8.14-58.144,28.437-94.839,41.9c-23.74,8.709-36.985,10.789-44.287,10.728
						C1678.587,3208.938,1675.545,3193.455,1674.352,3182.146z"/>
				</g>
				
					<linearGradient id="SVGID_00000042705713458451468670000005480598355823268993_" gradientUnits="userSpaceOnUse" x1="2016.7869" y1="4613.7637" x2="2078.6389" y2="4613.7637" gradientTransform="matrix(0.4604 0.8877 0.8877 -0.4604 -3341.0901 3452.3875)">
					<stop  offset="0" style="stop-color:#FEBBBA"/>
					<stop  offset="1" style="stop-color:#FF928E"/>
				</linearGradient>
				<path style="fill:url(#SVGID_00000042705713458451468670000005480598355823268993_);" d="M1710.873,3173.58l-21.273,6.244
					c-4.974,1.459-11-2.514-13.458-8.875l-15.724-40.684l50.59-23.924l10.111,51.557
					C1723.577,3164.258,1715.847,3172.121,1710.873,3173.58z"/>
			</g>
			
				<linearGradient id="SVGID_00000181808495404980435700000012046108645961898636_" gradientUnits="userSpaceOnUse" x1="1123.1758" y1="2788.7749" x2="1386.4265" y2="2036.6277">
				<stop  offset="0" style="stop-color:#09005D"/>
				<stop  offset="1" style="stop-color:#1A0F91"/>
			</linearGradient>
			<path style="fill:url(#SVGID_00000181808495404980435700000012046108645961898636_);" d="M1407.322,2703.412
				c0,0-164.383,273.454-248.523,271.896c-84.14-1.559-314.744-69.493-314.744-69.493l12.465-81.647l243.07,15.196l77.907-208.404
				L1407.322,2703.412z"/>
			
				<linearGradient id="SVGID_00000028305149085939800590000014435165467906722222_" gradientUnits="userSpaceOnUse" x1="-5934.6343" y1="2811.0264" x2="-5309.4214" y2="2811.0264" gradientTransform="matrix(-1 0 0 1 -4004.3562 0)">
				<stop  offset="0" style="stop-color:#09005D"/>
				<stop  offset="1" style="stop-color:#1A0F91"/>
			</linearGradient>
			<path style="fill:url(#SVGID_00000028305149085939800590000014435165467906722222_);" d="M1117.065,2459.803
				c0,0-58.888,212.417,94.641,252.376s279.717,77.816,279.717,77.816l168.251,372.255l71.507-16.825
				c0,0-37.856-372.255-109.363-454.277c-71.507-82.022-141.056-138.089-141.056-138.089L1117.065,2459.803z"/>
			
				<linearGradient id="SVGID_00000047770409265290269930000006979486931009591460_" gradientUnits="userSpaceOnUse" x1="1508.2338" y1="2228.8413" x2="1640.9651" y2="1635.9738">
				<stop  offset="0" style="stop-color:#FEBBBA"/>
				<stop  offset="1" style="stop-color:#FF928E"/>
			</linearGradient>
			<path style="fill:url(#SVGID_00000047770409265290269930000006979486931009591460_);" d="M1376.608,2305.211
				c-4.651-6.725-161.137-151.38-59.436-213.394c101.7-62.014,186.561,185.795,186.561,185.795l158.65,1.794
				c0,0,17.828-31.973,31.254-23.794c13.426,8.178,32.28-0.353,41.271,20.621c8.991,20.974-1.854,42.556-18.684,53.605
				C1699.395,2340.887,1464.274,2431.996,1376.608,2305.211z"/>
			
				<linearGradient id="SVGID_00000042008083795250032340000011986252445256932784_" gradientUnits="userSpaceOnUse" x1="-5280.835" y1="2204.6582" x2="-5355.3145" y2="1979.6354" gradientTransform="matrix(-1 0 0 1 -4004.3562 0)">
				<stop  offset="0" style="stop-color:#FEBBBA"/>
				<stop  offset="1" style="stop-color:#FF928E"/>
			</linearGradient>
			<path style="fill:url(#SVGID_00000042008083795250032340000011986252445256932784_);" d="M1376.284,2007.629
				c0,0,59.406,69.403,65.715,72.558c-104.105,12.619-233.654-45.289-233.654-45.289s85.278-39.888,90.063-95.621
				c26.117,1.262,73.137,0,73.137,0L1376.284,2007.629z"/>
			
				<linearGradient id="SVGID_00000114780262127701108370000015310200602501670309_" gradientUnits="userSpaceOnUse" x1="1047.3932" y1="3131.4519" x2="1365.9332" y2="2230.5784">
				<stop  offset="0" style="stop-color:#4F52FF"/>
				<stop  offset="1" style="stop-color:#4042E2"/>
			</linearGradient>
			<path style="fill:url(#SVGID_00000114780262127701108370000015310200602501670309_);" d="M1244.065,2013.555
				c0,0,162.568,66.849,187.612,56.75c25.044,23.552,109.169,138.173,77.622,176.029c-0.654,0.785,26.57,297.736,1.218,326.387
				c-9.448,10.677-35.456-0.182-48.964-0.356c-37.363-0.481-74.036-8.887-110.32-17.023
				c-46.851-10.505-93.522-22.555-139.582-37.344c-20.099-6.453-40.053-13.371-59.737-21.002
				c-14.647-5.678-36.479-10.454-46.185-23.593c-9.59-12.982,2.489-51.94,4.714-67.866c13.085-93.644,32.053-190.58,32.054-285.374
				C1142.496,2050.761,1244.065,2013.555,1244.065,2013.555z"/>
			<g>
				
					<linearGradient id="SVGID_00000049195679861156286400000010653467366547100809_" gradientUnits="userSpaceOnUse" x1="1782.7931" y1="1544.4857" x2="1557.1492" y2="1679.4297">
					<stop  offset="0" style="stop-color:#09005D"/>
					<stop  offset="1" style="stop-color:#1A0F91"/>
				</linearGradient>
				<path style="fill:url(#SVGID_00000049195679861156286400000010653467366547100809_);" d="M1289.6,1933.668
					c-9.022,8.393-19.592,15.983-27.789,11.246c-11.25-6.502-18.694-40.256-19.506-47.85c-0.812-7.597-31.852-91.361-17.419-112.115
					c8.057-11.584,17.414-13.431,28.303-4.522c1.877-2.164,2.765-5.692,5.005-7.828c26.414-25.182,58.668-44.2,93.488-55.126
					c-1.37,7.735-2.74,15.47-4.11,23.205c23.651-12.834,49.944-20.772,76.746-23.17c-12.503,8.214-23.454,18.782-32.107,30.985
					c15.281-4.641,31.005-9.333,46.925-8.072c17.055,1.352,40.026,11.212,29.328,27.73c-11.091,17.124-37.236,34.646-52.358,49.273
					c-36.32,35.129-73.684,69.178-112.025,102.089C1300.601,1922.5,1295.423,1928.251,1289.6,1933.668z"/>
				
					<linearGradient id="SVGID_00000167362214621781711410000011366785733560006559_" gradientUnits="userSpaceOnUse" x1="-5268.6367" y1="1901.6388" x2="-5126.9355" y2="2304.6597" gradientTransform="matrix(-0.9943 0.1062 0.1062 0.9943 -4049.71 530.7528)">
					<stop  offset="0" style="stop-color:#FEBBBA"/>
					<stop  offset="1" style="stop-color:#FF928E"/>
				</linearGradient>
				<path style="fill:url(#SVGID_00000167362214621781711410000011366785733560006559_);" d="M1423.34,1808.568
					c0,0,137.252,181.348,7.048,209.758c-112.278,24.498-136.884-82.547-136.884-82.547s-15.397-0.281-25.429-22.26
					c-10.032-21.979,1.509-57.788,27.779-51.631c26.27,6.158,31.324,41.474,31.324,41.474s-6.125-81.304,18.927-86.542
					C1371.158,1811.583,1423.34,1808.568,1423.34,1808.568z"/>
			</g>
			
				<linearGradient id="SVGID_00000105419751538564969060000002649162083449026183_" gradientUnits="userSpaceOnUse" x1="-5211.5845" y1="2006.2256" x2="-4892.9731" y2="2807.5811" gradientTransform="matrix(-1 0 0 1 -4004.3562 0)">
				<stop  offset="0" style="stop-color:#FEBBBA"/>
				<stop  offset="1" style="stop-color:#FF928E"/>
			</linearGradient>
			<path style="fill:url(#SVGID_00000105419751538564969060000002649162083449026183_);" d="M1071.031,2117.371
				c7.506-3.096,180.855-124.481,219.61-12.721c38.755,111.76-219.61,141.903-219.61,141.903l-35.166,153.583
				c0,0,27.271,24.037,16.506,35.343c-10.765,11.306-6.459,31.401-28.707,35.707c-22.248,4.306-40.908-10.765-48.085-29.425
				C968.403,2423.102,929.523,2175.734,1071.031,2117.371z"/>
			
				<linearGradient id="SVGID_00000168819864568855278560000016103438176144007304_" gradientUnits="userSpaceOnUse" x1="-5718.7915" y1="2293.7507" x2="-5688.5356" y2="2293.7507" gradientTransform="matrix(-1 0 0 1 -4004.3562 0)">
				<stop  offset="0" style="stop-color:#FEBBBA"/>
				<stop  offset="1" style="stop-color:#FF928E"/>
			</linearGradient>
			<path style="fill:url(#SVGID_00000168819864568855278560000016103438176144007304_);" d="M1686.028,2299.055
				c2.471-0.368,4.3-1.435,5.59-3.265c3.489-4.948,1.836-13.595,1.819-13.682c-0.152-0.771,0.161-1.55,0.76-2.058
				c0.599-0.508,1.465-0.644,2.2-0.364c0.034,0.013,3.346,1.181,12.384-1.438c0.921-0.266,1.292-0.582,1.313-0.728
				c0.3-1.923-5.408-7.618-12.217-12.191c-0.993-0.667-1.258-2.014-0.591-3.009c0.669-0.993,2.012-1.262,3.009-0.591
				c3.536,2.372,15.001,10.572,14.084,16.458c-0.22,1.412-1.16,3.292-4.391,4.228c-1.838,0.531-3.413,0.886-4.874,1.173
				c-0.5,9.95-0.445,31.917,4.893,37.292c0.677,0.684,1.321,0.965,2.134,0.921c1.201-0.043,2.221,0.843,2.291,2.036
				c0.07,1.197-0.841,2.221-2.037,2.291c-0.138,0.008-0.277,0.012-0.413,0.012c-1.876,0-3.614-0.758-5.052-2.206
				c-7.017-7.063-6.57-31.324-6.189-39.725c-1.01,0.074-1.927,0.107-2.665,0.076c0.281,3.587,0.171,9.613-2.905,13.987
				c-1.982,2.82-4.842,4.524-8.503,5.071c-0.108,0.015-0.216,0.023-0.322,0.023c-1.057,0-1.982-0.773-2.143-1.848
				C1684.027,2300.334,1684.844,2299.231,1686.028,2299.055z"/>
			
				<linearGradient id="SVGID_00000018194902951005096980000017958408030431563179_" gradientUnits="userSpaceOnUse" x1="1174.7952" y1="1866.7043" x2="1070.2745" y2="771.7226">
				<stop  offset="0" style="stop-color:#4F52FF"/>
				<stop  offset="1" style="stop-color:#4042E2"/>
			</linearGradient>
			<path style="fill:url(#SVGID_00000018194902951005096980000017958408030431563179_);" d="M1290.641,2104.65
				c-29.314-84.54-135.603-35.69-188.906-5.531c20.716,41.728,37.917,86.789,47.341,132.423
				C1221.608,2213.043,1315.048,2175.039,1290.641,2104.65z"/>
		</g>
		<g>
			
				<linearGradient id="SVGID_00000035503297833909768030000009506009250510559393_" gradientUnits="userSpaceOnUse" x1="2319.1035" y1="2299.8948" x2="2316.8916" y2="2883.9148">
				<stop  offset="0" style="stop-color:#FF928E"/>
				<stop  offset="1" style="stop-color:#FE7062"/>
			</linearGradient>
			<path style="fill:url(#SVGID_00000035503297833909768030000009506009250510559393_);" d="M2394.893,2271.739
				c-49.638,18.535-104.286,19.028-154.529,2.2c-55.914-18.727-146.663-22.738-284.185,38.899
				c-269.635,120.849-260.107,648.126,122.619,726.984c499.852,102.99,734.326-144.603,777.48-322.716
				c43.154-178.113-71.031-404.605-292.879-452.998C2490.744,2248.26,2434.963,2256.776,2394.893,2271.739z"/>
			<path style="opacity:0.23;fill:#FFFFFF;" d="M2049.452,2352.419c43.915,2.843,125.788,21.59,50.729,117.565
				c-75.06,95.975-138.009,254.468-105.957,357.239c32.052,102.771-176.431-24.253-188.328-160.923
				C1793.999,2529.629,1913.05,2343.589,2049.452,2352.419z"/>
			
				<linearGradient id="SVGID_00000021109383817134857720000004294083621794965121_" gradientUnits="userSpaceOnUse" x1="2414.0154" y1="2212.5405" x2="2273.0071" y2="2389.8477">
				<stop  offset="0" style="stop-color:#E1473D"/>
				<stop  offset="1" style="stop-color:#E9605A"/>
			</linearGradient>
			<path style="fill:url(#SVGID_00000021109383817134857720000004294083621794965121_);" d="M2462.29,2331.796
				c0,24.991-64.415,45.249-143.875,45.249c-79.46,0-143.875-20.259-143.875-45.249c0-24.991,64.415,0,143.875,0
				C2397.875,2331.796,2462.29,2306.805,2462.29,2331.796z"/>
			<path style="fill:#7D97F4;" d="M2281.107,2325.657c0,0-45.774-190.022,171.258-311.658
				c217.032-121.636,212.141-132.641,223.99-68.3c11.849,64.341,77.341,292.374-160.482,390.343
				C2278.048,2434.01,2281.107,2325.657,2281.107,2325.657z"/>
			<path style="fill:#91B3FA;" d="M2637.196,1952.759c-34.048,55.438-192.151,305.634-331.275,404.533
				c0,0,165.008,21.29,283.383-89.557c101.237-94.799,69.226-265.862,57.834-313.408
				C2646.007,1949.602,2639.74,1948.618,2637.196,1952.759z"/>
			
				<linearGradient id="SVGID_00000001658080007882497410000000962972071958423465_" gradientUnits="userSpaceOnUse" x1="2186.2866" y1="2240.7627" x2="2330.5347" y2="2240.7627">
				<stop  offset="0" style="stop-color:#E1473D"/>
				<stop  offset="1" style="stop-color:#E9605A"/>
			</linearGradient>
			<path style="fill:url(#SVGID_00000001658080007882497410000000962972071958423465_);" d="M2308.646,2360.817
				c4.484,31.206,31.05-3.2,18.595-65.188c-12.455-61.988-25.239-209.399-114.729-183.634
				C2123.023,2137.76,2289.722,2229.112,2308.646,2360.817z"/>
		</g>
		<g>
			
				<linearGradient id="SVGID_00000013879831400769472910000015830402475096721031_" gradientUnits="userSpaceOnUse" x1="1254.9829" y1="1787.2579" x2="2197.562" y2="2212.627" gradientTransform="matrix(0.9037 0.4282 -0.4282 0.9037 2003.6906 464.5362)">
				<stop  offset="0" style="stop-color:#4F52FF"/>
				<stop  offset="1" style="stop-color:#4042E2"/>
			</linearGradient>
			<path style="fill:url(#SVGID_00000013879831400769472910000015830402475096721031_);" d="M3053.267,3056.478l-724.421,35.008
				c-3.201,0.155-5.947-2.338-6.102-5.539l-7.849-162.413c-0.155-3.201,2.338-5.947,5.539-6.102l724.421-35.008
				c3.201-0.155,5.947,2.338,6.102,5.539l7.849,162.413C3058.961,3053.577,3056.469,3056.323,3053.267,3056.478z"/>
			<g style="opacity:0.22;">
				<path style="fill:#7D97F4;" d="M3031.208,2930.54l-692.549,33.468c-11.966,0.578-22.23-8.739-22.808-20.705l0,0
					c-0.578-11.966,8.739-22.23,20.705-22.808l692.549-33.468c11.966-0.578,22.23,8.739,22.808,20.705v0
					C3052.491,2919.698,3043.174,2929.961,3031.208,2930.54z"/>
			</g>
			<g>
				
					<linearGradient id="SVGID_00000043416859364118805390000008270150873803800982_" gradientUnits="userSpaceOnUse" x1="8351.501" y1="2980.6416" x2="9790.2246" y2="3268.3855" gradientTransform="matrix(0.9988 -0.0483 0.0483 0.9988 684.3844 1474.1082)">
					<stop  offset="0" style="stop-color:#4F52FF"/>
					<stop  offset="1" style="stop-color:#4042E2"/>
				</linearGradient>
				<polygon style="fill:url(#SVGID_00000043416859364118805390000008270150873803800982_);" points="2093.714,2850.653 
					2163.699,2778.015 2259.585,2773.382 2333.428,2839.069 2348.828,3157.747 2278.775,3228.975 2175.839,3233.949 
					2109.114,3169.332 				"/>
				<g style="opacity:0.22;">
					<polygon style="fill:#7D97F4;" points="2278.775,3228.975 2259.585,2773.382 2333.428,2839.069 2348.828,3157.747 					"/>
				</g>
				<g style="opacity:0.54;">
					<polygon style="fill:#7D97F4;" points="2096.99,2850.653 2166.975,2778.015 2262.861,2773.382 2336.704,2839.069 					"/>
				</g>
				<g style="opacity:0.54;">
					<polygon style="fill:#7D97F4;" points="2112.39,3169.332 2179.115,3233.949 2282.051,3228.975 2352.104,3157.747 					"/>
				</g>
			</g>
			<g>
				
					<linearGradient id="SVGID_00000008110078918008142220000001801429765551362233_" gradientUnits="userSpaceOnUse" x1="1895.4915" y1="1723.498" x2="3028.9973" y2="2390.5232" gradientTransform="matrix(0.9037 0.4282 -0.4282 0.9037 2003.6906 464.5362)">
					<stop  offset="0" style="stop-color:#4F52FF"/>
					<stop  offset="1" style="stop-color:#4042E2"/>
				</linearGradient>
				<polygon style="fill:url(#SVGID_00000008110078918008142220000001801429765551362233_);" points="3176.486,2794.794 
					3099.823,2729.243 3003.937,2733.877 2936.772,2806.378 2952.172,3125.057 3028.767,3189.198 3131.703,3184.223 
					3191.886,3113.473 				"/>
				<g style="opacity:0.22;">
					<polygon style="fill:#7D97F4;" points="3028.767,3189.198 3003.937,2733.877 2936.772,2806.378 2952.172,3125.057 					"/>
				</g>
				<g style="opacity:0.54;">
					<polygon style="fill:#7D97F4;" points="3176.486,2794.794 3099.823,2729.243 3003.937,2733.877 2936.772,2806.378 					"/>
				</g>
				<g style="opacity:0.54;">
					<polygon style="fill:#7D97F4;" points="3191.886,3113.473 3131.703,3184.223 3028.767,3189.198 2952.172,3125.057 					"/>
				</g>
			</g>
		</g>
	</g>
</g>
</svg>
