<?xml version="1.0" encoding="utf-8"?>
<!-- Generator: Adobe Illustrator 27.5.0, SVG Export Plug-In . SVG Version: 6.00 Build 0)  -->
<svg version="1.1" xmlns="http://www.w3.org/2000/svg" xmlns:xlink="http://www.w3.org/1999/xlink" x="0px" y="0px"
	 viewBox="0 0 3710 3710" style="enable-background:new 0 0 3710 3710;" xml:space="preserve">
<g id="Background">
	<g>
		<g>
			<rect style="fill:#FFFFFF;" width="3710" height="3710"/>
		</g>
	</g>
</g>
<g id="Illustration">
	<g>
		<path style="fill:#F4F7FA;" d="M1630.605,342.996c-387.492,6.845-987.017,154.176-1159.583,532.79
			c-60.27,132.236-56.19,326.638-48.03,715.442c2.399,114.279,6.376,280.844,34.307,487.513
			c58.022,429.317,97.521,721.581,247.012,891.761c374.578,426.42,1727.645,414.098,2305.443-353.598
			c315.192-418.783,363.681-1014.516,75.476-1506.859C2767.922,567.986,2149.366,333.833,1630.605,342.996z"/>
		<g>
			<g>
				<g>
					<g>
						<path style="fill:#D8DEE8;" d="M2443.267,632.027l-1319.153-44.648c-30.159-1.021-54.658,22.346-54.658,52.194v2396.272
							c0,29.848,24.499,52.65,54.658,50.935l1319.153-75.013c27.283-1.551,49.359-25.754,49.359-54.064V684.956
							C2492.626,656.646,2470.55,632.95,2443.267,632.027z"/>
						<g style="opacity:0.3;">
							<path style="fill:#D8DEE8;" d="M1902.017,2401.492c-22.435-273.994,145.876-387.087,81.692-635.329
								c-79.336-306.848-384.471-319.999-488.387-620.901c-39.816-115.29-55.546-289.586,58.429-543.342l-429.639-14.542
								c-30.159-1.021-54.658,22.346-54.658,52.194v2396.272c0,29.848,24.499,52.65,54.658,50.935l1176.239-66.886
								C2001.091,2788.177,1915.806,2569.902,1902.017,2401.492z"/>
						</g>
						<linearGradient id="SVGID_1_" gradientUnits="userSpaceOnUse" x1="2433.6345" y1="734.7793" x2="1459.9471" y2="2328.0837">
							<stop  offset="0" style="stop-color:#FFFFFF"/>
							<stop  offset="0.9964" style="stop-color:#EBEFF2"/>
						</linearGradient>
						<path style="fill:url(#SVGID_1_);" d="M2443.267,662.284l-1319.153-43.127c-12.362-0.405-22.428,9.214-22.428,21.443v2393.475
							c0,12.228,10.066,21.615,22.428,20.926l1319.153-73.491c11.198-0.624,20.301-10.588,20.301-22.212V684.028
							C2463.567,672.404,2454.465,662.65,2443.267,662.284z"/>
					</g>
					<g>
						<path style="fill:#D8DEE8;" d="M2194.127,2474.231l-800.436,28.842c-18.895,0.681-34.233,16.538-34.233,35.416l0,0
							c0,18.878,15.338,33.592,34.233,32.864l800.436-30.845c17.779-0.685,32.174-16.059,32.174-34.338l0,0
							C2226.301,2487.89,2211.906,2473.591,2194.127,2474.231z"/>
						<path style="fill:#D8DEE8;" d="M2194.127,2592.287l-800.436,32.41c-18.895,0.765-34.233,16.69-34.233,35.569l0,0
							c0,18.878,15.338,33.523,34.233,32.711l800.436-34.413c17.779-0.764,32.174-16.202,32.174-34.481l0,0
							C2226.301,2605.802,2211.906,2591.567,2194.127,2592.287z"/>
						<path style="fill:#D8DEE8;" d="M2194.127,2710.343l-800.436,35.978c-18.895,0.849-34.233,16.843-34.233,35.721l0,0
							c0,18.878,15.338,33.455,34.233,32.558l800.436-37.981c17.779-0.844,32.174-16.345,32.174-34.625l0,0
							C2226.301,2723.714,2211.906,2709.543,2194.127,2710.343z"/>
					</g>
					<g>
						<path style="fill:#D8DEE8;" d="M1779.052,758.107l-402.639-11.404c-9.361-0.265-16.955,7.095-16.955,16.438l0,0
							c0,9.344,7.594,17.125,16.955,17.378l402.639,10.905c9.081,0.246,16.438-7.009,16.438-16.203l0,0
							C1795.489,766.027,1788.132,758.365,1779.052,758.107z"/>
						<path style="fill:#D8DEE8;" d="M1779.052,817.455l-402.639-10.516c-9.361-0.244-16.955,7.132-16.955,16.476l0,0
							c0,9.344,7.594,17.108,16.955,17.341l402.639,10.017c9.081,0.226,16.438-7.045,16.438-16.24l0,0
							C1795.489,825.338,1788.132,817.692,1779.052,817.455z"/>
						<path style="fill:#D8DEE8;" d="M1779.052,876.802l-402.639-9.627c-9.361-0.224-16.955,7.169-16.955,16.513l0,0
							c0,9.344,7.594,17.091,16.955,17.303l402.639,9.129c9.081,0.206,16.438-7.081,16.438-16.276l0,0
							C1795.489,884.649,1788.132,877.019,1779.052,876.802z"/>
					</g>
				</g>
				<path style="opacity:0.35;fill:#FFFFFF;" d="M1905.052,2401.392c-22.43-273.963,145.843-387.043,81.674-635.257
					c-79.318-306.813-384.383-319.963-488.275-620.83c-38.164-110.521-54.197-275.286,45.032-512.438l-416.156-13.606
					c-12.36-0.404-22.423,9.214-22.423,21.441v2393.195c0,12.227,10.063,21.613,22.423,20.924l1140.249-63.524
					C1997.191,2770.091,1918.268,2562.812,1905.052,2401.392z"/>
				
					<linearGradient id="SVGID_00000170240071650184471020000010124317885828701856_" gradientUnits="userSpaceOnUse" x1="1432.6934" y1="1608.2906" x2="2213.605" y2="1608.2906">
					<stop  offset="0" style="stop-color:#FF9085"/>
					<stop  offset="1" style="stop-color:#FB6FBB"/>
				</linearGradient>
				<path style="fill:url(#SVGID_00000170240071650184471020000010124317885828701856_);" d="M2213.605,1511.191
					c0-60.213-23.762-116.767-66.979-159.314c-43.331-42.662-101.346-66.349-163.306-66.428
					c-57.302-0.073-111.728,19.981-154.756,56.86c-42.665-34.827-96.41-53.859-153.138-53.923
					c-61.732-0.069-120.196,22.198-165.424,63.004c-1.857,1.649-3.648,3.298-5.435,5.014
					c-92.748,88.932-96.152,231.011-7.778,322.082l223.571,212.533c28.753,27.003,66.945,41.237,107.405,40.045
					c40.236-1.185,78-17.543,106.315-45.904l212.156-212.972c0.129-0.194,0.259-0.324,0.389-0.454
					c0.778-0.716,1.489-1.494,2.203-2.209l7.181-7.273l-0.259-0.187C2193.194,1620.082,2213.605,1567.012,2213.605,1511.191z
					 M2066.37,1636.847l-110.638,1.73c-3.233,0.05-6.331-6.606-8.906-8.371l-47.156-34.952l-32.333,50.271l-85.794,133.346
					c-2.884,4.548-7.915,5.961-13.216,6.08c-1.409,0.032-7.313-0.16-8.723-0.519c-6.718-1.736-15.717-7.586-15.717-14.355v-264.421
					l-34.907,61.173l-28.326,48.15c-2.842,4.546-5.863,8.388-11.28,8.468l-197.446,2.909c-8.837,0.13-15.902-7.748-15.902-16.26
					c0-8.513,7.354-16.593,16.191-16.709l189.067-2.489l24.473-38.184l69.264-108.211c3.694-5.748,10.024-8.419,16.67-6.637
					c6.773,1.844,10.477,7.768,10.477,14.526v264.384l55.811-86.053l43.678-67.611c2.256-3.584,6.156-6.094,10.339-6.918
					c4.177-0.889,8.642,4.677,12.088,7.027l56.479,43.069l105.784-1.492c8.413-0.119,15.201,7.536,15.201,15.8
					C2081.548,1628.859,2074.782,1636.715,2066.37,1636.847z"/>
			</g>
			<g>
				
					<linearGradient id="SVGID_00000032638397612339685970000016073771925751737485_" gradientUnits="userSpaceOnUse" x1="1517.8578" y1="422.6868" x2="913.0632" y2="1266.0704">
					<stop  offset="0" style="stop-color:#FF9085"/>
					<stop  offset="1" style="stop-color:#FB6FBB"/>
				</linearGradient>
				<path style="opacity:0.3;fill:url(#SVGID_00000032638397612339685970000016073771925751737485_);" d="M1499.495,1249.469
					l-845.789-8.418c-19.126-0.19-34.65-15.426-34.65-34.031V885.324c0-18.604,15.524-33.315,34.65-32.86l736.307,17.538
					c18.11,0.431,32.773,15.43,32.773,33.501v276.489L1499.495,1249.469z"/>
				<polygon style="opacity:0.67;fill:#FFFFFF;" points="1303.982,986.261 743.867,975.34 743.867,936.774 1303.982,948.468 				"/>
				<polygon style="opacity:0.67;fill:#FFFFFF;" points="1303.982,1061.846 743.867,1052.472 743.867,1013.906 1303.982,1024.053 
									"/>
				<polygon style="opacity:0.67;fill:#FFFFFF;" points="1303.982,1137.431 743.867,1129.604 743.867,1091.038 1303.982,1099.639 
									"/>
			</g>
			<g>
				
					<linearGradient id="SVGID_00000106142201877850318480000011382302460644828066_" gradientUnits="userSpaceOnUse" x1="-7531.8276" y1="-3093.0117" x2="-8051.9995" y2="-2367.634" gradientTransform="matrix(-1 0 0 -1 -5902 -287)">
					<stop  offset="0" style="stop-color:#FF9085"/>
					<stop  offset="1" style="stop-color:#FB6FBB"/>
				</linearGradient>
				<path style="opacity:0.3;fill:url(#SVGID_00000106142201877850318480000011382302460644828066_);" d="M1780.59,2098.08
					l570.389-12.26c14.848-0.319,26.872,11.873,26.872,27.231v265.57c0,15.358-12.024,28.214-26.872,28.714l-601.183,20.263
					c-15.552,0.524-28.172-11.811-28.172-27.552v-347.146L1780.59,2098.08z"/>
				<polygon style="opacity:0.67;fill:#FFFFFF;" points="1823.149,2322.905 2280.485,2309.231 2280.485,2341.329 1823.149,2355.559 
									"/>
				<polygon style="opacity:0.67;fill:#FFFFFF;" points="1823.149,2257.597 2280.485,2245.034 2280.485,2277.132 1823.149,2290.251 
									"/>
				<polygon style="opacity:0.67;fill:#FFFFFF;" points="1823.149,2192.288 2280.485,2180.838 2280.485,2212.937 1823.149,2224.942 
									"/>
			</g>
		</g>
		<g>
			
				<linearGradient id="SVGID_00000036965024168763879110000017273310338824091302_" gradientUnits="userSpaceOnUse" x1="-970.2643" y1="3513.3145" x2="-1026.1339" y2="3329.0957" gradientTransform="matrix(-0.993 0.1177 0.1177 0.993 1497.196 -89.6996)">
				<stop  offset="0" style="stop-color:#444B8C"/>
				<stop  offset="0.9964" style="stop-color:#26264F"/>
			</linearGradient>
			<path style="fill:url(#SVGID_00000036965024168763879110000017273310338824091302_);" d="M2917.743,3189.757
				c6.899,11.005,5.824,16.157,4.638,18.498c-3.478,6.867-14.104,1.837-39.865,7.652c-3.021,0.683-8.777,2.082-16.243,1.128
				c-6.396-0.819-14.102-3.372-13.962-5.077c0.051-0.621,1.135-0.98,1.546-1.113c7.077-2.3,50.937-20.943,50.937-20.943
				L2917.743,3189.757z"/>
			
				<linearGradient id="SVGID_00000000901559529352499430000009573577036734806931_" gradientUnits="userSpaceOnUse" x1="-1018.4282" y1="3477.4438" x2="-1018.4282" y2="3181.4805" gradientTransform="matrix(-0.993 0.1177 0.1177 0.993 1497.196 -89.6996)">
				<stop  offset="0" style="stop-color:#FFC444"/>
				<stop  offset="0.9964" style="stop-color:#F36F56"/>
			</linearGradient>
			<path style="fill:url(#SVGID_00000000901559529352499430000009573577036734806931_);" d="M2918.555,3163.895l-1.335,26.353
				c0,0-10.315,9.037-14.24-0.214c-2.825-6.655-4.703-25.191-4.703-25.191L2918.555,3163.895z"/>
			
				<linearGradient id="SVGID_00000041252982691546380760000001450040392269784736_" gradientUnits="userSpaceOnUse" x1="-909.4548" y1="3477.4434" x2="-909.4548" y2="3181.4749" gradientTransform="matrix(-0.993 0.1177 0.1177 0.993 1497.196 -89.6996)">
				<stop  offset="0" style="stop-color:#FFC444"/>
				<stop  offset="0.9964" style="stop-color:#F36F56"/>
			</linearGradient>
			<polygon style="fill:url(#SVGID_00000041252982691546380760000001450040392269784736_);" points="2788.384,3190.479 
				2802.439,3219.192 2818.064,3215 2811.49,3187.74 			"/>
			
				<linearGradient id="SVGID_00000052101116708573772800000012623303276627396532_" gradientUnits="userSpaceOnUse" x1="-888.8759" y1="3488.6313" x2="-944.7457" y2="3304.4116" gradientTransform="matrix(-0.993 0.1177 0.1177 0.993 1497.196 -89.6996)">
				<stop  offset="0" style="stop-color:#444B8C"/>
				<stop  offset="0.9964" style="stop-color:#26264F"/>
			</linearGradient>
			<path style="fill:url(#SVGID_00000052101116708573772800000012623303276627396532_);" d="M2809.106,3235.118
				c6.738-9.93,13.691-9.82,14.421-16.237c0.574-5.042-3.076-10.771-7.869-12.591c-6.737-2.556-13.961,3.292-15.594,4.612
				c-11.087,8.977-6.583,20.731-17.251,27.147c-2.147,1.292-5.607,2.786-9.009,6.713c-1.444,1.669-5.022,5.8-3.825,8.262
				c1.384,2.849,8.445,2.007,15.159,1.207c8.056-0.959,12.084-1.437,15.71-4.265
				C2805.875,3246.049,2803.906,3242.782,2809.106,3235.118z"/>
			
				<linearGradient id="SVGID_00000060002299710306702420000003612559897634882735_" gradientUnits="userSpaceOnUse" x1="-1044.0186" y1="2838.8149" x2="-1071.1987" y2="3450.3691" gradientTransform="matrix(-0.993 0.1177 0.1177 0.993 1497.196 -89.6996)">
				<stop  offset="0" style="stop-color:#311944"/>
				<stop  offset="1" style="stop-color:#893976"/>
			</linearGradient>
			<path style="fill:url(#SVGID_00000060002299710306702420000003612559897634882735_);" d="M2938.747,2534.773
				c3.365,60.62,0.111,113.01-5.325,156.008c-5.848,46.255-10.799,54.575-11.193,86.258c-0.855,68.944,22,76.907,32.457,153.887
				c11.547,85.001-5.53,154.736-12.309,181.358c-5.926,23.273-12.578,42.223-17.668,55.424c-7.262,7.473-19.446,5.844-32.278,4.325
				c-11.068-77.049-22.903-149.442-33.971-226.491c-24.647-115.247-49.293-230.489-73.94-345.735
				C2835.929,2578.128,2887.338,2556.453,2938.747,2534.773z"/>
			
				<linearGradient id="SVGID_00000165215128407080765630000007543171061671237264_" gradientUnits="userSpaceOnUse" x1="-1044.0186" y1="2838.8149" x2="-1071.1987" y2="3450.3694" gradientTransform="matrix(-0.993 0.1177 0.1177 0.993 1497.196 -89.6996)">
				<stop  offset="0" style="stop-color:#311944"/>
				<stop  offset="1" style="stop-color:#893976"/>
			</linearGradient>
			<path style="opacity:0.3;fill:url(#SVGID_00000165215128407080765630000007543171061671237264_);" d="M2892.431,3172.034
				c-11.068-77.049-22.903-149.442-33.971-226.491c-24.647-115.247-49.293-230.489-73.94-345.735
				c51.409-21.68,102.818-43.355,154.227-65.035c0.222,4.014,0.342,7.893,0.509,11.838
				c-68.801,70.528-79.084,122.734-75.476,157.462c4.375,42.121,29.182,61.124,29.745,122.674
				c0.403,44.009-12.109,52.805-8.831,92.276c4.222,50.826,28.404,77.596,41.463,106.086c12.621,27.535,19.609,67.439,4.513,126.271
				c-2.116,6.121-4.14,11.609-5.96,16.328C2917.447,3175.18,2905.263,3173.555,2892.431,3172.034z"/>
			
				<linearGradient id="SVGID_00000116949501837381682890000007565747183418500002_" gradientUnits="userSpaceOnUse" x1="-629.6696" y1="3098.9775" x2="-1127.9783" y2="3076.3267" gradientTransform="matrix(-0.993 0.1177 0.1177 0.993 1497.196 -89.6996)">
				<stop  offset="0" style="stop-color:#311944"/>
				<stop  offset="1" style="stop-color:#893976"/>
			</linearGradient>
			<path style="fill:url(#SVGID_00000116949501837381682890000007565747183418500002_);" d="M2850.019,2600.789
				c-33.416,68.82-50.712,122.24-59.784,155.094c-5.534,20.042-10.33,40.84-9.637,67.533c0.85,32.703,9.54,58.914,16.569,75.574
				c9.989,21.263,19.491,46.241,26.517,74.764c22.788,92.503,7.334,172.775-6.103,219.315c-9.103,4.255-18.207,8.514-27.31,12.77
				c-26.202-57.745-59.256-140.002-86.594-242.555c-14.931-56.011-26.434-99.955-31.203-156.592
				c-5.031-59.737-4.367-154.939,35.157-271.897C2755.095,2556.793,2802.556,2578.792,2850.019,2600.789z"/>
			
				<linearGradient id="SVGID_00000057843861473070982750000017517024823722394505_" gradientUnits="userSpaceOnUse" x1="-1367.1863" y1="3229.5432" x2="-1013.8412" y2="2474.5325" gradientTransform="matrix(-0.993 0.1177 0.1177 0.993 1497.196 -89.6996)">
				<stop  offset="0" style="stop-color:#FF9085"/>
				<stop  offset="1" style="stop-color:#FB6FBB"/>
			</linearGradient>
			<path style="fill:url(#SVGID_00000057843861473070982750000017517024823722394505_);" d="M2785.445,2085.441
				c-58.872,15.208-103.455,29.653-121.163,62.615c-18.703,34.816,17.448,56.86,32.726,128.58
				c23.392,109.801-36.979,156.547-9.357,266.771c9.306,37.138,24.523,65.198,34.769,81.77c20.604,14.142,53.06,33.08,95.882,44.188
				c62.315,16.165,91.167,1.373,173.031-0.723c133.902-3.433,157.06,33.566,215.3,4.807c58.861-29.067,97.524-97.628,82.319-124.296
				c-9.107-15.97-32.631-3.578-69.29-21.072c-47.246-22.546-42.649-59.048-81.766-86.79
				c-56.184-39.848-103.008,8.978-151.116-25.734c-48.663-35.115-61.924-129.215-47.275-187.103
				c9.569-37.81,6.49-77.811,12.724-116.31c0.519-3.198,0.718-8.249-1.701-13.756c-9.244-21.063-49.263-21.937-79.489-22.316
				C2824.939,2075.493,2790.286,2084.19,2785.445,2085.441z"/>
			
				<linearGradient id="SVGID_00000003071410616138877620000008702672695580546483_" gradientUnits="userSpaceOnUse" x1="3462.0056" y1="2759.0212" x2="3737.9968" y2="3326.553" gradientTransform="matrix(0.9575 -0.2886 0.2886 0.9575 -1502.8842 536.33)">
				<stop  offset="0" style="stop-color:#FF9085"/>
				<stop  offset="1" style="stop-color:#FB6FBB"/>
			</linearGradient>
			<path style="opacity:0.3;fill:url(#SVGID_00000003071410616138877620000008702672695580546483_);" d="M3196.152,2631.942
				c-19.47-10.766-12.367-46.452-41.229-62.691c-26.788-15.072-44.708,9.029-83.04,0.668
				c-49.163-10.725-50.482-57.094-97.651-68.019c-33.918-7.855-42.138,14.061-89.719,18.922
				c-47.5,4.855-111.494-9.61-155.167-56.769c-18.557-20.038-29.828-42.123-36.683-62.835
				c-9.316,42.152-19.837,83.028-5.012,142.188c9.306,37.138,24.523,65.198,34.769,81.77c20.604,14.142,53.06,33.08,95.882,44.187
				c62.314,16.165,91.167,1.374,173.031-0.723c133.902-3.433,157.06,33.566,215.3,4.807c37.619-18.576,66.902-53.259,79.23-82.853
				C3236.365,2633.276,3210.282,2639.756,3196.152,2631.942z"/>
			
				<linearGradient id="SVGID_00000046337701051625430790000013330483588203270784_" gradientUnits="userSpaceOnUse" x1="-1357.421" y1="2354.1445" x2="-1421.1646" y2="2457.2593" gradientTransform="matrix(-0.9925 -0.1215 -0.1215 0.9925 1714.8896 -474.1254)">
				<stop  offset="0" style="stop-color:#FFC444"/>
				<stop  offset="0.9964" style="stop-color:#F36F56"/>
			</linearGradient>
			<path style="fill:url(#SVGID_00000046337701051625430790000013330483588203270784_);" d="M2795.801,1986.209
				c0,0-21.16,28.037-25.591,49.36c-4.431,21.322,20.064,23.6,20.064,23.6l-3.057,13.41c-2.609,11.447-11.708,20.288-23.225,22.567
				l-10.132,2.004c0,0,60.334,23.259,98.252,4.565l-9.676-2.517c-13.7-3.565-22.989-16.293-22.205-30.428l0.326-5.895
				C2820.557,2062.875,2841.996,1997.617,2795.801,1986.209z"/>
			<g>
				
					<linearGradient id="SVGID_00000078739710371407178470000007978454421454703000_" gradientUnits="userSpaceOnUse" x1="-740.4191" y1="2409.7063" x2="-868.9004" y2="2617.5437" gradientTransform="matrix(-0.993 0.1177 0.1177 0.993 1497.196 -89.6996)">
					<stop  offset="0" style="stop-color:#444B8C"/>
					<stop  offset="0.9964" style="stop-color:#26264F"/>
				</linearGradient>
				<path style="fill:url(#SVGID_00000078739710371407178470000007978454421454703000_);" d="M2678.123,2337.086l-95.884-165.395
					c-1.184-2.042-3.563-3.07-5.862-2.534l-134.152,31.351c-3.582,0.836-5.278,4.948-3.328,8.067l111.264,177.912
					c1.339,2.142,3.993,3.059,6.37,2.2l117.906-42.581L2678.123,2337.086z"/>
				
					<linearGradient id="SVGID_00000020369324142573714300000015173002265214180517_" gradientUnits="userSpaceOnUse" x1="-723.207" y1="2389.0354" x2="-834.187" y2="2597.4058" gradientTransform="matrix(-0.9946 0.104 0.104 0.9946 1561.4523 -80.9972)">
					<stop  offset="0" style="stop-color:#FFC444"/>
					<stop  offset="0.9964" style="stop-color:#F36F56"/>
				</linearGradient>
				<path style="fill:url(#SVGID_00000020369324142573714300000015173002265214180517_);" d="M2654.534,2318.314l-77.636-133.919
					c-0.959-1.654-2.885-2.486-4.746-2.052l-108.621,25.384c-2.902,0.677-4.275,4.007-2.695,6.532l90.089,144.054
					c1.084,1.734,3.233,2.476,5.157,1.781l95.468-34.477L2654.534,2318.314z"/>
				
					<linearGradient id="SVGID_00000181068221146168507480000005661314325172519089_" gradientUnits="userSpaceOnUse" x1="-753.5414" y1="2396.3745" x2="-722.9633" y2="2332.9531" gradientTransform="matrix(-0.993 0.1177 0.1177 0.993 1497.196 -89.6996)">
					<stop  offset="0" style="stop-color:#AA80F9"/>
					<stop  offset="0.9964" style="stop-color:#6165D7"/>
				</linearGradient>
				<path style="fill:url(#SVGID_00000181068221146168507480000005661314325172519089_);" d="M2553.986,2185.932l-6.165-10.741
					c-0.857-1.492-2.586-2.253-4.265-1.875l-55.874,12.566c-2.594,0.584-3.87,3.523-2.523,5.816l6.855,11.679
					c0.878,1.497,2.634,2.239,4.318,1.826l55.183-13.504C2554.053,2191.077,2555.287,2188.198,2553.986,2185.932z"/>
				<path style="fill:#FFFFFF;" d="M2480.804,2231.985c0.088-0.01,0.17-0.029,0.257-0.048l98.364-23.214
					c1.218-0.287,1.973-1.508,1.687-2.721c-0.292-1.221-1.551-1.955-2.726-1.682l-98.364,23.214
					c-1.218,0.287-1.973,1.508-1.687,2.721C2478.604,2231.39,2479.68,2232.118,2480.804,2231.985z"/>
				<path style="fill:#FFFFFF;" d="M2486.971,2241.517c0.092-0.011,0.188-0.031,0.279-0.051l97.761-24.131
					c1.217-0.296,1.957-1.525,1.657-2.744c-0.296-1.213-1.51-1.951-2.74-1.654l-97.76,24.131c-1.217,0.296-1.958,1.524-1.657,2.744
					C2484.785,2240.93,2485.856,2241.649,2486.971,2241.517z"/>
				<path style="fill:#FFFFFF;" d="M2538.54,2252.128c0.114-0.013,0.227-0.035,0.339-0.067l53.151-14.665
					c1.209-0.331,1.917-1.581,1.582-2.789c-0.33-1.199-1.6-1.913-2.784-1.577l-53.152,14.665c-1.208,0.331-1.915,1.582-1.581,2.79
					C2536.394,2251.571,2537.45,2252.257,2538.54,2252.128z"/>
			</g>
			
				<linearGradient id="SVGID_00000140705348363875211130000000845425478004869764_" gradientUnits="userSpaceOnUse" x1="-713.2377" y1="2491.8423" x2="-744.0662" y2="2541.7122" gradientTransform="matrix(-0.993 0.1177 0.1177 0.993 1497.196 -89.6996)">
				<stop  offset="0" style="stop-color:#FFC444"/>
				<stop  offset="0.9964" style="stop-color:#F36F56"/>
			</linearGradient>
			<path style="fill:url(#SVGID_00000140705348363875211130000000845425478004869764_);" d="M2522.931,2342.946
				c0,0-23.727-12.751-27.422-23.103c-3.694-10.351-5.135-30.405-5.135-30.405l15.856,26.805c0,0,6.052-2.44,7.771-12
				c1.719-9.559,7.15-1.535,6.048,5.666C2518.947,2317.108,2522.931,2342.946,2522.931,2342.946z"/>
			
				<linearGradient id="SVGID_00000163780680993036277600000008903291867179552896_" gradientUnits="userSpaceOnUse" x1="-1208.6025" y1="3303.7449" x2="-855.2635" y2="2548.7471" gradientTransform="matrix(-0.993 0.1177 0.1177 0.993 1497.196 -89.6996)">
				<stop  offset="0" style="stop-color:#FF9085"/>
				<stop  offset="1" style="stop-color:#FB6FBB"/>
			</linearGradient>
			<path style="fill:url(#SVGID_00000163780680993036277600000008903291867179552896_);" d="M2673.784,2136.476
				c-10.956,8.35-27.291,22.705-40.775,44.522c-38.362,62.069-14.671,121.447-49.109,146.924
				c-9.848,7.288-27.746,14.238-62.237,5.951l-12.04,8.114c0,0-7.292,80.829,89.19,73.737
				c96.483-7.088,131.903-131.658,131.903-131.658L2673.784,2136.476z"/>
			
				<linearGradient id="SVGID_00000035496017396562253540000011807968417928623543_" gradientUnits="userSpaceOnUse" x1="-1711.4452" y1="2786.052" x2="-1453.7413" y2="2235.4026" gradientTransform="matrix(-0.9925 -0.1215 -0.1215 0.9925 1714.8896 -474.1254)">
				<stop  offset="0" style="stop-color:#444B8C"/>
				<stop  offset="0.9964" style="stop-color:#26264F"/>
			</linearGradient>
			<path style="fill:url(#SVGID_00000035496017396562253540000011807968417928623543_);" d="M2800.737,2018.202
				c3.27,0.245,6.585-3.428,8.602-1.861c2.118,1.64,0.915,7.567-1.764,11.437c-2.197,3.172-5.201,4.686-6.846,5.353
				c1.947,3.844,4.272,9.708,4.482,16.936c0.467,15.985-9.761,27.162-14.347,33.924c-20.683,30.483-4.865,86.358,17.382,116.833
				c18.077,24.771,29.454,17.763,39.502,37.248c19.562,37.922-20.776,69.815-15.119,117.583
				c8.604,72.635,115.118,110.704,119.542,112.226c1.743,0.601,2.916,0.989,4.735,1.582c48.012,15.624,120.783,39.302,179.755,7.203
				c44.121-24.014,70.496-73.799,74.858-120.635c1.148-12.319,4.784-59.2-26.955-102.958c-5.038-6.944-34.882-47.989-82.724-56.005
				c-25.339-4.247-31.872,3.885-50.403-4.717c-25.37-11.777-37.911-38.523-45.691-55.114c-14.31-30.519-5.79-35.203-17.078-50.886
				c-22.121-30.727-56.309-14.762-80.717-42.653c-24.059-27.492-2.375-56.186-25.963-80.42
				c-24.336-24.994-78.272-26.153-93.416-3.375C2775.558,1979.476,2790.712,2017.452,2800.737,2018.202z"/>
		</g>
		<g>
			
				<linearGradient id="SVGID_00000159433893084420239930000007700128449988132741_" gradientUnits="userSpaceOnUse" x1="1621.4252" y1="3756.4878" x2="1215.7161" y2="2282.9167" gradientTransform="matrix(0.9799 -0.1996 0.1996 0.9799 -583.8618 407.7687)">
				<stop  offset="0" style="stop-color:#FCB148"/>
				<stop  offset="0.0521" style="stop-color:#FDBA46"/>
				<stop  offset="0.1424" style="stop-color:#FFC244"/>
				<stop  offset="0.3183" style="stop-color:#FFC444"/>
				<stop  offset="0.4849" style="stop-color:#FDB946"/>
				<stop  offset="0.7754" style="stop-color:#F99C4D"/>
				<stop  offset="0.8658" style="stop-color:#F8924F"/>
				<stop  offset="1" style="stop-color:#F8924F"/>
			</linearGradient>
			<path style="fill:url(#SVGID_00000159433893084420239930000007700128449988132741_);" d="M1659.574,2694.626
				c33.464,164.273-20.13,322.845-136.051,414.772c-44.054,35.106-97.243,60.475-158.116,72.875
				c-193.979,39.515-384.631-69.77-459.162-250.985c-18.894,0.45-63.017-26.89-74.556-66.258c-0.609-1.867-1.138-3.871-1.549-5.893
				c-8.641-42.418,24.059-80.367,43.558-87.624c-2.297-195.93,136.369-348.75,324.39-410.603
				C1408.736,2291.635,1613.366,2467.794,1659.574,2694.626z"/>
			
				<linearGradient id="SVGID_00000008134529369661508970000011787350175075895203_" gradientUnits="userSpaceOnUse" x1="896.5886" y1="2898.9858" x2="1525.7131" y2="2898.9858" gradientTransform="matrix(0.9799 -0.1996 0.1996 0.9799 -583.8618 407.7687)">
				<stop  offset="0" style="stop-color:#FCB148"/>
				<stop  offset="0.0521" style="stop-color:#FDBA46"/>
				<stop  offset="0.1424" style="stop-color:#FFC244"/>
				<stop  offset="0.3183" style="stop-color:#FFC444"/>
				<stop  offset="0.4849" style="stop-color:#FDB946"/>
				<stop  offset="0.7754" style="stop-color:#F99C4D"/>
				<stop  offset="0.8658" style="stop-color:#F8924F"/>
				<stop  offset="1" style="stop-color:#F8924F"/>
			</linearGradient>
			<path style="opacity:0.3;fill:url(#SVGID_00000008134529369661508970000011787350175075895203_);" d="M1523.522,3109.399
				c-44.054,35.106-97.243,60.475-158.116,72.875c-193.979,39.515-384.631-69.77-459.162-250.985
				c-18.894,0.45-63.017-26.89-74.556-66.258c20.461,15.87,50.05,33.399,71.998,25.53c37.223-13.442,66.116,75.473,77.656,103.356
				c11.539,27.884,120.394,178.556,249.557,62.479C1322.397,2974.01,1454.354,3055.176,1523.522,3109.399z"/>
			<g>
				
					<linearGradient id="SVGID_00000021094455032861010800000012576565866696586940_" gradientUnits="userSpaceOnUse" x1="1369.3403" y1="1897.9338" x2="1501.7844" y2="4208.8271" gradientTransform="matrix(0.9799 -0.1996 0.1996 0.9799 -583.8618 407.7687)">
					<stop  offset="0" style="stop-color:#FCB148"/>
					<stop  offset="0.0521" style="stop-color:#FDBA46"/>
					<stop  offset="0.1424" style="stop-color:#FFC244"/>
					<stop  offset="0.3183" style="stop-color:#FFC444"/>
					<stop  offset="0.4849" style="stop-color:#FDB946"/>
					<stop  offset="0.7754" style="stop-color:#F99C4D"/>
					<stop  offset="0.8658" style="stop-color:#F8924F"/>
					<stop  offset="1" style="stop-color:#F8924F"/>
				</linearGradient>
				<path style="fill:url(#SVGID_00000021094455032861010800000012576565866696586940_);" d="M1659.419,2693.681
					c46.099,226.295-60.099,438.989-237.2,475.067c-177.1,36.077-358.039-118.125-404.137-344.42
					c-46.099-226.295,60.099-438.989,237.2-475.066C1432.382,2313.184,1613.321,2467.386,1659.419,2693.681z"/>
				<g style="opacity:0.5;">
					
						<linearGradient id="SVGID_00000152248782636175430920000017325550503293702550_" gradientUnits="userSpaceOnUse" x1="1251.7987" y1="2482.2053" x2="1382.4454" y2="2482.2053" gradientTransform="matrix(0.9799 -0.1996 0.1996 0.9799 -583.8618 407.7687)">
						<stop  offset="0" style="stop-color:#FCB148"/>
						<stop  offset="0.0521" style="stop-color:#FDBA46"/>
						<stop  offset="0.1424" style="stop-color:#FFC244"/>
						<stop  offset="0.3183" style="stop-color:#FFC444"/>
						<stop  offset="0.4849" style="stop-color:#FDB946"/>
						<stop  offset="0.7754" style="stop-color:#F99C4D"/>
						<stop  offset="0.8658" style="stop-color:#F8924F"/>
						<stop  offset="1" style="stop-color:#F8924F"/>
					</linearGradient>
					<path style="fill:url(#SVGID_00000152248782636175430920000017325550503293702550_);" d="M1242.782,2448.978
						c-44.907,15.86-85.85,49.168-114.419,92.836l161.34,137.5L1242.782,2448.978z"/>
					
						<linearGradient id="SVGID_00000049942637661398387740000017214846780310206652_" gradientUnits="userSpaceOnUse" x1="1161.8652" y1="2566.9944" x2="1357.3679" y2="2566.9944" gradientTransform="matrix(0.9799 -0.1996 0.1996 0.9799 -583.8618 407.7687)">
						<stop  offset="0" style="stop-color:#FCB148"/>
						<stop  offset="0.0521" style="stop-color:#FDBA46"/>
						<stop  offset="0.1424" style="stop-color:#FFC244"/>
						<stop  offset="0.3183" style="stop-color:#FFC444"/>
						<stop  offset="0.4849" style="stop-color:#FDB946"/>
						<stop  offset="0.7754" style="stop-color:#F99C4D"/>
						<stop  offset="0.8658" style="stop-color:#F8924F"/>
						<stop  offset="1" style="stop-color:#F8924F"/>
					</linearGradient>
					<path style="fill:url(#SVGID_00000049942637661398387740000017214846780310206652_);" d="M1276.066,2738.008l-169.201-144.199
						c-21.644,53.735-31.155,112.807-22.371,183.225L1276.066,2738.008z"/>
					
						<linearGradient id="SVGID_00000140700325039311401020000017867087104208673978_" gradientUnits="userSpaceOnUse" x1="1439.7172" y1="2487.4861" x2="1574.9729" y2="2487.4861" gradientTransform="matrix(0.9799 -0.1996 0.1996 0.9799 -583.8618 407.7687)">
						<stop  offset="0" style="stop-color:#FCB148"/>
						<stop  offset="0.0521" style="stop-color:#FDBA46"/>
						<stop  offset="0.1424" style="stop-color:#FFC244"/>
						<stop  offset="0.3183" style="stop-color:#FFC444"/>
						<stop  offset="0.4849" style="stop-color:#FDB946"/>
						<stop  offset="0.7754" style="stop-color:#F99C4D"/>
						<stop  offset="0.8658" style="stop-color:#F8924F"/>
						<stop  offset="1" style="stop-color:#F8924F"/>
					</linearGradient>
					<path style="fill:url(#SVGID_00000140700325039311401020000017867087104208673978_);" d="M1298.906,2437.545l49.031,240.687
						l98.037-196.35C1401.273,2450.431,1346.493,2434.843,1298.906,2437.545z"/>
					
						<linearGradient id="SVGID_00000144335084077525084460000012322419157015553438_" gradientUnits="userSpaceOnUse" x1="1161.8663" y1="2808.3223" x2="1354.0946" y2="2808.3223" gradientTransform="matrix(0.9799 -0.1996 0.1996 0.9799 -583.8618 407.7687)">
						<stop  offset="0" style="stop-color:#FCB148"/>
						<stop  offset="0.0521" style="stop-color:#FDBA46"/>
						<stop  offset="0.1424" style="stop-color:#FFC244"/>
						<stop  offset="0.3183" style="stop-color:#FFC444"/>
						<stop  offset="0.4849" style="stop-color:#FDB946"/>
						<stop  offset="0.7754" style="stop-color:#F99C4D"/>
						<stop  offset="0.8658" style="stop-color:#F8924F"/>
						<stop  offset="1" style="stop-color:#F8924F"/>
					</linearGradient>
					<path style="fill:url(#SVGID_00000144335084077525084460000012322419157015553438_);" d="M1286.308,2804.69l-188.364,38.372
						c16.687,55.053,50.281,117.206,90.327,157.978L1286.308,2804.69z"/>
					
						<linearGradient id="SVGID_00000060710960179880326890000015679687283053313159_" gradientUnits="userSpaceOnUse" x1="1480.0935" y1="2569.8843" x2="1667.3318" y2="2569.8843" gradientTransform="matrix(0.9799 -0.1996 0.1996 0.9799 -583.8618 407.7687)">
						<stop  offset="0" style="stop-color:#FCB148"/>
						<stop  offset="0.0521" style="stop-color:#FDBA46"/>
						<stop  offset="0.1424" style="stop-color:#FFC244"/>
						<stop  offset="0.3183" style="stop-color:#FFC444"/>
						<stop  offset="0.4849" style="stop-color:#FDB946"/>
						<stop  offset="0.7754" style="stop-color:#F99C4D"/>
						<stop  offset="0.8658" style="stop-color:#F8924F"/>
						<stop  offset="1" style="stop-color:#F8924F"/>
					</linearGradient>
					<path style="fill:url(#SVGID_00000060710960179880326890000015679687283053313159_);" d="M1396.325,2713.51l183.474-37.375
						c-19.249-68.285-48.758-114.524-87.447-154.944L1396.325,2713.51z"/>
					
						<linearGradient id="SVGID_00000023274915724813512810000010691737548843619739_" gradientUnits="userSpaceOnUse" x1="1483.3715" y1="2805.3713" x2="1667.3328" y2="2805.3713" gradientTransform="matrix(0.9799 -0.1996 0.1996 0.9799 -583.8618 407.7687)">
						<stop  offset="0" style="stop-color:#FCB148"/>
						<stop  offset="0.0521" style="stop-color:#FDBA46"/>
						<stop  offset="0.1424" style="stop-color:#FFC244"/>
						<stop  offset="0.3183" style="stop-color:#FFC444"/>
						<stop  offset="0.4849" style="stop-color:#FDB946"/>
						<stop  offset="0.7754" style="stop-color:#F99C4D"/>
						<stop  offset="0.8658" style="stop-color:#F8924F"/>
						<stop  offset="1" style="stop-color:#F8924F"/>
					</linearGradient>
					<path style="fill:url(#SVGID_00000023274915724813512810000010691737548843619739_);" d="M1412.986,2778.884l161.341,137.5
						c19.077-51.757,25.312-117.07,18.923-174.221L1412.986,2778.884z"/>
					
						<linearGradient id="SVGID_00000039119904043610967860000006278822980558577296_" gradientUnits="userSpaceOnUse" x1="1439.7233" y1="2885.6428" x2="1576.7355" y2="2885.6428" gradientTransform="matrix(0.9799 -0.1996 0.1996 0.9799 -583.8618 407.7687)">
						<stop  offset="0" style="stop-color:#FCB148"/>
						<stop  offset="0.0521" style="stop-color:#FDBA46"/>
						<stop  offset="0.1424" style="stop-color:#FFC244"/>
						<stop  offset="0.3183" style="stop-color:#FFC444"/>
						<stop  offset="0.4849" style="stop-color:#FDB946"/>
						<stop  offset="0.7754" style="stop-color:#F99C4D"/>
						<stop  offset="0.8658" style="stop-color:#F8924F"/>
						<stop  offset="1" style="stop-color:#F8924F"/>
					</linearGradient>
					<path style="fill:url(#SVGID_00000039119904043610967860000006278822980558577296_);" d="M1377.966,2825.647l49.866,244.787
						c44.83-16.238,90.416-53.053,119.336-100.588L1377.966,2825.647z"/>
					
						<linearGradient id="SVGID_00000153687820186594869860000011049540142742280366_" gradientUnits="userSpaceOnUse" x1="1249.9729" y1="2890.9238" x2="1382.4518" y2="2890.9238" gradientTransform="matrix(0.9799 -0.1996 0.1996 0.9799 -583.8618 407.7687)">
						<stop  offset="0" style="stop-color:#FCB148"/>
						<stop  offset="0.0521" style="stop-color:#FDBA46"/>
						<stop  offset="0.1424" style="stop-color:#FFC244"/>
						<stop  offset="0.3183" style="stop-color:#FFC444"/>
						<stop  offset="0.4849" style="stop-color:#FDB946"/>
						<stop  offset="0.7754" style="stop-color:#F99C4D"/>
						<stop  offset="0.8658" style="stop-color:#F8924F"/>
						<stop  offset="1" style="stop-color:#F8924F"/>
					</linearGradient>
					<path style="fill:url(#SVGID_00000153687820186594869860000011049540142742280366_);" d="M1323.95,2847.428l-96.024,192.319
						c43.907,29.973,96.228,44.986,143.782,42.12L1323.95,2847.428z"/>
				</g>
			</g>
		</g>
		<g>
			
				<linearGradient id="SVGID_00000123426740506829979830000016990435526660833716_" gradientUnits="userSpaceOnUse" x1="2888.856" y1="156.3714" x2="2071.4673" y2="1818.7622">
				<stop  offset="0" style="stop-color:#311944"/>
				<stop  offset="1" style="stop-color:#893976"/>
			</linearGradient>
			<path style="fill:url(#SVGID_00000123426740506829979830000016990435526660833716_);" d="M2775.231,1027.666
				c0-0.008,0-0.015,0-0.022l58.161,0.242c18.982,0.078,32.884-14.071,32.884-31.587V573.581c0-17.516-14.591-32.564-33.573-33.72
				l-485.364-29.537c-21.281-1.296-38.708,12.761-38.708,31.418v450.245c0,17.536,15.125,31.986,34.614,33.731
				c1.308,0.123,3.923,0.19,5.266,0.196L2775.231,1027.666z"/>
			<g>
				
					<linearGradient id="SVGID_00000073721710107717433910000004154347266085419394_" gradientUnits="userSpaceOnUse" x1="2915.47" y1="156.2544" x2="2098.1091" y2="1818.5885">
					<stop  offset="0" style="stop-color:#FFC444"/>
					<stop  offset="0.9964" style="stop-color:#F36F56"/>
				</linearGradient>
				<path style="fill:url(#SVGID_00000073721710107717433910000004154347266085419394_);" d="M2892.83,573.581v422.717
					c0,17.516-14.395,31.666-33.377,31.587l-485.355-1.984c-21.282-0.088-38.913-15.258-38.913-33.914V541.742
					c0-18.657,18.104-32.714,39.385-31.418l485.084,29.537C2878.635,541.017,2892.83,556.065,2892.83,573.581z"/>
				<g>
					<g>
						<polygon style="opacity:0.7;fill:#FFFFFF;" points="2543.827,875.346 2452.783,873.389 2452.783,737.236 2543.827,740.604 
													"/>
						<polygon style="opacity:0.7;fill:#FFFFFF;" points="2669.013,877.95 2577.969,876.104 2577.969,676.136 2669.013,680.017 
													"/>
						<polygon style="opacity:0.7;fill:#FFFFFF;" points="2790.405,880.587 2703.154,878.717 2703.154,624.813 2790.405,629.248 
													"/>
					</g>
					<polygon style="opacity:0.7;fill:#FFFFFF;" points="2805.579,936.934 2433.815,931.526 2433.815,900.899 2805.579,907.571 
											"/>
				</g>
				
					<linearGradient id="SVGID_00000131346485436608390280000006539429680102522002_" gradientUnits="userSpaceOnUse" x1="2771.2251" y1="368.0941" x2="2156.5833" y2="1618.142">
					<stop  offset="0" style="stop-color:#FFC444"/>
					<stop  offset="0.9964" style="stop-color:#F36F56"/>
				</linearGradient>
				<path style="opacity:0.3;fill:url(#SVGID_00000131346485436608390280000006539429680102522002_);" d="M2800.796,1027.666
					l-426.227-1.751c-21.281-0.088-39.385-15.27-39.385-33.927V541.742c0-18.657,18.104-32.714,39.385-31.418l70.905,4.294
					c41.865,49.292,65.832,115.671,52.888,190.256c-2.15,12.494-0.368,23.809,4.397,34.237c7.497,16.475,22.656,30.747,42.25,44.094
					c10.196,6.967,21.652,13.682,33.818,20.32c28.007,15.238,60.077,30.108,90.886,46.826c11.199,6.066,22.226,12.411,32.862,19.083
					c4.938,3.106,9.811,6.288,14.56,9.572c12.38,8.528,23.959,17.663,34.36,27.585c9.64,9.215,18.264,19.145,25.495,29.919
					C2793.777,961.48,2803.181,991.149,2800.796,1027.666z"/>
			</g>
		</g>
		<g>
			
				<linearGradient id="SVGID_00000052084591921735116810000013955048300224715677_" gradientUnits="userSpaceOnUse" x1="3102.0872" y1="851.8945" x2="2259.8806" y2="2564.7593">
				<stop  offset="0" style="stop-color:#311944"/>
				<stop  offset="1" style="stop-color:#893976"/>
			</linearGradient>
			<path style="fill:url(#SVGID_00000052084591921735116810000013955048300224715677_);" d="M3026.456,1239.084l-464.074,4.515
				c-20.54,0.199-37.523,15.368-37.523,33.905v447.371c0,17.386,14.238,30.515,33.003,30.766c1.273,0.02,2.376-0.023,3.683-0.124
				l397.971-30.875c0.001-0.006-0.042-0.014-0.041-0.021l67.003-5.053c17.999-1.395,33.591-16.439,33.591-33.672v-415.894
				C3060.07,1252.767,3044.455,1238.91,3026.456,1239.084z"/>
			<g>
				
					<linearGradient id="SVGID_00000080174804395808229210000003701508205647159172_" gradientUnits="userSpaceOnUse" x1="3363.4546" y1="760.9851" x2="1947.5353" y2="2639.3596">
					<stop  offset="0" style="stop-color:#AA80F9"/>
					<stop  offset="0.9964" style="stop-color:#6165D7"/>
				</linearGradient>
				<path style="fill:url(#SVGID_00000080174804395808229210000003701508205647159172_);" d="M3086.299,1271.294v415.641
					c0,17.223-14.324,32.306-32.3,33.702l-464.223,35.941c-20.516,1.592-38.032-12.148-38.032-30.674v-447.094
					c0-18.526,17.616-33.653,38.131-33.853l463.672-4.517C3071.523,1240.263,3086.299,1254.071,3086.299,1271.294z"/>
				<g style="opacity:0.7;">
					<path style="fill:#FFFFFF;" d="M2746.748,1390.528c-18.847,0.559-34.393,15.096-34.393,32.472v142.262
						c0,17.376,15.546,30.588,34.393,29.507c18.751-1.075,34.079-15.894,34.079-33.11V1420.7
						C2780.827,1403.484,2765.498,1389.972,2746.748,1390.528z"/>
					<path style="fill:#FFFFFF;" d="M2678.233,1422.686l0.28,0.044c-13.244,0.447-23.383,10.645-23.383,22.737v35.998l-5.36,0.318
						c-8.189,0.34-13.749,6.7-13.749,14.143v0.691c0,7.443,5.56,13.127,13.749,12.757l5.36-0.341v38.755
						c0,12.092,10.726,21.318,23.969,20.612l-0.844-0.072c13.197-0.703,22.667-11.064,22.667-23.079v-101.67
						C2700.922,1431.565,2691.429,1422.241,2678.233,1422.686z"/>
					<path style="fill:#FFFFFF;" d="M2915.362,1385.597c-17.997,0.534-32.23,14.745-32.23,31.724v139.011
						c0,16.979,14.233,29.888,32.23,28.856c17.908-1.027,31.936-15.51,31.936-32.336v-137.761
						C2947.298,1398.265,2933.269,1385.066,2915.362,1385.597z"/>
					<path style="fill:#FFFFFF;" d="M3003.739,1466.868l-3.741,0.351v-34.338c0-11.534-10.133-20.576-22.294-20.166l-0.532-0.002
						c-12.204,0.412-22.338,10.142-22.338,21.749v98.215c0,11.607,9.98,20.489,22.184,19.839l0.657,0.002
						c12.161-0.648,22.322-10.503,22.322-22.037v-36.967l3.741-0.37c7.412-0.335,11.293-6.436,11.293-13.498v-0.656
						C3015.031,1471.929,3011.151,1466.56,3003.739,1466.868z"/>
					<polygon style="fill:#FFFFFF;" points="2788.422,1511.051 2875.57,1507.058 2875.57,1466.926 2788.422,1470.438 					"/>
				</g>
				
					<linearGradient id="SVGID_00000133515309115382500530000011447718855032967584_" gradientUnits="userSpaceOnUse" x1="2981.1499" y1="1069.5099" x2="2346.5381" y2="2360.1719">
					<stop  offset="0" style="stop-color:#AA80F9"/>
					<stop  offset="0.9964" style="stop-color:#6165D7"/>
				</linearGradient>
				<path style="opacity:0.3;fill:url(#SVGID_00000133515309115382500530000011447718855032967584_);" d="M2988.329,1725.755
					l-398.455,30.826c-20.515,1.593-38.131-12.151-38.131-30.678v-447.094c0-18.526,17.616-33.653,38.131-33.853l102.106-0.97
					c17.706,38.139,25.31,83.228,17.038,133.049c-2.183,13.229-0.125,24.89,5.074,35.368c10.792,21.771,35.594,38.424,66.16,53.937
					c2.873,1.456,5.86,2.909,8.816,4.359c24.872,12.045,52.79,23.626,79.853,36.701c4.234,2.052,8.442,4.13,12.608,6.234
					c23.597,11.996,46.116,25.422,64.907,41.657C2988.658,1591.777,3012.53,1642.844,2988.329,1725.755z"/>
			</g>
		</g>
		<g>
			<g>
				
					<linearGradient id="SVGID_00000005975544298192718510000016292965711958306214_" gradientUnits="userSpaceOnUse" x1="1757.7078" y1="1495.7728" x2="1340.0079" y2="1997.0122">
					<stop  offset="0" style="stop-color:#311944"/>
					<stop  offset="1" style="stop-color:#A03976"/>
				</linearGradient>
				<polygon style="fill:url(#SVGID_00000005975544298192718510000016292965711958306214_);" points="1350.964,1901.809 
					1773.584,1555.053 1775.792,1556.128 1356.501,1911.317 				"/>
				
					<linearGradient id="SVGID_00000017484960578388383790000017008386029841438100_" gradientUnits="userSpaceOnUse" x1="1410.7262" y1="1856.1904" x2="1200.7476" y2="2048.1062">
					<stop  offset="0" style="stop-color:#FFC444"/>
					<stop  offset="0.9964" style="stop-color:#F36F56"/>
				</linearGradient>
				<path style="fill:url(#SVGID_00000017484960578388383790000017008386029841438100_);" d="M1325.148,1924.867l16.546-18.071
					l8.613-19.926c1.488-3.442,3.857-6.431,6.87-8.665l4.944-3.668c2.836-2.103,6.273-3.239,9.804-3.239h16.224
					c0,0-2.826,5.29-7.43,6.098c-4.605,0.809-14.23,11.675-14.23,11.675l-1.309,12.738l18.408-13.437l19.621-22.55v12.519
					c0,4.281-1.541,8.42-4.341,11.66l-15.917,18.418c-3.93,4.547-9.337,7.564-15.272,8.519l-3.925,0.631
					c-8.166,1.314-15.431,5.925-20.099,12.751l-11.192,16.372L1325.148,1924.867z"/>
			</g>
			
				<linearGradient id="SVGID_00000116194809703952534660000008128546204045771655_" gradientUnits="userSpaceOnUse" x1="388.9223" y1="2681.481" x2="438.5946" y2="2349.5801">
				<stop  offset="0" style="stop-color:#FFC444"/>
				<stop  offset="0.9964" style="stop-color:#F36F56"/>
			</linearGradient>
			<path style="fill:url(#SVGID_00000116194809703952534660000008128546204045771655_);" d="M431.994,2525.285
				c0,0-4.587,21.568-8.579,39.734c-3.993,18.166-19.965,32.098-26.954,46.595c-6.987,14.498-10.127-2.474-12.05-12.956
				c-1.925-10.482,0-32.124,8.648-39.532c8.649-7.409,15.222-13.877,14.803-15.374c-0.419-1.497,5.554-26.455,5.554-26.455
				L431.994,2525.285z"/>
			<g>
				
					<linearGradient id="SVGID_00000115497200767326148920000001234623630042926732_" gradientUnits="userSpaceOnUse" x1="659.5515" y1="3261.5923" x2="618.9106" y2="3022.2615">
					<stop  offset="0" style="stop-color:#AA80F9"/>
					<stop  offset="0.9964" style="stop-color:#6165D7"/>
				</linearGradient>
				<path style="fill:url(#SVGID_00000115497200767326148920000001234623630042926732_);" d="M623.707,3173.682
					c-1.09-4.493-0.358-10.504,3.559-14.535c5.281-5.433,14.121-4.974,19.671-2.46c3.234,1.464,5.749,3.805,14.635,22.335
					c9.392,19.584,9.351,22.741,7.84,24.528c-3.073,3.633-11.69,0.953-13.546,0.375c-6.174-1.918-7.682-4.846-20.402-16.758
					C626.841,3179.093,624.7,3177.784,623.707,3173.682z"/>
				
					<linearGradient id="SVGID_00000109729644054032651820000009011587651680184466_" gradientUnits="userSpaceOnUse" x1="635.5407" y1="3168.6892" x2="649.0879" y2="3027.1968">
					<stop  offset="0" style="stop-color:#FFC444"/>
					<stop  offset="0.9964" style="stop-color:#F36F56"/>
				</linearGradient>
				<path style="fill:url(#SVGID_00000109729644054032651820000009011587651680184466_);" d="M629.713,3143.072l2.152,22.699
					c5.17,2.688,8.379,2.471,10.07,0l4.339-22.699H629.713z"/>
				
					<linearGradient id="SVGID_00000109021957537550118610000016620951760862776716_" gradientUnits="userSpaceOnUse" x1="881.3565" y1="3223.9258" x2="840.7164" y2="2984.5991">
					<stop  offset="0" style="stop-color:#AA80F9"/>
					<stop  offset="0.9964" style="stop-color:#6165D7"/>
				</linearGradient>
				<path style="fill:url(#SVGID_00000109021957537550118610000016620951760862776716_);" d="M846.767,3170.847
					c-3.039-3.486-5.159-9.157-3.541-14.54c2.182-7.254,10.238-10.922,16.322-11.25c3.545-0.191,6.856,0.728,23.283,13.076
					c17.36,13.051,18.78,15.872,18.262,18.154c-1.052,4.64-9.935,6.232-11.85,6.575c-6.363,1.144-9.052-0.759-25.829-5.468
					C852.042,3174.204,849.539,3174.029,846.767,3170.847z"/>
				
					<linearGradient id="SVGID_00000129921208022862550820000012140114234129344396_" gradientUnits="userSpaceOnUse" x1="851.1559" y1="3189.332" x2="864.7025" y2="3047.8452">
					<stop  offset="0" style="stop-color:#FFC444"/>
					<stop  offset="0.9964" style="stop-color:#F36F56"/>
				</linearGradient>
				<path style="fill:url(#SVGID_00000129921208022862550820000012140114234129344396_);" d="M848.274,3132.939l2.153,22.698
					c5.169,2.688,8.379,2.47,10.07,0l4.339-22.698H848.274z"/>
				
					<linearGradient id="SVGID_00000079446411724419690840000000111467487808600481_" gradientUnits="userSpaceOnUse" x1="676.1568" y1="3150.2205" x2="886.8872" y2="2358.4763">
					<stop  offset="0" style="stop-color:#444B8C"/>
					<stop  offset="0.9964" style="stop-color:#26264F"/>
				</linearGradient>
				<path style="fill:url(#SVGID_00000079446411724419690840000000111467487808600481_);" d="M623.904,3147.515
					c8.167,0.494,16.334,0.983,24.501,1.477c17.293-84.352,36.28-170.686,57.133-258.852
					c22.855-96.634,46.735-190.311,71.345-280.955c7.801,34.503,15.521,74.857,21.602,120.221
					c9.027,67.333,10.853,118.924,11.289,133.212c2.227,73.04-4.139,81.666-1.13,127.267c2.367,35.853,10.131,88.528,36.126,152.506
					c7.785-0.476,15.571-0.944,23.356-1.416c17.04-82.428,31.642-182.597,35.768-297.01c5.059-140.307-7.084-261.877-23-357.756
					c-70.746,2.196-141.491,4.398-212.236,6.594c-22.084,49.306-32.144,91.468-37.244,121.115
					c-10.249,59.582-3.964,88.981-11.676,190.491c-3.986,52.46-6.895,60.78-9.784,95.622
					C605.169,2957.729,604.338,3041.061,623.904,3147.515z"/>
				
					<linearGradient id="SVGID_00000004519175876323374040000016813616326106077354_" gradientUnits="userSpaceOnUse" x1="606.7709" y1="3131.7527" x2="817.5013" y2="2340.0085">
					<stop  offset="0" style="stop-color:#444B8C"/>
					<stop  offset="0.9964" style="stop-color:#26264F"/>
				</linearGradient>
				<path style="opacity:0.3;fill:url(#SVGID_00000004519175876323374040000016813616326106077354_);" d="M670.917,2946.158
					c6.454-68.595-18.295-67.18-6.773-126.438c10.602-54.523,33.086-63.607,49.672-133.213
					c13.312-55.868,3.144-68.123,13.547-92.571c12.852-30.207,50.394-63.183,158.306-77.194
					c-1.546-10.425-3.133-20.646-4.774-30.534c-70.746,2.196-141.49,4.398-212.236,6.594
					c-22.084,49.306-32.144,91.468-37.244,121.115c-10.248,59.582-3.964,88.981-11.676,190.491
					c-3.986,52.46-6.893,60.78-9.784,95.622c-4.788,57.698-5.619,141.031,13.947,247.484c8.167,0.494,16.334,0.983,24.501,1.477
					c0.503-2.452,1.04-4.944,1.547-7.399c-4.123-6.686-7.872-14.196-10.644-22.711
					C621.395,3063.846,662.852,3031.885,670.917,2946.158z"/>
			</g>
			<g>
				
					<linearGradient id="SVGID_00000165925055776285329110000009406864205714537861_" gradientUnits="userSpaceOnUse" x1="1060.0253" y1="1840.1968" x2="590.3972" y2="2461.1001">
					<stop  offset="0" style="stop-color:#AA80F9"/>
					<stop  offset="0.9964" style="stop-color:#6165D7"/>
				</linearGradient>
				<path style="fill:url(#SVGID_00000165925055776285329110000009406864205714537861_);" d="M403.365,2529.589
					c10.536,1.883,21.073,3.761,31.609,5.644c6.508-19.712,15.952-49.43,26.128-86.021c11.634-41.841,17.608-68.882,20.157-78.8
					c10.141-39.46,39.796-94.825,127.197-162.22c-0.868,42.876-1.541,78.151-1.994,102.387
					c-3.635,194.451-3.425,229.748,22.404,249.137c22.459,16.858,34.864-0.396,136.883,1.543
					c93.042,1.769,112.626,16.687,136.253-0.396c38.343-27.725,23.45-93.545,24.05-175.776
					c0.496-67.858,11.666-163.883,60.962-281.1c36.294,3.523,96.989,4.485,165.95-19.192
					c107.101-36.769,167.961-110.228,190.787-141.114c-7.526-10.16-15.052-20.321-22.578-30.48
					c-38.511,16.81-98.031,39-173.177,51.281c-130.269,21.286-190.158-6.385-311.127-1.61
					c-69.671,2.752-211.968,8.37-308.194,81.283C351.714,2178.236,397.017,2489.538,403.365,2529.589z"/>
				
					<linearGradient id="SVGID_00000168804558481895565360000005764573546965514939_" gradientUnits="userSpaceOnUse" x1="1072.7202" y1="1849.7982" x2="603.0912" y2="2470.7026">
					<stop  offset="0" style="stop-color:#AA80F9"/>
					<stop  offset="0.9964" style="stop-color:#6165D7"/>
				</linearGradient>
				<path style="opacity:0.3;fill:url(#SVGID_00000168804558481895565360000005764573546965514939_);" d="M740.91,2507.01
					c-5.386-30.036,10.791-42.683,2.258-76.767c-12.041-48.097-50.653-48.468-59.833-89.184
					c-8.753-38.829,23.661-50.483,31.61-111.762c5.843-45.051-2.41-110.176-32.738-120.794
					c-37.731-13.208-93.184,63.704-99.345,72.251c-21.318,29.568-33.707,60.101-40.956,87.384
					c17.261-18.71,39.035-38.731,66.551-59.947c-0.868,42.876-1.54,78.151-1.994,102.387
					c-3.635,194.451-3.425,229.748,22.404,249.137c22.458,16.858,34.864-0.396,136.883,1.543c2.917,0.057,5.554,0.159,8.328,0.239
					C752.037,2541.323,743.675,2522.431,740.91,2507.01z"/>
			</g>
			<g>
				
					<linearGradient id="SVGID_00000139975255739752913730000008275211128835435928_" gradientUnits="userSpaceOnUse" x1="-483.0381" y1="2387.2673" x2="-483.0381" y2="2215.6904" gradientTransform="matrix(-0.827 0.5622 0.5622 0.827 -938.6846 289.0357)">
					<stop  offset="0" style="stop-color:#FFC444"/>
					<stop  offset="0.9964" style="stop-color:#F36F56"/>
				</linearGradient>
				<path style="fill:url(#SVGID_00000139975255739752913730000008275211128835435928_);" d="M797.586,1881.653
					c0,0-4.144,32.965-16.4,56.92c-11.076,21.646-61.019,31.812-71.315,36.017c-10.295,4.205,16.968,21.094,45.292,26.254
					c28.324,5.159,110.388,5.21,125.955-4.438c15.568-9.646-11.009-10.956-30.791-20.071c-19.782-9.115-28.372-49.919-23.325-67.722
					C832.048,1890.808,797.586,1881.653,797.586,1881.653z"/>
				<g>
					
						<linearGradient id="SVGID_00000117662485789326260290000016580261310058346929_" gradientUnits="userSpaceOnUse" x1="-2582.6814" y1="1049.7106" x2="-2639.3652" y2="905.7434" gradientTransform="matrix(-0.995 0.0996 0.0996 0.995 -1895.803 1193.7489)">
						<stop  offset="0" style="stop-color:#444B8C"/>
						<stop  offset="0.9964" style="stop-color:#3E4177"/>
					</linearGradient>
					<path style="fill:url(#SVGID_00000117662485789326260290000016580261310058346929_);" d="M850.281,1869.419
						c6.721-11.366,2.435-31.97-10.729-40.835c-9.768-6.578-20.965-4.36-29.124-2.744c-3.777,0.749-30.3,6.335-36.374,26.006
						c-1.93,6.252-1.132,14.52,1.694,20.918c1.457,3.294,4.169,7.346,10.133,15.04c5.293,6.826,4.948,6.603,6.566,8.583
						c3.882,4.757,11.311,12.718,24.627,21.7c0.523-3.65,1.414-8.188,3.046-13.174c0.628-1.918,3.17-9.422,7.486-15.858
						C836.371,1875.992,845.027,1878.306,850.281,1869.419z"/>
					
						<linearGradient id="SVGID_00000100364586427537218150000006816104314798823869_" gradientUnits="userSpaceOnUse" x1="-604.3191" y1="2402.9233" x2="-524.1009" y2="2246.9436" gradientTransform="matrix(-0.827 0.5622 0.5622 0.827 -938.6846 289.0357)">
						<stop  offset="0" style="stop-color:#FFC444"/>
						<stop  offset="0.9964" style="stop-color:#F36F56"/>
					</linearGradient>
					<path style="fill:url(#SVGID_00000100364586427537218150000006816104314798823869_);" d="M800.199,1909.457
						c0,0,14.32,19.094,38.783,15.122c21.904-3.557,20.374-53.298,5.285-62.432c-5.034-3.048-14.58-3.595-22.023-0.715
						c-4.398,1.7-5.745,3.726-12.982,6.366c-6.674,2.434-8.682,1.861-10.581,3.8c-2.376,2.424-3.755,7.94,1.952,21.976
						c-4.615-3.856-9.82-5.003-13.234-2.97c-0.544,0.324-1.96,1.5-2.66,3.142C782.201,1899.689,788.05,1906.403,800.199,1909.457z"
						/>
					
						<linearGradient id="SVGID_00000070817723811758887160000017635584361030275468_" gradientUnits="userSpaceOnUse" x1="3258.4771" y1="2410.4326" x2="3214.7434" y2="2299.3569" gradientTransform="matrix(0.827 -0.5622 0.5622 0.827 -3149.7031 1791.1674)">
						<stop  offset="0" style="stop-color:#444B8C"/>
						<stop  offset="0.9964" style="stop-color:#3E4177"/>
					</linearGradient>
					<path style="fill:url(#SVGID_00000070817723811758887160000017635584361030275468_);" d="M795.227,1881.337
						c0,0,9.336,17.297,14.531,21.377c5.197,4.082,16.904,6.571,28.269,0.369c11.366-6.202,17.673-12.012,17.673-12.012
						s4.652,23.968,1.821,26.929c-2.83,2.964-23.786,15.794-29.808,14.885c-6.023-0.909-20.727-12.775-24.131-20.121
						c-3.403-7.345-7.502-26.416-7.502-26.416L795.227,1881.337z"/>
				</g>
			</g>
		</g>
	</g>
</g>
</svg>
