<?xml version="1.0" encoding="utf-8"?>
<!-- Generator: Adobe Illustrator 27.5.0, SVG Export Plug-In . SVG Version: 6.00 Build 0)  -->
<svg version="1.1" xmlns="http://www.w3.org/2000/svg" xmlns:xlink="http://www.w3.org/1999/xlink" x="0px" y="0px"
	 viewBox="0 0 500 500" style="enable-background:new 0 0 500 500;" xml:space="preserve">
<g id="BACKGROUND">
	<rect style="fill:#FFFFFF;" width="499.493" height="499.493"/>
</g>
<g id="OBJECTS">
	<g>
		<rect x="121.228" y="35.055" style="fill:#E4E5FF;" width="81.627" height="52.154"/>
		<rect x="39.601" y="35.055" style="fill:#E4E5FF;" width="77.54" height="52.154"/>
		<rect x="121.228" y="91.297" style="fill:#E4E5FF;" width="81.627" height="53.505"/>
		<rect x="39.601" y="91.297" style="fill:#E4E5FF;" width="77.54" height="53.505"/>
	</g>
	<g>
		<rect x="250.049" y="72.547" style="fill:#FFFFFF;" width="153.609" height="100.464"/>
		<polygon style="fill:#473C3B;" points="272.971,155.248 260.594,161.491 352.568,161.491 346.059,155.248 		"/>
		<g>
			<path style="fill:#5B5FBF;" d="M290.569,152.464c-0.225,0.441-0.447,0.883-0.665,1.325c-0.187,0.38-0.379,0.784-0.343,1.206
				c0.066,0.763,0.889,1.036,1.548,1.037c0.857,0.002,1.468-0.997,2.034-1.57c1.54-1.556,3.051-3.147,4.413-4.863
				c1.046-1.317,2.003-2.71,2.802-4.191c0.75-1.389,1.194-2.865,1.824-4.299c2.205-5.023,6.489-8.913,8.681-13.943
				c0.662-1.52,0.811-3.377,0.565-5.016c-0.221-1.471-0.887-2.915-2.039-3.856c-0.798-0.652-1.779-1.03-2.742-1.398
				c-0.198-0.076-0.424-0.15-0.614-0.055c-0.232,0.117-0.282,0.419-0.308,0.677c-0.23,2.278-0.75,4.526-1.54,6.675
				c-0.389,1.057-0.949,1.94-1.471,2.932c-0.537,1.021-1.025,2.067-1.547,3.096c-0.994,1.96-1.987,3.92-2.978,5.882
				c-0.509,1.007-1.144,2.021-1.542,3.077c-0.251,0.666-0.281,1.368-0.547,2.031C294.56,145.047,292.459,148.755,290.569,152.464z"
				/>
			<path style="fill:#FE9685;" d="M283.943,157.025c-0.455,0.117-0.928,0.217-1.318,0.479c-0.39,0.262-0.684,0.734-0.58,1.192
				c0.114,0.507,0.669,0.809,1.189,0.83c0.52,0.021,1.021-0.167,1.522-0.307c1.484-0.415,3.082-0.412,4.565,0.008
				c0.667,0.189,1.451,0.44,1.995,0.012c0.302-0.237,0.436-0.626,0.533-0.997c0.155-0.595,0.254-1.204,0.296-1.817
				c0.033-0.481,0.028-0.972-0.117-1.432c-0.146-0.459-0.449-0.886-0.886-1.088c-1.089-0.505-2.436,1.024-3.304,1.528
				C286.618,156.136,285.305,156.676,283.943,157.025z"/>
			<path style="fill:#797FFF;" d="M304.051,123.502c-0.183,0.523-0.406,1.045-0.682,1.569c-0.128,0.242-0.267,0.514-0.189,0.777
				c0.096,0.324,0.464,0.466,0.782,0.579c3.791,1.343,5.554,4.552,7.902,7.543c2.469,3.145,5.056,6.195,7.485,9.371
				c2.273,2.972,4.412,6.063,6.141,9.387c0.076,0.145,0.15,0.291,0.224,0.438c0.365,0.723,1.172,3.132,2.304,2.739
				c0.384-0.133,0.643-0.512,0.739-0.908c0.096-0.395,0.056-0.81,0.007-1.214c-0.663-5.462-2.945-10.377-5.728-15.049
				c-1.668-2.8-3.659-5.409-5.153-8.306c-1.501-2.911-2.962-5.846-4.625-8.67c-0.643-1.092-1.337-2.813-2.477-3.429
				c-1.304-0.705-2.68-1.291-4.159-1.497c-0.353-0.049-0.74-0.073-1.037,0.124c-0.378,0.251-0.467,0.758-0.524,1.208
				C304.827,120.047,304.653,121.783,304.051,123.502z"/>
			<path style="fill:#FE9685;" d="M326.04,158.372c-0.004,0.048-0.009,0.097-0.013,0.145c-0.016,0.181-0.03,0.374,0.058,0.533
				c0.101,0.182,0.311,0.272,0.51,0.333c0.956,0.291,1.88,0.05,2.848,0.027c0.322-0.008,0.689-0.035,0.88-0.254
				c0.115-0.131,0.135-0.303,0.148-0.466c0.112-1.47-0.118-2.95-1-4.165c-0.349-0.48-0.838-0.884-1.418-1.01
				c-0.58-0.126-1.25,0.077-1.57,0.577c-0.161,0.251-0.216,0.51-0.19,0.799c0.033,0.365-0.004,0.714-0.037,1.082
				C326.184,156.772,326.112,157.572,326.04,158.372z"/>
			<path style="fill:none;stroke:#473C3B;stroke-width:0.2563;stroke-linecap:round;stroke-miterlimit:10;" d="M298.036,141.558
				c0.689-0.331,1.27-0.884,1.635-1.555c0.365-0.672,0.513-1.46,0.416-2.218"/>
			<path style="fill:none;stroke:#473C3B;stroke-width:0.2563;stroke-linecap:round;stroke-miterlimit:10;" d="M316.257,136.732
				c1.077,0.367,1.875,1.439,1.917,2.576"/>
			<g>
				<path style="fill:#FE9685;" d="M288.134,117.286c0.151-0.027,0.314-0.053,0.453,0.012c0.225,0.106,0.285,0.393,0.308,0.64
					c0.127,1.349-0.017,2.723-0.421,4.016c-1.253-0.563-2.814,0.059-4.047-0.549c-0.693-0.342-1.184-1.092-1.154-1.864
					c0.024-0.628,0.417-1.234,0.982-1.511c0.313-0.153,0.684-0.166,1.022-0.227c0.448-0.081,0.896-0.162,1.344-0.243
					C287.126,117.469,287.63,117.378,288.134,117.286z"/>
				<path style="fill:#FE6685;" d="M284.507,118.811c0.778,0.191,1.551,0.477,2.174,0.982c0.322,0.26,0.597,0.583,0.792,0.948
					c0.095,0.178,0.182,0.373,0.225,0.571c0.013,0.062,0.025,0.524,0.024,0.524c-0.367-0.125-0.763-0.16-1.146-0.1
					c-0.132,0.021-0.271,0.052-0.397,0.007c-0.26-0.092-0.217-0.689-0.308-0.923c-0.146-0.381-0.337-0.746-0.566-1.084
					c-0.118-0.174-0.247-0.342-0.385-0.501C284.856,119.161,284.604,118.811,284.507,118.811z"/>
			</g>
			<path style="fill:#FE6685;" d="M283.073,124.907c0.304,0.098,0.636,0.158,0.875,0.369c0.127,0.112,0.219,0.26,0.34,0.379
				c0.122,0.119,0.294,0.209,0.458,0.164c0.128-0.036,0.223-0.15,0.262-0.277c0.04-0.127,0.03-0.264,0.004-0.394
				c-0.096-0.471-0.419-0.886-0.842-1.114c-0.429-0.231-1.172-0.351-1.603-0.053C282.055,124.336,282.737,124.798,283.073,124.907z"
				/>
			<path style="fill:#FE9685;" d="M288.195,115.47c0.998-3.54,1.868-7.141,2.63-10.77c0.76-3.63,1.412-7.29,1.927-10.969
				l2.929,0.219c-0.049,3.793-0.239,7.582-0.542,11.369c-0.307,3.787-0.726,7.571-1.293,11.359L288.195,115.47z"/>
			<path style="fill:#FE9685;" d="M279.352,122.85c0.648,0.852,1.635,1.416,2.68,1.646c1.045,0.23,2.145,0.142,3.175-0.15
				c0.34-0.096,0.681-0.219,0.956-0.441c0.378-0.306,0.595-0.777,0.672-1.257c0.076-0.48,0.024-0.971-0.059-1.45
				c-0.123-0.705-0.321-1.416-0.743-1.994c-0.552-0.756-1.445-1.213-2.366-1.384c-0.92-0.171-1.87-0.08-2.79,0.093
				c-1.028,0.193-1.829,0.774-2.143,1.79C278.403,120.773,278.68,121.969,279.352,122.85z"/>
			<path style="fill:#FE9685;" d="M304.133,116.545c-2.25-0.308-4.512-0.583-6.723-1.076c-2.372-0.53-4.76-1.448-7.23-1.146
				c-0.471,0.058-0.948,0.164-1.352,0.413c-1.022,0.631-0.858,1.977-0.735,3.015c0.115,0.962,0.303,1.942,0.103,2.89
				c-0.217,1.029-0.886,2.042-0.59,3.052c0.197,0.671,0.782,1.152,1.381,1.513c1.362,0.821,2.759,0.611,4.262,0.368
				c1.883-0.305,3.79-0.462,5.698-0.471c0.789-0.004,1.57-0.061,2.302,0.247c0.739,0.31,1.524,0.471,2.255,0.818
				c0.249,0.118,0.533,0.249,0.788,0.146c0.189-0.076,0.308-0.261,0.408-0.438c0.651-1.153,1.033-2.432,1.305-3.722
				c0.139-0.659,0.258-1.325,0.357-1.992c0.086-0.584,0.18-1.217,0.158-1.811c-0.02-0.528-0.171-1.102-0.606-1.402
				c-0.272-0.188-0.611-0.239-0.938-0.286C304.696,116.623,304.414,116.584,304.133,116.545z"/>
			<path style="fill:#FE9685;" d="M293.151,125.013c-1.693,8.558-3.492,15.882-5.673,24.296l-2.634-0.512
				c1.118-8.568,2.075-17.153,2.689-25.741c0.905-1.267,2.46-1.809,3.792-1.369C292.818,122.181,293.431,123.587,293.151,125.013z"
				/>
			<path style="fill:#FE9685;" d="M291.556,91.56c-0.022-0.152-0.034-0.309,0.007-0.456c0.04-0.148,0.139-0.287,0.283-0.34
				c0.214-0.079,0.445,0.048,0.627,0.183c0.363,0.27,0.682,0.598,0.941,0.969c0.204,0.292,0.374,0.616,0.429,0.968
				c0.055,0.352-0.016,0.735-0.248,1.005c-0.159,0.187-0.525,0.404-0.783,0.308c-0.214-0.079-0.353-0.466-0.463-0.651
				C291.985,92.931,291.659,92.275,291.556,91.56z"/>
			<path style="fill:#FE9685;" d="M293.813,90.072c0.128-0.434,0.308-0.925,0.733-1.081c0.33-0.121,0.702,0.012,0.991,0.212
				c0.367,0.254,0.751,0.656,0.852,1.096c0.119,0.517,0.102,1.059,0.011,1.58c-0.111,0.634-0.33,1.243-0.547,1.848
				c-0.065,0.18-0.139,0.372-0.3,0.475c-0.134,0.085-0.303,0.091-0.462,0.084c-0.362-0.016-0.722-0.082-1.066-0.196
				c-0.337-0.111-0.515-0.295-0.738-0.569c-0.42-0.517-0.222-0.914-0.054-1.483C293.426,91.382,293.619,90.727,293.813,90.072z"/>
			<path style="fill:#FE9685;" d="M283.228,149.071c-0.185,0.145-0.389,0.329-0.377,0.564c0.011,0.207,0.201,0.371,0.403,0.414
				c0.202,0.044,0.413-0.008,0.609-0.076c0.513-0.177,0.988-0.464,1.382-0.836c0.204-0.193,0.393-0.418,0.465-0.69
				c0.072-0.271,0-0.597-0.23-0.757c-0.38-0.263-0.663,0.114-0.917,0.332C284.136,148.391,283.671,148.723,283.228,149.071z"/>
			<path style="fill:#FE9685;" d="M287.349,147.984c0.112-0.029,0.243-0.055,0.333,0.018c0.084,0.067,0.094,0.188,0.095,0.295
				c0.018,1.224-0.244,2.451-0.758,3.562c-0.168,0.363-0.38,0.732-0.729,0.929c-0.425,0.239-0.958,0.168-1.419,0.007
				c-0.289-0.101-0.592-0.26-0.7-0.547c-0.114-0.302,0.027-0.633,0.148-0.932c0.188-0.462,0.333-0.942,0.436-1.43
				c0.071-0.34,0.051-0.789,0.239-1.093c0.162-0.263,0.485-0.321,0.762-0.394C286.287,148.261,286.818,148.123,287.349,147.984z"/>
			<path style="fill:none;stroke:#473C3B;stroke-width:0.2563;stroke-linecap:round;stroke-miterlimit:10;" d="M282.672,123.523
				c0.215-0.004,0.432-0.101,0.557-0.277c0.124-0.175,0.14-0.429,0.016-0.605c-0.116-0.163-0.321-0.235-0.471-0.366"/>
			<path style="fill:none;stroke:#473C3B;stroke-width:0.2563;stroke-linecap:round;stroke-miterlimit:10;" d="M281.777,123.44
				c-0.22-0.262-0.303-0.633-0.214-0.963s0.346-0.611,0.668-0.727"/>
			<path style="fill:#FE6685;" d="M283.797,121.905c0.037,0.157,0.146,0.294,0.287,0.372c0.208,0.115,0.484,0.094,0.673-0.051
				c0.189-0.145,0.279-0.407,0.221-0.637c-0.058-0.231-0.262-0.418-0.497-0.456C284.042,121.061,283.697,121.485,283.797,121.905z"
				/>
			<path style="fill:none;stroke:#473C3B;stroke-width:0.2563;stroke-linecap:round;stroke-miterlimit:10;" d="M285.019,124.406
				c0.1-0.3,0.086-0.637-0.038-0.929c-0.124-0.292-0.356-0.535-0.642-0.672"/>
			<path style="fill:none;stroke:#473C3B;stroke-width:0.2563;stroke-linecap:round;stroke-miterlimit:10;" d="M289.29,133.831
				c-0.562,0.832-0.76,1.899-0.536,2.877"/>
			<path style="fill:none;stroke:#473C3B;stroke-width:0.2563;stroke-linecap:round;stroke-miterlimit:10;" d="M294.688,88.987
				c0.078,0.675,0,1.368-0.226,2.009"/>
			<path style="fill:none;stroke:#473C3B;stroke-width:0.2563;stroke-linecap:round;stroke-miterlimit:10;" d="M295.553,89.301
				c-0.08,0.699-0.213,1.391-0.397,2.07"/>
			<path style="fill:none;stroke:#473C3B;stroke-width:0.2563;stroke-linecap:round;stroke-miterlimit:10;" d="M296.284,90.159
				c-0.021,0.663-0.192,1.321-0.498,1.909"/>
			<path style="fill:none;stroke:#473C3B;stroke-width:0.2563;stroke-linecap:round;stroke-miterlimit:10;" d="M293.748,103.854
				c0.31,0.342,0.453,0.831,0.374,1.286c-0.078,0.456-0.375,0.868-0.782,1.088"/>
			<path style="fill:none;stroke:#473C3B;stroke-width:0.2563;stroke-linecap:round;stroke-miterlimit:10;" d="M291.28,118.856
				c0.807,0.017,1.629,0.077,2.382,0.37c0.516,0.201,0.989,0.509,1.381,0.899"/>
			<path style="fill:none;stroke:#473C3B;stroke-width:0.2563;stroke-linecap:round;stroke-miterlimit:10;" d="M291.865,116.995
				c1.979,0.775,4.167,1.012,6.266,0.679"/>
			<path style="fill:#473C3B;" d="M285.204,116.631c-0.262-0.591-0.858-1.002-1.496-1.104c-0.411-0.066-0.831-0.014-1.244,0.038
				c-0.516,0.065-1.033,0.129-1.543,0.227c-0.212,0.04-0.431,0.09-0.598,0.226c-0.361,0.294-0.111,0.853,0.053,1.193
				c0.197,0.407,0.551,0.74,0.977,0.896c0.388,0.141,0.811,0.141,1.224,0.122c0.553-0.025,1.104-0.08,1.655-0.135
				c0.246-0.025,0.5-0.051,0.718-0.168C285.433,117.667,285.398,117.069,285.204,116.631z"/>
			<path style="fill:#473C3B;" d="M277.257,117.6c-0.261,0.55-0.299,1.179-0.268,1.787c0.03,0.608,0.124,1.214,0.106,1.822
				c-0.026,0.91-0.307,1.812-0.801,2.576c-0.257,0.397-0.585,0.804-0.556,1.276c0.032,0.524,0.509,0.922,1.008,1.087
				c0.996,0.329,2.128-0.043,2.913-0.739c0.785-0.696,1.27-1.67,1.616-2.66c0.346-0.99,0.573-2.02,0.945-3.001
				c0.297,0.284,0.612,0.578,1.011,0.677c0.398,0.099,0.897-0.08,1.002-0.477c0.057-0.217-0.013-0.45-0.132-0.64
				c-0.332-0.529-0.986-0.767-1.389-1.243c-0.261-0.307-0.402-0.697-0.628-1.031c-0.378-0.559-1.001-0.944-1.669-1.034
				c-0.703-0.094-1.215,0.168-1.809,0.487C278.037,116.791,277.554,116.973,277.257,117.6z"/>
			<path style="fill:#FE9685;" d="M281.999,116.9c0.114-0.238,0.351-0.399,0.602-0.476c0.426-0.131,0.9-0.045,1.289,0.172
				c0.389,0.217,0.7,0.555,0.945,0.927c0.16,0.243,0.293,0.572,0.123,0.808c-0.101,0.14-0.28,0.198-0.449,0.235
				c-0.529,0.115-1.41,0.192-1.872-0.161C282.213,118.08,281.734,117.453,281.999,116.9z"/>
			<path style="fill:none;stroke:#473C3B;stroke-width:0.2563;stroke-linecap:round;stroke-miterlimit:10;" d="M283.125,117.723
				c-0.191-0.035-0.293-0.279-0.218-0.458c0.074-0.179,0.278-0.28,0.472-0.277s0.376,0.093,0.534,0.205
				c0.239,0.17,0.44,0.402,0.54,0.678"/>
			<path style="fill:none;stroke:#473C3B;stroke-width:0.2563;stroke-linecap:round;stroke-miterlimit:10;" d="M287.855,121.859
				c0.485-0.966,0.797-2.019,0.916-3.093"/>
			<path style="fill:none;stroke:#473C3B;stroke-width:0.2563;stroke-linecap:round;stroke-miterlimit:10;" d="M287.995,117.349
				c0.24-0.106,0.479-0.212,0.719-0.318"/>
		</g>
		<path style="fill:#473C3B;" d="M247.201,68.601v109.221h159.125V68.601H247.201z M400.856,170.777H252.672v-95.13h148.185V170.777
			z"/>
		<circle style="fill:#FE3F1F;" cx="264.331" cy="85.146" r="6.339"/>
		<rect x="352.482" y="90.008" style="opacity:0.54;fill:#B5B1B1;" width="38.866" height="3.628"/>
		<rect x="352.482" y="105.572" style="opacity:0.54;fill:#B5B1B1;" width="38.866" height="3.628"/>
		<rect x="364.659" y="114.518" style="opacity:0.54;fill:#918A89;" width="26.689" height="3.628"/>
		<rect x="343.057" y="97.946" style="opacity:0.54;fill:#918A89;" width="48.29" height="3.628"/>
		<rect x="352.482" y="122.501" style="opacity:0.54;fill:#B5B1B1;" width="38.866" height="3.628"/>
		<rect x="352.482" y="138.064" style="opacity:0.54;fill:#B5B1B1;" width="38.866" height="3.628"/>
		<rect x="364.659" y="147.011" style="opacity:0.54;fill:#918A89;" width="26.689" height="3.628"/>
		<rect x="343.057" y="130.439" style="opacity:0.54;fill:#918A89;" width="48.29" height="3.628"/>
		<path style="fill:#473C3B;" d="M254.073,187.906c3.015-0.525,6.116-0.555,9.141-0.09c1.224-3.749,2.213-7.576,2.958-11.449
			c-0.031,0.171-4.457-0.208-4.936-0.087c-1.113,0.281-1.41,0.821-1.975,1.787C257.396,181.257,255.797,184.637,254.073,187.906z"/>
		<path style="fill:#473C3B;" d="M397.397,187.906c-3.015-0.525-6.116-0.555-9.141-0.09c-1.224-3.749-2.213-7.576-2.958-11.449
			c0.031,0.171,4.457-0.208,4.936-0.087c1.113,0.281,1.41,0.821,1.975,1.787C394.074,181.257,395.673,184.637,397.397,187.906z"/>
	</g>
	<g>
		<rect x="209.815" y="186.246" style="fill:#797FFF;" width="219.078" height="16.391"/>
		<rect x="209.815" y="256.498" style="fill:#797FFF;" width="219.078" height="16.391"/>
		<rect x="228.602" y="191.296" style="fill:#797FFF;" width="21.338" height="158.972"/>
		<rect x="390.727" y="191.296" style="fill:#797FFF;" width="21.338" height="158.972"/>
	</g>
	<polygon style="fill:#797FFF;" points="89.946,426.486 41.938,473.263 398.686,473.263 373.44,426.486 	"/>
	<path style="fill:#5B5FBF;" d="M125.582,456.65c12.676-0.124,25.09,3.397,37.706,4.63c29.385,2.871,58.673-6.717,88.193-6.164
		c32.293,0.605,64.632,13.296,96.201,6.476c4.423-0.956,8.899-2.36,12.358-5.277c3.459-2.918,5.698-7.652,4.565-12.033
		c-1.436-5.555-7.709-8.646-13.447-8.635s-11.177,2.325-16.646,4.062c-29.529,9.377-61.357,2.17-92.123-1.482
		c-48.632-5.773-99.117-3.536-147.762,1.316c-9.407,0.938-14.48,7.793-18.907,15.718C88.808,464.788,110.904,456.794,125.582,456.65
		z"/>
	<g>
		<g>
			<g>
				<path style="fill:#473C3B;" d="M130.161,417.479c-1.234,2.422-2.452,4.843-3.646,7.266c-1.026,2.083-2.08,4.299-1.879,6.613
					c0.363,4.185,4.878,5.682,8.491,5.69c4.698,0.01,8.05-5.472,11.159-8.614c8.447-8.536,16.733-17.26,24.204-26.674
					c5.734-7.226,10.984-14.863,15.369-22.986c4.113-7.62,6.551-15.713,10.003-23.579c12.095-27.553,35.59-48.89,47.614-76.474
					c3.633-8.335,4.451-18.52,3.098-27.512c-1.214-8.069-4.865-15.99-11.185-21.151c-4.379-3.576-9.76-5.651-15.041-7.67
					c-1.085-0.415-2.328-0.825-3.366-0.303c-1.271,0.64-1.548,2.296-1.691,3.712c-1.263,12.494-4.113,24.826-8.449,36.611
					c-2.133,5.796-5.209,10.642-8.071,16.082c-2.947,5.6-5.621,11.339-8.483,16.983c-5.451,10.75-10.896,21.503-16.333,32.261
					c-2.792,5.525-6.275,11.087-8.457,16.88c-1.376,3.654-1.541,7.502-3.003,11.143C152.048,376.799,140.526,397.14,130.161,417.479
					z"/>
				<path style="fill:none;stroke:#FFFFFF;stroke-linecap:round;stroke-miterlimit:10;" d="M171.118,357.661
					c3.779-1.817,6.964-4.846,8.967-8.531c2.002-3.684,2.813-8.005,2.281-12.164"/>
			</g>
			<g>
				<path style="fill:#FE9685;" d="M93.814,442.496c-2.497,0.64-5.088,1.192-7.229,2.627c-2.141,1.435-3.75,4.023-3.184,6.538
					c0.627,2.782,3.672,4.436,6.521,4.551c2.849,0.115,5.6-0.918,8.346-1.686c8.14-2.276,16.907-2.262,25.039,0.041
					c3.657,1.036,7.956,2.416,10.944,0.066c1.655-1.302,2.39-3.434,2.921-5.471c0.851-3.261,1.394-6.602,1.622-9.965
					c0.178-2.636,0.155-5.333-0.644-7.852c-0.799-2.518-2.465-4.858-4.862-5.969c-5.973-2.769-13.361,5.618-18.124,8.38
					C108.491,437.624,101.287,440.581,93.814,442.496z"/>
				<path style="fill:none;stroke:#473C3B;stroke-linecap:round;stroke-miterlimit:10;" d="M83.495,451.791
					c0.672-1.957,2.282-3.478,4.097-4.472c1.815-0.994,3.84-1.524,5.842-2.045"/>
				<path style="fill:none;stroke:#473C3B;stroke-linecap:round;stroke-miterlimit:10;" d="M86.042,445.578
					c1.449-0.835,3.09-1.335,4.759-1.451c0.75-0.052,1.585-0.059,2.127-0.58"/>
				<path style="fill:none;stroke:#473C3B;stroke-linecap:round;stroke-miterlimit:10;" d="M122.096,435.523
					c1.658,0.829,3.632,1.006,5.412,0.485c1.779-0.521,3.346-1.735,4.295-3.328"/>
			</g>
		</g>
		<g>
			<g>
				<path style="fill:#5F504E;" d="M210.343,260.783c1.583,4.716,4.179,9.016,6.785,13.253
					c31.23,50.783,77.006,91.886,104.575,144.9c0.415,0.797,0.824,1.597,1.229,2.399c2.001,3.965,6.431,17.177,12.639,15.021
					c2.108-0.732,3.526-2.809,4.052-4.978c0.527-2.169,0.305-4.442,0.036-6.658c-3.633-29.958-16.152-56.915-31.414-82.541
					c-9.148-15.36-20.068-29.669-28.263-45.558c-8.06-15.628-11.708-34.487-21.533-48.943
					c-9.177-13.503-23.963-23.364-40.232-25.627c-1.935-0.269-4.061-0.4-5.687,0.683c-2.07,1.378-2.563,4.155-2.872,6.623
					C208.244,240.649,206.674,249.854,210.343,260.783z"/>
				<path style="fill:none;stroke:#FFFFFF;stroke-linecap:round;stroke-miterlimit:10;" d="M271.053,331.19
					c5.908,2.013,10.283,7.892,10.514,14.129"/>
			</g>
			<g>
				<path style="fill:#FE9685;" d="M324.717,449.885c-0.024,0.265-0.048,0.53-0.072,0.796c-0.089,0.991-0.165,2.052,0.32,2.921
					c0.556,0.998,1.706,1.491,2.798,1.824c5.241,1.597,10.313,0.277,15.619,0.146c1.763-0.044,3.781-0.194,4.825-1.393
					c0.628-0.721,0.742-1.662,0.81-2.554c0.615-8.063-0.646-16.18-5.486-22.847c-1.912-2.634-4.595-4.851-7.775-5.541
					c-3.181-0.691-6.855,0.424-8.61,3.165c-0.881,1.376-1.186,2.797-1.041,4.383c0.183,1.999-0.023,3.918-0.204,5.936
					C325.506,441.11,325.112,445.497,324.717,449.885z"/>
				<path style="fill:none;stroke:#473C3B;stroke-width:0.8435;stroke-linecap:round;stroke-miterlimit:10;" d="M329.564,448.217
					c1.766,1.961,2.554,4.53,2.136,6.968"/>
				<path style="fill:none;stroke:#473C3B;stroke-width:0.8435;stroke-linecap:round;stroke-miterlimit:10;" d="M336.408,448.757
					c0.286,2.371,0.437,4.755,0.451,7.138"/>
				<path style="fill:none;stroke:#473C3B;stroke-width:0.8435;stroke-linecap:round;stroke-miterlimit:10;" d="M340.428,449.196
					c0.615,2.183,1.031,4.406,1.243,6.643"/>
				<path style="fill:none;stroke:#473C3B;stroke-width:0.8435;stroke-linecap:round;stroke-miterlimit:10;" d="M344.808,448.59
					c0.425,2.379,0.62,4.788,0.584,7.194"/>
				<path style="fill:none;stroke:#473C3B;stroke-width:0.8435;stroke-linecap:round;stroke-miterlimit:10;" d="M327.027,430.496
					c0.407,1.709,0.23,3.513-0.503,5.143"/>
			</g>
		</g>
		<g>
			<g>
				<path style="fill:#FE9685;" d="M135.572,83.428c-0.121-0.832-0.184-1.692,0.035-2.504c0.219-0.812,0.764-1.574,1.553-1.864
					c1.171-0.431,2.44,0.261,3.441,1.006c1.99,1.48,3.741,3.282,5.164,5.313c1.12,1.6,2.051,3.381,2.353,5.311
					c0.302,1.93-0.089,4.029-1.358,5.515c-0.874,1.023-2.877,2.214-4.294,1.689c-1.175-0.436-1.936-2.556-2.538-3.572
					C137.928,90.949,136.141,87.349,135.572,83.428z"/>
				<path style="fill:#FE9685;" d="M147.951,75.264c0.703-2.38,1.688-5.075,4.019-5.927c1.81-0.662,3.853,0.068,5.438,1.164
					c2.01,1.391,4.119,3.599,4.675,6.014c0.654,2.838,0.562,5.81,0.062,8.663c-0.609,3.476-1.808,6.817-3.002,10.138
					c-0.354,0.986-0.764,2.043-1.648,2.605c-0.737,0.468-1.663,0.497-2.536,0.459c-1.986-0.087-3.96-0.451-5.847-1.075
					c-1.847-0.61-2.826-1.618-4.05-3.121c-2.306-2.833-1.219-5.012-0.296-8.136C145.828,82.453,146.89,78.858,147.951,75.264z"/>
				<path style="fill:none;stroke:#473C3B;stroke-linecap:round;stroke-miterlimit:10;" d="M152.75,69.315
					c0.43,3.704,0.002,7.505-1.242,11.021"/>
				<path style="fill:none;stroke:#473C3B;stroke-linecap:round;stroke-miterlimit:10;" d="M157.495,71.036
					c-0.439,3.833-1.168,7.632-2.179,11.355"/>
				<path style="fill:none;stroke:#473C3B;stroke-linecap:round;stroke-miterlimit:10;" d="M161.508,75.745
					c-0.113,3.636-1.053,7.243-2.73,10.472"/>
			</g>
			<g>
				<path style="fill:#FE9685;" d="M117.14,214.574c5.472-19.418,10.244-39.171,14.424-59.074
					c4.166-19.909,7.745-39.982,10.57-60.163l16.064,1.203c-0.267,20.801-1.31,41.588-2.976,62.36
					c-1.682,20.773-3.984,41.528-7.089,62.304L117.14,214.574z"/>
				<path style="fill:none;stroke:#473C3B;stroke-linecap:round;stroke-miterlimit:10;" d="M147.594,150.86
					c1.703,1.878,2.482,4.557,2.053,7.055c-0.429,2.499-2.056,4.764-4.288,5.967"/>
			</g>
		</g>
		<g>
			<g>
				<path style="fill:#FE9685;" d="M116.807,224.534c0.829-0.15,1.722-0.293,2.484,0.066c1.233,0.58,1.563,2.155,1.691,3.512
					c0.697,7.398-0.092,14.933-2.307,22.026c-6.875-3.088-15.436,0.322-22.195-3.011c-3.802-1.874-6.495-5.988-6.331-10.223
					c0.133-3.444,2.287-6.771,5.385-8.286c1.714-0.839,3.749-0.909,5.605-1.245c2.458-0.445,4.915-0.89,7.373-1.335
					C111.277,225.536,114.042,225.035,116.807,224.534z"/>
				<path style="fill:#FE6685;" d="M96.909,232.899c4.27,1.05,8.506,2.618,11.923,5.385c1.763,1.428,3.275,3.195,4.346,5.199
					c0.521,0.975,0.999,2.045,1.236,3.13c0.074,0.339,0.135,2.874,0.133,2.874c-2.01-0.687-4.188-0.876-6.287-0.547
					c-0.725,0.114-1.484,0.286-2.175,0.041c-1.425-0.505-1.193-3.777-1.687-5.065c-0.803-2.091-1.848-4.09-3.106-5.943
					c-0.649-0.957-1.355-1.875-2.114-2.747C98.825,234.819,97.44,232.899,96.909,232.899z"/>
			</g>
			<g>
				<path style="fill:#FE6685;" d="M89.045,266.334c1.666,0.54,3.487,0.867,4.8,2.025c0.699,0.617,1.199,1.428,1.867,2.078
					c0.668,0.651,1.615,1.148,2.513,0.898c0.701-0.196,1.223-0.824,1.44-1.519c0.217-0.694,0.166-1.446,0.022-2.159
					c-0.524-2.584-2.297-4.859-4.618-6.111c-2.353-1.269-6.428-1.923-8.791-0.292C83.458,263.201,87.201,265.736,89.045,266.334z"/>
				<path style="fill:#FE9685;" d="M68.632,255.052c3.557,4.671,8.968,7.766,14.701,9.028c5.734,1.263,11.767,0.776,17.416-0.826
					c1.865-0.529,3.737-1.199,5.244-2.418c2.073-1.676,3.264-4.264,3.683-6.897c0.419-2.633,0.132-5.327-0.325-7.953
					c-0.674-3.867-1.761-7.766-4.076-10.936c-3.027-4.145-7.928-6.654-12.975-7.593s-10.257-0.439-15.301,0.509
					c-5.641,1.06-10.034,4.244-11.756,9.819C63.431,243.657,64.951,250.216,68.632,255.052z"/>
			</g>
			<g>
				<path style="fill:#473C3B;" d="M41.205,243.851c-3.09,0.014-6.334-1.48-7.693-4.256c-1.454-2.97-0.472-6.57,1.098-9.48
					c1.496-2.773,3.609-5.348,6.479-6.649c2.869-1.301,6.582-1.052,8.797,1.188c-2.319-4.647-1.906-10.538,1.038-14.816
					c2.944-4.278,8.299-6.769,13.468-6.263c5.168,0.505,9.94,3.986,11.999,8.754c-0.092-3.058,1.629-5.982,4.034-7.872
					c2.405-1.89,5.42-2.857,8.441-3.344c2.261-0.365,4.682-0.459,6.736,0.553c2.491,1.228,4.014,3.937,4.4,6.687
					c0.386,2.75-0.217,5.546-1.069,8.189c1.962-1.665,5.313-0.514,6.46,1.789c1.148,2.303,0.496,5.163-0.917,7.314
					c-2.257,3.436-6.181,5.458-10.165,6.474c-3.984,1.016-8.129,1.17-12.202,1.725c-8.177,1.114-16.127,3.876-23.233,8.074
					c-1.623,0.959-3.31,2.025-5.195,2.059c-2.362,0.043-3.046-2.684-4.748-2.444c-1.168,0.165-2.563,1.272-3.74,1.645
					C43.902,243.587,42.563,243.845,41.205,243.851z"/>
				<path style="fill:#473C3B;" d="M37.682,251.425c3.243-8.085,9.006-12.981,15.227-18.663c6.451-5.892,13.79-10.815,21.687-14.552
					c2.52-1.192,5.168-2.282,7.954-2.383c2.786-0.101,5.76,0.963,7.287,3.295c1.853,2.829,1.078,6.764-0.935,9.482
					c2.165,1.264,6.846,4.202,5.87,7.319c-0.373,1.192-1.595,1.902-2.78,2.294c-2.953,0.977-6.314,0.643-9.017-0.897
					c1.751,1.5,2.018,4.325,0.851,6.314c-1.167,1.988-3.513,3.117-5.819,3.153c-2.305,0.036-4.548-0.908-6.397-2.285
					c6.073,9.583,11.346,20.367,10.806,31.699c-0.126,2.639-0.928,5.729-3.408,6.641c-1.741,0.64-3.686-0.074-5.284-1.016
					c-2.629-1.551-4.872-3.751-6.474-6.349c1.914,2.687,0.991,6.816-1.666,8.771c-2.657,1.955-6.545,1.782-9.292-0.045
					c-2.746-1.828-4.371-5.065-4.686-8.349c-0.315-3.284,0.571-6.598,2.032-9.556c-1.69,1.415-3.423,2.818-5.415,3.762
					c-1.992,0.943-4.293,1.397-6.422,0.827c-3.385-0.907-5.681-4.278-6.248-7.736c-0.567-3.458,0.292-6.989,1.402-10.313
					c0.882-2.643,2.221-5.527,4.862-6.417"/>
			</g>
			<g>
				<path style="fill:none;stroke:#473C3B;stroke-linecap:round;stroke-miterlimit:10;" d="M86.846,258.742
					c1.179-0.023,2.372-0.556,3.054-1.518c0.682-0.962,0.768-2.354,0.086-3.316c-0.635-0.895-1.759-1.287-2.585-2.009"/>
				<path style="fill:none;stroke:#473C3B;stroke-linecap:round;stroke-miterlimit:10;" d="M81.937,258.285
					c-1.207-1.436-1.659-3.473-1.173-5.285c0.487-1.812,1.898-3.349,3.662-3.987"/>
				<path style="fill:#FE6685;" d="M93.014,249.869c0.203,0.861,0.799,1.613,1.573,2.041c1.143,0.632,2.656,0.517,3.69-0.28
					c1.035-0.797,1.532-2.231,1.212-3.497c-0.319-1.266-1.437-2.293-2.726-2.503C94.36,245.238,92.47,247.562,93.014,249.869z"/>
				<path style="fill:none;stroke:#473C3B;stroke-linecap:round;stroke-miterlimit:10;" d="M99.716,263.585
					c0.547-1.648,0.472-3.495-0.206-5.093c-0.678-1.599-1.954-2.936-3.519-3.688"/>
			</g>
			<g>
				<path style="fill:#FE9685;" d="M83.154,222.414c0.624-1.303,1.923-2.188,3.304-2.613c2.336-0.719,4.938-0.246,7.072,0.945
					c2.135,1.191,3.839,3.046,5.185,5.086c0.878,1.33,1.605,3.14,0.673,4.434c-0.554,0.769-1.535,1.087-2.461,1.288
					c-2.903,0.631-7.733,1.053-10.269-0.883C84.326,228.89,81.701,225.448,83.154,222.414z"/>
				<path style="fill:none;stroke:#473C3B;stroke-linecap:round;stroke-miterlimit:10;" d="M89.329,226.931
					c-1.045-0.193-1.605-1.53-1.198-2.511c0.408-0.981,1.527-1.535,2.589-1.518c1.062,0.017,2.064,0.51,2.93,1.126
					c1.31,0.934,2.411,2.206,2.96,3.718"/>
			</g>
		</g>
		<path style="fill:#FE3F1F;" d="M204.556,220.47c-12.339-1.689-24.748-3.195-36.873-5.903c-13.01-2.906-26.107-7.94-39.654-6.287
			c-2.586,0.316-5.198,0.9-7.416,2.268c-5.609,3.46-4.709,10.844-4.029,16.539c0.63,5.277,1.665,10.653,0.566,15.853
			c-1.192,5.646-4.86,11.199-3.238,16.737c1.078,3.682,4.291,6.319,7.577,8.299c7.469,4.501,15.134,3.351,23.378,2.016
			c10.329-1.673,20.789-2.536,31.253-2.584c4.33-0.02,8.611-0.334,12.625,1.354c4.052,1.703,8.359,2.585,12.368,4.486
			c1.366,0.648,2.921,1.365,4.324,0.802c1.037-0.416,1.69-1.432,2.24-2.405c3.573-6.322,5.665-13.341,7.156-20.413
			c0.762-3.616,1.417-7.269,1.956-10.925c0.473-3.205,0.99-6.674,0.867-9.935c-0.109-2.895-0.941-6.042-3.324-7.689
			c-1.489-1.03-3.354-1.313-5.146-1.568C207.644,220.896,206.1,220.682,204.556,220.47z"/>
		<g>
			<g>
				<path style="fill:#FE9685;" d="M89.894,398.871c-1.017,0.797-2.134,1.803-2.065,3.093c0.06,1.134,1.1,2.034,2.21,2.272
					c1.111,0.239,2.265-0.045,3.339-0.415c2.814-0.968,5.418-2.543,7.582-4.584c1.121-1.057,2.155-2.293,2.551-3.782
					c0.396-1.489,0.003-3.273-1.264-4.149c-2.084-1.442-3.639,0.627-5.031,1.823C94.872,395.142,92.327,396.963,89.894,398.871z"/>
				<path style="fill:#FE9685;" d="M112.496,392.908c0.613-0.16,1.331-0.3,1.825,0.096c0.458,0.367,0.515,1.032,0.523,1.618
					c0.096,6.714-1.336,13.444-4.157,19.538c-0.923,1.993-2.087,4.018-4,5.095c-2.331,1.312-5.256,0.921-7.781,0.038
					c-1.584-0.553-3.245-1.428-3.838-2.998c-0.624-1.655,0.146-3.471,0.81-5.11c1.029-2.536,1.829-5.165,2.39-7.844
					c0.391-1.865,0.281-4.327,1.311-5.995c0.889-1.44,2.659-1.759,4.18-2.158C106.672,394.425,109.584,393.668,112.496,392.908z"/>
				<path style="fill:none;stroke:#473C3B;stroke-linecap:round;stroke-miterlimit:10;" d="M96.378,417.768
					c2.222-2.568,3.895-5.611,4.871-8.864"/>
				<path style="fill:none;stroke:#473C3B;stroke-linecap:round;stroke-miterlimit:10;" d="M99.692,419.601
					c2.326-2.171,3.839-5.196,4.18-8.359"/>
				<path style="fill:none;stroke:#473C3B;stroke-linecap:round;stroke-miterlimit:10;" d="M108.254,411.674
					c-0.012,2.939-1.072,5.863-2.946,8.127"/>
			</g>
			<g>
				<path style="fill:#FE9685;" d="M144.32,266.912c-9.287,46.938-19.15,87.11-31.116,133.262l-14.446-2.806
					c6.13-46.995,11.381-94.084,14.747-141.185c4.963-6.952,13.492-9.921,20.801-7.508
					C142.497,251.379,145.86,259.091,144.32,266.912z"/>
				<path style="fill:none;stroke:#473C3B;stroke-linecap:round;stroke-miterlimit:10;" d="M123.144,315.28
					c-3.08,4.561-4.17,10.418-2.937,15.782"/>
			</g>
		</g>
		<path style="fill:none;stroke:#FFFFFF;stroke-linecap:round;stroke-miterlimit:10;" d="M134.06,233.144
			c4.429,0.095,8.935,0.423,13.064,2.029c2.828,1.1,5.426,2.79,7.577,4.93"/>
		<path style="fill:none;stroke:#FFFFFF;stroke-linecap:round;stroke-miterlimit:10;" d="M137.266,222.938
			c10.857,4.253,22.854,5.553,34.37,3.724"/>
	</g>
	<g>
		<g>
			<path style="fill:#9EBF51;" d="M392.427,277.72c1.282,7.22,5.359,13.617,9.733,19.504c4.374,5.886,9.177,11.554,12.293,18.193
				c5.898,12.567,5.121,27.069,5.399,40.948c0.278,13.879,2.257,28.914,11.995,38.807c5.233,5.316,13.739,8.604,20.199,4.873
				c4.879-2.818,7.061-8.669,8.23-14.181c4.103-19.341-0.118-40.305-11.387-56.551c-7.858-11.328-18.997-20.544-24.382-33.235
				c-3.228-7.607-4.165-16.004-7.087-23.734c-2.261-5.982-8.714-17.346-16.668-15.267
				C393.104,259.076,391.302,271.387,392.427,277.72z"/>
			<path style="fill:none;stroke:#473C3B;stroke-linecap:round;stroke-miterlimit:10;" d="M408.383,279.832
				c23.984,45.152,37.97,95.58,40.667,146.636"/>
		</g>
		<g>
			<path style="fill:#D2FF6C;" d="M440.275,303.802c-1.693,18.611-9.48,37.244-5.177,55.43c1.757,7.425,5.813,14.648,12.41,18.481
				c6.597,3.833,15.938,3.363,21.005-2.341c4.702-5.293,4.685-13.142,4.407-20.216c-1.552-39.505-3.103-79.01-4.654-118.515
				c-0.256-6.528-1.514-14.511-7.656-16.737c-14.792-5.361-22.398,17.5-22.67,27.441
				C437.425,266.212,441.993,284.924,440.275,303.802z"/>
			<path style="fill:none;stroke:#473C3B;stroke-linecap:round;stroke-miterlimit:10;" d="M449.169,420.396
				c9.608-58.26,12.179-117.677,7.639-176.549"/>
		</g>
		<path style="fill:#FE3F1F;" d="M470.054,420.02c0.589,5.788,1.178,11.627,0.548,17.41c-0.631,5.783-2.583,11.584-6.5,15.885
			c-3.917,4.301-10.012,6.856-15.692,5.598c-5.704-1.264-10.024-5.982-12.983-11.019c-5.632-9.589-7.651-21.244-5.572-32.169
			C443,416.444,456.909,419.302,470.054,420.02z"/>
	</g>
</g>
</svg>
