<?xml version="1.0" encoding="utf-8"?>
<!-- Generator: Adobe Illustrator 27.5.0, SVG Export Plug-In . SVG Version: 6.00 Build 0)  -->
<svg version="1.1" xmlns="http://www.w3.org/2000/svg" xmlns:xlink="http://www.w3.org/1999/xlink" x="0px" y="0px"
	 viewBox="0 0 500 500" style="enable-background:new 0 0 500 500;" xml:space="preserve">
<g id="Background_Simple">
	<g>
		<path style="fill:#92E3A9;" d="M446.328,145.288c0,0-80.396-115.753-180.779-128.034C176.938,6.414,94.687,48.785,83.239,140.348
			c-4.079,32.625-11.343,68.717-24.243,98.484c-14.464,33.377-39.156,61.171-20.241,125.34
			c18.915,64.17,98.761,122.114,156.813,121.967c58.052-0.146,112.585-52.893,157.569-100.88
			C398.121,337.273,541.403,292.168,446.328,145.288z"/>
		<path style="opacity:0.7;fill:#FFFFFF;" d="M446.328,145.288c0,0-80.396-115.753-180.779-128.034
			C176.938,6.414,94.687,48.785,83.239,140.348c-4.079,32.625-11.343,68.717-24.243,98.484
			c-14.464,33.377-39.156,61.171-20.241,125.34c18.915,64.17,98.761,122.114,156.813,121.967
			c58.052-0.146,112.585-52.893,157.569-100.88C398.121,337.273,541.403,292.168,446.328,145.288z"/>
	</g>
</g>
<g id="Window">
	<g style="opacity:0.3;">
		<g>
			<polygon style="fill:none;stroke:#000000;stroke-linecap:round;stroke-linejoin:round;stroke-miterlimit:10;" points="
				123.882,177.633 48.812,177.633 49.571,163.14 124.642,163.14 			"/>
			<polygon style="fill:none;stroke:#000000;stroke-linecap:round;stroke-linejoin:round;stroke-miterlimit:10;" points="
				123.882,197.924 48.812,197.924 49.571,183.43 124.642,183.43 			"/>
			<polygon style="fill:none;stroke:#000000;stroke-linecap:round;stroke-linejoin:round;stroke-miterlimit:10;" points="
				123.882,218.214 48.812,218.214 49.571,203.721 124.642,203.721 			"/>
			<polygon style="fill:none;stroke:#000000;stroke-linecap:round;stroke-linejoin:round;stroke-miterlimit:10;" points="
				123.882,238.505 48.812,238.505 49.571,224.012 124.642,224.012 			"/>
			<polygon style="fill:none;stroke:#000000;stroke-linecap:round;stroke-linejoin:round;stroke-miterlimit:10;" points="
				123.882,258.796 48.812,258.796 49.571,244.302 124.642,244.302 			"/>
			<polygon style="fill:none;stroke:#000000;stroke-linecap:round;stroke-linejoin:round;stroke-miterlimit:10;" points="
				123.882,279.086 48.812,279.086 49.571,264.593 124.642,264.593 			"/>
			<polygon style="fill:none;stroke:#000000;stroke-linecap:round;stroke-linejoin:round;stroke-miterlimit:10;" points="
				123.882,299.376 48.812,299.376 49.571,284.883 124.642,284.883 			"/>
			<polygon style="fill:none;stroke:#000000;stroke-linecap:round;stroke-linejoin:round;stroke-miterlimit:10;" points="
				123.882,319.667 48.812,319.667 49.571,305.174 124.642,305.174 			"/>
			<polygon style="fill:none;stroke:#000000;stroke-linecap:round;stroke-linejoin:round;stroke-miterlimit:10;" points="
				123.882,339.958 48.812,339.958 49.571,325.464 124.642,325.464 			"/>
			<polygon style="fill:none;stroke:#000000;stroke-linecap:round;stroke-linejoin:round;stroke-miterlimit:10;" points="
				123.882,360.248 48.812,360.248 49.571,345.755 124.642,345.755 			"/>
			<polygon style="fill:none;stroke:#000000;stroke-linecap:round;stroke-linejoin:round;stroke-miterlimit:10;" points="
				123.882,380.539 48.812,380.539 49.571,366.046 124.642,366.046 			"/>
		</g>
		<g>
			<polygon style="fill:none;stroke:#000000;stroke-linecap:round;stroke-linejoin:round;stroke-miterlimit:10;" points="
				203.259,177.633 128.188,177.633 128.947,163.14 204.018,163.14 			"/>
			<polygon style="fill:none;stroke:#000000;stroke-linecap:round;stroke-linejoin:round;stroke-miterlimit:10;" points="
				203.259,197.924 128.188,197.924 128.947,183.43 204.018,183.43 			"/>
			<polygon style="fill:none;stroke:#000000;stroke-linecap:round;stroke-linejoin:round;stroke-miterlimit:10;" points="
				203.259,218.214 128.188,218.214 128.947,203.721 204.018,203.721 			"/>
			<polygon style="fill:none;stroke:#000000;stroke-linecap:round;stroke-linejoin:round;stroke-miterlimit:10;" points="
				203.259,238.505 128.188,238.505 128.947,224.012 204.018,224.012 			"/>
			<polygon style="fill:none;stroke:#000000;stroke-linecap:round;stroke-linejoin:round;stroke-miterlimit:10;" points="
				203.259,258.796 128.188,258.796 128.947,244.302 204.018,244.302 			"/>
			<polygon style="fill:none;stroke:#000000;stroke-linecap:round;stroke-linejoin:round;stroke-miterlimit:10;" points="
				203.259,279.086 128.188,279.086 128.947,264.593 204.018,264.593 			"/>
			<polygon style="fill:none;stroke:#000000;stroke-linecap:round;stroke-linejoin:round;stroke-miterlimit:10;" points="
				203.259,299.376 128.188,299.376 128.947,284.883 204.018,284.883 			"/>
			<polygon style="fill:none;stroke:#000000;stroke-linecap:round;stroke-linejoin:round;stroke-miterlimit:10;" points="
				203.259,319.667 128.188,319.667 128.947,305.174 204.018,305.174 			"/>
			<polygon style="fill:none;stroke:#000000;stroke-linecap:round;stroke-linejoin:round;stroke-miterlimit:10;" points="
				203.259,339.958 128.188,339.958 128.947,325.464 204.018,325.464 			"/>
			<polygon style="fill:none;stroke:#000000;stroke-linecap:round;stroke-linejoin:round;stroke-miterlimit:10;" points="
				203.259,360.248 128.188,360.248 128.947,345.755 204.018,345.755 			"/>
			<polygon style="fill:none;stroke:#000000;stroke-linecap:round;stroke-linejoin:round;stroke-miterlimit:10;" points="
				203.259,380.539 128.188,380.539 128.947,366.046 204.018,366.046 			"/>
		</g>
	</g>
</g>
<g id="Diplomas">
	<g style="opacity:0.3;">
		
			<rect x="337.187" y="192.628" style="fill:none;stroke:#000000;stroke-linecap:round;stroke-linejoin:round;stroke-miterlimit:10;" width="96.896" height="73.314"/>
		
			<rect x="342.444" y="198.686" style="fill:none;stroke:#000000;stroke-linecap:round;stroke-linejoin:round;stroke-miterlimit:10;" width="86.381" height="61.198"/>
		
			<line style="fill:none;stroke:#000000;stroke-linecap:round;stroke-linejoin:round;stroke-miterlimit:10;" x1="370.612" y1="208.333" x2="400.657" y2="208.333"/>
		
			<line style="fill:none;stroke:#000000;stroke-linecap:round;stroke-linejoin:round;stroke-miterlimit:10;" x1="351.152" y1="217.21" x2="420.117" y2="217.21"/>
		
			<line style="fill:none;stroke:#000000;stroke-linecap:round;stroke-linejoin:round;stroke-miterlimit:10;" x1="366.515" y1="234.964" x2="404.754" y2="234.964"/>
		
			<line style="fill:none;stroke:#000000;stroke-linecap:round;stroke-linejoin:round;stroke-miterlimit:10;" x1="351.835" y1="252.717" x2="366.857" y2="252.717"/>
		
			<line style="fill:none;stroke:#000000;stroke-linecap:round;stroke-linejoin:round;stroke-miterlimit:10;" x1="404.412" y1="252.717" x2="419.435" y2="252.717"/>
	</g>
	<g style="opacity:0.3;">
		
			<rect x="389.082" y="281.396" style="fill:none;stroke:#000000;stroke-linecap:round;stroke-linejoin:round;stroke-miterlimit:10;" width="71.322" height="53.965"/>
		
			<rect x="392.952" y="285.855" style="fill:none;stroke:#000000;stroke-linecap:round;stroke-linejoin:round;stroke-miterlimit:10;" width="63.583" height="45.046"/>
		
			<line style="fill:none;stroke:#000000;stroke-linecap:round;stroke-linejoin:round;stroke-miterlimit:10;" x1="413.685" y1="292.956" x2="435.8" y2="292.956"/>
		
			<line style="fill:none;stroke:#000000;stroke-linecap:round;stroke-linejoin:round;stroke-miterlimit:10;" x1="399.361" y1="299.49" x2="450.125" y2="299.49"/>
		
			<line style="fill:none;stroke:#000000;stroke-linecap:round;stroke-linejoin:round;stroke-miterlimit:10;" x1="410.67" y1="312.558" x2="438.816" y2="312.558"/>
		
			<line style="fill:none;stroke:#000000;stroke-linecap:round;stroke-linejoin:round;stroke-miterlimit:10;" x1="399.864" y1="325.626" x2="410.921" y2="325.626"/>
		
			<line style="fill:none;stroke:#000000;stroke-linecap:round;stroke-linejoin:round;stroke-miterlimit:10;" x1="438.565" y1="325.626" x2="449.622" y2="325.626"/>
	</g>
</g>
<g id="Prescription">
	<g>
		<path style="fill:#263238;stroke:#263238;stroke-linecap:round;stroke-linejoin:round;stroke-miterlimit:10;" d="M377.782,319.36
			l-103.536-3.6c-4.265-0.148-8.534-0.143-12.798,0.015l-96.444,3.585l4.272-135.416c0.162-5.135,0.157-10.274-0.014-15.408
			l-4.259-127.773h212.778V319.36z"/>
		
			<rect x="168.418" y="35.983" style="fill:#FFFFFF;stroke:#263238;stroke-linecap:round;stroke-linejoin:round;stroke-miterlimit:10;" width="212.778" height="278.598"/>
		
			<rect x="182.56" y="111.905" style="fill:#FFFFFF;stroke:#263238;stroke-linecap:round;stroke-linejoin:round;stroke-miterlimit:10;" width="184.493" height="186.758"/>
		<g>
			<g>
				<path style="fill:#92E3A9;" d="M184.294,83.996V49.85h10.033c2.051,0,3.717,0.379,4.995,1.138
					c1.279,0.759,2.22,1.862,2.824,3.309c0.604,1.448,0.906,3.197,0.906,5.248c0,2.221-0.379,4.012-1.138,5.375
					c-0.758,1.363-1.82,2.354-3.183,2.972c-1.363,0.618-2.972,0.927-4.827,0.927h-3.372v15.176H184.294z M190.533,64.436h2.361
					c1.124,0,2.003-0.161,2.635-0.485c0.632-0.323,1.068-0.843,1.307-1.56c0.239-0.716,0.358-1.679,0.358-2.887
					c0-1.236-0.091-2.241-0.274-3.014c-0.183-0.772-0.576-1.341-1.18-1.707c-0.605-0.365-1.553-0.548-2.846-0.548h-2.361V64.436z"/>
			</g>
			<g>
				<path style="fill:#92E3A9;" d="M191.879,100.474l6.872-18.127l-6.661-16.019h5.817l4.427,10.581l3.878-10.581h5.396
					l-6.576,17.199l7.082,16.947h-5.818l-4.848-11.466l-4.216,11.466H191.879z"/>
			</g>
		</g>
		
			<line style="fill:none;stroke:#263238;stroke-linecap:round;stroke-linejoin:round;stroke-miterlimit:10;" x1="287.574" y1="60.382" x2="366.443" y2="60.382"/>
		
			<line style="fill:none;stroke:#263238;stroke-linecap:round;stroke-linejoin:round;stroke-miterlimit:10;" x1="287.574" y1="77.404" x2="366.443" y2="77.404"/>
		
			<line style="fill:none;stroke:#263238;stroke-linecap:round;stroke-linejoin:round;stroke-miterlimit:10;" x1="304.596" y1="70.027" x2="366.443" y2="70.027"/>
		
			<line style="fill:none;stroke:#263238;stroke-linecap:round;stroke-linejoin:round;stroke-miterlimit:10;" x1="304.596" y1="85.348" x2="366.443" y2="85.348"/>
		
			<line style="fill:none;stroke:#263238;stroke-linecap:round;stroke-linejoin:round;stroke-miterlimit:10;" x1="188.845" y1="132.443" x2="250.692" y2="132.443"/>
		
			<line style="fill:none;stroke:#263238;stroke-linecap:round;stroke-linejoin:round;stroke-miterlimit:10;" x1="188.845" y1="148.592" x2="250.692" y2="148.592"/>
		
			<line style="fill:none;stroke:#263238;stroke-linecap:round;stroke-linejoin:round;stroke-miterlimit:10;" x1="188.845" y1="140.791" x2="282.467" y2="140.791"/>
		
			<line style="fill:none;stroke:#263238;stroke-linecap:round;stroke-linejoin:round;stroke-miterlimit:10;" x1="188.845" y1="168.269" x2="250.692" y2="168.269"/>
		
			<line style="fill:none;stroke:#263238;stroke-linecap:round;stroke-linejoin:round;stroke-miterlimit:10;" x1="188.845" y1="184.419" x2="250.692" y2="184.419"/>
		
			<line style="fill:none;stroke:#263238;stroke-linecap:round;stroke-linejoin:round;stroke-miterlimit:10;" x1="188.845" y1="176.618" x2="282.467" y2="176.618"/>
		
			<line style="fill:none;stroke:#263238;stroke-linecap:round;stroke-linejoin:round;stroke-miterlimit:10;" x1="187.523" y1="288.599" x2="246.153" y2="288.599"/>
		
			<line style="fill:none;stroke:#263238;stroke-linecap:round;stroke-linejoin:round;stroke-miterlimit:10;" x1="298.704" y1="288.599" x2="357.334" y2="288.599"/>
		<g>
			<path style="fill:#92E3A9;" d="M195.789,224.227c-9.818,6.222-12.734,19.225-6.512,29.043
				c6.222,9.818,19.225,12.734,29.043,6.512c9.818-6.222,12.734-19.225,6.512-29.043S205.607,218.005,195.789,224.227z
				 M215.937,256.023c-7.742,4.906-17.995,2.607-22.901-5.135c-4.906-7.742-2.607-17.995,5.135-22.901
				c7.742-4.906,17.995-2.607,22.901,5.135C225.978,240.863,223.679,251.117,215.937,256.023z"/>
			
				<rect x="196.242" y="240.537" transform="matrix(0.8447 -0.5353 0.5353 0.8447 -97.5413 148.3309)" style="fill:#92E3A9;" width="21.168" height="3.414"/>
		</g>
		<path style="fill:none;stroke:#263238;stroke-linecap:round;stroke-linejoin:round;stroke-miterlimit:10;" d="M196.908,281.948
			c0,0,0.29,6.665,8.984-5.216c8.694-11.882,7.535-11.012,5.216-4.347c-2.318,6.665-6.955,13.041-6.955,13.041
			s10.433-16.518,10.433-11.882c0,4.637-9.853,24.343-7.824,22.604c2.029-1.739,8.404-10.433,8.404-10.433s-0.869,5.796,1.449,3.188
			c2.318-2.608,4.927-7.824,4.637-4.927c-0.29,2.898-4.057,6.376-0.29,2.898c3.767-3.478,6.665-7.824,5.796-4.637
			c-0.869,3.188-3.188,4.347-0.869,3.188c2.318-1.159,15.359-22.894,11.302-20.286c-4.057,2.608-11.592,25.212-8.114,23.474
			c3.478-1.739,7.535-10.433,7.245-6.086c-0.29,4.347,0.869,4.347,2.029,2.898"/>
	</g>
</g>
<g id="Table">
	<g>
		
			<line style="fill:none;stroke:#263238;stroke-linecap:round;stroke-linejoin:round;stroke-miterlimit:10;" x1="483.088" y1="465.253" x2="26.552" y2="465.253"/>
		
			<line style="fill:none;stroke:#263238;stroke-linecap:round;stroke-linejoin:round;stroke-miterlimit:10;" x1="483.088" y1="474.813" x2="26.552" y2="474.813"/>
	</g>
</g>
<g id="Character_2">
	<g>
		<path style="fill:#263238;stroke:#263238;stroke-linecap:round;stroke-linejoin:round;stroke-miterlimit:10;" d="M458.082,359.804
			h-96.805c-3.156,0-5.835,2.316-6.291,5.439l-14.472,99.031h115.108l8.793-97.541C464.75,363.011,461.819,359.804,458.082,359.804z
			"/>
		<g>
			<path style="fill:#FFFFFF;stroke:#263238;stroke-linecap:round;stroke-linejoin:round;stroke-miterlimit:10;" d="M327.03,343.643
				c0,0-26.186,12.993-35.181,16.591c-8.995,3.598-11.194,5.197-11.994,7.396c-0.8,2.199-35.781,57.169-39.779,62.166
				c-3.998,4.997-12.593,15.792-11.394,23.188c1.199,7.396,10.794,13.793,19.989,13.593c9.195-0.2,14.992-1.999,15.991-4.598
				c0.999-2.599,26.386-47.974,26.386-47.974l7.996,50.573H401.19c0,0,7.996-69.163,7.996-79.357s1.999-22.188-2.199-24.787
				c-4.198-2.599-21.588-8.595-34.381-12.793c-12.793-4.198-16.791-4.997-19.789-4.997
				C349.817,342.644,327.03,343.643,327.03,343.643z"/>
			<path style="fill:#FFFFFF;stroke:#263238;stroke-linecap:round;stroke-linejoin:round;stroke-miterlimit:10;" d="
				M324.231,344.043c0,0-3.398,6.396-3.598,11.594c-0.2,5.197-0.999,14.792-3.998,20.589s-5.197,8.995-3.598,8.396
				c1.599-0.6,10.794-10.794,11.794-12.993c1-2.199,2.599,1.999,2.599,1.999s-2.998,8.595-3.398,9.795
				c-0.4,1.199,12.593,17.79,12.593,17.79s11.194-8.795,13.793-10.794c2.599-1.999,1.799-3.598,1.999-6.197s1-6.396,2.399-8.595
				c1.399-2.199,5.397,6.397,8.196,10.394c2.798,3.998,5.597,5.397,5.197,2.399c-0.4-2.998-1.799-8.795-2.798-18.99
				c-0.999-10.194-0.8-22.388-3.398-26.186c-2.599-3.798-16.237-4.554-25.187-5.197
				C327.875,337.404,324.231,344.043,324.231,344.043z"/>
			<polyline style="fill:none;stroke:#263238;stroke-linecap:round;stroke-linejoin:round;stroke-miterlimit:10;" points="
				283.85,378.049 291.049,414.006 281.755,390.097 			"/>
		</g>
		<g>
			<path style="fill:none;stroke:#263238;stroke-linecap:round;stroke-linejoin:round;stroke-miterlimit:10;" d="M325.231,353.638
				c0,0,2.798,15.592,5.397,27.585c2.599,11.994,5.997,19.989,5.997,19.989s13.193-22.188,16.991-33.782
				c3.798-11.594,4.997-19.59,4.997-19.59h-33.382V353.638z"/>
			<path style="fill:#92E3A9;stroke:#263238;stroke-linecap:round;stroke-linejoin:round;stroke-miterlimit:10;" d="
				M339.823,359.035l-7.196,8.995l4.997,9.595l-4.923,11.919c2.037,7.225,3.924,11.668,3.924,11.668s4.115-6.921,8.41-15.051
				l-3.612-8.336l4.398-9.995L339.823,359.035z"/>
			<path style="fill:#FFFFFF;stroke:#263238;stroke-linecap:round;stroke-linejoin:round;stroke-miterlimit:10;" d="
				M325.231,347.841v5.797c0,0,1.931,10.757,4.074,21.274l10.118-10.68l10.665,11.817c1.46-3.145,2.712-6.127,3.528-8.619
				c3.798-11.594,4.997-19.59,4.997-19.59H325.231z"/>
		</g>
		<g>
			<path style="fill:none;stroke:#263238;stroke-linecap:round;stroke-linejoin:round;stroke-miterlimit:10;" d="M238.08,435.715
				c0,0,18.669-6.815,28.743,9.779"/>
			<g>
				<path style="fill:#FFFFFF;stroke:#263238;stroke-linecap:round;stroke-linejoin:round;stroke-miterlimit:10;" d="
					M267.146,440.375c0,0-10.427,2.359-16.023,11.246c-5.596,8.887,5.76,9.875,8.887,9.875s6.092-2.093,6.255-3.186
					s4.277-11.626,4.113-14.094S268.357,440.484,267.146,440.375z"/>
				<g>
					<path style="fill:#FFFFFF;stroke:#263238;stroke-linecap:round;stroke-linejoin:round;stroke-miterlimit:10;" d="
						M262.346,444.051c0,0-5.765,5.026-5.374,6.976c0.391,1.95,8.953,9.707,10.603,8.596c1.65-1.111,1.583-2.689,1.109-3.421
						C268.208,455.47,262.346,444.051,262.346,444.051z"/>
					<path style="fill:#FFFFFF;stroke:#263238;stroke-linecap:round;stroke-linejoin:round;stroke-miterlimit:10;" d="
						M256.971,451.028c0,0-3.395,3.615-2.284,5.264c1.111,1.65,8.867,5.854,10.877,4.592c2.01-1.261,0.701-2.575,0.701-2.575
						L256.971,451.028z"/>
					<polygon style="fill:#FFFFFF;stroke:#263238;stroke-linecap:round;stroke-linejoin:round;stroke-miterlimit:10;" points="
						276.857,443.856 269.917,442.656 271.554,452.647 278.64,452.868 					"/>
					<path style="fill:#263238;stroke:#263238;stroke-linecap:round;stroke-linejoin:round;stroke-miterlimit:10;" d="
						M264.371,428.152l8.129,28.487l3.951,3.593l-0.002-5.072l-8.599-28.038c-0.301-0.98-1.353-1.517-2.323-1.185l0,0
						C264.614,426.25,264.106,427.223,264.371,428.152z"/>
					<path style="fill:#FFFFFF;stroke:#263238;stroke-linecap:round;stroke-linejoin:round;stroke-miterlimit:10;" d="
						M267.146,440.375c0,0-4.793,2.808-4.311,4.932c0.482,2.124,5.654,12.098,7.527,12.226c1.873,0.128,2.999-1.049,2.726-3.159
						c-0.274-2.11-2.035-9.968-3.17-11.718C268.782,440.905,268.617,440.267,267.146,440.375z"/>
					<path style="fill:#FFFFFF;stroke:#263238;stroke-linecap:round;stroke-linejoin:round;stroke-miterlimit:10;" d="
						M276.857,443.856c0,0,5.114,0.647,6.006,2.206c0.892,1.559-2.687,7.775-3.823,9.198s-3.177,1.356-3.237-2.24
						C275.744,449.425,276.857,443.856,276.857,443.856z"/>
				</g>
			</g>
		</g>
		<path style="fill:#FFFFFF;stroke:#263238;stroke-linecap:round;stroke-linejoin:round;stroke-miterlimit:10;" d="M249.223,455.888
			h56.065c3.265,0,5.913,2.647,5.913,5.912l0,0c0,2.771-2.246,5.017-5.017,5.017h-56.168c-2.542,0-4.603-2.061-4.603-4.603v-2.516
			C245.412,457.594,247.118,455.888,249.223,455.888z"/>
		<g>
			<g>
				<path style="fill:#FFFFFF;stroke:#263238;stroke-linecap:round;stroke-linejoin:round;stroke-miterlimit:10;" d="
					M349.018,442.99c0,0-14.592-1.599-18.19-2.798c-3.598-1.199-9.395-2.199-11.394-0.6c-1.999,1.599-11.794,12.993-11.993,14.392
					c-0.2,1.399-2.199,5.997-1.199,7.196c1,1.199,2.998,1.799,2.998,1.799s12.993,3.598,14.392,3.798
					c1.399,0.2,14.792-0.4,14.792-0.4l6.996-2.599l9.795-0.2c0,0,0.2,3.198,0.4-4.598
					C355.814,451.185,349.018,442.99,349.018,442.99z"/>
				<path style="fill:none;stroke:#263238;stroke-linecap:round;stroke-linejoin:round;stroke-miterlimit:10;" d="M309.239,462.979
					c0,0,0.2-4.598,1.199-6.596c0.999-1.999,12.393-12.193,12.393-12.193"/>
				<path style="fill:none;stroke:#263238;stroke-linecap:round;stroke-linejoin:round;stroke-miterlimit:10;" d="M313.037,464.178
					c0,0,1.999-4.997,2.799-5.397c0.8-0.4,10.194-6.397,10.194-6.397"/>
				<path style="fill:none;stroke:#263238;stroke-linecap:round;stroke-linejoin:round;stroke-miterlimit:10;" d="M319.833,465.578
					c0,0,0.4-1.999,1.399-2.399c0.999-0.4,9.395-4.198,9.395-4.198"/>
				<polyline style="fill:none;stroke:#263238;stroke-linecap:round;stroke-linejoin:round;stroke-miterlimit:10;" points="
					328.829,466.577 332.627,465.578 332.227,463.779 328.229,464.778 				"/>
			</g>
			<g>
				<path style="fill:#FFFFFF;stroke:#263238;stroke-linecap:round;stroke-linejoin:round;stroke-miterlimit:10;" d="
					M394.793,378.625c0,0-10.594,22.188-9.995,29.984c0.6,7.796,3.198,20.789,3.198,20.789s-16.791,6.596-22.588,8.995
					c-5.797,2.399-16.391,4.598-16.391,4.598l5.397,21.189l-0.799,2.199h58.169c0,0,4.398-0.799,5.197-1.799
					c0.8-1,1.599-1.399,1.999-4.598c0.4-3.198,2.998-31.183,2.399-38.979c-0.6-7.796-8.795-48.374-9.795-52.572
					c-0.999-4.198-2.799-6.996-4.598-7.996c-1.799-0.999-9.595-1.799-9.595-1.799"/>
				<path style="fill:none;stroke:#263238;stroke-linecap:round;stroke-linejoin:round;stroke-miterlimit:10;" d="M389.396,429.797
					c0,0,15.392,0.8,22.988,5.597"/>
				<path style="fill:none;stroke:#263238;stroke-linecap:round;stroke-linejoin:round;stroke-miterlimit:10;" d="M392.194,427.798
					c0,0,10.794-0.6,16.591,1.199"/>
				<path style="fill:none;stroke:#263238;stroke-linecap:round;stroke-linejoin:round;stroke-miterlimit:10;" d="M389.196,378.025
					c0,0-5.397,12.593-5.597,17.391c-0.2,4.797-0.6,7.596-0.6,7.596"/>
			</g>
		</g>
		<path style="fill:none;stroke:#263238;stroke-width:2;stroke-linecap:round;stroke-linejoin:round;stroke-miterlimit:10;" d="
			M364.609,344.643c0,0,12.194,17.391,2.399,65.765"/>
		<path style="fill:#FFFFFF;stroke:#263238;stroke-linecap:round;stroke-linejoin:round;stroke-miterlimit:10;" d="M372.805,411.807
			c0-3.312-2.685-5.997-5.997-5.997c-3.312,0-5.997,2.685-5.997,5.997c0,3.312,2.685,5.997,5.997,5.997
			C370.12,417.803,372.805,415.119,372.805,411.807z"/>
		<path style="fill:none;stroke:#263238;stroke-width:2;stroke-linecap:round;stroke-linejoin:round;stroke-miterlimit:10;" d="
			M323.032,346.442c0,0-6.197,3.998-7.196,20.189"/>
		<path style="fill:none;stroke:#263238;stroke-width:2;stroke-linecap:round;stroke-linejoin:round;stroke-miterlimit:10;" d="
			M324.408,391.159c-1.51,10.926-3.57,22.65-4.033,25.223c-0.989,5.494-7.537,7.418-11.735,5.619"/>
		<path style="fill:none;stroke:#263238;stroke-width:2;stroke-linecap:round;stroke-linejoin:round;stroke-miterlimit:10;" d="
			M308.747,391.883c-1.369-6.124-2.209-11.435-1.907-13.858c1.399-11.194,8.995-11.394,8.995-11.394s8.995,1.199,9.595,10.794
			c0.2,3.2-0.267,8.267-1.023,13.734"/>
		<path style="fill:none;stroke:#263238;stroke-width:2;stroke-linecap:round;stroke-linejoin:round;stroke-miterlimit:10;" d="
			M325.63,421.202c0,0-4.198,2.399-6.996,0.799c-1.891-1.08-7.036-17.364-9.887-30.118"/>
		<path style="fill:none;stroke:#263238;stroke-linecap:round;stroke-linejoin:round;stroke-miterlimit:10;" d="M328.374,421.938
			l-1.662,0.716c-0.795,0.343-1.717-0.024-2.06-0.819l-0.02-0.047c-0.343-0.795,0.024-1.717,0.819-2.06l1.662-0.716
			c0.795-0.343,1.717,0.024,2.06,0.819l0.02,0.047C329.536,420.673,329.17,421.595,328.374,421.938z"/>
		<path style="fill:none;stroke:#263238;stroke-linecap:round;stroke-linejoin:round;stroke-miterlimit:10;" d="M307.525,422.85
			l-1.551-0.932c-0.742-0.446-0.982-1.409-0.537-2.151l0.027-0.044c0.446-0.742,1.409-0.982,2.151-0.536l1.551,0.932
			c0.742,0.446,0.982,1.409,0.536,2.151l-0.027,0.044C309.23,423.056,308.267,423.296,307.525,422.85z"/>
		<g>
			<path style="fill:#263238;stroke:#263238;stroke-linecap:round;stroke-linejoin:round;stroke-miterlimit:10;" d="
				M315.836,298.068c0,0-3.198,7.596-2.599,12.393c0.6,4.797,6.996,9.995,6.996,9.995s2.199-21.388,2.199-22.188
				C322.432,297.468,318.434,295.669,315.836,298.068z"/>
			
				<line style="fill:none;stroke:#263238;stroke-width:2;stroke-linecap:round;stroke-linejoin:round;stroke-miterlimit:10;" x1="313.539" y1="325.262" x2="317.791" y2="322.293"/>
			<path style="fill:#FFFFFF;stroke:#263238;stroke-linecap:round;stroke-linejoin:round;stroke-miterlimit:10;" d="
				M318.234,299.467c0,0-0.799,21.189-0.4,25.186c0.4,3.998,1.999,16.791,3.398,20.789c1.399,3.998,5.997,16.791,9.595,18.19
				c3.598,1.399,10.794,2.399,13.193,0.8c2.399-1.599,11.194-7.596,13.593-13.393c2.399-5.797,2.798-10.594,2.798-10.594
				s6.397-2.998,7.596-10.594c1.199-7.596-1.999-9.795-1.999-9.795l0.2-13.193c0,0-2.199-9.195-7.996-14.192
				c-5.797-4.997-12.593-5.397-19.589-1.599C331.627,294.87,318.234,299.467,318.234,299.467z"/>
			<path style="fill:#263238;stroke:#263238;stroke-linecap:round;stroke-linejoin:round;stroke-miterlimit:10;" d="
				M355.814,298.268c0,0,0.2-5.197-4.797-3.398c-4.997,1.799-6.197,5.197-13.593,8.196c-7.396,2.998-17.191-0.4-20.589-2.399
				c-3.398-1.999-5.797-4.797-1.199-9.995c4.598-5.197,15.392-10.394,26.986-10.394c11.594,0,20.589,9.595,24.387,13.593
				c3.798,3.998,4.398,8.995,2.998,12.593c-1.399,3.598-3.998,13.593-3.998,13.593s-1.599-0.2-2.199,2.199
				c-0.6,2.399-0.4,4.997-2.998,5.197c-2.599,0.2-2.399-6.796-2.399-6.796s-6.397-1.999-7.196-6.597
				C350.417,309.462,355.814,302.666,355.814,298.268z"/>
			<path style="fill:none;stroke:#263238;stroke-width:2;stroke-linecap:round;stroke-linejoin:round;stroke-miterlimit:10;" d="
				M332.027,328.518l-18.488-3.256l1.075,8.287c0.139,1.068,0.965,1.917,2.028,2.084l11.232,1.77
				c1.285,0.202,2.501-0.645,2.757-1.92L332.027,328.518z"/>
			<path style="fill:none;stroke:#263238;stroke-width:2;stroke-linecap:round;stroke-linejoin:round;stroke-miterlimit:10;" d="
				M335.371,328.873l21.443-0.621l-2.105,7.759c-0.271,1-1.304,1.699-2.535,1.716l-13.005,0.179
				c-1.488,0.02-2.786-0.951-2.943-2.202L335.371,328.873z"/>
			
				<line style="fill:none;stroke:#263238;stroke-width:2;stroke-linecap:round;stroke-linejoin:round;stroke-miterlimit:10;" x1="332.027" y1="328.518" x2="335.371" y2="328.873"/>
			
				<line style="fill:#FFFFFF;stroke:#263238;stroke-width:2;stroke-linecap:round;stroke-linejoin:round;stroke-miterlimit:10;" x1="356.814" y1="328.252" x2="363.81" y2="322.255"/>
			<path style="fill:none;stroke:#263238;stroke-width:2;stroke-linecap:round;stroke-linejoin:round;stroke-miterlimit:10;" d="
				M338.224,326.453c0,0,5.997-4.598,11.594-1.799"/>
			<path style="fill:none;stroke:#263238;stroke-width:2;stroke-linecap:round;stroke-linejoin:round;stroke-miterlimit:10;" d="
				M329.228,325.453c0,0-4.598-4.997-9.795-1.599"/>
			<path style="fill:none;stroke:#263238;stroke-linecap:round;stroke-linejoin:round;stroke-miterlimit:10;" d="M330.428,342.844
				c0,0-1,4.198,0,4.997c0.999,0.8,4.198,1.399,5.597,1"/>
			<path style="fill:none;stroke:#263238;stroke-linecap:round;stroke-linejoin:round;stroke-miterlimit:10;" d="M327.429,351.039
				c0,0,3.998,2.998,7.796,3.198c3.798,0.2,8.196-2.599,8.196-2.599"/>
			<path style="fill:none;stroke:#263238;stroke-linecap:round;stroke-linejoin:round;stroke-miterlimit:10;" d="M342.221,330.651
				c0,0,2.399,2.798,6.397-0.2"/>
			<path style="fill:none;stroke:#263238;stroke-linecap:round;stroke-linejoin:round;stroke-miterlimit:10;" d="M322.53,329.418
				c0,0,1.993,3.1,6.364,0.676"/>
		</g>
	</g>
</g>
<g id="Character_1">
	<g>
		<g>
			<g>
				<path style="fill:#FFFFFF;stroke:#263238;stroke-linecap:round;stroke-linejoin:round;stroke-miterlimit:10;" d="
					M198.497,298.249c0,0,1.27,19.052,0.318,20.64c-0.953,1.588-2.858,4.763-2.858,4.763s1.27,13.654-1.27,15.242
					c-2.54,1.588-6.351,1.905-6.351,1.905s-2.54,10.161-3.493,11.431c-0.953,1.27-6.668,5.398-8.574,6.033
					c-1.905,0.635-7.938,0.953-22.227-7.621c-14.289-8.573-19.687-11.431-19.37-16.194c0.318-4.763,0.953-10.161,0.953-10.161
					s1.588-22.863,4.445-29.848c2.858-6.986,39.057-10.796,46.995-8.891C195.004,287.453,198.497,298.249,198.497,298.249z"/>
				<path style="fill:none;stroke:#263238;stroke-linecap:round;stroke-linejoin:round;stroke-miterlimit:10;" d="M161.662,329.685
					l2.223,1.588c0,0-1.905,7.621-0.953,11.114"/>
				<path style="fill:#263238;" d="M193.412,323.304c-0.323,1.453-1.09,2.518-1.712,2.38c-0.623-0.139-0.865-1.428-0.542-2.881
					c0.323-1.453,1.09-2.518,1.712-2.38C193.493,320.562,193.735,321.852,193.412,323.304z"/>
				<path style="fill:none;stroke:#263238;stroke-linecap:round;stroke-linejoin:round;stroke-miterlimit:10;" d="M190.168,317.472
					c0,0,3.465-3.465,6.352-0.193"/>
				<path style="fill:#263238;stroke:#263238;stroke-linecap:round;stroke-linejoin:round;stroke-miterlimit:10;" d="
					M185.795,295.708c0,0,4.128,7.621,3.81,9.209c-0.318,1.588-13.337,5.398-13.337,5.398s-1.27,7.621-3.175,8.574
					c-1.905,0.953-1.905,0.953-1.905,0.953s-1.588-1.905-3.811-6.668c-2.223-4.763-5.398-6.033-8.891-1.27
					c-3.493,4.763-0.635,15.877,1.27,16.829s1.905,0.953,1.905,0.953s-1.588,1.588-7.621,2.54
					c-6.033,0.953-10.479,2.223-14.924,0.953c-4.445-1.27-10.796-13.337-13.019-28.896c-2.223-15.559,4.763-28.896,13.972-33.024
					c9.208-4.128,30.166-0.318,31.753,0.635c1.588,0.953,12.384-4.128,18.735-0.953c6.351,3.175,6.033,6.668,7.621,8.891
					c1.588,2.223,9.844-0.635,10.479,7.303c0.635,7.938-2.54,12.701-6.668,13.336C197.861,301.107,185.795,295.708,185.795,295.708z
					"/>
			</g>
			<g>
				<path style="fill:#92E3A9;stroke:#263238;stroke-linecap:round;stroke-linejoin:round;stroke-miterlimit:10;" d="
					M110.605,345.556c0,0-30.43,16.229-36.227,19.417c-5.796,3.188-6.666,6.086-6.955,8.984c-0.29,2.898,0,100.855,0,100.855
					h164.324c0,0-24.924-74.772-25.793-83.177c-0.869-8.405-2.608-23.185-4.927-24.924c-2.318-1.739-35.067-16.23-35.067-16.23
					s-7.825-8.405-26.373-8.405C121.039,342.078,110.605,345.556,110.605,345.556z"/>
				<g>
					<path style="fill:none;stroke:#263238;stroke-linecap:round;stroke-linejoin:round;stroke-miterlimit:10;" d="M129.45,405.191
						c0.858,0.34,1.725,0.653,2.602,0.936"/>
					<path style="fill:none;stroke:#263238;stroke-linecap:round;stroke-linejoin:round;stroke-miterlimit:10;" d="M96.984,378.305
						c0,0,11.995,16.748,28.385,25.043"/>
					<path style="fill:none;stroke:#263238;stroke-linecap:round;stroke-linejoin:round;stroke-miterlimit:10;" d="M107.417,397.723
						c0,0,6.666,6.666,20.577,10.433"/>
					<path style="fill:none;stroke:#263238;stroke-linecap:round;stroke-linejoin:round;stroke-miterlimit:10;" d="M189.994,373.701
						c-4.631,5.263-11.151,13.673-13.311,21.413"/>
					<path style="fill:none;stroke:#263238;stroke-linecap:round;stroke-linejoin:round;stroke-miterlimit:10;" d="M194.941,368.452
						c0,0-0.924,0.887-2.364,2.414"/>
					<path style="fill:none;stroke:#263238;stroke-linecap:round;stroke-linejoin:round;stroke-miterlimit:10;" d="M178.422,385.84
						c0,0-4.347,8.405-5.217,13.621"/>
				</g>
			</g>
			<path style="fill:#92E3A9;stroke:#263238;stroke-linecap:round;stroke-linejoin:round;stroke-miterlimit:10;" d="
				M108.867,347.005c0,0,16.809-0.58,32.749-0.29c15.94,0.29,26.373,5.217,26.373,5.217s-9.564-11.593-13.911-14.201
				s-17.679-6.956-28.691-3.478C114.373,337.731,108.867,347.005,108.867,347.005z"/>
		</g>
		<path style="fill:#263238;stroke:#263238;stroke-linecap:round;stroke-linejoin:round;stroke-miterlimit:10;" d="M61.067,474.74
			l-15.321-58.727c-0.629-3.046,1.697-5.901,4.807-5.901H172.44c2.308,0,4.304,1.608,4.796,3.862l13.53,60.839"/>
	</g>
</g>
</svg>
