<?xml version="1.0" encoding="utf-8"?>
<!-- Generator: Adobe Illustrator 27.5.0, SVG Export Plug-In . SVG Version: 6.00 Build 0)  -->
<svg version="1.1" xmlns="http://www.w3.org/2000/svg" xmlns:xlink="http://www.w3.org/1999/xlink" x="0px" y="0px"
	 viewBox="0 0 500 500" style="enable-background:new 0 0 500 500;" xml:space="preserve">
<g id="Background_Simple">
	<g>
		<path style="fill:#92E3A9;" d="M433.768,113.032c-1.537-2.558-3.135-5.069-4.803-7.523c-22.227-32.659-59.23-55.019-95.192-65.145
			c-15.754-4.443-31.929-6.767-48.077-7.361c-105.91-3.848-144.818,83.477-178.942,105.992
			c-34.123,22.516-86.487,60.973-79.916,141.761c4.986,61.425,39.929,120.158,103.748,146.885
			c7.029,2.953,14.415,5.516,22.148,7.642c14.385,3.957,29.977,6.442,46.775,7.189c48.25,2.15,87.428-9.481,125.75-38.77
			c8.908-6.808,17.768-14.487,29.328-15.329c8.403-0.612,16.369,2.407,7.586,10.527c-10.323,9.545,1.588,28.317,27.793,15.275
			c43.766-21.783,61.77-68.78,70.252-116.568C470.629,238.951,465.582,166.003,433.768,113.032z"/>
		<path style="opacity:0.7;fill:#FFFFFF;" d="M433.768,113.032c-1.537-2.558-3.135-5.069-4.803-7.523
			c-22.227-32.659-59.23-55.019-95.192-65.145c-15.754-4.443-31.929-6.767-48.077-7.361
			c-105.91-3.848-144.818,83.477-178.942,105.992c-34.123,22.516-86.487,60.973-79.916,141.761
			c4.986,61.425,39.929,120.158,103.748,146.885c7.029,2.953,14.415,5.516,22.148,7.642c14.385,3.957,29.977,6.442,46.775,7.189
			c48.25,2.15,87.428-9.481,125.75-38.77c8.908-6.808,17.768-14.487,29.328-15.329c8.403-0.612,16.369,2.407,7.586,10.527
			c-10.323,9.545,1.588,28.317,27.793,15.275c43.766-21.783,61.77-68.78,70.252-116.568
			C470.629,238.951,465.582,166.003,433.768,113.032z"/>
	</g>
</g>
<g id="Line">
	
		<line style="fill:none;stroke:#263238;stroke-linecap:round;stroke-linejoin:round;stroke-miterlimit:10;" x1="472.09" y1="461.343" x2="24.088" y2="461.343"/>
</g>
<g id="Window">
	<g style="opacity:0.3;">
		<g>
			
				<rect x="249.064" y="61.306" style="fill:#263238;stroke:#000000;stroke-linecap:round;stroke-linejoin:round;stroke-miterlimit:10;" width="150.505" height="207.165"/>
			
				<rect x="256.233" y="70.547" style="fill:#FFFFFF;stroke:#000000;stroke-linecap:round;stroke-linejoin:round;stroke-miterlimit:10;" width="136.168" height="188.683"/>
			<g>
				
					<line style="fill:none;stroke:#000000;stroke-linecap:round;stroke-linejoin:round;stroke-miterlimit:10;" x1="338.667" y1="99.757" x2="305.087" y2="133.338"/>
				
					<line style="fill:none;stroke:#000000;stroke-linecap:round;stroke-linejoin:round;stroke-miterlimit:10;" x1="356.204" y1="82.221" x2="342.025" y2="96.399"/>
				
					<line style="fill:none;stroke:#000000;stroke-linecap:round;stroke-linejoin:round;stroke-miterlimit:10;" x1="315.907" y1="110.578" x2="295.759" y2="130.727"/>
			</g>
			<g>
				
					<line style="fill:none;stroke:#000000;stroke-linecap:round;stroke-linejoin:round;stroke-miterlimit:10;" x1="311.056" y1="243.036" x2="305.087" y2="249.005"/>
				
					<line style="fill:none;stroke:#000000;stroke-linecap:round;stroke-linejoin:round;stroke-miterlimit:10;" x1="356.204" y1="197.888" x2="314.414" y2="239.678"/>
				
					<line style="fill:none;stroke:#000000;stroke-linecap:round;stroke-linejoin:round;stroke-miterlimit:10;" x1="315.907" y1="226.245" x2="295.759" y2="246.394"/>
			</g>
			<path style="stroke:#000000;stroke-linecap:round;stroke-linejoin:round;stroke-miterlimit:10;" d="M329.303,172.617
				c0-2.509-2.034-4.544-4.544-4.544c-2.509,0-4.544,2.034-4.544,4.544c0,2.51,2.034,4.544,4.544,4.544
				C327.269,177.16,329.303,175.126,329.303,172.617z"/>
			
				<rect x="256.233" y="171.971" style="stroke:#000000;stroke-linecap:round;stroke-linejoin:round;stroke-miterlimit:10;" width="136.168" height="8.348"/>
			
				<rect x="245.523" y="48.911" style="stroke:#000000;stroke-linecap:round;stroke-linejoin:round;stroke-miterlimit:10;" width="158.473" height="17.706"/>
			
				<rect x="245.523" y="262.277" style="stroke:#000000;stroke-linecap:round;stroke-linejoin:round;stroke-miterlimit:10;" width="158.473" height="17.706"/>
		</g>
		<g>
			
				<rect x="188.862" y="24.122" style="fill:#FFFFFF;stroke:#000000;stroke-linecap:round;stroke-linejoin:round;stroke-miterlimit:10;" width="270.909" height="5.312"/>
			<path style="fill:#FFFFFF;stroke:#000000;stroke-linecap:round;stroke-linejoin:round;stroke-miterlimit:10;" d="
				M209.164,299.457h-6.075c-2.478,0-4.488-2.009-4.488-4.488V24.183c0-2.478,2.009-4.488,4.488-4.488h6.075
				c2.479,0,4.488,2.009,4.488,4.488V294.97C213.651,297.448,211.642,299.457,209.164,299.457z"/>
			<path style="fill:#FFFFFF;stroke:#000000;stroke-linecap:round;stroke-linejoin:round;stroke-miterlimit:10;" d="
				M223.329,299.457h-6.075c-2.478,0-4.488-2.009-4.488-4.488V24.183c0-2.478,2.009-4.488,4.488-4.488h6.075
				c2.479,0,4.488,2.009,4.488,4.488V294.97C227.816,297.448,225.807,299.457,223.329,299.457z"/>
			<path style="fill:#FFFFFF;stroke:#000000;stroke-linecap:round;stroke-linejoin:round;stroke-miterlimit:10;" d="
				M237.494,299.457h-6.075c-2.479,0-4.488-2.009-4.488-4.488V24.183c0-2.478,2.009-4.488,4.488-4.488h6.075
				c2.478,0,4.488,2.009,4.488,4.488V294.97C241.982,297.448,239.972,299.457,237.494,299.457z"/>
			<path style="fill:#FFFFFF;stroke:#000000;stroke-linecap:round;stroke-linejoin:round;stroke-miterlimit:10;" d="
				M251.659,299.457h-6.075c-2.479,0-4.488-2.009-4.488-4.488V24.183c0-2.478,2.009-4.488,4.488-4.488h6.075
				c2.478,0,4.488,2.009,4.488,4.488V294.97C256.147,297.448,254.138,299.457,251.659,299.457z"/>
			<path style="fill:#FFFFFF;stroke:#000000;stroke-linecap:round;stroke-linejoin:round;stroke-miterlimit:10;" d="
				M403.935,299.457h-6.075c-2.478,0-4.488-2.009-4.488-4.488V24.183c0-2.478,2.009-4.488,4.488-4.488h6.075
				c2.478,0,4.488,2.009,4.488,4.488V294.97C408.422,297.448,406.413,299.457,403.935,299.457z"/>
			<path style="fill:#FFFFFF;stroke:#000000;stroke-linecap:round;stroke-linejoin:round;stroke-miterlimit:10;" d="M418.1,299.457
				h-6.075c-2.478,0-4.488-2.009-4.488-4.488V24.183c0-2.478,2.009-4.488,4.488-4.488h6.075c2.478,0,4.488,2.009,4.488,4.488V294.97
				C422.587,297.448,420.578,299.457,418.1,299.457z"/>
			<path style="fill:#FFFFFF;stroke:#000000;stroke-linecap:round;stroke-linejoin:round;stroke-miterlimit:10;" d="
				M432.265,299.457h-6.075c-2.478,0-4.488-2.009-4.488-4.488V24.183c0-2.478,2.009-4.488,4.488-4.488h6.075
				c2.478,0,4.488,2.009,4.488,4.488V294.97C436.752,297.448,434.743,299.457,432.265,299.457z"/>
			<path style="fill:#FFFFFF;stroke:#000000;stroke-linecap:round;stroke-linejoin:round;stroke-miterlimit:10;" d="M446.43,299.457
				h-6.075c-2.478,0-4.488-2.009-4.488-4.488V24.183c0-2.478,2.009-4.488,4.488-4.488h6.075c2.478,0,4.488,2.009,4.488,4.488V294.97
				C450.918,297.448,448.908,299.457,446.43,299.457z"/>
		</g>
	</g>
</g>
<g id="Picture">
	<g style="opacity:0.3;">
		
			<rect x="39.381" y="18.871" style="fill:none;stroke:#000000;stroke-linecap:round;stroke-linejoin:round;stroke-miterlimit:10;" width="119.402" height="158.951"/>
		
			<rect x="43.275" y="24.056" style="fill:none;stroke:#000000;stroke-linecap:round;stroke-linejoin:round;stroke-miterlimit:10;" width="111.613" height="148.582"/>
		<path style="fill:none;stroke:#000000;stroke-linecap:round;stroke-linejoin:round;stroke-miterlimit:10;" d="M43.274,133.168
			c12.507-6.479,39.559-23.754,46.951-54.88c5.839-24.594,14.303-42.551,27.219-54.229"/>
		<path style="fill:none;stroke:#000000;stroke-linecap:round;stroke-linejoin:round;stroke-miterlimit:10;" d="M97.576,172.642
			c-7.708-25.025-17.39-73.562,9.63-105.79c17.054-20.341,34.108-32.06,47.686-38.802"/>
		<path style="fill:none;stroke:#000000;stroke-linecap:round;stroke-linejoin:round;stroke-miterlimit:10;" d="M50.688,24.059
			c5.188,6.469,10.806,17.674,9.031,34.822c-1.901,18.367-10.228,28.753-16.445,34.077"/>
		<path style="fill:none;stroke:#000000;stroke-linecap:round;stroke-linejoin:round;stroke-miterlimit:10;" d="M141.388,172.642
			c-8.727-13.295-22.42-11.289-31.756-23.649c-11.783-15.594-0.347-38.813,26.684-49.566c8.454-3.36,14.397-8.212,18.577-13.295"/>
		<path style="fill:none;stroke:#000000;stroke-linecap:round;stroke-linejoin:round;stroke-miterlimit:10;" d="M43.274,163.128
			c8.191-12.497,18.461-24.3,24.762-17.254c5.251,5.87,6.511,16.645,6.29,26.768"/>
		<path style="fill:none;stroke:#000000;stroke-linecap:round;stroke-linejoin:round;stroke-miterlimit:10;" d="M71.544,24.059
			C71.827,38.53,73.57,65.382,82.591,54.03c6.29-7.897,11.268-20.068,14.607-29.971"/>
		<path style="fill:none;stroke:#000000;stroke-linecap:round;stroke-linejoin:round;stroke-miterlimit:10;" d="M154.893,45.093
			c-14.67,12.654-40.167,36.167-23.082,32.848c9.105-1.775,16.928-7.372,23.082-13.536"/>
	</g>
</g>
<g id="Plant_1_">
	<g>
		<g>
			<path style="fill:#92E3A9;" d="M66.474,296.3c0,0-9.699-2.238-11.937-12.683c-2.238-10.445,4.974-5.969-1.492-22.382
				c-6.466-16.413-4.974-20.144-2.736-24.869c2.238-4.725,3.482-3.233,5.471,2.984c1.989,6.217,9.202,15.916,11.937,34.071
				C70.453,291.575,66.474,296.3,66.474,296.3z"/>
			<path style="fill:#92E3A9;" d="M85.623,278.643c0,0-6.466-2.238-6.715-14.424c-0.249-12.186,4.725-9.699,5.471-24.869
				c0.746-15.17,1.741-25.864,4.476-26.112c2.736-0.249,9.948,7.461,12.435,24.372c2.487,16.911-3.233,28.101-8.207,33.075
				C88.11,275.659,85.623,278.643,85.623,278.643z"/>
			<path style="fill:#92E3A9;" d="M62.992,310.973c0,0-1.492-8.953-4.477-13.18c-2.984-4.228-9.45-7.958-13.678-16.165
				c-4.228-8.207-8.953-12.186-8.704-0.497c0.249,11.688,5.471,17.657,11.937,21.636C54.537,306.745,62.992,310.973,62.992,310.973z
				"/>
			<path style="fill:#92E3A9;" d="M60.257,326.392c0,0-5.969-11.44-14.673-19.895c-8.704-8.455-15.667-12.683-13.181-8.455
				c2.487,4.228,5.471,3.979,9.699,11.44c4.228,7.461,2.984,12.932,8.953,17.16C57.024,330.868,60.257,326.392,60.257,326.392z"/>
			<path style="fill:#92E3A9;" d="M59.51,341.064c-0.249-0.746-0.497-6.217-8.953-10.694c-8.456-4.476-16.414-2.736-15.419-0.497
				c0.995,2.238,6.217,5.969,11.44,8.207C51.801,340.318,59.51,341.064,59.51,341.064z"/>
			<path style="fill:#92E3A9;" d="M85.125,311.47c0,0-3.73-4.725-1.741-14.672c1.99-9.948,6.466-7.461,11.44-12.683
				c4.974-5.222,3.979-5.969,8.953-11.439c4.974-5.471,9.45-8.456,11.44-6.217c1.989,2.238-0.995,9.202-3.979,13.18
				c-2.984,3.979-7.709,5.969-9.947,10.942c-2.238,4.974-1.243,12.932-6.963,16.662C88.607,310.973,85.125,311.47,85.125,311.47z"/>
			<path style="fill:#92E3A9;" d="M97.56,314.206c0,0,8.953-10.196,15.419-17.657c6.466-7.461,8.953-13.181,9.201-8.207
				c0.249,4.974,2.238,8.953-2.984,15.419C113.973,310.227,97.56,314.206,97.56,314.206z"/>
			<path style="fill:#92E3A9;" d="M92.835,330.62c0,0-0.249-3.979,13.927-13.181c14.175-9.201,20.144-10.942,18.652-7.212
				c-1.492,3.73-7.709,7.461-14.424,14.175C104.274,331.117,92.835,330.62,92.835,330.62z"/>
			<g>
				<path style="fill:#858585;" d="M85.256,279.264c0.122-0.058,0.227-0.145,0.271-0.284c0.018-0.058,0.57-1.831,1.385-4.587
					c0.177-0.478,0.35-0.957,0.536-1.432l0.002-0.006c0.018-0.046-0.003-0.098-0.049-0.118c-0.01-0.004-0.021,0-0.031,0
					c1.953-6.691,4.929-17.438,6.207-24.947c1.804-10.596,0.17-18.725-0.911-24.104c-0.12-0.599-0.233-1.162-0.334-1.689
					c-0.052-0.27-0.309-0.445-0.585-0.398c-0.271,0.052-0.449,0.314-0.397,0.585c0.101,0.53,0.215,1.097,0.336,1.699
					c1.067,5.307,2.679,13.326,0.906,23.739c-1.961,11.521-7.958,30.767-8.018,30.96c-0.072,0.23,0.037,0.465,0.24,0.578
					c-1.558,4.476-2.82,9.057-3.927,13.668c-1.581,6.846-2.727,13.79-3.528,20.778l-0.5,5.252c-0.077,0.876-0.172,1.751-0.235,2.628
					l-0.143,2.635c-0.076,1.757-0.184,3.515-0.233,5.273l0.048,5.278l0.059,2.638c0.039,0.879,0.102,1.756,0.162,2.634
					c0.133,1.754,0.24,3.509,0.401,5.259c0.337,3.499,0.862,6.979,1.404,10.444c0.007,0.044,0.045,0.078,0.092,0.078
					c0.051,0,0.092-0.042,0.092-0.093v-0.005c-0.009-1.759-0.084-3.509-0.123-5.259c-0.05-1.75-0.203-3.491-0.178-5.241
					c0.008-1.749-0.038-3.494-0.057-5.239l-0.049-2.616l0.047-2.616l0.024-5.23l0.142-5.227l0.054-2.616
					c0.034-0.871,0.099-1.741,0.147-2.611l0.321-5.224c0.612-6.951,1.567-13.878,2.959-20.724
					C82.735,288.463,83.843,283.815,85.256,279.264z"/>
				<path style="fill:#858585;" d="M103.231,309.9c-3.795,2.403-7.179,5.429-10.137,8.838c-1.454,1.73-2.805,3.542-3.964,5.512
					l-0.814,1.537l-0.638,1.597c-0.23,0.529-0.39,1.075-0.556,1.619c-0.164,0.545-0.347,1.087-0.494,1.636
					c-1.139,4.394-1.893,8.872-2.097,13.373c-0.183,4.498-0.098,9.003,0.503,13.469c0.007,0.042,0.042,0.077,0.086,0.08
					c0.051,0.004,0.096-0.035,0.099-0.086l1.155-13.333c0.461-4.408,0.743-8.841,1.689-13.147c0.12-0.536,0.275-1.06,0.41-1.592
					c0.138-0.531,0.271-1.064,0.468-1.57l0.541-1.541l0.696-1.455c1.027-1.926,2.283-3.769,3.632-5.515
					c2.707-3.494,5.893-6.679,9.519-9.265l0.005-0.004c0.04-0.028,0.051-0.083,0.025-0.124
					C103.331,309.886,103.274,309.873,103.231,309.9z"/>
				<path style="fill:#858585;" d="M96.021,327.058c-2.066,1.334-3.448,3.432-4.61,5.542c-1.107,2.157-1.98,4.444-2.583,6.789
					c-0.181,0.581-0.325,1.169-0.451,1.761l-0.418,1.773c-0.213,1.19-0.38,2.394-0.448,3.6c-0.016,1.21-0.05,2.418,0.031,3.624
					c0.101,1.205,0.237,2.408,0.475,3.601c0.009,0.034,0.037,0.067,0.074,0.074c0.051,0.01,0.101-0.023,0.111-0.074
					c0.292-1.189,0.483-2.368,0.639-3.545c0.188-1.174,0.37-2.34,0.51-3.507c0.171-1.163,0.325-2.322,0.416-3.493
					c0.162-1.156,0.248-2.337,0.501-3.479c0.405-2.311,1.074-4.568,1.977-6.725c0.899-2.14,2.07-4.273,3.871-5.781l0.014-0.012
					c0.035-0.029,0.044-0.081,0.018-0.12C96.12,327.043,96.063,327.031,96.021,327.058z"/>
				<path style="fill:#858585;" d="M74.758,340.414c-0.499-5.919-1.475-11.779-2.398-17.636c-0.925-5.858-1.946-11.698-3.017-17.527
					c-0.616-3.233-1.254-6.461-1.908-9.685c0.098-0.111,0.151-0.26,0.122-0.417c-0.034-0.179-3.371-18.006-6.819-30.565
					c-3.442-12.542-5.699-20.323-5.722-20.4c-0.077-0.266-0.351-0.42-0.62-0.341c-0.265,0.077-0.417,0.354-0.34,0.62
					c0.022,0.077,2.277,7.85,5.718,20.385c3.436,12.518,6.766,30.305,6.799,30.484c0.037,0.196,0.185,0.338,0.366,0.386
					c0.516,3.226,1.015,6.455,1.493,9.686c0.888,5.852,1.724,11.712,2.465,17.582c0.723,5.873,1.287,11.759,2.023,17.621
					l2.165,17.62c0.005,0.044,0.042,0.08,0.088,0.082c0.051,0.003,0.094-0.037,0.097-0.088c0.067-1.485,0.069-2.969,0.106-4.458
					c0.013-1.487-0.06-2.969-0.087-4.456C75.234,346.333,74.981,343.375,74.758,340.414z"/>
				<path style="fill:#858585;" d="M71.209,340.328c-0.316-2.345-0.747-4.675-1.195-6.998l-0.831-3.456
					c-0.272-1.152-0.53-2.307-0.868-3.444c-1.181-4.585-2.69-9.092-4.524-13.46l-0.71-1.629l-0.38-0.767
					c-0.003-0.075-0.019-0.15-0.058-0.22c-0.006-0.012-0.129-0.229-0.344-0.592l-0.007-0.014c-0.502-1.073-1.108-2.095-1.684-3.129
					c-1.169-1.904-2.394-3.796-4-5.379c-0.976-1.308-2.039-2.667-3.184-4.02c-1.409-1.665-2.709-3.104-3.967-4.495
					c-3.531-3.907-6.32-6.992-8.136-11.532c-0.103-0.257-0.396-0.381-0.65-0.279c-0.256,0.103-0.381,0.394-0.279,0.65
					c1.882,4.706,4.724,7.85,8.322,11.831c1.252,1.386,2.548,2.819,3.946,4.472c5.375,6.352,9.072,12.911,9.109,12.977
					c0.063,0.113,0.168,0.177,0.282,0.215l0.265,0.615l0.616,1.645c1.64,4.382,2.955,8.886,3.944,13.464
					c0.539,2.277,0.897,4.598,1.338,6.894l0.554,3.469c0.201,1.153,0.448,2.299,0.61,3.46c0.369,2.314,0.795,4.622,1.199,6.938
					c0.359,2.322,0.783,4.639,1.272,6.959c0.009,0.042,0.047,0.076,0.091,0.076c0.051,0,0.093-0.041,0.093-0.092
					c0.01-2.365-0.045-4.731-0.165-7.093C71.734,345.031,71.455,342.682,71.209,340.328z"/>
				<path style="fill:#858585;" d="M66.311,340.63c-1.097-3.105-2.366-6.146-3.748-9.126c-1.419-2.965-2.951-5.872-4.714-8.642
					c-0.027-0.039-0.083-0.055-0.125-0.03c-0.044,0.026-0.058,0.082-0.033,0.126c1.54,2.877,2.843,5.878,4.024,8.913
					c1.202,3.027,2.284,6.099,3.191,9.22c0.926,3.117,1.589,6.295,2.418,9.426c0.872,3.129,1.577,6.29,2.539,9.459
					c0.011,0.038,0.047,0.068,0.089,0.069c0.051,0,0.094-0.04,0.094-0.092c0.047-3.306-0.278-6.611-0.921-9.847
					C68.546,346.85,67.401,343.733,66.311,340.63z"/>
				<path style="fill:#858585;" d="M66.108,350.975c-0.561-1.945-1.518-3.756-2.606-5.464c-1.068-1.716-2.307-3.338-3.792-4.712
					c-0.159-0.138-0.324-0.265-0.485-0.4c-0.01-0.007-0.015-0.018-0.026-0.025c-0.001-0.001-0.019-0.012-0.023-0.015
					c-0.599-0.499-1.212-0.98-1.879-1.38c-0.539-0.337-1.102-0.634-1.689-0.876c-2.995-1.857-7.313-4.449-10.795-6.19
					c-0.247-0.124-0.547-0.022-0.671,0.224c-0.124,0.247-0.023,0.547,0.224,0.671c5.875,2.938,14.205,8.35,14.288,8.404
					c0.075,0.049,0.159,0.067,0.243,0.072c0.05,0.055,0.105,0.107,0.155,0.163c1.284,1.433,2.308,3.076,3.162,4.788
					c0.898,1.7,1.362,3.579,2.144,5.331c0.345,0.898,0.687,1.802,1.086,2.698c0.338,0.915,0.713,1.827,1.19,2.735l0.003,0.005
					c0.015,0.029,0.045,0.049,0.08,0.051c0.052,0.002,0.097-0.038,0.099-0.091c0.042-1.013-0.017-2.02-0.113-3.025
					C66.555,352.943,66.345,351.957,66.108,350.975z"/>
				<path style="fill:#858585;" d="M110.003,270.754c-0.236-0.142-0.544-0.065-0.686,0.171c-2.263,3.772-6.626,8.808-10.845,13.677
					c-2.67,3.08-5.19,5.99-7.03,8.411c-4.746,6.243-6.728,17.883-6.81,18.375c-0.023,0.137,0.012,0.27,0.088,0.374
					c-0.141,0.59-0.287,1.178-0.421,1.77c-0.971,4.5-1.733,9.058-2.198,13.651c-0.464,4.576-0.976,9.158-1.039,13.76
					c-0.071,4.599,0.003,9.204,0.489,13.799c0.005,0.042,0.039,0.078,0.083,0.083c0.051,0.005,0.097-0.031,0.102-0.083
					c0.531-4.582,0.856-9.152,1.173-13.721c0.324-4.567,0.368-9.146,0.666-13.715c0.276-4.555,0.847-9.09,1.632-13.596
					c0.116-0.681,0.246-1.361,0.371-2.04c0.017-0.038,0.035-0.075,0.042-0.117c0.02-0.118,2.022-11.886,6.619-17.934
					c1.821-2.395,4.331-5.294,6.99-8.362c4.247-4.901,8.638-9.97,10.946-13.817C110.316,271.203,110.24,270.896,110.003,270.754z"/>
			</g>
		</g>
		<g>
			<g>
				<path style="fill:#858585;" d="M106.842,390.919c-0.559-15.091-17.327-25.151-17.327-25.151H78.908h-4.483H63.817
					c0,0-16.768,10.061-17.326,25.151c-0.559,15.091,19.003,70.424,19.003,70.424h8.931h4.483h8.931
					C87.838,461.343,107.401,406.01,106.842,390.919z"/>
				<polygon style="fill:#858585;" points="92.824,350.93 60.033,350.93 63.817,365.768 89.041,365.768 				"/>
			</g>
		</g>
	</g>
</g>
<g id="Character">
	<g>
		<g>
			<path style="fill:#263238;stroke:#263238;stroke-linecap:round;stroke-linejoin:round;stroke-miterlimit:10;" d="
				M268.474,413.551c0,0-35.25,10.009-40.255,10.88c-5.005,0.87-6.963-0.435-11.968,1.523c-5.005,1.958-15.014,4.134-15.014,4.134
				s-23.065,4.134-35.032,3.699c-11.968-0.435-16.319-1.958-16.319-1.958l-3.917-1.088c0,0-1.958,3.917-2.176,7.181
				c-0.218,3.264,1.088,19.583,1.088,19.583s5.222-1.523,18.06,1.088c12.838,2.611,32.421,6.093,47,3.699
				c14.579-2.393,15.667-4.352,20.889-5.005c5.222-0.653,23.065,4.569,27.199,4.352c4.134-0.218,101.833,0,101.833,0
				s10.009-4.134,18.495-10.444c8.486-6.31,23.718-10.445,28.505-21.759c4.787-11.315-7.181-23.283-13.491-24.153
				c-6.31-0.87-37.644,10.444-38.949,10.662c-1.306,0.218-5.262-3.454-5.262-3.454L268.474,413.551z"/>
			
				<line style="fill:none;stroke:#949494;stroke-linecap:round;stroke-linejoin:round;stroke-miterlimit:10;" x1="289.103" y1="421.236" x2="295.101" y2="428.157"/>
			<path style="fill:none;stroke:#949494;stroke-linecap:round;stroke-linejoin:round;stroke-miterlimit:10;" d="M284.259,421.236
				c0,0,10.842,10.15,13.149,14.994"/>
			<path style="fill:none;stroke:#949494;stroke-linecap:round;stroke-linejoin:round;stroke-miterlimit:10;" d="M334.317,421.467
				c0,0-7.382,5.767-10.611,10.842"/>
			<path style="fill:none;stroke:#949494;stroke-linecap:round;stroke-linejoin:round;stroke-miterlimit:10;" d="M327.627,422.39
				c0,0-5.767,7.613-7.613,11.765"/>
		</g>
		<g>
			<path style="fill:#92E3A9;stroke:#263238;stroke-linecap:round;stroke-linejoin:round;stroke-miterlimit:10;" d="
				M261.769,326.775c0,0-9.098,6.944-15.802,12.211c-6.704,5.267-13.887,11.014-21.549,14.366
				c-7.662,3.352-29.929,3.591-45.731,9.577c-15.802,5.986-34.717,9.577-34.717,9.577l1.915,14.126c0,0,65.125-3.113,78.533-6.465
				c13.408-3.352,13.648-5.746,20.112-2.634c6.465,3.113,27.295,32.563,27.295,32.563l-5.746,1.197l0.479,3.591
				c0,0,11.493,5.507,29.929,4.31c18.436-1.197,32.323-2.155,36.393-2.394c4.07-0.24,16.281-4.31,16.281-4.31
				s-2.634-14.366-8.38-37.112c-5.746-22.746-5.507-36.393-5.507-36.393l31.605,12.45c0,0,0.958,11.732-1.197,28.492
				c-2.155,16.76-4.549,23.704-4.549,23.704l16.281,5.267c0,0,8.619-41.661,11.493-53.632c2.873-11.972-1.915-17.478-5.267-20.352
				c-3.352-2.873-44.295-27.774-54.111-30.647c-9.817-2.873-22.267-3.112-27.774-1.436c-5.507,1.676-19.394,7.183-19.394,7.183
				L261.769,326.775z"/>
			<path style="fill:none;stroke:#263238;stroke-linecap:round;stroke-linejoin:round;stroke-miterlimit:10;" d="M281.961,413.19
				c2.752,0.619,6.263,1.071,10.652,1.071c13.965,0,15.997-0.762,15.997-0.762"/>
			<path style="fill:none;stroke:#263238;stroke-linecap:round;stroke-linejoin:round;stroke-miterlimit:10;" d="M273.57,409.69
				c0,0,1.343,1.209,4.548,2.383"/>
			<path style="fill:none;stroke:#263238;stroke-linecap:round;stroke-linejoin:round;stroke-miterlimit:10;" d="M319.086,414.498
				c1.581-0.438,3.094-0.937,4.505-1.507"/>
			<path style="fill:none;stroke:#263238;stroke-linecap:round;stroke-linejoin:round;stroke-miterlimit:10;" d="M283.98,417.308
				c0,0,16.747,1.015,30.772-1.788"/>
			<g>
				<path style="fill:none;stroke:#263238;stroke-linecap:round;stroke-linejoin:round;stroke-miterlimit:10;" d="M236.075,372.274
					c-3.424-3.202-9.454-8.446-14.291-10.542"/>
				<path style="fill:none;stroke:#263238;stroke-linecap:round;stroke-linejoin:round;stroke-miterlimit:10;" d="M238.784,374.901
					c0,0-0.416-0.427-1.141-1.132"/>
				<path style="fill:none;stroke:#263238;stroke-linecap:round;stroke-linejoin:round;stroke-miterlimit:10;" d="M231.601,361.971
					c0,0,6.704,4.789,8.38,6.944"/>
				<path style="fill:none;stroke:#263238;stroke-linecap:round;stroke-linejoin:round;stroke-miterlimit:10;" d="M332.401,338.028
					c0,0-6.704-1.197-9.817-6.225"/>
				<path style="fill:none;stroke:#263238;stroke-linecap:round;stroke-linejoin:round;stroke-miterlimit:10;" d="M279.571,351.587
					c8.162,2.543,16.625,4.742,22.423,5.116"/>
				<path style="fill:none;stroke:#263238;stroke-linecap:round;stroke-linejoin:round;stroke-miterlimit:10;" d="M254.826,342.817
					c0,0,9.613,3.845,20.762,7.497"/>
				<path style="fill:none;stroke:#263238;stroke-linecap:round;stroke-linejoin:round;stroke-miterlimit:10;" d="M301.719,375.353
					c2.481,1.048,4.763,1.882,6.739,2.421"/>
				<path style="fill:none;stroke:#263238;stroke-linecap:round;stroke-linejoin:round;stroke-miterlimit:10;" d="M257.22,350.239
					c0,0,23.633,15.489,40.905,23.516"/>
				<path style="fill:none;stroke:#263238;stroke-linecap:round;stroke-linejoin:round;stroke-miterlimit:10;" d="M256.153,360.033
					c1.808,1.307,3.182,2.278,3.461,2.417"/>
				<path style="fill:none;stroke:#263238;stroke-linecap:round;stroke-linejoin:round;stroke-miterlimit:10;" d="M244.77,351.676
					c0,0,4.35,3.226,8.349,6.15"/>
				<path style="fill:none;stroke:#263238;stroke-linecap:round;stroke-linejoin:round;stroke-miterlimit:10;" d="M296.392,324.085
					c-0.127,0.991-0.328,1.976-0.624,2.93"/>
				<path style="fill:none;stroke:#263238;stroke-linecap:round;stroke-linejoin:round;stroke-miterlimit:10;" d="M295.05,311.452
					c0,0,1.551,4.652,1.519,9.874"/>
			</g>
		</g>
		<g>
			<path style="fill:#FFFFFF;stroke:#263238;stroke-linecap:round;stroke-linejoin:round;stroke-miterlimit:10;" d="M234.01,281.99
				c0,0,0.572,11.625,0.961,14.158c0.39,2.533-2.747,11.446,2.936,20.33c3.221,5.035,2.533,12.665,6.235,13.639
				c3.702,0.974,13.055-2.923,13.055-2.923s2.728,5.066,4.092,8.378c1.364,3.312,9.353,11.886,17.926,6.43
				c8.573-5.456,11.691-22.992,10.717-26.499c-0.974-3.507-2.728-5.651-3.702-6.43c-0.974-0.779-3.312-3.118-3.897-4.676
				c-0.585-1.559-1.364-5.261-0.974-8.573c0.39-3.312,1.754-16.367-1.169-21.044c-2.923-4.676-8.768-8.573-19.68-8.573
				s-20.264,4.092-20.264,4.092s2.143-3.702,0.39-2.923s-3.312,2.923-3.312,2.923s-0.39-5.456-2.338-2.338
				c-1.948,3.118-1.754,6.82-1.754,6.82s-1.364-1.559-1.559,0.779C231.477,277.898,234.01,281.99,234.01,281.99z"/>
			<path style="fill:#263238;stroke:#263238;stroke-linecap:round;stroke-linejoin:round;stroke-miterlimit:10;" d="
				M281.358,295.824c0.39-3.312,1.754-16.367-1.169-21.043c-2.923-4.676-8.768-8.573-19.68-8.573
				c-10.911,0-20.264,4.092-20.264,4.092s2.143-3.702,0.39-2.923c-1.754,0.779-3.312,2.923-3.312,2.923s-0.39-5.456-2.338-2.338
				c-1.948,3.118-1.754,6.82-1.754,6.82s-1.364-1.559-1.559,0.779c-0.195,2.338,2.338,6.43,2.338,6.43s2.728,1.559,4.287,0.974
				c1.559-0.585,4-2.154,5.456-2.533c5.178-1.349,14.224-1.754,12.275,0.974c-1.948,2.728-5.066,4.092-2.728,5.651
				c2.338,1.559,9.353,2.923,9.742,5.066c0.39,2.143,0.195,6.43,2.338,5.261c2.143-1.169,3.117-5.066,6.43-4.092
				c3.312,0.974,6.04,5.261,4.871,8.573c-1.169,3.313,0.39,4.092,3.313,1.754c0.609-0.487,1.164-1.104,1.666-1.771
				C281.326,300.094,281.115,297.884,281.358,295.824z"/>
			<path style="fill:#FFFFFF;stroke:#263238;stroke-linecap:round;stroke-linejoin:round;stroke-miterlimit:10;" d="
				M267.935,296.605c0,0,3.486-5.068,6.019-5.068c2.533,0,5.651,3.312,2.728,10.327c-2.923,7.015-6.82,7.794-7.794,3.118"/>
			<g>
				<path style="fill:none;stroke:#263238;stroke-linecap:round;stroke-linejoin:round;stroke-miterlimit:10;" d="M238.642,295.384
					l1.294,3.236c0,0-1.294,10.355-0.431,12.081s6.472,0.647,6.472,0.647"/>
				<path style="fill:none;stroke:#263238;stroke-linecap:round;stroke-linejoin:round;stroke-miterlimit:10;" d="M241.447,316.525
					c0,0,6.472,2.157,12.081-4.315"/>
				<path style="fill:none;stroke:#263238;stroke-width:2;stroke-linecap:round;stroke-linejoin:round;stroke-miterlimit:10;" d="
					M244.251,292.795c0,0,6.256-2.589,9.708-0.431"/>
				
					<line style="fill:none;stroke:#263238;stroke-width:2;stroke-linecap:round;stroke-linejoin:round;stroke-miterlimit:10;" x1="237.995" y1="293.874" x2="235.838" y2="292.795"/>
				<path style="fill:#263238;" d="M250.291,297.865c0,1.132-0.579,2.049-1.294,2.049c-0.715,0-1.294-0.917-1.294-2.049
					c0-1.132,0.579-2.049,1.294-2.049C249.712,295.815,250.291,296.733,250.291,297.865z"/>
				<path style="fill:#263238;" d="M239.017,298.602c0,1.062-0.519,1.923-1.158,1.923c-0.64,0-1.158-0.861-1.158-1.923
					c0-1.062,0.519-1.924,1.158-1.924C238.499,296.678,239.017,297.539,239.017,298.602z"/>
			</g>
			<path style="fill:#263238;stroke:#263238;stroke-linecap:round;stroke-linejoin:round;stroke-miterlimit:10;" d="
				M257.197,327.194c0,0,8.22-1.746,9.593-3.348c1.374-1.602,0.687,2.06-0.229,7.554c-0.916,5.494-2.747,7.096-2.747,7.096
				s-1.602-1.374-2.976-4.807S257.197,327.194,257.197,327.194z"/>
		</g>
		<g>
			<g>
				<path style="fill:#92E3A9;stroke:#263238;stroke-linecap:round;stroke-linejoin:round;stroke-miterlimit:10;" d="
					M109.787,390.788c0,0-5.818,8.908-5.636,19.635c0.182,10.727,5.454,40.361,7.818,46.361c2.364,6,6.727,11.454,13.272,8
					c6.545-3.454,11.272-3.818,14.545-4c3.273-0.182,7.454-0.909,7.818-8.181c0.364-7.272-1.818-14.726-1.818-14.726
					s3.454-6.727,2.545-9.999c-0.909-3.273-9.999-5.272-11.636-7.272c-1.636-2-6-16.181-7.454-19.999
					c-1.454-3.818-1.636-6.909-1.273-9.818c0.364-2.909,2.363-9.999-3.818-8.727C117.968,383.334,114.514,387.152,109.787,390.788z"
					/>
				<path style="fill:none;stroke:#263238;stroke-width:2;stroke-linecap:round;stroke-linejoin:round;stroke-miterlimit:10;" d="
					M132.506,419.726c0,0,1.799-0.799,3.198-0.799"/>
				<path style="fill:none;stroke:#263238;stroke-width:2;stroke-linecap:round;stroke-linejoin:round;stroke-miterlimit:10;" d="
					M130.907,415.529c0,0,1.799-1.199,2.798-1.199"/>
				
					<line style="fill:none;stroke:#263238;stroke-width:2;stroke-linecap:round;stroke-linejoin:round;stroke-miterlimit:10;" x1="130.308" y1="410.532" x2="131.907" y2="409.933"/>
			</g>
			<path style="fill:#FFFFFF;stroke:#263238;stroke-linecap:round;stroke-linejoin:round;stroke-miterlimit:10;" d="
				M129.604,444.421c-3.636-9.272-7.818-27.089-7.818-41.816c0-14.058,2.65-17.678,3.998-20.666
				c-0.472-0.032-1.001-0.009-1.634,0.122c-6.181,1.273-9.636,5.091-14.363,8.727c0,0-5.818,8.908-5.636,19.635
				c0.182,10.727,5.454,40.361,7.818,46.361c2.364,6,6.727,11.454,13.272,8c2.581-1.362,4.876-2.239,6.914-2.819
				C132.28,457.99,132.083,450.742,129.604,444.421z"/>
			<path style="fill:#FFFFFF;stroke:#263238;stroke-linecap:round;stroke-linejoin:round;stroke-miterlimit:10;" d="M123.24,447.512
				c-3.091-9.636-4.727-23.817-5.272-39.816c-0.426-12.489,3.912-21.987,5.836-25.553c-5.962,1.343-9.381,5.078-14.017,8.645
				c0,0-5.818,8.908-5.636,19.635c0.182,10.727,5.454,40.361,7.818,46.361c2.364,6,6.727,11.454,13.272,8
				c0.031-0.017,0.06-0.029,0.091-0.045C125.734,461.561,125.617,454.92,123.24,447.512z"/>
		</g>
		<g>
			<path style="fill:#FFFFFF;stroke:#263238;stroke-linecap:round;stroke-linejoin:round;stroke-miterlimit:10;" d="
				M361.133,403.632c0,0-14.177,0.439-15.124,1.07c-0.947,0.631-12.304,6.31-13.882,7.256c-1.577,0.947-4.417,5.363-3.628,6.31
				c0.789,0.946,2.524,0.631,3.628,0.315c1.104-0.315,3.944-0.789,3.944-0.789s-2.208,1.893-1.262,2.051
				c0.947,0.158,5.206-1.104,6.31-1.735c1.104-0.631,12.146-3.313,13.408-3.313c1.262,0,10.096,1.262,15.459-0.631
				c5.363-1.893,7.428-5.267,7.428-5.267L361.133,403.632z"/>
			<g>
				<path style="fill:none;stroke:#263238;stroke-linecap:round;stroke-linejoin:round;stroke-miterlimit:10;" d="M336.071,417.795
					c0,0,12.636-6.325,13.642-6.727c1.006-0.402,3.622-1.207,3.622-1.207"/>
				<path style="fill:none;stroke:#263238;stroke-linecap:round;stroke-linejoin:round;stroke-miterlimit:10;" d="M328.499,418.268
					c0,0,9.342-5.389,10.348-5.792c1.006-0.402,10.061-4.829,10.061-4.829"/>
				<path style="fill:none;stroke:#263238;stroke-linecap:round;stroke-linejoin:round;stroke-miterlimit:10;" d="M329.994,414.409
					c0,0,4.949-2.924,5.624-3.224c0.675-0.3,10.498-5.024,10.498-5.024"/>
			</g>
		</g>
		<g>
			<g>
				<path style="fill:#92E3A9;stroke:#263238;stroke-linecap:round;stroke-linejoin:round;stroke-miterlimit:10;" d="
					M303.417,440.983c0,0-7.256-4.259-12.146-5.363c-4.89-1.104-10.096,1.577-13.724,1.577c-3.628,0-12.462-3.786-19.245-3.944
					c-6.783-0.158-14.67,8.045-13.724,14.197c0.946,6.152,3.47,10.884,10.569,12.777c7.099,1.893,36.755,1.42,36.755,1.42
					l13.566-0.789c0,0-1.42-8.518-1.42-11.989S303.417,440.983,303.417,440.983z"/>
				<path style="fill:none;stroke:#263238;stroke-width:2;stroke-linecap:round;stroke-linejoin:round;stroke-miterlimit:10;" d="
					M280.608,444.51c0,0-3.798,3.997-1.799,11.193"/>
				<path style="fill:none;stroke:#263238;stroke-width:2;stroke-linecap:round;stroke-linejoin:round;stroke-miterlimit:10;" d="
					M285.205,445.109c0,0-3.797,3.997-1.799,11.193"/>
				<path style="fill:none;stroke:#263238;stroke-width:2;stroke-linecap:round;stroke-linejoin:round;stroke-miterlimit:10;" d="
					M289.802,445.709c0,0-3.798,3.997-1.799,11.193"/>
				<path style="fill:none;stroke:#263238;stroke-width:2;stroke-linecap:round;stroke-linejoin:round;stroke-miterlimit:10;" d="
					M294.399,446.309c0,0-3.798,3.997-1.799,11.193"/>
				<path style="fill:#FFFFFF;stroke:#263238;stroke-linecap:round;stroke-linejoin:round;stroke-miterlimit:10;" d="
					M255.147,460.228c0.109,0.029,0.24,0.056,0.36,0.084c-1.852-1.096-4.194-2.773-5.092-4.659c-1.577-3.313-2.051-4.417-1.104-6.31
					c0.947-1.893,1.735-2.997,1.735-5.837c0-2.839,0.158-4.89,0.158-4.89s3.944-3.944,6.941-4.101
					c2.359-0.124,10.971,1.315,16.147,2.164c-4.342-1.04-10.768-3.305-15.989-3.426c-6.783-0.158-14.67,8.045-13.724,14.197
					C245.525,453.603,248.049,458.335,255.147,460.228z"/>
			</g>
			<path style="fill:#263238;stroke:#263238;stroke-linecap:round;stroke-linejoin:round;stroke-miterlimit:10;" d="M387.181,409.75
				c0,0-21.454,5.994-33.284,11.515c-11.831,5.521-32.496,17.668-32.496,17.668l-17.983,2.051c0,0,0,13.724,0.158,15.459
				c0.158,1.735,1.893,4.417,1.893,4.417s31.865-2.84,45.431-5.048c13.566-2.208,40.225-12.62,46.693-16.879"/>
			<path style="fill:none;stroke:#949494;stroke-linecap:round;stroke-linejoin:round;stroke-miterlimit:10;" d="M306.403,441.809
				c0,0,14.877-1.792,36.745-14.698c11.4-6.728,19.195-8.563,25.094-10.038"/>
		</g>
		<g>
			<g>
				<path style="fill:none;stroke:#263238;stroke-linecap:round;stroke-linejoin:round;stroke-miterlimit:10;" d="M291.271,435.62
					c-4.89-1.104-10.096,1.577-13.724,1.577c3.313,0.473,8.834,0.631,12.462-0.473c0.84-0.256,1.739-0.502,2.626-0.731
					C292.167,435.849,291.708,435.719,291.271,435.62z"/>
			</g>
		</g>
		<g>
			<path style="fill:#FFFFFF;stroke:#263238;stroke-linecap:round;stroke-linejoin:round;stroke-miterlimit:10;" d="
				M146.875,374.789c0,0-2-2.182-5.091-2.727c-3.091-0.545-14.363-3.272-16.544-2.727c-2.182,0.546-10.908,9.09-12.181,11.272
				c-1.273,2.182-4.181,11.999-3.818,13.272c0.364,1.273-0.545,1.818,2.909-0.364s5.091-5.091,7.818-7.818
				c2.727-2.727,4.181-3.636,4.181-3.636s4-0.909,4.727-0.909s3.826-1.492,2.189,2.326s-6.007,8.765-5.098,11.128
				c0.909,2.363,1.091,1.091,3.818-1.091c2.727-2.182,5.091-3.272,5.091-3.272s4.909-1.273,6.181-2
				c1.273-0.727,5.636,0.364,6.727-6.181C148.875,375.517,146.875,374.789,146.875,374.789z"/>
			<path style="fill:none;stroke:#263238;stroke-linecap:round;stroke-linejoin:round;stroke-miterlimit:10;" d="M112.15,393.515
				c0,0-0.734-2.008,0.956-4.544c1.69-2.535,8.663-10.987,9.719-11.832c1.056-0.845,2.958-1.69,2.958-1.69"/>
			<path style="fill:none;stroke:#263238;stroke-linecap:round;stroke-linejoin:round;stroke-miterlimit:10;" d="M109.241,393.879
				c0,0,2.175-6.598,3.865-9.556c1.69-2.958,5.916-7.184,6.127-8.029c0.211-0.845,2.747-2.535,2.747-2.535"/>
		</g>
	</g>
</g>
</svg>
