<?xml version="1.0" encoding="utf-8"?>
<!-- Generator: Adobe Illustrator 27.5.0, SVG Export Plug-In . SVG Version: 6.00 Build 0)  -->
<svg version="1.1" xmlns="http://www.w3.org/2000/svg" xmlns:xlink="http://www.w3.org/1999/xlink" x="0px" y="0px"
	 viewBox="0 0 4000 2666.667" style="enable-background:new 0 0 4000 2666.667;" xml:space="preserve">
<g id="Layer_2">
	<g>
		<rect style="fill:#FFFFFF;" width="4000" height="2666.667"/>
		<g style="opacity:0.5;">
			<linearGradient id="SVGID_1_" gradientUnits="userSpaceOnUse" x1="406.9042" y1="1219.5299" x2="1814.3003" y2="1219.5299">
				<stop  offset="0" style="stop-color:#C6E9FB"/>
				<stop  offset="1" style="stop-color:#37ADE3"/>
			</linearGradient>
			<path style="fill:url(#SVGID_1_);" d="M543.346,1440.181c129.085,112.975,267.87,148.467,337.222,161.413
				c266.109,49.672,491.998-53.339,618.467-148.58c88.087-66.337,145.703-142.28,128.838-174.949
				c-12.899-24.985-76.02-37.551-120.429-70.415c-13.03-9.643-23.224-20.126-26.731-23.825c-9.232-9.735-25.84-27.249-23.264-30.868
				c7.253-10.189,147.082,117.171,223.316,77.642c17.157-8.896,13.867-17.313,57.316-56.497
				c50.305-45.367,66.693-43.275,72.266-59.092c36.581-103.809-187.901-273.985-376.929-288.366
				c-233.224-17.743-267.644,79.061-155.364,220.799c0,0-195.402-191.999-402.827-140.943
				C667.801,957.556,166.523,1110.388,543.346,1440.181z"/>
			
				<linearGradient id="SVGID_00000114048524271013410390000007678171332045737889_" gradientUnits="userSpaceOnUse" x1="907.73" y1="1735.7772" x2="3239.1379" y2="1735.7772">
				<stop  offset="0" style="stop-color:#C6E9FB"/>
				<stop  offset="1" style="stop-color:#37ADE3"/>
			</linearGradient>
			<path style="fill:url(#SVGID_00000114048524271013410390000007678171332045737889_);" d="M959.297,1921.713
				c-150.274-99.243,56.849-261.068,250.441-279.849c193.592-18.781,416.974-218.964,461.035-286.964
				c133.834-206.548,416.702-388.683,628.894-337.382c212.193,51.3,513.66,162.51,562.539,310.394s203.901,37.896,310.5,112.27
				c106.598,74.374,134.448,206.157-303.897,310.809c-438.345,104.651-680.516,275.509-625.322,445.895
				s-485.68,391.316-794.702,178.138s26.939-263.659-150.731-407.024C1120.384,1824.633,1112.164,2022.669,959.297,1921.713z"/>
			
				<linearGradient id="SVGID_00000001637281380659816380000010765822153463134093_" gradientUnits="userSpaceOnUse" x1="2361.1829" y1="2101.3015" x2="3562.783" y2="2101.3015" gradientTransform="matrix(0.999 -0.0444 0.0444 0.999 -108.4427 154.2928)">
				<stop  offset="0" style="stop-color:#C6E9FB"/>
				<stop  offset="1" style="stop-color:#37ADE3"/>
			</linearGradient>
			<path style="fill:url(#SVGID_00000001637281380659816380000010765822153463134093_);" d="M2422.475,2045.073
				c172.163-172.981,392.352-127.451,525.505-189.718c133.154-62.267,235.632-183.941,419.788-80.207
				c184.156,103.734,297.127,331.059-71,393.725c0,0-96.18,6.123-68.781,94.146s-343.54,380.08-539.42,149.344
				C2492.687,2181.626,2204.413,2264.171,2422.475,2045.073z"/>
		</g>
	</g>
</g>
<g id="Objects">
	<g>
		<g>
			<g style="opacity:0.1;">
				<g>
					<path d="M3110.73,2217.64l-13.432-7.755c-18.097-10.448-47.614-10.448-65.593,0l-239.205,137.254
						c-17.979,10.448-17.883,27.545,0.214,37.993l13.432,7.755c18.097,10.448,47.614,10.448,65.593,0l239.205-137.254
						C3128.923,2245.185,3128.827,2228.088,3110.73,2217.64L3110.73,2217.64z"/>
				</g>
			</g>
			<g>
				<path style="fill:#8C8D8F;" d="M3104.566,2229.649c-5.421,6.662-11.953,12.475-19.42,16.742
					c-20.639,11.822-47.723,10.472-67.905-2.112c-9.231-5.748-16.851-13.673-22.49-23.97c-6.684-12.17-10.602-27.65-11.103-46.743
					c-0.806-30.415,22.838-59.284,52.578-65.663c29.718-6.401,62.484,9.448,77.027,36.162c3.984,7.315,6.575,15.262,7.838,23.426
					C3124.465,2189.197,3118.521,2212.514,3104.566,2229.649z"/>
				<path style="opacity:0.1;" d="M3104.566,2229.649c-5.421,6.662-11.953,12.475-19.42,16.742
					c-20.639,11.822-47.723,10.472-67.905-2.112c-9.231-5.748-16.851-13.673-22.49-23.97c18.288,11.299,51.141,25.865,81.382,9.601
					c25.124-13.498,40.146-37.425,44.958-62.419C3124.465,2189.197,3118.521,2212.514,3104.566,2229.649z"/>
				<path style="fill:#838485;" d="M3041.233,2211.513c-0.196,4.703-3.593,8.556-6.88,11.931
					c-40.974,42.237-91.941,74.72-147.545,94.031c-2.787-3.244-5.552-6.466-8.404-10.037c-5.073-6.379-10.342-13.89-16.198-24.536
					c38.274-43.608,90.83-72.02,144.061-95.098c4.812-2.068,10.059-4.158,15.153-2.939c3.766,0.893,6.88,3.506,9.492,6.336
					c3.288,3.549,6.009,7.62,8.055,11.996c0.174,0.37,0.348,0.74,0.522,1.132C3040.492,2206.593,3041.32,2209.031,3041.233,2211.513
					z"/>
				<path style="opacity:0.1;" d="M3041.233,2211.513c-0.196,4.703-3.593,8.556-6.88,11.931
					c-40.974,42.237-91.941,74.72-147.545,94.031c-2.787-3.244-5.552-6.466-8.404-10.037
					c37.36-13.433,109.88-45.306,160.564-104.242c0.174,0.37,0.348,0.74,0.522,1.132
					C3040.492,2206.593,3041.32,2209.031,3041.233,2211.513z"/>
				<path style="fill:#8C8D8F;" d="M2868.215,2391.868c-6.336,4.376-13.346,7.837-20.835,9.666
					c-7.772,1.894-15.893,1.959-23.861,1.35c-20.291-1.524-40.669-7.707-56.432-20.552c-6.423-5.247-11.931-11.56-16.307-18.571
					c-8.077-12.867-12.432-28.063-12.018-43.26c0.631-23.47,13.324-45.394,36.511-61.809c23.23-16.437,55.387-19.333,81.186-7.337
					c11.713,5.465,21.924,13.89,29.783,24.145c9.492,12.301,15.588,27.236,16.873,42.715
					C2905.488,2346.561,2891.663,2375.735,2868.215,2391.868z"/>
				<path style="opacity:0.1;" d="M2903.115,2318.215c2.373,28.346-11.452,57.52-34.899,73.653
					c-6.336,4.376-13.346,7.837-20.835,9.666c-7.772,1.894-15.893,1.959-23.861,1.35c-20.291-1.524-40.669-7.707-56.432-20.552
					c-6.423-5.247-11.931-11.56-16.307-18.571c11.822,9.035,54.298,37.839,92.572,17.265c39.842-21.423,54.255-69.059,42.89-105.526
					C2895.734,2287.8,2901.83,2302.736,2903.115,2318.215z"/>
				<path style="opacity:0.2;fill:#FFFFFF;" d="M2795.892,2277.531c7.631,5.542,6.062,20.714-3.506,33.89
					s-23.51,19.364-31.141,13.822c-7.631-5.542-6.062-20.715,3.506-33.89C2774.318,2278.177,2788.26,2271.989,2795.892,2277.531z"/>
				
					<ellipse transform="matrix(0.5876 -0.8092 0.8092 0.5876 -492.2776 3323.4421)" style="opacity:0.2;fill:#FFFFFF;" cx="3014.157" cy="2144.645" rx="20.11" ry="11.648"/>
			</g>
		</g>
		<g>
			<g style="opacity:0.1;">
				<g>
					<path d="M2969.7,2022.403l-17.25-9.959c-23.241-13.418-61.149-13.418-84.24,0l-307.206,176.273
						c-23.09,13.418-22.967,35.376,0.275,48.794l17.25,9.959c23.241,13.418,61.149,13.418,84.239,0l307.206-176.272
						C2993.065,2057.779,2992.942,2035.821,2969.7,2022.403L2969.7,2022.403z"/>
				</g>
			</g>
			<g>
				<path style="fill:#8C8D8F;" d="M2988.241,1984.72c-0.131,1.393-0.283,2.787-0.479,4.202c-1.023,7.642-3.135,15.218-7.576,21.467
					c-3.788,5.334-9.035,9.427-14.304,13.302c-22.446,16.547-46.547,30.85-71.824,42.629c-2.025,0.958-4.224,1.916-6.444,1.851
					c-0.283-0.022-0.566-0.043-0.827-0.087c-2.939-0.436-5.181-2.743-7.163-4.942c-4.18-4.572-8.339-9.188-12.41-13.825
					c-21.271-24.014-41.518-48.899-60.655-74.632c-11.277-15.131-31.078-32.647-36.63-55.703
					c-2.656-11.103-0.07-11.404,6.353-20.961c0.806-1.198,6.39-8.325,7.261-9.435c7.947-10.058,24.453-21.516,35.034-28.766
					c21.51-14.739,46.155-30.197,71.78-25.277c14.282,2.743,26.626,11.604,37.556,21.205
					C2964.967,1888.229,2992.661,1935.647,2988.241,1984.72z"/>
				<path style="fill:#6B6B6D;" d="M2907.795,2035.708c-2.242,6.51-5.051,12.802-8.382,18.811
					c-2.525,4.572-5.464,9.079-9.645,12.213c-0.697,0.522-1.415,1.002-2.156,1.437c-9.928,5.791-23.143,3.396-34.051-0.98
					c-8.578-3.44-16.59-7.881-24.036-13.128c-32.2-22.686-53.471-60.721-61.439-99.888c-2.83-13.803-4.18-28.39,0.348-41.714
					c3.309-9.819,9.885-18.441,18.332-24.471c3.462-2.482,7.228-4.507,11.213-5.987c13.694-5.117,30.306-5.182,49.181,4.224
					c29.391,14.609,52.382,41.605,62.114,72.956C2916.961,1983.979,2916.308,2011.215,2907.795,2035.708z"/>
				<path style="opacity:0.2;fill:#FFFFFF;" d="M2899.312,1849.597c2.776,5.375-6.107,15.483-19.841,22.576
					c-13.734,7.093-27.118,8.486-29.894,3.11s6.107-15.483,19.841-22.576C2883.152,1845.614,2896.536,1844.221,2899.312,1849.597z"
					/>
				<path style="opacity:0.1;" d="M2830.892,2006.757c0,0,4.234,12.466,19.288,12.231c15.053-0.235,24.505-20.895,14.487-41.731
					c-10.018-20.836-38.244,0-38.244,0L2830.892,2006.757z"/>
				<path style="fill:#838485;" d="M2864.078,1999.742c-3.701,6.466-10.537,10.407-17.047,14.021
					c-59.676,33.267-119.351,66.512-179.027,99.778c-6.379-5.682-12.519-11.647-18.462-18.397
					c-8.099-9.166-15.871-19.747-23.557-32.94c63.094-41.671,128.647-79.596,196.204-113.56c2.439-1.219,5.008-2.482,7.751-2.482
					c3.832-0.022,7.185,2.373,10.254,4.681c7.968,5.965,16.133,12.127,21.489,20.552c0.588,0.914,1.132,1.872,1.633,2.874
					C2867.387,1982.238,2868.498,1992.057,2864.078,1999.742z"/>
				<path style="opacity:0.1;" d="M2987.762,1988.922c-1.023,7.642-3.135,15.218-7.576,21.467
					c-3.788,5.334-9.035,9.427-14.304,13.302c-22.446,16.547-46.547,30.85-71.824,42.629c-2.025,0.958-4.224,1.916-6.444,1.851
					c-9.928,5.791-23.143,3.396-34.051-0.98c-8.578-3.44-16.59-7.881-24.036-13.128c11.038-0.196,23.687-1.546,37.686-4.746
					c12.497-2.852,26.06-7.206,40.582-13.607c8.905-3.897,18.201-8.6,27.781-14.173
					C2957.26,2008.93,2974.329,1998.109,2987.762,1988.922z"/>
				<path style="opacity:0.1;" d="M2864.078,1999.742c-3.701,6.466-10.537,10.407-17.047,14.021
					c-59.676,33.267-119.351,66.512-179.027,99.778c-6.379-5.682-12.519-11.647-18.462-18.397
					c52.012-23.361,157.212-73.544,213.774-120.875C2867.387,1982.238,2868.498,1992.057,2864.078,1999.742z"/>
				<path style="fill:#8C8D8F;" d="M2698.18,2153.427v0.065c-0.805,9.035-2.809,18.266-8.055,25.669
					c-3.788,5.334-9.035,9.427-14.304,13.302c-22.446,16.547-46.547,30.85-71.824,42.629c-2.025,0.936-4.202,1.894-6.422,1.807
					c-0.283,0.022-0.566,0-0.849-0.044c-2.939-0.457-5.182-2.765-7.163-4.942c-5.138-5.617-10.211-11.278-15.196-17.004
					c-20.269-23.034-39.581-46.874-57.868-71.454c-11.278-15.131-30.741-22.837-36.292-45.915
					c-2.656-11.082,1.82-22.277,7.293-32.374c0.91-1.679,8.775-11.039,9.784-12.068c11.11-11.327,20.652-17.281,31.233-24.531
					c21.51-14.739,46.155-30.175,71.78-25.255c14.282,2.743,26.627,11.604,37.556,21.184
					C2674.885,2056.979,2702.578,2104.376,2698.18,2153.427z"/>
				<path style="fill:#6B6B6D;" d="M2619.171,2199.996c-2.438,8.077-5.726,15.893-9.819,23.274c-2.525,4.572-5.465,9.1-9.645,12.235
					c-0.697,0.522-1.394,0.98-2.134,1.394c-9.928,5.813-23.165,3.418-34.073-0.958c-10.516-4.202-20.182-9.906-28.978-16.786
					c-29.435-22.99-48.942-59.066-56.497-96.208c-2.83-13.803-4.18-28.412,0.348-41.736c3.309-9.819,9.884-18.441,18.31-24.428
					c3.462-2.504,7.228-4.528,11.234-6.009c13.694-5.116,30.306-5.182,49.182,4.202c29.391,14.63,52.382,41.627,62.114,72.978
					C2626.443,2151.25,2626.291,2176.679,2619.171,2199.996z"/>
				<path style="opacity:0.1;" d="M2698.18,2153.427v0.065c-0.805,9.035-2.809,18.266-8.055,25.669
					c-3.788,5.334-9.035,9.427-14.304,13.302c-22.446,16.547-46.547,30.85-71.824,42.629c-2.025,0.936-4.202,1.894-6.422,1.807
					c-9.928,5.813-23.165,3.418-34.073-0.958c-10.516-4.202-20.182-9.906-28.978-16.786c11.474,0.087,24.841-1.001,39.842-4.245
					c13.672-2.939,28.673-7.664,44.805-14.913c8.382-3.745,17.069-8.186,26.017-13.39
					C2667.308,2173.74,2684.638,2162.723,2698.18,2153.427z"/>
				
					<ellipse transform="matrix(0.8885 -0.4589 0.4589 0.8885 -643.472 1412.307)" style="opacity:0.2;fill:#FFFFFF;" cx="2584.439" cy="2030.258" rx="27.988" ry="10.954"/>
			</g>
		</g>
		<g>
			<g>
				<ellipse style="opacity:0.1;" cx="3258.979" cy="2054.267" rx="123.78" ry="58.656"/>
			</g>
			<g>
				<path style="fill:#8C8D8F;" d="M3356.275,1990.082c0,60.62-51.916,109.77-115.946,109.77c-31.184,0-59.483-11.638-80.318-30.607
					c-21.971-19.969-35.646-48.048-35.646-79.164c0-60.62,51.916-109.753,115.963-109.753c58.991,0,107.7,41.72,114.996,95.689
					C3355.953,1980.631,3356.275,1985.314,3356.275,1990.082z"/>
				<path style="fill:#6B6B6D;" d="M3154.914,1918.335c5.141,11.656,10.281,23.312,15.422,34.968
					c0.365,0.829,0.746,1.68,1.399,2.307c0.922,0.888,2.248,1.2,3.517,1.371c6.182,0.835,12.674-0.925,17.588-4.767
					c1.527-1.194,2.949-2.647,3.57-4.483c0.981-2.906-0.225-6.049-1.415-8.876c-4.402-10.461-8.805-20.921-13.207-31.381
					C3173.585,1910.411,3165.53,1913.757,3154.914,1918.335z"/>
				<path style="fill:#6B6B6D;" d="M3294.332,1859.392c-0.441,2.477-0.882,4.971-1.29,7.448c-1.476,8.602-2.85,17.204-4.106,25.823
					c-5.31-1.137-10.57-2.511-15.761-4.123c-2.749-0.832-5.463-1.747-8.161-2.731c1.493-7.55,3.003-15.083,4.496-22.616
					c0.492-2.46,0.984-4.937,1.476-7.397c2.833,0.306,5.463,0.594,7.957,0.916
					C3284.61,1857.407,3289.514,1858.204,3294.332,1859.392z"/>
				<path style="fill:#58595B;" d="M3303.002,1840.712c-0.679,6.515-1.374,13.013-2.053,19.528
					c-0.204,1.815-0.475,3.817-1.815,5.056c-1.12,1.035-2.715,1.306-4.241,1.442c-0.611,0.051-1.221,0.085-1.849,0.102
					c-5.192,0.203-10.366-0.628-15.507-1.697c-1.578-0.339-3.138-0.679-4.699-1.035c-1.086-0.255-2.223-0.543-3.325-0.916
					c-2.646-0.865-5.039-2.256-5.989-4.751c-1.255-3.325,0.696-6.888,1.646-10.315c0.933-3.427-0.22-8.297-3.766-8.415
					c-0.254-0.017-0.509,0-0.764,0.051c-0.78,0.119-1.527,0.441-2.256,0.763c-0.781,0.356-1.561,0.696-2.324,1.069
					c-0.187,0.068-0.356,0.136-0.526,0.238c-0.204,0.085-0.305,0.136-0.305,0.136c-18.239,8.33-35.798,18.12-52.459,29.25
					c-8.67,5.802-22.412,11.028-22.616,21.445c-0.153,7.516,8.907,18.272,4.615,24.448c-1.391,1.985-3.512,3.342-5.701,4.377
					c-8.025,3.851-17.679,4.191-25.958,0.899c-15.252-6.057-13.454-27.298-14.149-42.144c-0.153-3.224-0.289-6.566,0.933-9.535
					c1.069-2.596,3.071-4.683,5.09-6.617c17.662-16.898,40.244-27.519,62.401-37.834c19.647-9.161,39.293-18.323,58.94-27.485
					c4.852-2.257,9.925-4.564,15.27-4.445c9.637,0.204,17.56,8.534,20.478,17.713
					C3304.987,1821.218,3304.02,1831.127,3303.002,1840.712z"/>
				<path style="opacity:0.1;" d="M3356.275,1990.082c0,60.62-51.916,109.77-115.946,109.77c-31.184,0-59.483-11.638-80.318-30.607
					c33.44,6.566,77.196,9.891,119.662-2.596c39.785-11.707,63.606-50.814,75.652-90.633
					C3355.953,1980.631,3356.275,1985.314,3356.275,1990.082z"/>
				<path style="opacity:0.2;fill:#FFFFFF;" d="M3315.609,1936.954c-5.593,6.515-18.076,4.973-27.883-3.445
					s-13.222-20.524-7.63-27.039c5.593-6.515,18.076-4.973,27.883,3.445C3317.785,1918.334,3321.201,1930.439,3315.609,1936.954z"/>
				<path style="opacity:0.1;" d="M3278.944,1856.712c-0.407,2.68-0.882,5.514-1.408,8.432c-1.357,7.872-2.969,16.287-4.36,23.396
					c-2.749-0.832-5.463-1.747-8.161-2.731c1.493-7.55,3.003-15.083,4.496-22.616c-2.646-0.865-5.039-2.256-5.989-4.751
					c-1.255-3.325,0.696-6.888,1.646-10.315c0.933-3.427-0.22-8.297-3.766-8.415c-0.254-0.017-0.509,0-0.764,0.051
					c7.296-2.715,19.409-6.193,20.02,0.39C3280.895,1842.782,3280.148,1849.043,3278.944,1856.712z"/>
				<path style="opacity:0.2;fill:#FFFFFF;" d="M3188.219,1849.092c-1.928-3.098-10.437-1.288-19.005,4.044
					c-8.568,5.332-13.951,12.165-12.023,15.263c1.928,3.098,10.437,1.288,19.005-4.044
					C3184.764,1859.024,3190.147,1852.19,3188.219,1849.092z"/>
			</g>
		</g>
	</g>
	<g>
		<path style="opacity:0.1;" d="M799.85,1160.798c65.412-40.629,133.245-77.36,203.019-109.932
			c13.609-6.353,28.045-12.69,43.017-11.507c13.565,1.072,25.803,8.191,37.506,15.133c64.677,38.369,129.354,76.739,194.03,115.108
			c40.974,24.307,82.171,48.774,118.444,79.66c8.553,7.283,17.534,16.625,16.567,27.818c-1.038,12.02-12.865,19.728-23.42,25.572
			c-95.39,52.817-190.779,105.633-286.169,158.45c-16.359,9.058-33.97,18.403-52.606,16.855
			c-13.473-1.119-25.757-7.852-37.451-14.637c-102.049-59.217-194.84-133.777-299.054-189.096
			c-7.872-4.179-16.006-8.4-21.846-15.133c-5.841-6.732-8.904-16.703-5.049-24.738c2.318-4.831,6.719-8.277,11.01-11.485
			C726.287,1201.6,758.596,1186.422,799.85,1160.798z"/>
		<path style="fill:#3A828A;" d="M1311.627,1213.723c11.554-2.128,33.638-2.094,38.79,9.718c7.5,17.197,3.885,32.498,1.17,45.353
			c-4.595,21.753-22.26,27.195-41.293,38.687c-77.856,47.009-157.909,90.387-239.882,129.781
			c-19.349,9.299-40.021,18.601-61.383,16.47c-19.568-1.952-36.782-13.224-53.205-24.042
			c-85.005-55.987-153.718-97.03-243.038-145.84c-10.481-5.727-14.618-10.06-28.615-22.512c-5.813-5.172-11.066-7.957-12.419-30.445
			c-0.557-9.263-2.182-32.308,0.603-36.654c6.632-10.349,16.968-5.793,29.215-4.743c132.493,11.351,264.985,22.702,397.478,34.053
			c51.7,4.429,104.434,8.791,154.946-3.086C1269.514,1216.814,1285.11,1218.608,1311.627,1213.723z"/>
		<path style="fill:#46A0A9;" d="M778.977,1122.783c61.136-37.973,124.535-72.303,189.749-102.746
			c12.719-5.938,26.211-11.861,40.205-10.755c12.678,1.002,24.117,7.655,35.054,14.144
			c60.449,35.861,120.898,71.723,181.347,107.584c38.295,22.719,76.8,45.586,110.702,74.453
			c7.994,6.807,16.388,15.539,15.484,25.999c-0.97,11.234-12.025,18.438-21.89,23.901
			c-89.154,49.364-178.309,98.728-267.463,148.093c-15.29,8.466-31.75,17.2-49.167,15.754c-12.592-1.046-24.074-7.338-35.003-13.68
			c-95.379-55.347-182.104-125.032-279.506-176.735c-7.358-3.906-14.96-7.851-20.418-14.144c-5.459-6.292-8.322-15.611-4.719-23.121
			c2.166-4.515,6.28-7.736,10.291-10.735C710.223,1160.918,740.42,1146.732,778.977,1122.783z"/>
		<path style="fill:#AA459A;" d="M792.668,1128.165c57.539-35.739,117.208-68.049,178.584-96.701
			c11.971-5.588,24.669-11.163,37.839-10.122c11.932,0.943,22.698,7.205,32.992,13.312
			c56.892,33.751,113.785,67.502,170.677,101.254c36.042,21.382,72.281,42.903,104.189,70.072
			c7.524,6.406,15.424,14.624,14.573,24.469c-0.913,10.573-11.317,17.354-20.602,22.494
			c-83.909,46.46-167.817,92.92-251.726,139.379c-14.391,7.968-29.882,16.188-46.275,14.827
			c-11.852-0.984-22.657-6.907-32.943-12.875c-89.767-52.09-171.389-117.676-263.06-166.337
			c-6.925-3.676-14.079-7.389-19.217-13.311c-5.138-5.922-7.832-14.693-4.441-21.761c2.039-4.25,5.911-7.281,9.685-10.103
			C727.959,1164.057,756.379,1150.705,792.668,1128.165z"/>
		<g>
			<path style="fill:#919191;" d="M1131.243,1237.094c3.59-0.864,7.359-0.294,10.977,0.443c9.824,2,19.359,5.195,28.864,8.382
				c21.982,7.37,43.964,14.74,65.945,22.111c3.199-4.026,5.762-8.436,6.76-13.446c-35.327-10.23-70.347-21.519-104.998-33.844
				c-1.893-0.673-3.859-1.36-5.861-1.189c-1.915,0.165-3.668,1.098-5.359,2.013c-26.252,14.202-52.504,28.403-78.756,42.604
				c0,5.659,0.983,11.017,2.282,16.054c24.368-13.932,48.943-27.505,73.837-40.474
				C1126.963,1238.692,1129.019,1237.629,1131.243,1237.094z"/>
			<path style="fill:#DCDBDB;" d="M1171.084,1245.918c-9.505-3.187-19.04-6.382-28.864-8.382c-3.619-0.737-7.387-1.307-10.977-0.443
				c-2.224,0.535-4.279,1.598-6.308,2.655c-24.894,12.969-49.469,26.542-73.837,40.474c1.545,5.99,3.544,11.518,4.971,16.457
				c5.468,18.931,10.382,38.428,20.693,55.219c0.766,1.248,1.648,2.53,2.984,3.128c1.528,0.683,3.298,0.322,4.926-0.064
				c53.923-12.758,104.316-40.123,144.382-78.401c2.789-2.665,5.558-5.492,7.975-8.533
				C1215.047,1260.659,1193.066,1253.288,1171.084,1245.918z"/>
		</g>
		<path style="fill:#CCCCCB;" d="M1076.923,1264.532c6.383,2.735,13.233,4.839,20.163,4.404c6.93-0.435,13.974-3.793,17.395-9.835
			c3.421-6.043,2.13-14.781-3.726-18.512c-11.077,6.251-36.764,16.886-36.764,16.886s0,1.865,0.01,2.309
			c0.008,0.37-0.01,1.525,0.008,1.892C1074.026,1262.045,1073.925,1263.248,1076.923,1264.532z"/>
		<path style="fill:#FFFFFF;" d="M1076.923,1260.167c6.383,2.734,13.233,4.838,20.163,4.404c6.93-0.435,13.974-3.792,17.395-9.835
			c3.421-6.043,2.13-14.781-3.726-18.512c-12,6.772-24,13.544-36,20.316c-0.322,0.182-0.677,0.407-0.746,0.771
			C1073.939,1257.673,1073.925,1258.883,1076.923,1260.167z"/>
		<g>
			<path style="fill:#A31D32;" d="M1105.425,1266.55c9.621,8.603,28.217,20.287,38.911,27.357c2.267,1.499,4.587,2.993,7.167,3.752
				c2.58,0.758,5.497,0.699,7.773-0.786c0.597-0.39,1.169-0.916,1.36-1.626c0.386-1.439-0.897-2.723-2.041-3.612
				c-11.912-9.258-32.192-22.354-44.458-31.088c-2.141,0.847-4.87,0.725-8.662,4.082
				C1105.235,1264.841,1105.425,1266.55,1105.425,1266.55z"/>
			<path style="fill:#EE2146;" d="M1105.425,1264.673c9.621,8.603,28.217,20.287,38.911,27.357c2.267,1.499,4.587,2.993,7.167,3.752
				c2.58,0.758,5.497,0.699,7.773-0.787c0.597-0.39,1.169-0.916,1.36-1.626c0.386-1.439-0.897-2.723-2.041-3.612
				c-11.912-9.257-32.192-22.354-44.458-31.088C1111.86,1259.57,1109.701,1260.796,1105.425,1264.673z"/>
		</g>
	</g>
	<g>
		<g>
			<ellipse style="opacity:0.1;" cx="1459.534" cy="1017.517" rx="100.351" ry="47.553"/>
		</g>
		<path style="fill:#1A67A4;" d="M1540.507,788.999c0.104-10.322,0.188-20.646,0.282-30.968
			c-33.237,15.885-71.245,21.816-107.699,16.355c-21.564-3.23-43.121-10.924-60.261-24.033c-1.161,11.501-2.26,23.006-3.275,34.521
			c25.617,13.92,54.473,21.905,83.621,22.824C1483.228,808.646,1513.429,802.052,1540.507,788.999z"/>
		<path style="fill:#2A7EC2;" d="M1540.789,758.031c0.261-28.631,0.594-57.26,0.781-85.891c0.058-8.884,0.097-17.804-0.275-26.685
			c-21.589,16.932-49.128,26.337-76.659,26.414c-28.21,0.08-56.077-9.296-79.353-25.302c-4.815,34.512-8.955,69.116-12.454,103.786
			c17.14,13.109,38.696,20.802,60.261,24.033C1469.543,779.847,1507.552,773.916,1540.789,758.031z"/>
		<path style="fill:#1A67A4;" d="M1541.295,645.455c-0.325-7.786-0.984-15.54-2.239-23.212c-2.537,3.307-5.535,6.31-8.789,8.829
			c-17.944,13.892-41.924,16.936-64.615,17.145c-17.825,0.164-36.137-1.224-52.303-8.737c-9.305-4.325-17.727-11.079-23.693-19.36
			c-1.265,4.618-2.027,9.449-2.708,14.171c-0.589,4.088-1.094,8.186-1.665,12.276c23.276,16.006,51.143,25.381,79.353,25.302
			C1492.167,671.792,1519.706,662.387,1541.295,645.455z"/>
		<path style="fill:#2A7EC2;" d="M1445.854,958.615c-30.003-2.282-59.386-11.712-85.284-27.014
			c-0.765,22.179-1.356,44.364-1.583,66.555c-0.053,5.193-0.038,10.622,2.341,15.237c2.498,4.847,7.239,8.085,11.923,10.878
			c24.843,14.812,53.657,22.894,82.579,23.161c29.143,0.27,50.628-4.461,69.353-14.721c4.4-2.411,8.89-5.365,10.919-9.953
			c1.372-3.104,1.452-6.602,1.508-9.994c0.388-23.272,0.649-46.546,0.989-69.818
			C1509.509,955.447,1477.433,961.016,1445.854,958.615z"/>
		<path style="fill:#1A67A4;" d="M1450.724,932.409c-31.542-0.722-62.985-10.235-89.174-27.667
			c-0.396,8.951-0.672,17.905-0.981,26.859c25.898,15.302,55.281,24.732,85.284,27.014c31.579,2.402,63.655-3.168,92.744-15.669
			c0.145-9.944,0.286-19.888,0.423-29.832C1511.39,925.941,1481.129,933.105,1450.724,932.409z"/>
		<path style="fill:#2A7EC2;" d="M1539.02,913.113c0.568-41.37,1.071-82.741,1.487-124.114
			c-27.078,13.053-57.279,19.647-87.332,18.7c-29.148-0.919-58.004-8.904-83.621-22.824c-3.518,39.893-6.23,79.858-8.003,119.867
			c26.189,17.432,57.632,26.945,89.174,27.667C1481.129,933.105,1511.39,925.941,1539.02,913.113z M1439.695,895.472
			c-2.207-5.638-1.331-11.986,0.075-17.875c4.308-18.044,13.184-34.614,21.97-50.953c5.175,10.649,9.804,21.564,13.861,32.688
			c3.302,9.053,6.264,18.687,4.668,28.19c-1.597,9.503-9.238,17.453-22.538,18.888
			C1450.218,907.22,1442.449,902.508,1439.695,895.472z"/>
		<path style="fill:#408FCD;" d="M1413.349,639.48c16.166,7.513,34.478,8.902,52.303,8.737c22.692-0.21,46.671-3.254,64.615-17.145
			c3.254-2.519,6.252-5.522,8.789-8.829c-0.323-1.972-0.665-3.942-1.073-5.903c-0.877-4.22-2.071-8.604-5.066-11.704
			c-2.61-2.702-6.265-4.087-9.824-5.29c-30.102-10.174-62.651-13.023-94.063-8.232c-12.048,1.837-24.818,5.317-32.517,14.764
			c-3.381,4.149-5.439,9.06-6.858,14.241C1395.623,628.401,1404.044,635.155,1413.349,639.48z"/>
		<path style="fill:#E7F6FD;" d="M1457.73,906.41c13.3-1.435,20.941-9.385,22.538-18.888c1.597-9.503-1.366-19.137-4.668-28.19
			c-4.058-11.124-8.686-22.039-13.861-32.688c-8.786,16.339-17.661,32.909-21.97,50.953c-1.406,5.889-2.281,12.237-0.075,17.875
			C1442.449,902.508,1450.218,907.22,1457.73,906.41z"/>
		<g>
			<ellipse style="opacity:0.1;" cx="1469.134" cy="616.671" rx="35.716" ry="17.714"/>
		</g>
		<g>
			<path style="fill:#9FA0A2;" d="M1493.129,578.491c0.33-14.461,0.276-28.932-0.178-43.39c-0.003-0.105-0.018-0.211-0.021-0.316
				c-4.51,2.695-9.82,4.035-15.099,4.484c-13.141,1.118-26.568-2.612-37.424-10.077c-0.32,0.996-0.518,2.035-0.643,3.079
				c-1.649,13.736-2.996,27.507-4.087,41.299c9.43,3.987,19.92,5.936,30.188,6.747
				C1474.853,581.026,1484.4,580.724,1493.129,578.491z"/>
			<path style="fill:#8C8D8F;" d="M1465.865,580.316c-10.268-0.81-20.757-2.76-30.188-6.747c-0.943,11.924-1.7,23.863-2.225,35.813
				c-0.061,1.381-0.106,2.826,0.495,4.071c0.605,1.253,1.778,2.122,2.941,2.883c8.001,5.241,17.713,7.822,27.26,7.245
				c10.719,1.752,19.305,0.393,26.927-3.1c1.055-13.976,1.734-27.979,2.054-41.991
				C1484.4,580.724,1474.853,581.026,1465.865,580.316z"/>
			<path style="fill:#AFB0B3;" d="M1477.831,539.268c5.279-0.449,10.588-1.788,15.099-4.484c-0.07-2.095-0.184-4.234-1.05-6.137
				c-1.416-3.112-4.558-5.056-7.685-6.44c-12.251-5.419-27.023-4.756-38.739,1.739c-1.859,1.03-3.724,2.284-4.689,4.179
				c-0.171,0.336-0.245,0.708-0.359,1.065C1451.263,536.656,1464.69,540.386,1477.831,539.268z"/>
		</g>
	</g>
	<g>
		<path style="opacity:0.1;" d="M1228.438,1787.208c0,0-6.045,64.291,80.926,71.77c30.909,2.658,42.3-13.82,42.3-13.82
			c37.103,36.217,90.471,68.086,151.264,106.398c94.494,59.55,192.734,75.651,259.214,92.906c7.737-1.403,6.834,12.44,14.572,11.037
			v57.642c0,0,46.932,34.039,117.241,12.341c70.309-21.697,895.973-498.7,919.502-535.064
			c23.529-36.363-59.893-83.406-59.893-83.406l-501.799-278.381L1228.438,1787.208z"/>
		<g>
			<g>
				<path style="fill:#BDBCBC;" d="M2236.455,410.436c131.255,68.936,260.753,141.216,388.328,216.746
					c-22.874,37.664-35.312,80.596-53.482,120.742c-18.17,40.146-44.238,79.508-83.676,100.759
					c-41.06-15.819-78.619-39.363-115.886-62.759c-83.619-52.495-167.237-104.99-250.856-157.484
					c-1.853-1.163-3.834-2.484-4.533-4.557c-0.67-1.991,0.02-4.156,0.713-6.139c23.393-66.919,54.42-131.166,92.288-191.095
					C2214.949,417.79,2222.956,403.345,2236.455,410.436z"/>
				<path style="fill:#DCE11F;" d="M2507.717,619.342c4.652,0.482,9.019,3.214,11.488,7.186s2.986,9.097,1.359,13.482
					c-2.707,7.298-11.17,11.636-18.867,10.473c-5.803-0.877-11.17-4.643-13.669-9.953c-2.5-5.31-1.906-12.027,1.744-16.623
					C2493.421,619.312,2499.807,618.522,2507.717,619.342z"/>
				<path style="fill:#7AC143;" d="M2471.684,669.703c8.468-1.873,17.916,3.504,20.63,11.741c1.448,4.394,0.97,9.613-2.061,13.108
					c-2.149,2.478-5.315,3.857-8.502,4.636c-5.49,1.343-11.531,1.06-16.481-1.668s-8.56-8.14-8.301-13.786
					C2457.229,678.089,2461.689,671.915,2471.684,669.703z"/>
				<path style="fill:#D61F28;" d="M2548.689,647.177c8.468-1.873,17.916,3.504,20.63,11.741c1.448,4.394,0.971,9.613-2.061,13.108
					c-2.149,2.478-5.315,3.857-8.501,4.636c-5.49,1.344-11.532,1.06-16.481-1.668s-8.56-8.14-8.301-13.786
					C2534.234,655.563,2538.694,649.388,2548.689,647.177z"/>
				<path style="fill:#828282;" d="M2447.492,720.853c4.554,1.882,9.338,3.94,12.26,7.908c3.561,4.837,3.429,11.911,0.123,16.925
					c-3.306,5.015-9.401,7.889-15.407,7.819c-6.152-0.072-12.291-3.215-15.573-8.419c-3.282-5.204-3.392-12.361,0.093-17.432
					C2432.472,722.583,2440.084,717.791,2447.492,720.853z"/>
				<path style="fill:#828282;" d="M2490.026,752.835c6.073-0.417,12.218,3.276,14.701,8.834c3.24,7.254-0.367,16.667-7.435,20.296
					s-16.497,1.336-21.479-4.853c-2.055-2.553-3.436-5.872-2.839-9.094c0.311-1.678,1.13-3.211,1.938-4.714
					C2477.284,758.888,2480.273,753.504,2490.026,752.835z"/>
				<path style="fill:#828282;" d="M2509.391,703.767c3.742-2.284,8.1-3.548,12.484-3.619c2.531-0.041,5.1,0.318,7.417,1.339
					c5.756,2.536,9.209,9.291,8.196,15.498c-1.014,6.207-6.219,11.42-12.365,12.755c-6.146,1.335-12.88-1.11-16.992-5.87
					c-1.619-1.874-2.889-4.175-2.986-6.65C2505.049,714.746,2506.353,712.122,2509.391,703.767z"/>
				<path style="fill:#7AC143;" d="M2261.824,474.587c4.652,0.482,9.019,3.214,11.488,7.186c2.469,3.972,2.986,9.097,1.359,13.482
					c-2.708,7.298-11.17,11.636-18.867,10.473c-5.803-0.877-11.17-4.643-13.669-9.953c-2.5-5.31-1.906-12.028,1.744-16.623
					C2247.529,474.557,2253.914,473.767,2261.824,474.587z"/>
				<path style="fill:#DCE11F;" d="M2225.792,524.948c8.468-1.873,17.916,3.504,20.63,11.741c1.448,4.394,0.971,9.613-2.06,13.108
					c-2.149,2.478-5.315,3.857-8.502,4.637c-5.49,1.343-11.532,1.06-16.481-1.668c-4.949-2.729-8.56-8.14-8.301-13.786
					C2211.336,533.334,2215.796,527.16,2225.792,524.948z"/>
				<path style="fill:#DCE11F;" d="M2201.599,576.098c4.554,1.882,9.338,3.94,12.26,7.908c3.561,4.836,3.429,11.911,0.123,16.925
					c-3.306,5.014-9.401,7.889-15.407,7.819c-6.152-0.072-12.291-3.215-15.573-8.419c-3.282-5.204-3.392-12.361,0.093-17.432
					C2186.58,577.828,2194.191,573.036,2201.599,576.098z"/>
				<path style="fill:#828282;" d="M2244.133,608.08c6.073-0.416,12.218,3.277,14.701,8.834c3.24,7.254-0.367,16.667-7.435,20.296
					c-7.068,3.629-16.497,1.336-21.479-4.853c-2.055-2.553-3.436-5.872-2.839-9.094c0.311-1.678,1.13-3.211,1.937-4.714
					C2231.391,614.133,2234.38,608.749,2244.133,608.08z"/>
				<path style="fill:#828282;" d="M2263.498,559.012c3.742-2.284,8.1-3.548,12.484-3.619c2.532-0.041,5.1,0.318,7.417,1.339
					c5.755,2.536,9.209,9.291,8.195,15.498c-1.014,6.207-6.219,11.42-12.365,12.755c-6.146,1.335-12.88-1.11-16.991-5.87
					c-1.619-1.874-2.889-4.175-2.986-6.65C2259.156,569.991,2260.46,567.367,2263.498,559.012z"/>
				<path style="fill:#828282;" d="M2297.58,509.827c3.386-2.993,7.306-5.572,11.734-6.476c4.428-0.904,9.431,0.117,12.517,3.419
					c1.605,1.717,2.61,3.943,3.066,6.248c1.347,6.801-2.465,14.281-8.76,17.187c-6.294,2.906-14.461,0.956-18.763-4.481
					C2294.559,522.166,2291.382,515.306,2297.58,509.827z"/>
				<path style="fill:#929090;" d="M2463.545,600.228c0,0.498-0.133,0.963-0.365,1.395c-0.232,0.564-0.564,1.095-0.896,1.627
					c-22.475,34.46-45.681,68.455-69.584,101.92c-4.017,5.61-8.964,11.753-15.869,12.184c-3.585,0.233-7.071-1.228-10.358-2.689
					c-30.676-13.611-59.194-32.037-84.225-54.346c-0.962-0.863-1.66-1.726-2.158-2.556c-1.959-3.22-0.963-6.341,0.365-8.93
					c19.155-36.984,41.465-72.307,66.53-105.539c2.556-3.353,5.544-6.939,9.728-7.436c2.523-0.266,5.013,0.697,7.403,1.627
					c35.722,14.143,73.004,29.414,97.604,58.928C2462.648,597.539,2463.611,598.768,2463.545,600.228z"/>
				<path style="fill:#84BDE7;" d="M2463.179,601.623c-0.232,0.564-0.564,1.095-0.896,1.627
					c-22.475,34.46-45.681,68.455-69.584,101.92c-4.017,5.61-8.964,11.753-15.869,12.184c-3.585,0.233-7.071-1.228-10.358-2.689
					c-30.676-13.611-59.194-32.037-84.225-54.346c-0.962-0.863-1.66-1.726-2.158-2.556c0.133-1.527,0.73-2.988,1.395-4.283
					c19.155-36.95,41.432-72.307,66.53-105.539c2.523-3.353,5.544-6.938,9.694-7.403c2.556-0.299,5.046,0.664,7.436,1.594
					c35.722,14.176,73.004,29.414,97.604,58.961C2462.914,601.258,2463.047,601.457,2463.179,601.623z"/>
			</g>
			<g>
				<path style="fill:#828282;" d="M2104.377,1243.269c-263.736,174.999-561.281,299.393-805.716,500.472
					c-22.222,18.28-45.206,39.177-51.357,67.287c-1.181,5.398-1.357,11.05-0.696,16.64c9.423,3.053,19.097,4.459,26.963,3.949
					c27.122-1.756,51.166-17.224,73.888-32.137c285.89-187.647,579.506-363.525,879.853-527.036
					c23.262-12.664,47.002-25.587,65.091-44.933c18.089-19.347,29.859-46.619,24.021-72.453c-1.521-6.729-4.384-13.005-8.166-18.693
					c-21.177,4.98-41.924,12.288-61.693,21.171C2196.02,1180.25,2150.552,1212.63,2104.377,1243.269z"/>
				<path style="fill:#A5A4A4;" d="M2246.129,1108.389c-13.924,2.482-26.491,9.675-38.739,16.749
					c-256.064,147.884-512.128,295.768-768.192,443.651c-90.599,52.323-187.22,111.336-226.754,208.201
					c-10.438,25.576,11.094,43.202,34.163,50.677c-0.661-5.59-0.486-11.241,0.696-16.64c6.152-28.11,29.135-49.007,51.357-67.287
					c244.435-201.079,541.98-325.473,805.716-500.472c46.174-30.638,91.643-63.018,142.188-85.733
					c19.769-8.884,40.517-16.191,61.693-21.171C2295.023,1116.454,2269.903,1104.151,2246.129,1108.389z"/>
			</g>
			<path style="fill:#686868;" d="M1793.858,2021.972c-148.693-46.071-290.651-113.814-419.998-200.425
				c-15.843-10.609-33.477-25.872-30.184-44.652c1.957-11.16,10.988-19.543,19.663-26.832
				c61.291-51.499,130.469-92.633,199.458-133.244c206.035-121.283,413.521-240.1,621.735-355.065
				c49.829,29.253,89.109,73.333,135.602,107.642c28.661,21.15,59.917,38.48,91.073,55.745
				c61.216,33.922,122.432,67.845,183.647,101.767c-8.033,19.477-27.503,31.316-45.737,41.872
				c-222.256,128.679-440.063,265.043-652.899,408.767C1868.116,1996.524,1838.103,2016.314,1793.858,2021.972z"/>
			<g>
				<path style="fill:#A5A4A4;" d="M2284.319,1211.25c-6.375,6.128-12.988,12.41-21.247,15.571
					c-8.259,3.161-18.674,2.423-24.61-4.132c-3.198-3.531-4.714-8.231-6.122-12.782c-46.798-151.273-69.547-309.223-117.477-460.142
					c-7.814-24.604-16.29-48.997-23.807-73.694c-2.532-8.32-4.981-17.01-3.62-25.6c1.361-8.589,7.654-17.034,16.3-17.976
					c11.829-1.289,20.344,10.84,25.327,21.644c18.956,41.098,27.833,85.977,37.496,130.192
					c25.886,118.439,58.665,235.889,107.997,346.632C2284.797,1153.957,2309.229,1187.305,2284.319,1211.25z"/>
				<path style="fill:#828282;" d="M1752.922,845.531c-11.095,3.509-14.14,19.666-7.143,28.964
					c6.997,9.298,20.305,11.911,31.661,9.371c11.356-2.54,21.256-9.267,30.848-15.856c74.955-51.492,149.91-102.985,224.865-154.477
					c24.774-17.019,49.706-34.168,70.932-55.448c61.809-61.965,85.804-151.651,134.619-224.296
					c6.438-9.582,13.62-19.863,13.026-31.392s-14.017-22.45-23.594-16.005c-3.104,2.089-5.06,5.458-6.91,8.71
					c-37.482,65.886-74.965,131.772-112.447,197.658c-8.379,14.729-16.813,29.537-27.534,42.66
					c-14.014,17.154-31.604,31.017-49.653,43.858c-72.571,51.632-155.112,89.248-222.364,147.639
					c-4.961,4.307-10.025,8.835-16.273,10.866C1781.552,841.49,1767.573,840.897,1752.922,845.531z"/>
				<path style="fill:#828282;" d="M2260.244,1230.589c-46.549-191.115-99.84-380.588-159.739-567.948
					c-1.149-3.594-2.315-7.322-1.877-11.069c0.445-3.807,2.499-7.218,4.649-10.39c6.99-10.315,15.535-19.574,25.257-27.367
					c46.026,168.604,96.933,335.876,152.636,501.535c10.129,30.122,20.423,60.208,32.32,89.676c0.644,1.594,1.298,3.374,0.697,4.984
					c-0.649,1.739-2.518,2.647-4.22,3.387C2296.222,1219.373,2282.477,1225.348,2260.244,1230.589z"/>
				<path style="fill:#A5A4A4;" d="M1752.448,868.921c8.028,9.491,23.335,2.95,33.581-4.089
					c81.097-55.707,162.194-111.415,243.29-167.122c18.692-12.84,37.509-25.783,53.453-41.909
					c17.607-17.808,31.277-39.057,44.529-60.306c38.673-62.011,74.959-125.511,108.751-190.311
					c2.166-4.153,4.377-8.543,4.247-13.224c-0.336-12.145-16.787-18.184-27.854-13.169c-11.066,5.015-17.518,16.461-23.226,27.186
					c-15.542,29.202-31.083,58.404-46.625,87.606c-14.027,26.357-28.09,52.773-44.871,77.468
					c-13.52,19.897-28.822,38.67-46.502,54.982c-21.054,19.424-45.203,35.126-69.087,50.94
					c-79.841,52.866-158.127,108.079-234.724,165.544C1740.19,847.935,1737.83,851.638,1752.448,868.921z"/>
			</g>
			<path style="fill:#828282;" d="M2505.149,1446.454c-3.863,18.309-5.394,40.348,8.618,52.749
				c15.47,13.692,39.628,6.937,58.389-1.713c25.155-11.598,49.319-25.345,72.142-41.042c7.334-5.044,14.726-10.498,19.329-18.116
				c4.745-7.854,6.067-17.238,7.29-26.331c1.725-12.821,3.449-25.642,5.174-38.463c1.639-12.183,3.14-25.246-2.437-36.2
				c-8.192-16.089-28.583-21.661-46.638-21.595c-32.453,0.118-64.669,13.392-87.785,36.171S2513.375,1407.472,2505.149,1446.454z"/>
			<path style="fill:#767676;" d="M2592.986,1388.133c-10.225,11.753-15.77,28.385-21.712,43.358
				c-8.897,22.509-20.749,43.855-35.157,63.31c-3.088,4.15-6.606,8.465-11.586,9.993c-6.274,1.959-12.881-1.095-18.724-4.117
				c-113.904-58.762-226.533-131.26-335.325-212.862c8.798-36.121,30.794-77.095,45.667-111.157
				c2.855-6.54,5.876-13.147,10.69-18.426c0.266-0.299,0.531-0.564,0.797-0.797
				C2342.702,1244.217,2467.761,1316.656,2592.986,1388.133z"/>
			<path style="fill:#A5A4A4;" d="M2651.715,1367.915c-14.939,4.183-31.506,2.523-45.349,9.562
				c-5.245,2.689-9.628,6.341-13.379,10.657c-125.225-71.477-250.285-143.916-365.352-230.698
				c4.814-4.98,10.889-8.433,16.865-11.819c18.558-10.457,37.083-20.948,55.641-31.439c7.271-4.117,15.139-8.333,23.438-7.503
				c5.179,0.498,9.96,2.955,14.574,5.379c73.568,38.543,147.436,77.253,214.796,125.823c18.89,13.612,37.249,27.953,55.575,42.328
				c18.558,14.508,37.116,29.049,55.674,43.59c3.751,2.922,7.603,6.009,9.827,10.225
				C2681.195,1347.764,2666.654,1363.699,2651.715,1367.915z"/>
			<g>
				<path style="fill:#A5A4A4;" d="M1823.521,2089.984c27.272-37.713,66.11-65.195,104.592-91.373
					c155.775-105.968,317.818-202.351,479.744-298.658c125.269-74.505,250.538-149.01,375.807-223.516
					c-10.633-28.574-39.007-51.035-69.879-50.995c-25.145,0.033-48.347,12.63-70.259,24.964
					c-276.99,155.918-546.778,324.425-811.311,500.654c-35.198,23.448-72.57,49.925-85.773,90.105
					c-4.468,13.597-5.752,28.798-0.323,42.041c9.888,24.123,37.74,34.504,62.626,42.276c0.964-0.535,1.919-1.078,2.883-1.614
					c-0.15-0.857-0.349-1.712-0.393-2.574C1810.656,2109.872,1816.82,2099.251,1823.521,2089.984z"/>
				<path style="fill:#828282;" d="M2407.857,1699.953c-161.926,96.307-323.969,192.69-479.744,298.658
					c-38.482,26.178-77.32,53.659-104.592,91.373c-6.701,9.268-12.865,19.888-12.286,31.31c0.044,0.862,0.243,1.717,0.393,2.574
					c301.011-167.294,593.678-340.882,886.051-514.955c41.242-24.555,87.247-56.522,90.329-104.422
					c0.619-9.623-1.022-19.129-4.344-28.054C2658.396,1550.942,2533.126,1625.447,2407.857,1699.953z"/>
			</g>
			<g>
				<path style="fill:#A5A4A4;" d="M2699.929,1443.897c-6.375,6.128-12.988,12.41-21.247,15.571
					c-8.259,3.161-18.674,2.423-24.61-4.132c-3.198-3.531-4.714-8.231-6.122-12.782c-46.798-151.273-69.547-309.223-117.477-460.142
					c-7.814-24.604-16.29-48.997-23.807-73.694c-2.532-8.32-4.98-17.01-3.62-25.6c1.361-8.589,7.654-17.034,16.3-17.976
					c11.829-1.289,20.344,10.839,25.327,21.644c18.956,41.098,27.833,85.977,37.496,130.192
					c25.886,118.439,58.665,235.888,107.997,346.632C2700.407,1386.604,2724.839,1419.952,2699.929,1443.897z"/>
				<path style="fill:#828282;" d="M2675.854,1463.236c-46.549-191.115-99.84-380.587-159.739-567.947
					c-1.149-3.594-2.315-7.322-1.877-11.069c0.445-3.806,2.499-7.217,4.649-10.39c6.99-10.315,15.535-19.574,25.257-27.367
					c46.026,168.604,96.933,335.876,152.636,501.535c10.128,30.122,20.422,60.208,32.32,89.676c0.644,1.594,1.298,3.374,0.697,4.984
					c-0.649,1.739-2.517,2.647-4.22,3.387C2711.833,1452.02,2698.087,1457.995,2675.854,1463.236z"/>
				<g>
					<path style="fill:#828282;" d="M2168.532,1078.179c-11.095,3.509-14.14,19.666-7.143,28.964s20.305,11.91,31.661,9.371
						s21.257-9.267,30.848-15.856c74.955-51.492,149.91-102.985,224.865-154.477c24.774-17.019,49.706-34.168,70.932-55.448
						c61.809-61.965,85.804-151.651,134.619-224.296c6.438-9.582,13.62-19.864,13.026-31.392
						c-0.594-11.529-14.017-22.45-23.594-16.005c-3.104,2.089-5.06,5.458-6.91,8.71c-37.482,65.886-74.965,131.772-112.447,197.658
						c-8.379,14.729-16.813,29.537-27.534,42.66c-14.015,17.154-31.604,31.017-49.653,43.859
						c-72.571,51.632-155.112,89.248-222.364,147.639c-4.961,4.307-10.025,8.835-16.273,10.866
						C2197.163,1074.138,2183.184,1073.545,2168.532,1078.179z"/>
					<path style="fill:#A5A4A4;" d="M2168.059,1101.569c8.028,9.491,23.335,2.95,33.582-4.089
						c81.097-55.707,162.194-111.415,243.291-167.122c18.692-12.84,37.509-25.783,53.452-41.909
						c17.607-17.808,31.277-39.057,44.529-60.306c38.673-62.011,74.959-125.511,108.751-190.311
						c2.166-4.153,4.377-8.543,4.247-13.224c-0.336-12.145-16.787-18.184-27.854-13.169c-11.066,5.015-17.518,16.46-23.226,27.186
						c-15.542,29.202-31.083,58.404-46.625,87.606c-14.027,26.357-28.09,52.773-44.871,77.468
						c-13.52,19.897-28.822,38.67-46.502,54.982c-21.054,19.424-45.203,35.126-69.087,50.94
						c-79.841,52.866-158.127,108.079-234.724,165.544C2155.801,1080.582,2153.44,1084.285,2168.059,1101.569z"/>
				</g>
			</g>
		</g>
		<g>
			<ellipse style="opacity:0.1;" cx="1925.992" cy="1641.863" rx="277.693" ry="131.591"/>
		</g>
		<g>
			<path style="fill:#FBC3B1;" d="M1858.266,573.138c-4.216,5.976-8.864,11.553-12.881,16.633
				c-39.208,49.4-81.005,98.268-134.322,131.965c7.137,41.399-0.664,83.594-10.192,124.728c-1.129,4.88-2.257,9.76-3.419,14.607
				c-1.594,6.706-3.154,14.143,0,20.284c1.593,3.121,4.249,5.578,6.606,8.134c10.259,10.955,16.201,29.016,6.673,40.602
				c-2.025,2.457-4.614,4.415-6.507,6.972c-2.457,3.187-3.685,7.138-5.246,10.856c-6.341,15.172-22.84,28.551-38.311,22.907
				c-10.225-3.752-16.267-14.774-17.628-25.563c-1.395-10.822,0.962-21.679,2.689-32.435c10.026-62.978-2.191-127.55,4.581-190.926
				c1.361-12.715,3.552-25.563,9.329-36.984c4.88-9.627,12.15-17.827,19.354-25.862c41.299-45.88,84.491-90.201,131.534-130.172
				c8.3-7.071,17.13-14.176,27.721-16.765c10.591-2.556,23.438,0.863,28.385,10.557
				C1876.26,541.5,1868.525,558.597,1858.266,573.138z"/>
			<path style="opacity:0.1;" d="M1858.266,573.138c-4.216,5.976-8.864,11.553-12.881,16.633
				c-39.208,49.4-81.005,98.268-134.322,131.965c7.137,41.399-0.664,83.594-10.192,124.728c0,0,9.462-104.477-5.71-131.334
				c0,0,90.201-66.597,144.68-129.774C1846.182,578.018,1852.323,574.168,1858.266,573.138z"/>
			<g>
				<g>
					<path style="fill:#FBC3B1;" d="M2096.865,1107.637c0.597,13.014-4.615,25.563-9.86,37.515
						c-25.962,59.06-55.011,116.76-86.981,172.832c-6.308-9.262-13.545-17.861-21.612-25.629
						c-6.573-6.341-13.645-12.151-21.181-17.33c23.505-44.752,40.635-92.823,50.363-142.422c-5.378-2.357-10.591-5.146-15.537-8.399
						c-7.038-4.515-13.578-9.893-19.388-15.969c5.677-7.868,11.52-15.57,17.728-23.073c16.865-20.483,36.253-39.374,61.219-54.944
						c2.091,4.416,4.648,8.632,7.47,12.715C2073.759,1064.246,2095.67,1082.207,2096.865,1107.637z"/>
					<path style="fill:#005285;" d="M1985.284,1514.919c-8.731-22.675-30.543-39.805-39.971-62.812
						c-5.113-12.483-6.341-26.194-8.3-39.573c-1.959-13.379-4.88-27.09-12.781-38.079c-4.083-5.677-9.827-10.391-16.234-13.18
						c4.88-11.487,11.288-22.508,17.994-33.365c8.664,5.478,16.865,11.586,24.567,18.359c9.96,8.698,19.056,18.425,27.024,29.016
						c-2.689,35.423,16.134,70.813,18.425,107.066C1996.738,1494.037,1993.518,1508.08,1985.284,1514.919z"/>
					<path style="fill:#E7F6FD;" d="M2000.025,1317.984c-0.398,0.664-0.764,1.328-1.129,1.992
						c-8.001,13.977-16.267,28.119-19.72,43.822c-0.863,3.818-1.328,7.669-1.594,11.487c-7.968-10.591-17.064-20.318-27.024-29.016
						c-7.702-6.773-15.902-12.881-24.567-18.359c4.415-7.105,8.964-14.143,13.28-21.148c6.407-10.358,12.317-20.982,17.96-31.738
						c7.536,5.179,14.607,10.989,21.181,17.33C1986.48,1300.123,1993.717,1308.722,2000.025,1317.984z"/>
					<path style="fill:#0B4268;" d="M1985.284,1514.919c-2.689,2.224-5.876,3.719-9.627,4.083
						c-11.387,1.096-20.583-8.698-27.755-17.562c-24.367-30.144-50.03-63.874-48.868-102.617c0.366-11.852,3.22-23.139,7.536-34.029
						c0.432-1.195,0.93-2.357,1.428-3.519c6.407,2.789,12.151,7.503,16.234,13.18c7.901,10.989,10.823,24.7,12.781,38.079
						c1.959,13.379,3.187,27.09,8.3,39.573C1954.741,1475.114,1976.553,1492.244,1985.284,1514.919z"/>
				</g>
			</g>
			<path style="fill:#005D97;" d="M2061.21,1036.227c0.067,2.39-0.929,4.615-2.125,6.706c-0.365,0.63-0.731,1.261-1.095,1.859
				c-12.317,19.82-26.493,38.51-42.262,55.707c-7.536,8.266-15.438,16.168-23.671,23.704c-1.992,1.826-4.017,3.652-6.075,5.445
				c-28.12-13.744-60.256-18.691-92.027-23.704c-43.689-6.906-86.648-13.91-117.556-43.855
				c-43.258-41.93-41.664-116.892-6.076-165.529c118.685-7.569,227.777,43.723,287.368,131.301
				C2059.417,1030.417,2061.143,1033.14,2061.21,1036.227z"/>
			<path style="opacity:0.1;" d="M2043.648,1117.431c0,0-31.339,99.563-65.235,174.924c-9.262,20.616-18.757,39.44-27.854,53.915
				c-9.395,15.039-18.425,25.397-26.326,28.186c-7.039,2.49-12.848-1.394-17.662-9.661c0.432-1.195,0.93-2.357,1.428-3.519
				c4.88-11.487,11.288-22.508,17.994-33.365c4.415-7.105,8.964-14.143,13.28-21.148c6.407-10.358,12.317-20.982,17.96-31.738
				c23.505-44.752,40.635-92.823,50.363-142.422c-5.378-2.357-10.591-5.146-15.537-8.399c-1.992,1.826-4.017,3.652-6.075,5.445
				c-28.12-13.744-60.256-18.691-92.027-23.704l8.532-48.536l23.505-11.321l64.405,39.075l25.331,15.338L2043.648,1117.431z"/>
			<path style="fill:#005285;" d="M1810.436,1660.409c-16.616-2.625-33.761-6.763-48.294-14.801
				c-3.734,7.659-7.811,15.178-12.391,22.492c-5.909,9.436-12.813,19.555-11.51,30.612c0.692,5.873,3.703,11.25,7.376,15.884
				c18.529,23.376,51.185,28.694,77.748,42.263c10.068,5.143,19.538,11.656,30.301,15.116c16.861,5.422,35.682,2.719,51.595-5.059
				c15.912-7.777,29.131-20.288,39.979-34.289c2.33-3.007,4.647-6.311,4.921-10.105c0.561-7.761-7.753-13.517-15.501-14.238
				c-7.748-0.722-15.438,1.783-23.218,1.933c-24.319,0.471-42.678-20.976-57.242-40.457c-1.714-2.293-3.479-4.702-3.966-7.523
				c-0.02-0.116-0.002-0.232-0.018-0.347C1837.212,1663.794,1823.548,1662.481,1810.436,1660.409z"/>
			<path style="fill:#FBC3B1;" d="M1860.781,1257.744c-10.559,17.672,11.212,55.895,4.907,75.492
				c-1.744,5.421-4.664,10.373-7.39,15.374c-39.912,73.234-52.518,147.13-72.136,227.934c26.749,12.649,55.424,21.182,84.747,25.147
				c28.981-78.229,57.964-156.46,86.945-234.689c6.268-16.921,12.551-33.888,16.826-51.419c5.129-21.036,7.32-42.76,6.859-64.407
				C1943.12,1252.309,1904.731,1254.49,1860.781,1257.744z"/>
			<path style="fill:#E7F6FD;" d="M1762.142,1645.608c14.533,8.038,31.678,12.177,48.294,14.801
				c13.112,2.071,26.775,3.385,39.78,1.482c-0.407-3.034,0.643-6.082,1.713-8.968c6.327-17.078,12.653-34.155,18.98-51.233
				c-29.322-3.965-57.997-12.498-84.747-25.147C1780.353,1600.472,1772.829,1623.687,1762.142,1645.608z"/>
			<path style="fill:#005D97;" d="M1819.998,927.924c-19.28,30.237-17.095,69.113-11.359,104.512
				c13.344,82.353,42.297,163.596,36.28,246.805c43.396,13.646,91.731,10.91,133.309-7.547c3.596-1.596,7.309-3.443,9.539-6.684
				c1.958-2.844,2.515-6.393,3.022-9.809c6.859-46.22,13.719-92.44,20.578-138.66c9.392-63.287,18.637-129.006,0.34-190.314
				C1952.106,926.335,1892.504,926.44,1819.998,927.924z"/>
			<path style="fill:#FBC3B1;" d="M2034.717,468.961c-5.91,9.428-11.421,19.089-16.566,28.949
				c-8.399,16.101-15.769,32.701-22.011,49.732c-24.899-11.387-50.595-21.015-76.821-28.817c2.523-24.401,8.565-48.47,17.827-71.178
				c12.483,3.287,25.099,6.142,37.681,8.831C1994.945,460.794,2015.064,464.679,2034.717,468.961z"/>
			<path style="fill:#497DC0;" d="M2088.466,663.605c-0.797,7.137-1.992,14.242-3.586,21.214
				c-7.569,33.597-22.741,64.903-35.689,96.807c-14.474,35.622-26.426,73.137-29.613,111.182v0.033
				c-1.096,13.014-1.129,26.061,0.066,39.141c0.73,7.603,1.527,16.234-3.586,21.878c-2.257,2.49-5.378,3.984-8.465,5.246
				c-18.127,7.303-38.212,7.735-57.733,8.1c-19.653,0.366-39.307,0.73-58.961,1.063c-12.35,0.232-24.766,0.465-36.917-1.793
				c-12.682-2.357-24.7-7.37-36.618-12.317c-16.765-7.005-33.664-14.076-48.47-24.567c-9.163-6.474-18.126-15.803-17.496-26.991
				c0.398-6.872,4.382-12.948,7.503-19.089c5.345-10.623,8.3-22.276,10.79-33.896c21.314-100.127,9.827-206.928,45.548-302.805
				c2.988-7.968,6.341-15.969,11.819-22.476c5.976-7.039,14.109-11.919,22.509-15.67c28.119-12.516,60.255-10.225,101.82,2.257
				c23.438,7.038,47.043,14.143,68.754,25.43c21.745,11.255,41.731,27.091,54.147,48.171
				C2088.167,608.063,2091.487,636.216,2088.466,663.605z"/>
			<path style="opacity:0.1;" d="M2088.466,663.605c-0.797,7.137-1.992,14.242-3.586,21.214
				c-7.569,33.597-22.741,64.903-35.689,96.807c-14.474,35.622-26.426,73.137-29.613,111.182
				c-9.13-22.542-15.172-59.061-5.943-116.892c19.919-124.661,38.311-150.59,38.311-150.59L2088.466,663.605z"/>
			<path style="opacity:0.1;" d="M2034.717,468.961c-5.91,9.428-11.421,19.089-16.566,28.949
				c-15.305-10.125-36.685-26.327-43.324-41.432C1994.945,460.794,2015.064,464.679,2034.717,468.961z"/>
			<path style="fill:#FBC3B1;" d="M2024.871,632.401c-0.474-17.46,12.05-44.979,24.061-47.966
				c12.012-2.986,24.88,2.124,34.195,10.274c9.315,8.15,15.746,19.019,22.016,29.69c23.847,40.589,47.695,81.178,71.542,121.767
				c10.518-26.973,33.221-46.912,53.731-67.345c20.509-20.433,40.496-44.556,42.791-73.416c0.996-12.523-1.38-25.677,3.362-37.31
				s21.486-19.436,29.862-10.073c-2.595-5.873,5.595-11.881,11.65-9.745c6.055,2.137,9.286,8.675,11.117,14.829
				c3.785,12.724,4.196,26.436,1.181,39.364c-2.864,12.279-8.686,23.633-14.455,34.844c-31.2,60.635-63.142,122.307-111.161,170.725
				c-6.61,6.664-14.084,13.35-23.348,14.859c-7.44,1.212-15.025-1.131-21.826-4.382c-17.309-8.273-31.151-22.252-44.079-36.426
				c-17.835-19.553-34.67-40.019-50.416-61.291C2043.335,691.408,2026.124,678.539,2024.871,632.401z"/>
			<path style="fill:#FBC3B1;" d="M2049.841,325.637c10.021,7.684,14.358,20.582,17.143,32.899
				c7.52,33.253,7.569,68.174,0.141,101.448c-1.861,8.338-4.594,17.197-11.439,22.309c-7.879,5.885-18.811,5.054-28.429,2.998
				c-14.638-3.128-28.799-8.477-41.851-15.805c-3.848-2.161-7.637-4.52-10.77-7.628c-4.189-4.154-7.029-9.465-9.452-14.844
				c-17.007-37.751-14.269-86.059,13.946-116.363c8.33-8.947,18.86-16.23,30.797-18.861
				C2021.865,309.159,2033.838,313.365,2049.841,325.637z"/>
			<path style="fill:#5E2E12;" d="M1905.875,354.594c-3.947-11.73-7.91-24.486-3.984-36.223
				c4.143-12.383,16.341-20.55,28.913-24.081c12.572-3.53,25.835-3.331,38.848-4.422c27.665-2.319,54.81-10.664,79.001-24.286
				c2.345-1.32,5.042-2.736,7.594-1.883c2.406,0.804,3.731,3.323,4.746,5.647c8.571,19.628,12.071,42.166,5.777,62.638
				c-6.294,20.472-23.615,38.158-44.813,41.215c9.146,17.099,7.545,38.354,0.219,56.307c-7.327,17.954-19.774,33.273-32.236,48.128
				c-5.2,6.198-11.482,12.887-19.572,12.969c-6.359,0.065-11.902-4.039-17.894-6.166c-8.871-3.149-19.155-2.059-27.232-6.893
				c-4.998-2.992-8.508-7.907-11.622-12.83c-15.333-24.241-24.641-52.263-26.858-80.861
				C1885.857,372.207,1890.05,356.383,1905.875,354.594z"/>
			<path style="fill:#FBC3B1;" d="M2032.248,430.003c-3.457-5.515-7.127-11.243-12.749-14.523
				c-5.622-3.281-13.797-3.175-17.741,2.003c-4.198,5.512-1.788,13.44,1.316,19.634c4.092,8.163,9.131,15.85,14.985,22.858
				c1.443,1.727,3.65,3.583,5.674,2.598c1-0.486,1.575-1.54,2.06-2.541C2029.35,452.685,2031.519,444.668,2032.248,430.003z"/>
		</g>
	</g>
</g>
</svg>
