<?xml version="1.0" encoding="utf-8"?>
<!-- Generator: Adobe Illustrator 27.5.0, SVG Export Plug-In . SVG Version: 6.00 Build 0)  -->
<svg version="1.1" xmlns="http://www.w3.org/2000/svg" xmlns:xlink="http://www.w3.org/1999/xlink" x="0px" y="0px"
	 viewBox="0 0 4000 2666.667" style="enable-background:new 0 0 4000 2666.667;" xml:space="preserve">
<g id="Layer_2">
	<g>
		<rect style="fill:#FFFFFF;" width="4000" height="2666.667"/>
		<g style="opacity:0.5;">
			<linearGradient id="SVGID_1_" gradientUnits="userSpaceOnUse" x1="442.6044" y1="977.4431" x2="1850.0005" y2="977.4431">
				<stop  offset="0" style="stop-color:#C6E9FB"/>
				<stop  offset="1" style="stop-color:#37ADE3"/>
			</linearGradient>
			<path style="fill:url(#SVGID_1_);" d="M579.046,1198.094c129.085,112.974,267.87,148.467,337.222,161.412
				c266.109,49.672,491.998-53.339,618.467-148.58c88.087-66.337,145.703-142.28,128.838-174.949
				c-12.899-24.985-76.02-37.551-120.429-70.415c-13.03-9.643-23.224-20.126-26.731-23.826c-9.232-9.735-25.84-27.249-23.264-30.868
				c7.253-10.189,147.082,117.171,223.316,77.642c17.157-8.896,13.867-17.314,57.316-56.497
				c50.305-45.367,66.693-43.275,72.266-59.092c36.581-103.809-187.901-273.985-376.929-288.366
				c-233.224-17.743-267.644,79.061-155.364,220.799c0,0-195.402-191.999-402.827-140.943
				C703.502,715.469,202.223,868.301,579.046,1198.094z"/>
			
				<linearGradient id="SVGID_00000111895901707203321490000004569654412605877147_" gradientUnits="userSpaceOnUse" x1="881.0709" y1="1665.7772" x2="3212.4788" y2="1665.7772">
				<stop  offset="0" style="stop-color:#C6E9FB"/>
				<stop  offset="1" style="stop-color:#37ADE3"/>
			</linearGradient>
			<path style="fill:url(#SVGID_00000111895901707203321490000004569654412605877147_);" d="M932.638,1851.713
				c-150.274-99.243,56.849-261.068,250.441-279.849s416.974-218.964,461.035-286.964
				c133.834-206.548,416.702-388.683,628.894-337.382c212.193,51.3,513.66,162.51,562.539,310.394s203.901,37.896,310.5,112.27
				c106.598,74.374,134.448,206.157-303.896,310.809c-438.345,104.651-680.516,275.509-625.322,445.895
				c55.194,170.386-485.68,391.316-794.702,178.138s26.939-263.659-150.731-407.024
				C1093.725,1754.633,1085.505,1952.669,932.638,1851.713z"/>
			
				<linearGradient id="SVGID_00000003075091820281728920000017742840136862609322_" gradientUnits="userSpaceOnUse" x1="2415.6782" y1="2061.3247" x2="3617.2783" y2="2061.3247" gradientTransform="matrix(0.999 -0.0444 0.0444 0.999 -108.4427 154.2928)">
				<stop  offset="0" style="stop-color:#C6E9FB"/>
				<stop  offset="1" style="stop-color:#37ADE3"/>
			</linearGradient>
			<path style="fill:url(#SVGID_00000003075091820281728920000017742840136862609322_);" d="M2475.14,2002.714
				c172.163-172.981,392.352-127.451,525.505-189.718c133.154-62.267,235.632-183.941,419.788-80.207
				c184.156,103.734,297.127,331.059-71,393.725c0,0-96.18,6.123-68.781,94.146s-343.54,380.08-539.42,149.344
				S2257.078,2221.812,2475.14,2002.714z"/>
		</g>
	</g>
</g>
<g id="Objects">
	<g>
		<g>
			<g style="opacity:0.1;">
				<g>
					<path d="M3195.794,2148.717l-13.432-7.755c-18.097-10.448-47.614-10.448-65.593,0l-239.205,137.254
						c-17.979,10.448-17.883,27.545,0.214,37.993l13.432,7.755c18.097,10.448,47.614,10.448,65.593,0l239.205-137.254
						C3213.987,2176.263,3213.89,2159.166,3195.794,2148.717L3195.794,2148.717z"/>
				</g>
			</g>
			<g>
				<path style="fill:#8C8D8F;" d="M3189.629,2160.726c-5.421,6.662-11.953,12.475-19.42,16.742
					c-20.639,11.822-47.723,10.472-67.905-2.112c-9.231-5.748-16.851-13.673-22.49-23.97c-6.684-12.17-10.603-27.65-11.103-46.743
					c-0.806-30.415,22.838-59.284,52.578-65.662c29.718-6.401,62.484,9.448,77.027,36.162c3.984,7.315,6.575,15.262,7.838,23.426
					C3209.528,2120.274,3203.585,2143.592,3189.629,2160.726z"/>
				<path style="opacity:0.1;" d="M3189.629,2160.726c-5.421,6.662-11.953,12.475-19.42,16.742
					c-20.639,11.822-47.723,10.472-67.905-2.112c-9.231-5.748-16.851-13.673-22.49-23.97c18.288,11.299,51.141,25.865,81.382,9.601
					c25.124-13.498,40.146-37.425,44.958-62.419C3209.528,2120.274,3203.585,2143.592,3189.629,2160.726z"/>
				<path style="fill:#838485;" d="M3126.296,2142.59c-0.196,4.703-3.592,8.556-6.88,11.931
					c-40.974,42.237-91.941,74.72-147.545,94.031c-2.787-3.244-5.552-6.466-8.404-10.037c-5.073-6.379-10.342-13.89-16.198-24.536
					c38.274-43.608,90.831-72.02,144.062-95.098c4.812-2.068,10.058-4.158,15.153-2.939c3.767,0.893,6.88,3.506,9.493,6.336
					c3.288,3.549,6.009,7.62,8.055,11.996c0.174,0.37,0.348,0.74,0.522,1.132C3125.556,2137.67,3126.383,2140.109,3126.296,2142.59z
					"/>
				<path style="opacity:0.1;" d="M3126.296,2142.59c-0.196,4.703-3.592,8.556-6.88,11.931
					c-40.974,42.237-91.941,74.72-147.545,94.031c-2.787-3.244-5.552-6.466-8.404-10.037
					c37.36-13.433,109.88-45.306,160.564-104.242c0.174,0.37,0.348,0.74,0.522,1.132
					C3125.556,2137.67,3126.383,2140.109,3126.296,2142.59z"/>
				<path style="fill:#8C8D8F;" d="M2953.279,2322.945c-6.336,4.376-13.346,7.837-20.835,9.667
					c-7.772,1.894-15.893,1.959-23.861,1.35c-20.291-1.524-40.669-7.707-56.432-20.552c-6.423-5.247-11.931-11.56-16.307-18.571
					c-8.077-12.867-12.432-28.063-12.018-43.26c0.631-23.47,13.324-45.394,36.511-61.809c23.23-16.437,55.387-19.333,81.186-7.337
					c11.713,5.465,21.924,13.89,29.783,24.145c9.492,12.301,15.588,27.236,16.873,42.715
					C2990.551,2277.639,2976.726,2306.813,2953.279,2322.945z"/>
				<path style="opacity:0.1;" d="M2988.178,2249.292c2.373,28.346-11.452,57.52-34.899,73.653
					c-6.336,4.376-13.346,7.837-20.835,9.667c-7.772,1.894-15.893,1.959-23.861,1.35c-20.291-1.524-40.669-7.707-56.432-20.552
					c-6.423-5.247-11.931-11.56-16.307-18.571c11.822,9.035,54.298,37.839,92.572,17.265c39.842-21.423,54.255-69.059,42.89-105.526
					C2980.797,2218.877,2986.894,2233.813,2988.178,2249.292z"/>
				
					<ellipse transform="matrix(0.5876 -0.8092 0.8092 0.5876 -625.4179 3237.8562)" style="opacity:0.2;fill:#FFFFFF;" cx="2863.632" cy="2232.464" rx="29.482" ry="17.076"/>
				
					<ellipse transform="matrix(0.5876 -0.8092 0.8092 0.5876 -401.4319 3363.8315)" style="opacity:0.2;fill:#FFFFFF;" cx="3099.221" cy="2075.723" rx="20.11" ry="11.648"/>
			</g>
		</g>
		<g>
			<g style="opacity:0.1;">
				<g>
					<path d="M3054.764,1953.48l-17.25-9.959c-23.241-13.418-61.149-13.418-84.24,0l-307.206,176.272
						c-23.09,13.418-22.966,35.376,0.275,48.794l17.25,9.959c23.241,13.418,61.149,13.418,84.239,0l307.206-176.272
						C3078.129,1988.856,3078.005,1966.899,3054.764,1953.48L3054.764,1953.48z"/>
				</g>
			</g>
			<g>
				<path style="fill:#8C8D8F;" d="M3073.304,1915.797c-0.13,1.393-0.283,2.787-0.479,4.202c-1.023,7.642-3.135,15.218-7.576,21.467
					c-3.788,5.334-9.035,9.427-14.304,13.302c-22.446,16.547-46.547,30.85-71.824,42.629c-2.025,0.958-4.224,1.916-6.444,1.851
					c-0.283-0.022-0.566-0.044-0.827-0.087c-2.939-0.436-5.182-2.743-7.163-4.942c-4.18-4.572-8.339-9.188-12.41-13.825
					c-21.271-24.014-41.518-48.899-60.655-74.632c-11.277-15.131-31.078-32.647-36.63-55.703
					c-2.656-11.103-0.07-11.404,6.353-20.961c0.806-1.198,6.39-8.325,7.261-9.435c7.946-10.058,24.452-21.516,35.033-28.766
					c21.51-14.739,46.156-30.197,71.781-25.277c14.282,2.743,26.626,11.604,37.556,21.205
					C3050.031,1819.306,3077.724,1866.724,3073.304,1915.797z"/>
				<path style="fill:#6B6B6D;" d="M2992.859,1966.786c-2.242,6.51-5.051,12.802-8.382,18.811
					c-2.525,4.572-5.465,9.079-9.645,12.214c-0.697,0.523-1.415,1.002-2.155,1.437c-9.928,5.791-23.143,3.396-34.051-0.98
					c-8.578-3.44-16.59-7.881-24.035-13.128c-32.2-22.686-53.471-60.721-61.439-99.887c-2.83-13.803-4.18-28.39,0.348-41.714
					c3.309-9.819,9.885-18.441,18.332-24.471c3.462-2.482,7.228-4.507,11.212-5.987c13.694-5.116,30.306-5.182,49.181,4.224
					c29.392,14.609,52.382,41.605,62.114,72.956C3002.025,1915.057,3001.371,1942.293,2992.859,1966.786z"/>
				<path style="opacity:0.2;fill:#FFFFFF;" d="M2984.375,1780.674c2.776,5.375-6.107,15.483-19.841,22.576
					c-13.734,7.093-27.118,8.486-29.894,3.11s6.107-15.483,19.841-22.576S2981.599,1775.299,2984.375,1780.674z"/>
				<path style="opacity:0.1;" d="M2915.956,1937.835c0,0,4.234,12.466,19.287,12.231c15.054-0.235,24.506-20.895,14.487-41.731
					c-10.018-20.836-38.244,0-38.244,0L2915.956,1937.835z"/>
				<path style="fill:#838485;" d="M2949.142,1930.819c-3.701,6.466-10.537,10.407-17.047,14.021
					c-59.676,33.267-119.351,66.512-179.027,99.778c-6.379-5.682-12.519-11.647-18.462-18.397
					c-8.099-9.166-15.871-19.747-23.557-32.94c63.094-41.671,128.647-79.596,196.204-113.56c2.439-1.219,5.008-2.482,7.751-2.482
					c3.832-0.022,7.185,2.373,10.254,4.681c7.968,5.965,16.133,12.127,21.489,20.552c0.588,0.914,1.132,1.872,1.633,2.874
					C2952.451,1913.315,2953.561,1923.134,2949.142,1930.819z"/>
				<path style="opacity:0.1;" d="M3072.825,1919.999c-1.023,7.642-3.135,15.218-7.576,21.467
					c-3.788,5.334-9.035,9.427-14.304,13.302c-22.446,16.547-46.547,30.85-71.824,42.629c-2.025,0.958-4.224,1.916-6.444,1.851
					c-9.928,5.791-23.143,3.396-34.051-0.98c-8.578-3.44-16.59-7.881-24.035-13.128c11.038-0.196,23.687-1.546,37.686-4.746
					c12.497-2.852,26.061-7.206,40.582-13.607c8.905-3.897,18.201-8.6,27.781-14.173
					C3042.323,1940.007,3059.393,1929.187,3072.825,1919.999z"/>
				<path style="opacity:0.1;" d="M2949.142,1930.819c-3.701,6.466-10.537,10.407-17.047,14.021
					c-59.676,33.267-119.351,66.512-179.027,99.778c-6.379-5.682-12.519-11.647-18.462-18.397
					c52.012-23.361,157.211-73.544,213.774-120.875C2952.451,1913.315,2953.561,1923.134,2949.142,1930.819z"/>
				<path style="fill:#8C8D8F;" d="M2783.243,2084.504v0.065c-0.806,9.035-2.809,18.266-8.055,25.669
					c-3.788,5.334-9.035,9.427-14.304,13.302c-22.446,16.547-46.547,30.85-71.824,42.629c-2.025,0.936-4.202,1.894-6.423,1.807
					c-0.283,0.022-0.566,0-0.849-0.043c-2.939-0.458-5.182-2.765-7.163-4.942c-5.138-5.617-10.211-11.278-15.196-17.004
					c-20.269-23.034-39.581-46.874-57.868-71.454c-11.278-15.131-30.741-22.837-36.292-45.915
					c-2.656-11.082,1.821-22.277,7.293-32.374c0.91-1.68,8.774-11.039,9.784-12.068c11.11-11.327,20.652-17.281,31.233-24.531
					c21.51-14.739,46.155-30.175,71.78-25.255c14.282,2.743,26.626,11.604,37.556,21.184
					C2759.948,1988.057,2787.641,2035.453,2783.243,2084.504z"/>
				<path style="fill:#6B6B6D;" d="M2704.235,2131.073c-2.438,8.077-5.726,15.893-9.819,23.274c-2.525,4.572-5.465,9.1-9.645,12.235
					c-0.697,0.522-1.393,0.98-2.134,1.394c-9.928,5.813-23.165,3.418-34.072-0.958c-10.516-4.202-20.182-9.906-28.978-16.786
					c-29.435-22.99-48.942-59.066-56.497-96.208c-2.83-13.803-4.18-28.412,0.348-41.736c3.309-9.819,9.885-18.441,18.31-24.428
					c3.462-2.504,7.229-4.528,11.234-6.009c13.694-5.116,30.306-5.182,49.182,4.202c29.391,14.63,52.382,41.627,62.114,72.978
					C2711.507,2082.327,2711.354,2107.756,2704.235,2131.073z"/>
				<path style="opacity:0.1;" d="M2783.243,2084.504v0.065c-0.806,9.035-2.809,18.266-8.055,25.669
					c-3.788,5.334-9.035,9.427-14.304,13.302c-22.446,16.547-46.547,30.85-71.824,42.629c-2.025,0.936-4.202,1.894-6.423,1.807
					c-9.928,5.813-23.165,3.418-34.072-0.958c-10.516-4.202-20.182-9.906-28.978-16.786c11.474,0.087,24.841-1.001,39.842-4.245
					c13.672-2.939,28.673-7.664,44.805-14.913c8.382-3.745,17.069-8.186,26.017-13.39
					C2752.372,2104.817,2769.701,2093.801,2783.243,2084.504z"/>
				
					<ellipse transform="matrix(0.8885 -0.4589 0.4589 0.8885 -602.3616 1443.6616)" style="opacity:0.2;fill:#FFFFFF;" cx="2669.502" cy="1961.335" rx="27.988" ry="10.954"/>
			</g>
		</g>
		<g>
			<g>
				<ellipse style="opacity:0.1;" cx="3344.043" cy="1985.344" rx="123.78" ry="58.656"/>
			</g>
			<g>
				<path style="fill:#8C8D8F;" d="M3441.338,1921.159c0,60.62-51.916,109.77-115.946,109.77c-31.184,0-59.483-11.638-80.317-30.607
					c-21.971-19.969-35.646-48.048-35.646-79.164c0-60.62,51.916-109.753,115.963-109.753c58.991,0,107.701,41.72,114.996,95.689
					C3441.016,1911.709,3441.338,1916.392,3441.338,1921.159z"/>
				<path style="fill:#6B6B6D;" d="M3239.978,1849.413c5.141,11.656,10.281,23.312,15.422,34.968
					c0.365,0.828,0.746,1.679,1.399,2.307c0.922,0.888,2.248,1.2,3.517,1.371c6.182,0.835,12.674-0.925,17.588-4.767
					c1.527-1.194,2.949-2.647,3.57-4.483c0.981-2.906-0.225-6.049-1.415-8.876c-4.402-10.461-8.805-20.921-13.207-31.381
					C3258.649,1841.489,3250.593,1844.835,3239.978,1849.413z"/>
				<path style="fill:#6B6B6D;" d="M3379.396,1790.469c-0.441,2.477-0.882,4.971-1.29,7.448c-1.476,8.602-2.85,17.204-4.106,25.823
					c-5.311-1.137-10.57-2.511-15.761-4.123c-2.749-0.832-5.463-1.747-8.161-2.731c1.493-7.55,3.003-15.083,4.496-22.616
					c0.492-2.46,0.984-4.937,1.476-7.397c2.833,0.306,5.463,0.594,7.957,0.916
					C3369.674,1788.484,3374.577,1789.282,3379.396,1790.469z"/>
				<path style="fill:#58595B;" d="M3388.065,1771.79c-0.679,6.515-1.374,13.013-2.053,19.528c-0.204,1.815-0.475,3.817-1.815,5.056
					c-1.12,1.035-2.715,1.306-4.242,1.442c-0.611,0.051-1.221,0.085-1.849,0.102c-5.192,0.203-10.366-0.628-15.507-1.697
					c-1.578-0.339-3.139-0.679-4.7-1.035c-1.086-0.255-2.223-0.543-3.325-0.916c-2.647-0.865-5.039-2.256-5.989-4.751
					c-1.255-3.325,0.696-6.888,1.646-10.315c0.933-3.427-0.22-8.297-3.767-8.415c-0.254-0.017-0.509,0-0.763,0.051
					c-0.78,0.119-1.527,0.441-2.256,0.763c-0.781,0.356-1.561,0.696-2.324,1.069c-0.187,0.068-0.356,0.136-0.526,0.238
					c-0.204,0.085-0.305,0.136-0.305,0.136c-18.239,8.33-35.798,18.12-52.459,29.25c-8.67,5.802-22.412,11.028-22.616,21.445
					c-0.153,7.516,8.907,18.272,4.615,24.448c-1.391,1.985-3.512,3.342-5.701,4.377c-8.025,3.851-17.679,4.191-25.958,0.899
					c-15.253-6.057-13.454-27.298-14.15-42.144c-0.153-3.224-0.288-6.566,0.933-9.535c1.069-2.596,3.071-4.683,5.09-6.617
					c17.662-16.898,40.244-27.519,62.401-37.834c19.646-9.161,39.293-18.323,58.94-27.485c4.852-2.257,9.925-4.564,15.269-4.445
					c9.637,0.204,17.56,8.534,20.478,17.713C3390.05,1752.296,3389.083,1762.204,3388.065,1771.79z"/>
				<path style="opacity:0.1;" d="M3441.338,1921.159c0,60.62-51.916,109.77-115.946,109.77c-31.184,0-59.483-11.638-80.317-30.607
					c33.44,6.566,77.196,9.891,119.662-2.596c39.785-11.707,63.606-50.814,75.652-90.633
					C3441.016,1911.709,3441.338,1916.392,3441.338,1921.159z"/>
				<path style="opacity:0.2;fill:#FFFFFF;" d="M3400.672,1868.032c-5.593,6.515-18.076,4.973-27.883-3.445
					c-9.806-8.418-13.222-20.523-7.63-27.039c5.593-6.515,18.076-4.973,27.882,3.445
					C3402.849,1849.411,3406.265,1861.517,3400.672,1868.032z"/>
				<path style="opacity:0.1;" d="M3364.007,1787.789c-0.407,2.68-0.882,5.514-1.408,8.432c-1.357,7.872-2.969,16.287-4.36,23.396
					c-2.749-0.832-5.463-1.747-8.161-2.731c1.493-7.55,3.003-15.083,4.496-22.616c-2.647-0.865-5.039-2.256-5.989-4.751
					c-1.255-3.325,0.696-6.888,1.646-10.315c0.933-3.427-0.22-8.297-3.767-8.415c-0.254-0.017-0.509,0-0.763,0.051
					c7.295-2.715,19.409-6.193,20.02,0.39C3365.958,1773.86,3365.212,1780.12,3364.007,1787.789z"/>
				<path style="opacity:0.2;fill:#FFFFFF;" d="M3273.283,1780.169c-1.928-3.098-10.437-1.288-19.005,4.044
					s-13.951,12.165-12.023,15.263c1.928,3.098,10.437,1.288,19.005-4.044C3269.828,1790.101,3275.211,1783.267,3273.283,1780.169z"
					/>
			</g>
		</g>
	</g>
	<g>
		<path style="opacity:0.1;" d="M860.259,919.097c65.412-40.629,133.245-77.36,203.019-109.932
			c13.609-6.353,28.045-12.69,43.017-11.508c13.565,1.072,25.803,8.191,37.506,15.133c64.677,38.369,129.354,76.739,194.03,115.108
			c40.974,24.307,82.171,48.774,118.444,79.66c8.553,7.283,17.534,16.625,16.568,27.818c-1.038,12.02-12.866,19.728-23.42,25.572
			c-95.39,52.817-190.779,105.633-286.169,158.45c-16.36,9.058-33.971,18.403-52.606,16.855
			c-13.473-1.119-25.757-7.852-37.451-14.637c-102.049-59.217-194.84-133.777-299.054-189.096
			c-7.872-4.179-16.006-8.4-21.846-15.133c-5.84-6.732-8.904-16.703-5.049-24.738c2.318-4.831,6.719-8.277,11.01-11.485
			C786.697,959.899,819.006,944.721,860.259,919.097z"/>
		<path style="fill:#3A828A;" d="M1372.037,972.023c11.554-2.128,33.638-2.094,38.789,9.718c7.5,17.197,3.885,32.498,1.17,45.353
			c-4.595,21.753-22.26,27.195-41.293,38.687c-77.856,47.009-157.909,90.387-239.882,129.781
			c-19.349,9.299-40.021,18.601-61.383,16.47c-19.568-1.952-36.782-13.225-53.205-24.042
			c-85.005-55.987-153.718-97.03-243.038-145.84c-10.481-5.727-14.618-10.06-28.615-22.512c-5.813-5.172-11.066-7.957-12.419-30.445
			c-0.557-9.263-2.182-32.308,0.603-36.654c6.632-10.349,16.968-5.793,29.215-4.743c132.493,11.351,264.985,22.702,397.478,34.053
			c51.7,4.429,104.434,8.791,154.946-3.086C1329.923,975.114,1345.52,976.908,1372.037,972.023z"/>
		<path style="fill:#46A0A9;" d="M839.387,881.083c61.136-37.973,124.535-72.303,189.749-102.746
			c12.719-5.938,26.211-11.861,40.205-10.755c12.678,1.002,24.117,7.655,35.054,14.144
			c60.449,35.861,120.898,71.722,181.347,107.584c38.295,22.719,76.8,45.586,110.702,74.453
			c7.994,6.807,16.388,15.539,15.485,25.999c-0.97,11.234-12.025,18.438-21.89,23.901
			c-89.154,49.364-178.309,98.728-267.463,148.093c-15.29,8.466-31.75,17.2-49.167,15.754c-12.593-1.046-24.074-7.338-35.003-13.68
			c-95.379-55.347-182.104-125.033-279.506-176.735c-7.358-3.906-14.96-7.851-20.418-14.144c-5.459-6.292-8.322-15.611-4.719-23.121
			c2.166-4.515,6.28-7.736,10.291-10.735C770.632,919.218,800.83,905.032,839.387,881.083z"/>
		<path style="fill:#AA459A;" d="M853.078,886.465c57.539-35.739,117.208-68.049,178.584-96.701
			c11.971-5.588,24.669-11.163,37.84-10.122c11.932,0.943,22.698,7.205,32.992,13.312c56.892,33.751,113.785,67.503,170.677,101.254
			c36.042,21.382,72.281,42.903,104.189,70.072c7.524,6.406,15.424,14.624,14.573,24.469c-0.913,10.573-11.317,17.354-20.602,22.494
			c-83.909,46.46-167.817,92.92-251.726,139.379c-14.39,7.968-29.882,16.188-46.275,14.827
			c-11.851-0.984-22.657-6.907-32.943-12.875c-89.767-52.09-171.389-117.676-263.06-166.337
			c-6.925-3.676-14.079-7.389-19.217-13.311c-5.138-5.922-7.832-14.693-4.441-21.761c2.039-4.25,5.911-7.281,9.685-10.103
			C788.369,922.356,816.789,909.005,853.078,886.465z"/>
		<g>
			<path style="fill:#919191;" d="M1191.652,995.393c3.59-0.864,7.359-0.294,10.977,0.443c9.824,2,19.358,5.195,28.864,8.382
				c21.982,7.37,43.964,14.741,65.945,22.111c3.199-4.026,5.762-8.436,6.76-13.446c-35.327-10.23-70.347-21.519-104.999-33.844
				c-1.893-0.673-3.859-1.36-5.861-1.189c-1.915,0.164-3.668,1.098-5.359,2.013c-26.252,14.202-52.504,28.403-78.756,42.605
				c0,5.659,0.983,11.017,2.282,16.054c24.368-13.932,48.943-27.505,73.837-40.474
				C1187.373,996.992,1189.428,995.928,1191.652,995.393z"/>
			<path style="fill:#DCDBDB;" d="M1231.494,1004.218c-9.505-3.187-19.04-6.382-28.864-8.382c-3.619-0.737-7.387-1.307-10.977-0.443
				c-2.224,0.535-4.279,1.598-6.308,2.655c-24.894,12.969-49.469,26.542-73.837,40.474c1.545,5.99,3.544,11.518,4.971,16.457
				c5.468,18.931,10.382,38.428,20.693,55.219c0.766,1.248,1.648,2.53,2.984,3.128c1.528,0.683,3.298,0.322,4.926-0.064
				c53.923-12.758,104.316-40.123,144.382-78.401c2.79-2.665,5.558-5.492,7.975-8.533
				C1275.457,1018.959,1253.475,1011.588,1231.494,1004.218z"/>
		</g>
		<path style="fill:#CCCCCB;" d="M1137.333,1022.832c6.383,2.735,13.233,4.838,20.163,4.404c6.93-0.435,13.974-3.793,17.395-9.835
			c3.421-6.043,2.13-14.781-3.726-18.512c-11.077,6.251-36.764,16.886-36.764,16.886s0,1.865,0.01,2.309
			c0.008,0.37-0.01,1.524,0.008,1.892C1134.436,1020.344,1134.335,1021.548,1137.333,1022.832z"/>
		<path style="fill:#FFFFFF;" d="M1137.333,1018.467c6.383,2.734,13.233,4.838,20.163,4.404c6.93-0.435,13.974-3.793,17.395-9.835
			c3.421-6.043,2.13-14.781-3.726-18.512c-12,6.772-24,13.544-36,20.316c-0.322,0.182-0.677,0.407-0.746,0.771
			C1134.349,1015.973,1134.335,1017.182,1137.333,1018.467z"/>
		<g>
			<path style="fill:#A31D32;" d="M1165.835,1024.849c9.621,8.603,28.217,20.287,38.911,27.357c2.267,1.499,4.587,2.994,7.167,3.752
				c2.58,0.758,5.497,0.699,7.773-0.787c0.597-0.39,1.169-0.916,1.36-1.626c0.386-1.439-0.897-2.723-2.041-3.612
				c-11.912-9.257-32.192-22.354-44.458-31.088c-2.141,0.847-4.87,0.725-8.662,4.082
				C1165.644,1023.14,1165.835,1024.849,1165.835,1024.849z"/>
			<path style="fill:#EE2146;" d="M1165.835,1022.973c9.621,8.603,28.217,20.287,38.911,27.357c2.267,1.499,4.587,2.993,7.167,3.752
				c2.58,0.758,5.497,0.699,7.773-0.787c0.597-0.39,1.169-0.916,1.36-1.626c0.386-1.439-0.897-2.723-2.041-3.612
				c-11.912-9.257-32.192-22.354-44.458-31.088C1172.27,1017.869,1170.111,1019.096,1165.835,1022.973z"/>
		</g>
	</g>
	<g>
		<g>
			<ellipse style="opacity:0.1;" cx="1519.944" cy="775.816" rx="100.351" ry="47.553"/>
		</g>
		<path style="fill:#1A67A4;" d="M1600.917,547.299c0.104-10.322,0.188-20.646,0.282-30.968
			c-33.237,15.885-71.245,21.816-107.699,16.355c-21.564-3.23-43.121-10.924-60.261-24.033c-1.16,11.501-2.26,23.006-3.275,34.521
			c25.617,13.92,54.473,21.905,83.621,22.824C1543.638,566.946,1573.839,560.352,1600.917,547.299z"/>
		<path style="fill:#2A7EC2;" d="M1601.198,516.331c0.261-28.631,0.594-57.26,0.782-85.891c0.058-8.884,0.097-17.804-0.275-26.685
			c-21.589,16.932-49.128,26.337-76.659,26.414c-28.21,0.079-56.077-9.296-79.353-25.302c-4.815,34.512-8.955,69.116-12.454,103.786
			c17.14,13.108,38.696,20.802,60.261,24.033C1529.953,538.147,1567.962,532.216,1601.198,516.331z"/>
		<path style="fill:#1A67A4;" d="M1601.705,403.755c-0.325-7.786-0.984-15.54-2.239-23.212c-2.537,3.307-5.535,6.31-8.789,8.829
			c-17.944,13.892-41.924,16.936-64.615,17.145c-17.825,0.164-36.138-1.224-52.303-8.737c-9.306-4.325-17.727-11.079-23.693-19.36
			c-1.265,4.618-2.027,9.449-2.708,14.171c-0.589,4.088-1.094,8.186-1.665,12.276c23.276,16.006,51.143,25.381,79.353,25.302
			C1552.577,430.091,1580.116,420.687,1601.705,403.755z"/>
		<path style="fill:#2A7EC2;" d="M1506.264,716.914c-30.003-2.282-59.386-11.712-85.284-27.014
			c-0.765,22.179-1.356,44.364-1.583,66.555c-0.053,5.193-0.038,10.621,2.341,15.237c2.498,4.847,7.239,8.085,11.923,10.878
			c24.843,14.812,53.657,22.893,82.579,23.161c29.142,0.27,50.627-4.461,69.353-14.721c4.4-2.411,8.89-5.365,10.919-9.953
			c1.372-3.103,1.452-6.602,1.508-9.994c0.388-23.272,0.649-46.546,0.989-69.818
			C1569.919,713.747,1537.843,719.316,1506.264,716.914z"/>
		<path style="fill:#1A67A4;" d="M1511.134,690.708c-31.542-0.722-62.985-10.235-89.174-27.667
			c-0.396,8.951-0.672,17.905-0.981,26.859c25.898,15.302,55.281,24.732,85.284,27.014c31.579,2.402,63.655-3.168,92.744-15.669
			c0.145-9.944,0.286-19.888,0.423-29.832C1571.8,684.241,1541.538,691.404,1511.134,690.708z"/>
		<path style="fill:#2A7EC2;" d="M1599.43,671.413c0.568-41.371,1.071-82.741,1.487-124.114
			c-27.078,13.053-57.279,19.647-87.333,18.7c-29.148-0.919-58.004-8.904-83.621-22.824c-3.518,39.893-6.23,79.858-8.003,119.867
			c26.189,17.432,57.632,26.945,89.174,27.667C1541.538,691.404,1571.8,684.241,1599.43,671.413z M1500.105,653.772
			c-2.207-5.638-1.331-11.986,0.075-17.875c4.308-18.044,13.184-34.614,21.97-50.953c5.175,10.649,9.804,21.564,13.861,32.688
			c3.302,9.053,6.265,18.687,4.668,28.19c-1.597,9.503-9.238,17.453-22.538,18.888
			C1510.628,665.52,1502.859,660.808,1500.105,653.772z"/>
		<path style="fill:#408FCD;" d="M1473.759,397.78c16.165,7.513,34.478,8.902,52.303,8.737c22.691-0.21,46.671-3.254,64.615-17.145
			c3.254-2.519,6.252-5.522,8.789-8.829c-0.323-1.972-0.665-3.942-1.073-5.902c-0.877-4.22-2.071-8.604-5.066-11.704
			c-2.61-2.702-6.265-4.087-9.824-5.29c-30.102-10.174-62.651-13.023-94.063-8.232c-12.048,1.837-24.818,5.317-32.517,14.764
			c-3.381,4.149-5.439,9.06-6.858,14.241C1456.032,386.701,1464.454,393.455,1473.759,397.78z"/>
		<path style="fill:#E7F6FD;" d="M1518.14,664.709c13.3-1.435,20.941-9.385,22.538-18.888c1.597-9.503-1.366-19.137-4.668-28.19
			c-4.057-11.124-8.686-22.039-13.861-32.688c-8.786,16.339-17.661,32.909-21.97,50.953c-1.406,5.889-2.281,12.237-0.075,17.875
			C1502.859,660.808,1510.628,665.52,1518.14,664.709z"/>
		<g>
			<ellipse style="opacity:0.1;" cx="1529.544" cy="374.971" rx="35.716" ry="17.714"/>
		</g>
		<g>
			<path style="fill:#9FA0A2;" d="M1553.538,336.791c0.33-14.461,0.277-28.932-0.178-43.39c-0.003-0.105-0.018-0.211-0.021-0.316
				c-4.51,2.695-9.82,4.035-15.099,4.484c-13.141,1.118-26.568-2.613-37.423-10.078c-0.32,0.996-0.518,2.035-0.643,3.079
				c-1.649,13.736-2.996,27.507-4.087,41.299c9.43,3.987,19.92,5.936,30.188,6.747
				C1535.263,339.325,1544.81,339.024,1553.538,336.791z"/>
			<path style="fill:#8C8D8F;" d="M1526.275,338.616c-10.268-0.81-20.757-2.76-30.188-6.747c-0.943,11.924-1.7,23.863-2.225,35.813
				c-0.061,1.381-0.106,2.826,0.495,4.071c0.605,1.253,1.778,2.122,2.941,2.883c8.001,5.241,17.713,7.822,27.26,7.245
				c10.719,1.751,19.305,0.393,26.927-3.1c1.055-13.976,1.734-27.979,2.053-41.991
				C1544.81,339.024,1535.263,339.325,1526.275,338.616z"/>
			<path style="fill:#AFB0B3;" d="M1538.241,297.568c5.279-0.449,10.588-1.788,15.099-4.484c-0.07-2.095-0.184-4.234-1.05-6.137
				c-1.416-3.112-4.558-5.056-7.685-6.44c-12.251-5.419-27.022-4.756-38.739,1.739c-1.859,1.03-3.724,2.284-4.689,4.178
				c-0.171,0.336-0.244,0.708-0.359,1.065C1511.673,294.956,1525.1,298.686,1538.241,297.568z"/>
		</g>
	</g>
	<g>
		<path style="fill:#FCC6A6;" d="M2505.486,662.763c-0.383,19.142-2.382,38.07-5.104,56.957
			c-5.7,39.772-14.675,79.289-18.844,119.273c-3.743,36.029-3.531,72.398-3.275,108.682v1.106
			c0.085,11.995,0.17,24.033,0.255,36.071c-25.82,6.721-53.001,8.167-79.459,4.466c2.637-10.039,5.19-20.077,7.742-30.116
			c3.361-13.186,6.721-26.841,4.296-40.197c-4.467-24.586-27.649-43.26-29.733-68.144c-1.276-15.101,5.573-29.606,12.208-43.26
			c23.438-47.939,46.833-95.878,70.271-143.817c3.573-7.316,7.401-14.973,13.952-19.865c6.508-4.934,16.632-6.125,22.502-0.425
			C2505.231,648.258,2505.614,655.915,2505.486,662.763z"/>
		<path style="opacity:0.1;" d="M2481.538,838.993c-3.743,36.029-3.531,72.398-3.275,108.682
			c-2.68-8.252-7.402-18.844-15.441-30.116c-18.121-25.394-29.265-40.41,0-94.262c9.273-17.057,23.055-56.999,37.56-103.577
			C2494.681,759.492,2485.706,799.009,2481.538,838.993z"/>
		<path style="opacity:0.1;" d="M1597.862,2127.293c38.561-2.642,98.419-17.417,140.035-82.739
			c41.617-65.322,176.819-182.294,193.529-285.594c0,0,342.633-123.37,478.938-282.717l-165.999-100.101
			c0,0-51.324-47.093-142.634-12.153c-91.31,34.94-295.344,158.906-368.026,178.196s-526.608,260.151-503.966,313.66
			c22.641,53.508,101.627-25.947,144.162-19.959c10.113,1.423,16.547-48,44.197-65.172
			c88.646-55.052,254.021-136.831,282.076-128.725c36.806,10.634-180.664,66.841-102.312,129.125
			c78.352,62.284,191.345,17.874,231.313-29.8c0,0-106.186,183.231-137.169,204.499c-12.862,8.829-84.086,53.206-111.211,89.208
			c-9.29,12.331,51.208-17.134,47.963-6.351C1618.654,2062.236,1563.85,2129.623,1597.862,2127.293z"/>
		<path style="fill:#772F17;" d="M1954.421,1318.468c-41.516,2.722-80.82-24.246-102.854-59.509
			c-22.077-35.306-29.521-77.715-32.881-119.188c-0.936-11.825-1.659-23.99-6.423-34.88c-3.446-7.827-8.805-14.675-13.399-21.907
			c-4.381-6.933-8.04-14.25-9.954-23.183c-1.489-6.551-1.999-13.952-1.234-22.63c18.419-15.738,45.897-23.48,67.336-12.165
			c14.547,7.657,23.948,22.587,29.776,37.943c17.568,46.238,8.422,98.09,16.419,146.922
			C1907.843,1250.197,1926.602,1288.48,1954.421,1318.468z"/>
		<path style="opacity:0.1;" d="M1954.421,1318.468c-41.516,2.722-80.82-24.246-102.854-59.509
			c-22.077-35.306-29.521-77.715-32.881-119.188c-0.936-11.825-1.659-23.99-6.423-34.88c-3.446-7.827-8.805-14.675-13.399-21.907
			c-4.381-6.933-8.04-14.25-9.954-23.183c18.802-0.553,43.09,7.019,48.279,47.896
			C1845.825,1176.268,1844.591,1272.188,1954.421,1318.468z"/>
		<path style="fill:#DD5526;" d="M1696.393,1285.757c-7.018,29.351-16.207,58.105-27.139,86.222
			c-18.163,46.748-41.218,91.624-67.506,134.501c-6.636,10.889-13.484,21.651-20.545,32.243
			c-29.393,44.153-61.976,86.094-96.133,126.717c-7.571-15.484-19.567-29.095-33.434-39.602
			c-11.485-8.72-24.203-15.568-37.432-21.354c6.721-10.974,13.357-21.991,19.397-34.2c7.316-14.675,34.625-41.899,41.899-56.616
			c2.425-4.849,4.807-9.656,7.231-14.505c4.169-8.422,8.337-16.887,12.549-25.31c22.97-46.323,35.944-105.109,58.956-151.431
			c12.974-26.16,26.416-52.958,47.854-72.823c21.396-19.822,52.916-31.52,80.437-21.736
			C1705.326,1235.989,1701.242,1265.552,1696.393,1285.757z"/>
		<path style="fill:#FCC6A6;" d="M1352.751,1712.337c-11.207,18.08-22.979,36.164-38.81,50.372
			c-24.976,22.417-59.668,34.953-77.109,63.626c-8.167,13.428-10.847,32.689,0.475,43.591c3.641,3.507,8.371,5.743,13.276,6.972
			c24.239,6.078,47.59-11.368,65.938-28.333c7.741-7.158,17.332-15.008,27.577-12.516c0.637,6.117-3.811,11.404-7.045,16.636
			c-3.236,5.231-5.037,12.94-0.298,16.859c4.714,3.899,11.821,0.789,16.72-2.874c22.214-16.606,36.189-43.732,36.816-71.459
			c0.142-6.229-0.339-12.58,1.318-18.586c2.26-8.188,8.203-14.765,13.943-21.027c27.061-29.53,53.739-59.484,79.525-90.151
			c-7.591-15.499-19.594-29.112-33.43-39.609c-11.504-8.728-24.206-15.563-37.449-21.348c-7.269,11.842-14.645,23.601-21.539,36.598
			C1376.22,1672.078,1371.234,1682.522,1352.751,1712.337z"/>
		<path style="opacity:0.1;" d="M1669.254,1371.98c-18.163,46.748-41.218,91.624-67.506,134.501
			c-2.552-61.338-10.506-147.05,8.082-187.843C1620.677,1294.818,1645.391,1328.209,1669.254,1371.98z"/>
		<path style="fill:#444545;" d="M2399.072,989.321c-6.489,24.855-13.357,49.607-21.632,73.919
			c-10.65,31.292-23.638,62.043-29.244,94.619c-5.604,32.576-3.023,68.098,15.457,95.504
			c-60.613,28.848-130.275,28.641-197.005,35.943c-66.729,7.303-138.263,26.178-178.648,79.798
			c7.713,65.079,15.698,118.072,23.681,171.065c69.659,10.77,137.502-23.561,199.644-56.828
			c37.854-20.265,75.716-40.534,112.928-61.954c33.954-19.544,67.656-40.267,95.934-67.38
			c28.279-27.113,51.053-61.319,58.549-99.772c4.899-25.133,3.159-51.011,2.12-76.596c-1.242-30.584-1.451-61.199-1.66-91.807
			c-0.23-33.66-0.459-67.32-0.688-100.979C2452.701,991.591,2425.519,993.005,2399.072,989.321z"/>
		<path style="opacity:0.1;" d="M2183.898,1362.231c0,0,36.508-32.957,131.363-47.676c94.855-14.719,128.092-38.604,128.092-38.604
			s-34.987-85.303,24.23-181.164c72.97-118.126,54.251,159.536,54.251,159.536l-20.509,117.965l-138.437,66.655l-110.654,22.428
			L2183.898,1362.231z"/>
		<path style="fill:#444545;" d="M2483.711,1019.475c-4.641,25.266-9.667,50.456-16.129,75.312
			c-8.316,31.991-19.003,63.616-22.195,96.516c-3.19,32.9,2.001,68.136,22.45,94.106c-58.324,33.235-127.812,38.159-193.822,50.357
			s-135.96,36.291-172.285,92.741c12.486,64.334,24.352,116.595,36.217,168.856c70.263,5.61,135.394-33.626,194.916-71.379
			c36.258-22.998,72.524-46.001,108.058-70.104c32.422-21.992,64.506-45.141,90.71-74.264
			c26.205-29.123,46.398-64.913,51.041-103.814c3.035-25.425-0.606-51.106-3.528-76.544c-3.491-30.41-5.955-60.926-8.417-91.436
			c-2.709-33.551-5.417-67.103-8.125-100.654C2537.361,1017.788,2510.357,1021.2,2483.711,1019.475z"/>
		<path style="fill:#FCC6A6;" d="M2554.882,863.477c1.752-59.298,14.065-118.253,10.892-177.492
			c-0.366-6.856-1.32-14.473-6.592-18.871c-6.277-5.238-16.271-3.292-22.424,2.091c-6.154,5.383-9.396,13.271-12.435,20.862
			c-19.822,49.531-39.646,99.063-59.469,148.595c-5.638,14.091-11.385,29.048-9.006,44.037c3.917,24.675,28.392,41.58,34.673,65.762
			c3.416,13.151,1.064,27.029-1.303,40.408c-1.806,10.205-3.634,20.41-5.507,30.606c26.646,1.726,53.65-1.686,78.89-10.308
			c-0.969-11.992-1.937-23.983-2.904-35.975C2556.749,936.684,2553.801,900.087,2554.882,863.477z"/>
		<path style="fill:#772F17;" d="M1608.811,1016.553c-7.849,7.048-20.529,3.736-30.153,8.056c-4.38,1.966-7.903,5.431-11.052,9.055
			c-12.873,14.816-21.099,33.613-23.246,53.122c-1.286,11.687-0.193,24.284,6.693,33.814c3.479,4.814,8.24,8.565,13.273,11.718
			c7.012,4.392,15.381,7.822,23.428,5.898c7.713-1.844,13.458-8.177,18.255-14.492c10.821-14.243,19.497-30.113,25.648-46.91
			c4.272-11.669,7.34-24.411,4.289-36.457C1632.894,1028.311,1622.044,1017.503,1608.811,1016.553z"/>
		<path style="fill:#F15A22;" d="M1756.957,1026.166c16.676-7.609,37.449-2.472,50.914,9.964
			c13.465,12.436,20.179,30.969,21.191,49.271c0.342,6.189,0.031,12.64-2.781,18.163c-5.189,10.189-17.191,14.53-28.093,17.975
			C1790.2,1089.151,1781.276,1055.051,1756.957,1026.166z"/>
		<path style="fill:#F15A22;" d="M1647.846,1231.235c-26.283,31.217-39.512,72.35-40.041,113.155
			c-0.528,40.805,11.11,81.23,29.963,117.423c13.162,25.269,30.49,49.322,54.73,64.293c48.563,29.993,111.473,17.148,166.997,30.382
			c29.75,7.091,57.084,21.655,85.477,33.022c66.257,26.524,142.769,35.13,208.564,7.482c1.244-39.548,2.458-79.493-5.123-118.327
			c-7.581-38.835-24.834-77.026-54.961-102.677c-6.77-5.764-14.192-10.881-22.437-14.211c-9.667-3.905-20.148-5.24-30.223-7.921
			c-66.107-17.589-103.622-87.921-163.539-120.927c-58.476-32.213-129.842-24.935-196.1-16.753
			C1670.8,1217.453,1658.337,1218.775,1647.846,1231.235z"/>
		<path style="fill:#DD5526;" d="M1944.713,1409.546c-1.856-23.355-12.901-47.311-33.475-58.516
			c-30.646-16.689-70.887,1.553-90.323,30.532c-19.437,28.98-23.398,65.3-26.81,100.028
			c-5.657,57.602-11.316,115.204-16.974,172.805c-1.043,10.63-2.104,21.343-5.23,31.556c-3.356,10.964-9.001,21.06-14.44,31.153
			c-14.596,27.085-27.946,54.803-40.325,82.961c38.815,6.083,75.446,26.285,101.413,55.779
			c13.328-24.752,25.277-50.197,35.086-76.563c12.869-34.593,22.081-70.416,31.27-106.163c16.651-64.775,33.3-129.55,49.951-194.325
			C1940.69,1456.102,1946.571,1432.901,1944.713,1409.546z"/>
		<path style="fill:#FCC6A6;" d="M1717.137,1800.066c-19.568,44.51-36.668,90.14-52.103,136.259
			c-3.842,11.479-8.241,23.875-18.393,30.467c-6.42,4.168-14.242,5.37-21.625,7.391c-26.295,7.194-49.056,26.369-60.61,51.059
			c3.358,15.312,18.924,15.348,27.103,9.167c8.178-6.181,14.951-15.894,25.172-16.664c1.856-0.14,3.901,0.12,5.208,1.444
			c2.873,2.911,0.051,7.705-2.731,10.703c-16.75,18.044-33.499,36.089-50.249,54.133c-4.618,4.974-9.489,10.511-9.962,17.282
			c-0.918,13.153,14.32,20.985,27.189,23.856c16.585,3.701,34.311,5.112,50.272-0.717c18.081-6.603,31.623-21.541,44.393-35.942
			c19.389-21.864,39.376-44.806,47.026-73.009c1.894-6.981,2.992-14.177,5.259-21.046c4.203-12.733,12.221-23.792,19.983-34.725
			c23.693-33.371,46.09-67.87,65.481-103.88C1792.583,1826.351,1755.952,1806.148,1717.137,1800.066z"/>
		<path style="fill:#FCC6A6;" d="M1778.787,1295.371c-5.232,16.334-17.397,29.521-30.541,40.495
			c-7.359,6.125-15.356,11.91-24.586,14.335c-9.273,2.425-20.035,0.978-26.756-5.828c-7.189-7.189-8.209-18.249-11.698-27.819
			c-4.466-12.208-12.676-21.609-22.544-29.861c-12.974-10.932-28.755-19.865-42.367-30.669
			c-6.891-5.487-13.271-11.485-18.418-18.418c2.637-25.097,15.909-40.07,30.158-51.937c16.972-14.08,37.177-25.777,59.211-26.671
			c30.499-1.276,57.595,17.823,86.605,27.351c1.233,22.502,2.467,44.962,3.701,67.463
			C1782.317,1267.765,1783.04,1282.057,1778.787,1295.371z"/>
		<path style="opacity:0.1;" d="M1662.661,1286.693c-12.974-10.932-28.755-19.865-42.367-30.669l75.205-34.072
			C1699.2,1247.304,1680.016,1270.955,1662.661,1286.693z"/>
		<path style="fill:#FCC6A6;" d="M1669.325,1042.844c-30.335-6.912-66.182-12.501-89.12,8.52
			c-7.812,7.159-13.054,16.677-17.345,26.365c-19.9,44.934-21.756,95.572-21.229,144.712c0.235,21.907,2.533,47.099,20.377,59.81
			c17.714,12.619,42.45,6.659,62.006-2.858c50.552-24.599,90.324-70.473,107.507-124.002c9.865-30.733,10.454-69.141-14.017-90.189
			C1704.699,1054.188,1688.365,1047.182,1669.325,1042.844z"/>
		<path style="fill:#772F17;" d="M1580.123,1021.27c-13.684,10.356-14.548,31.786-6.163,46.759
			c8.385,14.973,23.561,24.755,38.64,32.947c13.254,7.2,26.911,13.658,40.886,19.333c15.317,6.22,31.35,11.691,44.101,22.213
			c14.975,12.357,23.863,30.357,34.849,46.365s26.261,31.332,45.597,33.089c5.783-25.578,16.554-49.751,23.63-75.002
			c7.075-25.251,10.279-52.817,0.914-77.31c-4.074-10.654-10.38-20.319-17.306-29.381c-15.756-20.618-35.32-38.795-58.739-49.972
			C1677.819,967.061,1623.464,988.469,1580.123,1021.27z"/>
		<path style="fill:#FCC6A6;" d="M1703.235,1180.516c8.308-8.373,17.156-17.071,28.522-20.224
			c11.366-3.154,25.843,1.606,29.167,12.924c1.578,5.374,0.42,11.199-1.616,16.417c-5.096,13.061-15.838,23.805-28.898,28.902
			c-13.06,5.097-28.241,4.471-40.836-1.685C1692.125,1208.741,1687.837,1196.033,1703.235,1180.516z"/>
	</g>
</g>
</svg>
