<?xml version="1.0" encoding="utf-8"?>
<!-- Generator: Adobe Illustrator 27.5.0, SVG Export Plug-In . SVG Version: 6.00 Build 0)  -->
<svg version="1.1" xmlns="http://www.w3.org/2000/svg" xmlns:xlink="http://www.w3.org/1999/xlink" x="0px" y="0px"
	 viewBox="0 0 1501.89 1122" style="enable-background:new 0 0 1501.89 1122;" xml:space="preserve">
<g id="background">
	<rect x="0" style="fill:#FFFFFF;" width="1500" height="1122"/>
</g>
<g id="shadow">
</g>
<g id="object">
	<g>
		<g>
			<path style="fill:#9E6652;" d="M469.24,390.078c11.607,3.175,20.744,13.916,22.017,25.882c6.343-5.909,9.581-14.982,8.413-23.572
				c-1.168-8.59-6.711-16.469-14.402-20.47c-7.196,3.819-12.775,10.576-15.164,18.364L469.24,390.078z"/>
		</g>
		<g>
			<g>
				<path style="fill:#F1F1F1;" d="M696.68,353.409l-138.255-0.5c-51.129-0.185-92.435-44.165-92.26-98.232v0
					c0.175-54.067,41.765-97.748,92.893-97.563l137.906,0.499L696.68,353.409z"/>
			</g>
			<g>
				<path style="fill:#6596C1;" d="M701.562,353.427l268.668,0.971c41.108,0.149,74.55-33.064,74.682-74.173l0.152-46.968
					c0.133-41.086-33.058-74.505-74.144-74.654l-268.725-0.971L701.562,353.427z"/>
			</g>
			<g>
				<path style="fill:#FFFFFF;" d="M757.961,222.249l7.315,0.027l-0.207,64.164l-7.314-0.027l0.094-29.005l-28.095-0.102
					l-0.094,29.005l-7.314-0.026l0.207-64.164l7.314,0.026l-0.094,29.006l28.095,0.102L757.961,222.249z"/>
				<path style="fill:#FFFFFF;" d="M782.897,222.34l32.25,0.116l-0.02,6.153l-24.936-0.09l-0.072,22.325l23.19,0.084l-0.02,6.153
					l-23.19-0.084l-0.076,23.38l26.599,0.097l-0.019,6.152l-33.913-0.123L782.897,222.34z"/>
				<path style="fill:#FFFFFF;" d="M841.828,222.553l9.725,0.035l19.659,64.236l-7.231-0.026l-5.839-19.358l-23.107-0.083
					l-5.964,19.315l-7.231-0.026L841.828,222.553z M846.71,229.427l-9.828,31.783l19.367,0.07L846.71,229.427z"/>
				<path style="fill:#FFFFFF;" d="M881.434,286.861l0.207-64.164l7.315,0.026l-0.188,58.012l22.609,0.082l-0.02,6.152
					L881.434,286.861z"/>
				<path style="fill:#FFFFFF;" d="M908.884,228.949l0.02-6.153l39.896,0.145l-0.02,6.153l-16.291-0.06l-0.187,58.011l-7.315-0.026
					l0.187-58.011L908.884,228.949z"/>
				<path style="fill:#FFFFFF;" d="M993.601,223.102l7.315,0.026l-0.207,64.164l-7.315-0.026l0.094-29.005l-28.094-0.102
					l-0.094,29.005l-7.315-0.026l0.207-64.164l7.314,0.026l-0.094,29.006l28.094,0.102L993.601,223.102z"/>
			</g>
			<g>
				<g>
					<path style="fill:#6596C1;" d="M646.217,239.342c-11.709-0.042-23.419-0.085-35.128-0.127c-1.097-0.004-2.194-0.008-3.29-0.012
						c0.029-9.018,0.058-18.035,0.088-27.053c0.015-4.524,0.029-9.049,0.044-13.573c0.005-1.508-1.199-2.793-2.628-2.798
						c-7.277-0.026-14.555-0.053-21.832-0.079c-1.426-0.005-2.641,1.268-2.646,2.779c-0.04,12.382-0.08,24.765-0.12,37.147
						c-0.004,1.16-0.008,2.32-0.011,3.479c-8.528-0.031-17.055-0.062-25.583-0.092c-4.279-0.015-8.557-0.031-12.836-0.046
						c-1.426-0.005-2.641,1.268-2.646,2.779c-0.025,7.695-0.05,15.391-0.075,23.087c-0.003,0.855,0.296,1.505,0.751,1.955
						c0.423,0.504,1.047,0.841,1.878,0.844c11.709,0.042,23.419,0.085,35.128,0.127c1.097,0.004,2.194,0.008,3.29,0.012
						c-0.029,9.018-0.058,18.035-0.088,27.053c-0.015,4.524-0.029,9.049-0.044,13.573c-0.005,1.508,1.199,2.793,2.628,2.798
						c7.277,0.026,14.555,0.053,21.832,0.079c0.808,0.003,1.423-0.313,1.849-0.794c0.477-0.447,0.795-1.107,0.798-1.985
						c0.04-12.382,0.08-24.765,0.12-37.147c0.004-1.16,0.008-2.32,0.011-3.479c8.528,0.031,17.055,0.062,25.583,0.092
						c4.279,0.016,8.557,0.031,12.836,0.046c1.426,0.005,2.641-1.268,2.646-2.779c0.025-7.696,0.05-15.391,0.075-23.087
						C648.851,240.633,647.646,239.347,646.217,239.342z"/>
				</g>
			</g>
		</g>
		<g>
			<g>
				<path style="fill:#4F397A;" d="M1342.853,263.489l-41.411,9.468c-1.696-1.956-4.297-2.947-6.888-2.355l-109.3,24.991
					c-2.592,0.593-4.503,2.615-5.181,5.114l-41.411,9.468l10.115,44.239l40.961-9.366c1.617,2.558,4.6,3.965,7.574,3.285
					l109.3-24.991c2.974-0.68,5.049-3.244,5.394-6.25l40.961-9.366L1342.853,263.489z"/>
			</g>
			<g style="opacity:0.12;">
				<polygon points="1152.55,308.233 1162.394,351.308 1178.079,347.722 1157.014,307.061 				"/>
			</g>
			<g>
				<g>
					<path style="fill:#5B4184;" d="M1158.786,410.878l-9.86,2.255c-8.628,1.973-17.221-3.422-19.194-12.05l-28.267-123.627
						c-1.973-8.628,3.422-17.221,12.05-19.194l9.86-2.255c8.628-1.973,17.221,3.422,19.194,12.05l28.267,123.628
						C1172.808,400.312,1167.413,408.906,1158.786,410.878z"/>
				</g>
				<g>
					<path style="fill:#5B4184;" d="M1117.959,420.213l-9.86,2.254c-8.628,1.973-17.221-3.422-19.194-12.05l-28.267-123.628
						c-1.973-8.628,3.422-17.221,12.05-19.194l9.86-2.254c8.628-1.973,17.221,3.422,19.194,12.05l28.267,123.628
						C1131.982,409.647,1126.587,418.24,1117.959,420.213z"/>
				</g>
				<g>
					<path style="fill:#5B4184;" d="M1077.997,371.562l-4.539-0.382c-3.302-0.278-6.362-3.61-7.372-8.029l-5.459-23.875
						c-1.01-4.419,0.297-8.749,3.15-10.435l3.922-2.316c3.925-2.318,8.987,1.264,10.377,7.342l6.076,26.573
						C1085.542,366.519,1082.539,371.945,1077.997,371.562z"/>
				</g>
			</g>
			<g>
				<g>
					<path style="fill:#5B4184;" d="M1362.858,364.218l9.86-2.255c8.628-1.973,14.023-10.566,12.05-19.194l-28.267-123.627
						c-1.973-8.628-10.566-14.023-19.194-12.05l-9.86,2.255c-8.628,1.973-14.023,10.566-12.05,19.194l28.267,123.627
						C1345.637,360.796,1354.23,366.191,1362.858,364.218z"/>
				</g>
				<g>
					<path style="fill:#5B4184;" d="M1403.684,354.883l9.86-2.254c8.628-1.973,14.023-10.566,12.05-19.194l-28.267-123.627
						c-1.973-8.628-10.566-14.023-19.194-12.05l-9.86,2.255c-8.628,1.973-14.023,10.566-12.05,19.194l28.267,123.627
						C1386.463,351.461,1395.057,356.856,1403.684,354.883z"/>
				</g>
				<g>
					<path style="fill:#5B4184;" d="M1418.534,293.7l3.922-2.316c2.853-1.685,4.161-6.016,3.15-10.435l-5.459-23.875
						c-1.01-4.419-4.07-7.751-7.372-8.029l-4.539-0.382c-4.542-0.382-7.545,5.044-6.155,11.122l6.076,26.573
						C1409.547,292.436,1414.609,296.018,1418.534,293.7z"/>
				</g>
			</g>
		</g>
		<g>
			<g>
				<g>
					<polygon style="fill:#EBCEB1;" points="318.304,393.692 320.95,374.04 312.6,372.542 307.808,385.599 304.188,383.058 
						303.971,400.151 312.441,402.879 					"/>
				</g>
				<g>
					<polygon style="fill:#CAB5A1;" points="193.649,497.257 268.423,476.751 302.104,394.339 318.634,400.611 300.435,506.725 
						214.587,552.38 					"/>
				</g>
			</g>
			<g>
				<g>
					<g>
						<polygon style="fill:#514943;" points="207.912,697.24 207.912,723.594 243.051,837.795 234.266,956.39 256.228,960.782 
							291.367,815.834 290.023,773.188 273.797,686.212 						"/>
					</g>
					<g>
						<polygon style="fill:#514943;" points="235.786,728.444 200.478,970.024 184.429,970.024 174.293,838.253 152.331,706.482 
													"/>
					</g>
					<g>
						<polygon style="fill:#363636;" points="252.592,963.794 269.357,981.538 264.514,990.532 229.922,973.927 236.293,960.782 
													"/>
					</g>
					<g>
						<polygon style="fill:#363636;" points="200.181,975.657 220.847,988.649 218.405,998.568 180.761,991.133 183.646,976.813 
													"/>
					</g>
				</g>
				<g>
					<g>
						<path style="fill:#EBCEB1;" d="M256.336,433.124c-14.234,1.047-27.543-10.642-41.553-7.74
							c-9.109,1.887-16.3,9.966-19.08,19.071c-1.296,4.244-1.755,8.87-0.487,13.09c0.823,2.739,2.34,5.207,4.127,7.401
							c2.389,2.932,5.311,5.369,8.554,7.24c-1.781,2.871-3.823,5.581-6.093,8.084c6.564,2.514,13.129,5.028,19.693,7.542
							c1.451-3.772,2.901-7.544,4.352-11.316c1.974-0.109,3.941-0.39,5.869-0.89c11.655-3.024,21.318-13.232,23.917-25.266
							C256.854,444.703,256.619,438.872,256.336,433.124z"/>
					</g>
					<g>
						<polygon style="fill:#4E4E4E;" points="252.742,437.419 208.729,432.189 200.187,465.809 187.758,455.945 194.163,400.934 
							256.276,399.597 283.172,415.374 282.033,431.185 257.984,447.373 						"/>
					</g>
				</g>
				<g>
					<path style="fill:#CAB5A1;" d="M235.658,493.017l-52.277-20.738c0,0-24.421,51.605-45.541,125.526s6.82,176.578,6.82,176.578
						s145.774-29.759,169.689-34.452L267.17,592.088L235.658,493.017z"/>
				</g>
			</g>
			<g>
				<g>
					<path style="fill:#B22759;" d="M375.473,231.577c-20.25-1.535-45.657,9.41-51.638,26.726
						c-6.174-17.248-37.286-27.709-57.518-25.947c-53.389,4.65-71.136,64.316-48.266,104.245
						c12.309,21.491,29.93,40.243,49.135,57.062c16.082,14.084,57.526,43.915,57.651,43.812
						c0.126,0.102,41.234-30.191,57.157-44.454c19.015-17.033,36.425-35.981,48.493-57.608
						C452.91,295.23,428.91,235.63,375.473,231.577z"/>
				</g>
				<g style="opacity:0.12;">
					<path d="M420.132,340.532c-13.222,16.156-28.553,31.339-45.215,44.396c-16.113,12.626-35.014,23.653-55.864,27.419
						c-10.015,1.809-19.832,1.621-29.134-0.463c17.11,13.053,35.702,26.393,35.786,26.324c0.126,0.102,41.234-30.191,57.157-44.454
						c19.015-17.033,36.425-35.981,48.493-57.608c3.905-6.998,6.398-14.585,7.577-22.365
						C433.443,323.146,427.063,332.063,420.132,340.532z"/>
				</g>
				<g>
					<path style="fill:#FFFFFF;" d="M419.147,323.608c-13.985,0.433-27.969,0.866-41.954,1.299
						c-5.164-18.333-10.329-36.667-15.493-55c-0.746-2.65-4.69-2.429-5.508,0.031c-10.65,32.023-21.299,64.046-31.949,96.069
						c-0.617,1.855-1.234,3.71-1.851,5.564c-7.481-20.999-14.962-41.999-22.443-62.998c-1.2-3.368-2.4-6.736-3.599-10.104
						c-0.723-2.03-4.084-2.818-5.223-0.613c-5.295,10.252-10.59,20.505-15.886,30.757c-15.652,0.088-31.305,0.175-46.957,0.263
						c-3.675,0.021-3.651,5.397,0.03,5.376c16.242-0.091,32.484-0.182,48.726-0.273c0.95-0.005,2.027-0.511,2.458-1.345
						c4.538-8.786,9.075-17.572,13.613-26.357c7.675,21.544,15.35,43.087,23.025,64.631c1.2,3.368,2.4,6.736,3.599,10.103
						c0.9,2.527,4.651,2.546,5.508-0.031c10.65-32.023,21.299-64.046,31.949-96.069c0.509-1.532,1.019-3.064,1.528-4.595
						c4.514,16.026,9.028,32.051,13.543,48.077c0.314,1.113,1.53,1.996,2.765,1.958c14.716-0.456,29.432-0.911,44.148-1.367
						C422.845,328.871,422.83,323.495,419.147,323.608z"/>
				</g>
			</g>
			<g>
				<g>
					<polygon style="fill:#EBCEB1;" points="337.413,406.828 339.764,387.138 331.393,385.766 326.797,398.893 323.139,396.407 
						323.18,413.501 331.69,416.102 					"/>
				</g>
				<g>
					<polygon style="fill:#CAB5A1;" points="214.329,512.254 288.787,490.627 321.225,407.718 337.847,413.741 321.245,520.116 
						236.093,567.056 					"/>
				</g>
			</g>
		</g>
		<g>
			<g>
				<g>
					<path style="fill:#EACDB0;" d="M1314.828,482.398c6.404-0.278,12.809-0.556,19.213-0.835c0.345-5.1,0.282-10.227-0.189-15.317
						c0.057,0.618,10.306-4.785,11.213-6.011c2.61-3.528,2.914-9.455,4-13.653c2.313-8.942,4.487-19.011-0.239-26.947
						c-4.894-8.219-15.482-11.032-25.045-11.282c-12.006-0.314-25.411,3.186-31.585,13.488c-5.576,9.305,1.459,23.028,3.468,32.868
						c0.99,4.851,2.502,10.388,7.009,12.436c2.393,1.088,5.297,0.97,7.433,2.501
						C1313.875,472.348,1313.027,478.127,1314.828,482.398z"/>
				</g>
				<g>
					<path style="fill:#3A3029;" d="M1273.279,404.051c-0.714-6.636-1.428-13.273-2.141-19.909
						c-0.265-2.465-0.521-5.022,0.276-7.369c1.325-3.904,5.29-6.342,9.269-7.419c3.979-1.077,8.169-1.118,12.196-2.004
						c4.297-0.946,8.475-2.86,12.871-2.667c8.36,0.369,14.759,8.122,23.022,9.443c11.441,1.828,21.947-3.413,28.855,10.051
						c1.269,2.474,1.621,5.322,2.74,7.867c1.446,3.288,4.077,5.881,6.135,8.825c9.046,12.945,6.121,32.591-4.844,43.562
						c-5.316,5.319-7.49,10.131-14.815,11.836c3.354-6.818-1.075-33.978-10.258-37.026c-2.432-0.806-9.737,2.169-12.432,2.563
						c-5.968,0.872-11.77,1.829-17.384,4.154c-8.333,3.451-17.378,5.897-26.396,6.57c-1.153,0.086-2.443,0.129-3.314-0.632
						c-0.82-0.716-0.989-1.905-1.106-2.987C1275.062,420.623,1274.171,412.337,1273.279,404.051z"/>
				</g>
			</g>
			<g>
				<g>
					<g>
						<polygon style="fill:#3A3029;" points="1416.595,971.99 1419.171,982.809 1400.108,998.778 1386.714,990.535 
							1394.957,977.141 1414.02,961.171 						"/>
					</g>
					<g>
						<polygon style="fill:#59595B;" points="1372.844,637.313 1380.666,670.171 1370.749,822.982 1416.898,968.234 
							1396.459,977.634 1303.992,809.94 1293.011,756.372 1287.427,643.118 						"/>
					</g>
				</g>
				<g>
					<g>
						<polygon style="fill:#59595B;" points="1244.758,650.342 1243.117,792.292 1269.866,975.316 1290.435,975.316 
							1303.425,806.438 1331.572,637.559 						"/>
					</g>
					<g>
						<polygon style="fill:#3A3029;" points="1290.316,972.868 1290.316,983.989 1268.074,995.11 1256.952,983.989 
							1268.074,972.868 						"/>
					</g>
				</g>
				<g>
					<path style="fill:#F2D263;" d="M1397.312,677.493c0.284,12.951-0.124,30.405-5.099,31.044c-0.932,0.12-1.826-0.341-2.641-0.786
						c-8.604-4.697-14.691-11.309-23.171-15.847c-8.889-4.757-19.057-7.284-29.03-9.054c-14.912-2.725-30.153-4.415-45.346-4.68
						c-11.944-0.208-23.944,0.809-35.837,1.799c-9.895,0.824-19.102,3.757-29.182,3.058c-10.332-0.716-20.509-3.881-29.34-9.309
						c-0.323-0.199-0.666-0.425-0.8-0.78c-0.147-0.388-0.004-0.82,0.138-1.21c2.109-5.783,3.627-11.51,7.459-16.299
						c4.279-5.348,7.321-12.143,10.414-18.231c6.447-12.687,12.518-25.984,17.023-39.5c6.808-18.372,14.587-36.267,21.168-54.699
						c4.562-12.776,8.723-25.779,14.913-37.892c4.847-9.484,13.485-23.338,23.891-27.514c3.522-1.413,7.407-1.541,11.201-1.65
						c11.507-0.331,23.015-0.661,34.522-0.992c4.195-0.121,8.558-0.209,12.383,1.519c5.731,2.59,8.97,8.609,11.802,14.224
						c12.698,25.178,20.794,52.325,25.33,80.319c2.368,14.617,4.558,29.263,6.263,43.964c1.902,16.405,3.209,32.885,3.484,49.39
						C1396.886,666.203,1397.177,671.34,1397.312,677.493z"/>
				</g>
				<g>
					<path style="fill:#FFFFFF;" d="M1320.531,538.612c-0.433,6.521,0.497,13.046,1.425,19.517
						c5.649,39.412,11.299,78.824,16.948,118.237c-30.898-0.269-61.796-0.538-92.695-0.807c1.119-14.767,2.238-29.534,3.356-44.3
						c0.717-9.467,1.439-18.967,3.438-28.257c3.224-14.985,9.691-29.09,16.112-43.061c11.865-25.815,23.731-51.629,35.596-77.444
						c0.635-1.381,1.303-2.807,2.473-3.801c1.4-1.19,3.312-1.589,5.141-1.907c8.833-1.535,18.806-2.832,27.682-1.53
						c2.219,8.08-5.967,22.128-9.001,29.644C1326.591,515.842,1321.322,526.699,1320.531,538.612z"/>
				</g>
			</g>
			<g>
				<polygon style="fill:#F2D263;" points="1262.883,523.03 1219.386,458.291 1208.259,356.124 1226.467,352.078 1250.745,445.14 
					1293.23,482.568 				"/>
			</g>
			<g>
				<polygon style="fill:#EACDB0;" points="1226.467,352.078 1226.467,345.446 1229.502,338.927 1228.49,333.87 1223.433,333.87 
					1221.41,344.997 1206.273,348.602 1208.259,356.124 				"/>
			</g>
			<g>
				<g>
					<polygon style="fill:#EACDB0;" points="1285.432,600.816 1276.047,604.55 1267.922,600.898 1266.274,602.227 1267.828,604.322 
						1260.217,603.221 1254.889,606.473 1254.288,614.757 1259.06,621.889 1267.348,621.614 1275.718,616.398 1288.786,611.843 
											"/>
				</g>
				<g>
					<polygon style="fill:#F2D263;" points="1274.6,598.33 1328.634,575.631 1334.703,510.891 1372.131,527.076 1363.5,599.136 
						1281.713,616.701 					"/>
				</g>
			</g>
		</g>
		<g>
			<g>
				<g>
					<g>
						<polygon style="fill:#8C9498;" points="689.169,704.328 696.324,802.228 720.013,964.31 738.228,964.31 749.732,814.755 
							754.828,693.756 						"/>
					</g>
					<g>
						<polygon style="fill:#3A3029;" points="738.123,962.142 738.123,971.991 718.426,981.839 708.577,971.991 718.426,962.142 
													"/>
					</g>
				</g>
			</g>
			<g>
				<g>
					<g>
						<polygon style="fill:#8C9498;" points="818.194,681.255 811.271,818.485 795.42,976.024 776.763,976.024 761.601,826.763 
							739.45,669.661 						"/>
					</g>
					<g>
						<polygon style="fill:#3A3029;" points="776.871,973.803 776.871,983.891 797.046,993.978 807.133,983.891 797.046,973.803 
													"/>
					</g>
				</g>
			</g>
			<g>
				<g>
					<path style="fill:#EACDB0;" d="M754.608,461.228c6.364-0.622,12.729-1.245,19.093-1.867c0.069-5.099-0.271-10.204-1.014-15.25
						c5.306-1.858,11.439-4.646,12.371-10.191c0.294-1.746-0.006-3.532-0.305-5.277c-1.237-7.216-2.474-14.431-3.71-21.647
						c-0.428-2.496-0.883-5.065-2.237-7.204c-2.376-3.754-6.995-5.402-11.371-6.168c-11.168-1.954-23.344,0.449-32.016,7.754
						c-2.308,1.944-4.395,4.282-5.416,7.122c-1.573,4.379-0.407,9.212,0.768,13.714c1.085,4.155,2.17,8.31,3.255,12.465
						c1.248,4.779,3.052,10.212,7.652,12.01c2.443,0.954,5.328,0.681,7.539,2.091C753.117,451.269,752.584,457.07,754.608,461.228z"
						/>
				</g>
				<g>
					<path style="fill:#3A3029;" d="M692.429,389.112c-0.124-4.947,0.572-9.952,1.56-14.462
						c1.698-7.751,10.842-11.235,18.758-11.784c17.097-1.186,33.595-8.937,50.291-2.955c9.543,3.42,22.36,4.241,30.997,9.062
						c3.606,2.013,6.482,5.156,8.722,8.626c7.761,12.022,7.781,28.585,0.051,40.627c-1.734,2.702-3.809,5.17-5.988,7.527
						c-4.511,4.879-9.908,10.906-16.106,12.708c-0.14-5.544,4.933-23.016,0.682-27.565c-6.746-7.219-22.025-4.724-30.409-2.961
						c-9.145,1.924-17.302,8.387-26.367,9.758c-6.523,0.986-14.842-2.223-20.384-5.602
						C695.552,406.797,692.653,398.05,692.429,389.112z"/>
				</g>
			</g>
			<g>
				<g>
					<g>
						<polygon style="fill:#EACDB0;" points="865.036,369.539 868.731,358.04 863.716,348.643 865.168,346.569 867.794,348.253 
							865.864,339.262 869.312,332.643 879.146,331.255 888.041,336.37 888.383,346.28 882.839,356.688 878.463,372.647 						"/>
					</g>
				</g>
				<g>
					<polygon style="fill:#AECCDC;" points="864.518,361.055 882.726,362.067 864.518,452.095 812.578,505.666 793.527,448.511 
						837.206,424.783 					"/>
				</g>
			</g>
			<g>
				<g>
					<g>
						<polygon style="fill:#EACDB0;" points="663.471,383.88 659.776,372.381 664.791,362.985 663.34,360.911 660.714,362.594 
							662.644,353.604 659.196,346.985 649.362,345.597 640.467,350.711 640.124,360.622 645.669,371.03 650.045,386.989 						"/>
					</g>
				</g>
				<g>
					<polygon style="fill:#AECCDC;" points="663.989,375.397 645.781,376.408 663.989,466.436 719.118,522.327 742.975,459.794 
						691.301,439.125 					"/>
				</g>
			</g>
			<g>
				<polygon style="fill:#AECCDC;" points="739.49,456.318 799.813,458.872 830.262,574.773 855.408,735.446 661.266,740.167 
					706.928,513.089 				"/>
			</g>
		</g>
		<g>
			<g>
				<g>
					<polygon style="fill:#EACDB0;" points="585.489,484.293 592.839,477.364 592.962,468.458 594.862,467.525 596.105,469.819 
						598.324,462.455 603.522,459.001 611.284,461.956 615.732,469.294 611.98,476.69 603.716,482.073 594.066,491.992 					"/>
				</g>
				<g>
					<polygon style="fill:#5FA69B;" points="587.813,473.425 546.656,522.204 492.919,470.149 484.562,532.379 549.977,564.81 
						601.458,487.634 					"/>
				</g>
			</g>
			<g>
				<g>
					<polygon style="fill:#514943;" points="425.26,961.894 424.369,970.691 440.352,981.66 449.68,973.949 442.134,964.066 
						426.152,953.097 					"/>
				</g>
				<g>
					<polygon style="fill:#CAB5A1;" points="425.659,692.93 422.952,719.646 446.92,811.44 424.665,958.945 441.046,964.59 
						484.244,820.58 491.099,778.686 490.849,689.997 					"/>
				</g>
			</g>
			<g>
				<g>
					<polygon style="fill:#CAB5A1;" points="551.655,722.707 517.198,969.873 501.535,969.873 498.716,811.44 470.21,700.237 					
						"/>
				</g>
				<g>
					<polygon style="fill:#514943;" points="501.625,967.919 501.625,976.797 518.563,985.675 527.031,976.797 518.563,967.919 
											"/>
				</g>
			</g>
			<g>
				<path style="fill:#5FA69B;" d="M513.174,468.978c-1.241-2.028-2.897-3.755-5.171-5.038c-15.56-8.781-41.353-1.047-58.238-1.047
					c-4.99,52.537-18.785,102.609-27.695,154.191c-9.463,54.784-20.118,109.363-31.954,163.684c-0.67,3.076,46.992,1.524,51.487,1.6
					c45.853,0.774,105.875,0.616,150.12-13.248c-28.237-75.804-38.546-157.367-60.781-235.143
					c-3.904-13.655-8.539-27.104-12.055-40.869C516.849,485.128,517.163,475.498,513.174,468.978z"/>
			</g>
			<g>
				<path style="fill:#EACDB0;" d="M515.98,407.008c-5.997-31.663-45.556-26.192-56.905-0.551
					c-6.453,14.581,0.307,35.222,13.217,45.368c0.277,2.803,0.641,10.536,2.784,12.411c2.321,2.03,9.632,0.096,12.497-0.568
					c0.795-0.184,1.625-0.412,2.201-0.989c0.721-0.722,0.842-2.657,0.856-4.801c2.103-0.143,4.257-0.553,6.45-1.273
					c9.201-3.021,15.865-11.539,18.621-20.823C518.455,426.497,517.782,416.523,515.98,407.008z"/>
			</g>
			<g>
				<path style="fill:#9E6652;" d="M457.489,532.694c0.376-0.021,0.681-0.051,0.904-0.089c6.978-1.198,18.176-3.451,21.416-10.804
					c3.32-7.533-2.579-21.201-3.552-29.029c-1.48-11.9-1.971-23.902-2.544-35.871c-0.516-10.791,3.34-21.425,8.984-30.636
					c5.645-9.212,13.029-17.208,20.302-25.198c3.025-3.323,6.155-6.876,7.079-11.274c1.022-4.863-0.923-9.997-4.131-13.793
					c-4.936-5.841-10.794-8.747-18.248-8.925c-26.165-0.625-45.834,14.853-53.257,40.405c-10.636,36.616,2.651,71.555,0.672,107.991
					c-0.338,6.221-2.395,12.34-5.883,17.503C430.157,531.602,451.845,533.016,457.489,532.694z"/>
			</g>
			<g>
				<g>
					
						<ellipse transform="matrix(0.7071 -0.7071 0.7071 0.7071 -272.4347 519.213)" style="fill:#AECCDC;" cx="490.528" cy="588.464" rx="122.651" ry="122.651"/>
				</g>
				<g>
					
						<ellipse transform="matrix(0.7071 -0.7071 0.7071 0.7071 -272.4347 519.213)" style="fill:#FFFFFF;" cx="490.528" cy="588.464" rx="106.297" ry="106.297"/>
				</g>
				<g style="opacity:0.07;">
					<g>
						<path style="fill:#2E4661;" d="M563.479,511.839c15.698,18.525,25.17,42.492,25.17,68.676
							c0,58.706-47.591,106.297-106.297,106.297c-28.245,0-53.914-11.02-72.95-28.99c19.498,23.01,48.604,37.621,81.127,37.621
							c58.706,0,106.297-47.591,106.297-106.297C596.826,558.684,584.009,531.219,563.479,511.839z"/>
					</g>
				</g>
				<g>
					<g>
						<path style="fill:#B22B48;" d="M482.953,589.471l-0.083,1.975c-0.072,1.728,1.27,3.188,2.998,3.26l99.564,4.168
							c1.728,0.072,3.188-1.27,3.26-2.998l0.083-1.975c0.072-1.728-1.27-3.188-2.998-3.26l-99.564-4.168
							C484.485,586.4,483.026,587.742,482.953,589.471z"/>
					</g>
					<g>
						<path style="fill:#2E4661;" d="M494.617,581.39v-52.207c0-2.258-1.83-4.088-4.088-4.088l0,0c-2.258,0-4.088,1.83-4.088,4.088
							v52.207c-2.442,1.414-4.088,4.049-4.088,7.074c0,4.516,3.661,8.177,8.177,8.177s8.177-3.661,8.177-8.177
							C498.705,585.44,497.058,582.805,494.617,581.39z"/>
					</g>
				</g>
			</g>
			<g>
				<g>
					<path style="fill:#5FA69B;" d="M404.625,672.119c-2.096,2.626-5.871,3.453-9.165,2.79c-3.294-0.663-6.193-2.576-8.841-4.645
						c-3.194-2.495-6.163-5.279-8.859-8.305c-1.549-1.739-3.04-3.614-3.762-5.828c-0.722-2.215-0.544-4.851,0.985-6.608
						c1.048-1.205,2.577-1.858,4.05-2.474c1.044-0.436,2.164-0.881,3.276-0.669c0.933,0.177,1.714,0.793,2.455,1.388
						C389.845,651.858,411.269,663.798,404.625,672.119z"/>
				</g>
				<g>
					<g>
						<path style="fill:#EACDB0;" d="M394.322,672.138c0.417,0.117,0.845,0.205,1.283,0.259c1.366,0.168,3.443,0.142,4.702-0.494
							c-0.002,0.001,3.711-2.6,2.084-2.564l-3.372,0.076l6.844-7.214l0.543-8.052l-8.297-6.818l-11.092-0.286
							c-3.322,5.046-8.067,9.717-4.145,15.886c1.163,1.83,2.818,3.285,4.449,4.714C389.423,669.484,391.678,671.396,394.322,672.138
							z"/>
					</g>
				</g>
			</g>
		</g>
		<g>
			<g>
				<g>
					<path style="fill:#8C9498;" d="M1002.14,467.557c-0.312,0.116-0.622,0.234-0.93,0.353
						c-14.745,5.736-26.323,31.474-32.959,46.599c-17.128,39.042-24.611,79.726-25.971,122.872
						c-0.732,23.232-0.458,46.503,0.279,69.75c0.204,6.423,5.772,63.923,2.925,65.296c29.207-14.086,58.903-27.391,89.994-35.432
						c31.091-8.041,63.798-10.683,95.204-3.359c-9.552-72.99-23.394-147.254-43.359-217.781c-2.388-8.435-3.984-17.427-7.523-25.422
						c-4.076-9.207-10.193-11.925-17.923-17.368c-2.648-1.865-5.316-3.74-8.227-5.041
						C1038.307,461.172,1017.673,461.801,1002.14,467.557z"/>
				</g>
				<g>
					<g>
						<g>
							<polygon style="fill:#EBCEB1;" points="957.212,697.292 990.684,833.148 991.432,933.287 1007.685,936.801 1014.036,843.669 
								1029.99,673.113 							"/>
						</g>
					</g>
					<g>
						<polygon style="fill:#514943;" points="1007.89,939.609 1010.516,949.766 1008.212,969.693 995.042,969.717 990.109,940.911 
							991.638,936.095 						"/>
					</g>
				</g>
				<g>
					<g>
						<polygon style="fill:#EBCEB1;" points="1085.012,682.286 1087.965,799.679 1072.295,965.479 1056.251,966.654 
							1050.486,814.655 1017.813,676.859 						"/>
					</g>
					<g>
						<polygon style="fill:#514943;" points="1071.793,962.709 1093.404,974.184 1091.689,984.278 1053.512,979.602 
							1055.348,965.075 						"/>
					</g>
				</g>
				<g>
					<polygon style="fill:#9E6652;" points="1089.715,697.433 1100.59,833.063 1089.526,926.078 1046.066,923.616 1038.32,817.865 
						1019.526,702.574 1022.445,684.624 1085.081,685.541 					"/>
				</g>
				<g>
					<polygon style="fill:#9E6652;" points="1023.826,823.194 1018.72,920.478 980.944,918.54 981.713,826.279 957.893,710.414 
						963.328,678.027 1026.862,681.981 					"/>
				</g>
				<g>
					<path style="fill:#F1F9F5;" d="M1112.038,699.854c-38.883,5.937-103.586,10.471-142.47,16.408
						c-2.095-70.305,4.827-151.493,21.79-219.529c3.077-12.34,7.622-25.661,18.403-31.946c11.552-6.734,36.053-5.821,43.103,7.261
						c10.314,19.139,12.35,49.605,16.952,70.905C1080.228,591.146,1105.589,650.961,1112.038,699.854z"/>
				</g>
				<g>
					<g>
						<path style="fill:#EACDB0;" d="M1002.92,414.952c5.789-28.68,41.644-23.282,51.667,0.119
							c6.602,15.415-2.979,38.017-18.497,44.568c0.949,3.92,1.733,7.88,2.343,11.867c-4.394,0.246-8.788,0.492-13.182,0.738
							c-1.36,0.076-2.957,0.048-3.77-1.044c-0.493-0.661-0.547-1.541-0.582-2.365c-0.119-2.778-0.237-5.556-0.356-8.335
							c-0.334-0.099-0.668-0.203-1.003-0.317c-8.32-2.843-14.277-10.648-16.678-19.107
							C1000.461,432.618,1001.181,423.57,1002.92,414.952z"/>
					</g>
					<g>
						<g>
							<g>
								<path style="fill:#514943;" d="M1006.525,422.798c-4.539,8.638-1.73,19.101,0.773,28.06c2.219,7.945,2.616,13-6.413,13.567
									c-5.087,0.32-14.131,0.99-17.818-3.469c-2.79-3.378,0.478-11.861,2.633-15.091c1.646-2.466,5.07-3.295,6.65-5.805
									c0.651-1.034,0.921-2.258,1.135-3.461c0.875-4.915,1.001-9.962,0.374-14.914c-0.426-3.363-1.198-6.724-0.94-10.104
									c0.375-4.9,4.714-9.973,7.237-14.119c4.693-7.714,18.136-16.891,26.812-8.812c1.975,1.84,2.858,4.547,3.538,7.159
									c0.406,1.56,0.771,3.178,0.529,4.771c-0.964,6.355-6.93,6.477-11.424,8.841
									C1014.071,412.337,1009.422,417.285,1006.525,422.798z"/>
							</g>
							<g>
								<path style="fill:#514943;" d="M1052.328,431.826c-0.373,4.55-3.546,9.157-1.696,13.331
									c0.824,1.859,2.503,3.168,3.856,4.687c3.693,4.15,4.948,10.324,3.17,15.587c9.049,1.126,18.099,2.251,27.148,3.377
									c1.365,0.17,2.799,0.331,4.075-0.182c2.727-1.097,3.428-4.562,3.741-7.484c0.616-5.755,1.152-11.937-1.668-16.991
									c-1.307-2.343-3.261-4.277-4.561-6.625c-6.251-11.292,4.341-27.587-3.89-37.528c-3.673-4.436-9.842-5.73-14.737-8.763
									c-8.536-5.289-12.999-15.764-21.86-20.488c-16.734-8.922-37.44,9.875-29.521,27.383
									C1022.842,412.409,1053.829,413.502,1052.328,431.826z"/>
							</g>
						</g>
					</g>
				</g>
				<g>
					<path style="fill:#8C9498;" d="M1003.239,469.658c0,0-12.37,174.569,14.735,208.99s38.699,47.391,38.699,47.391
						l-111.085,46.381C945.587,772.419,947.999,517.865,1003.239,469.658z"/>
				</g>
			</g>
			<g>
				<g>
					<g>
						<path style="fill:#C8D6A1;" d="M1106.54,419.031c4.459,1.179,9.231,1.03,13.599-0.425c-3.161,1.053-2.492,36.829-2.552,41.182
							c-0.096,6.893,4.066,37.705-9.972,25.05c-6.236-5.622-1.829-16.181-0.954-23.222
							C1108.402,447.599,1107.224,433.13,1106.54,419.031z"/>
					</g>
					<g>
						<g>
							<path style="fill:#BCC98F;" d="M1109.938,492.653l23.605-106.385c0,0,8.742-6.656,13.085,5.804
								c4.344,12.46-24.068,94.303-24.068,94.303L1109.938,492.653z"/>
						</g>
						<g>
							<path style="fill:#C8D6A1;" d="M1109.482,491.058l41.004-82.256c0,0,8.206-3.172,8.922,8.393
								c0.716,11.565-38.788,72.061-38.788,72.061L1109.482,491.058z"/>
						</g>
					</g>
				</g>
				<g>
					<path style="fill:#E59033;" d="M896.849,739.904c18.967-5.454,36.914-12.552,42.157-14.59
						c64.645-25.135,124.662-67.596,164.263-126.824c16.256-24.313,37.753-57.273,33.867-88.497
						c-5.199-41.779-44.993-48.598-74.091-25.841c-18.561,14.516-30.098,38.629-42.352,58.515
						c-16.165,26.233-32.262,52.627-51.489,76.606c-31.767,39.618-70.613,79.198-114.789,103.692
						c-3.858,2.139-11.908,9.861-11.071,14.951C845.554,751.348,872.072,747.029,896.849,739.904z"/>
				</g>
				<g style="opacity:0.1;">
					<path d="M1058.282,600.693c0.958,0.44,2.371,0.434,2.658-0.593c0.139-0.497-0.075-1.024-0.307-1.484
						c-1.415-2.8-3.666-5.034-5.877-7.214c-7.461-7.356-15.434-14.428-22.26-22.433c-2.51-2.944-15.139-20.174-12.504-23.631
						c-10.718,14.062-10.246,16.76,3.048,30.074c5.229,5.237,11.278,9.394,17.471,13.288c5.764,3.625,11.782,9.036,17.701,11.96
						C1058.235,600.671,1058.258,600.682,1058.282,600.693z"/>
				</g>
				<g style="opacity:0.1;">
					<path d="M1036.535,620.303c-0.517-1.073-1.015-2.221-0.943-3.415c0.071-1.194,0.909-2.42,2.063-2.476
						c1.134-0.054,2.025,0.955,2.732,1.879c6.657,8.693,13.635,18.224,23.87,21.453c0.984,0.31,2.02,0.575,2.818,1.249
						c0.798,0.674,1.269,1.913,0.749,2.827c-0.364,0.639-1.085,0.94-1.738,1.245c-3.988,1.863-3.782,3.564-7.873,1.831
						c-3.099-1.313-6.196-4.466-8.642-6.776C1044.224,633.07,1039.763,627.007,1036.535,620.303z"/>
				</g>
				<g style="opacity:0.1;">
					<path d="M1038.939,554.259c2.586,3.144,5.508,6.493,9.435,7.164c1.08-2.361-0.806-4.97-2.493-6.929
						c-6.814-7.915-11.364-16.729-16.512-25.737C1019.425,533.762,1035.066,549.55,1038.939,554.259z"/>
				</g>
				<g style="opacity:0.1;">
					<path d="M933.324,697.328c-0.141-1.041,0.734-4.809,1.924-2.385c3.025,6.163,5.548,13.953,11.397,17.908
						c3.176,2.147,6.893,3.361,10.345,4.923c-3.628,2.047-6.89,3.277-8.201,3c-3.79-0.801-6.871-6.004-8.994-8.966
						c-1.84-2.567-3.352-5.384-4.493-8.352C934.836,702.244,933.624,699.54,933.324,697.328z"/>
				</g>
			</g>
			<g>
				<g>
					<path style="fill:#8C9498;" d="M972.522,616.871c-2.944-1.619-4.402-5.198-4.309-8.557c0.093-3.359,1.485-6.541,3.073-9.502
						c1.916-3.572,4.153-6.971,6.677-10.143c1.45-1.823,3.044-3.61,5.104-4.698c2.06-1.088,4.687-1.361,6.679-0.154
						c1.365,0.828,2.27,2.223,3.127,3.57c0.607,0.955,1.236,1.983,1.217,3.114c-0.016,0.95-0.49,1.824-0.951,2.655
						C989.974,598.859,981.853,622.002,972.522,616.871z"/>
				</g>
				<g>
					<g>
						<path style="fill:#EACDB0;" d="M970.751,606.721c-0.044,0.431-0.059,0.867-0.037,1.308c0.067,1.374,0.445,3.417,1.286,4.55
							c-0.001-0.002,3.194,3.214,2.881,1.618l-0.648-3.31l8.273,5.516l8.027-0.834l5.307-9.336l-1.605-10.979
							c-5.538-2.415-10.948-6.296-16.359-1.382c-1.605,1.458-2.758,3.336-3.888,5.186
							C972.532,601.442,971.032,603.99,970.751,606.721z"/>
					</g>
				</g>
			</g>
			<g>
				<g>
					<path style="fill:#8C9498;" d="M1118.657,576.543c2.621,2.102,3.441,5.879,2.771,9.171c-0.67,3.292-2.589,6.188-4.663,8.831
						c-2.502,3.189-5.292,6.152-8.325,8.841c-1.743,1.546-3.62,3.032-5.837,3.749c-2.216,0.717-4.852,0.534-6.606-0.999
						c-1.202-1.051-1.853-2.581-2.465-4.055c-0.434-1.045-0.876-2.166-0.662-3.277c0.179-0.933,0.796-1.713,1.394-2.452
						C1098.364,591.279,1110.35,569.881,1118.657,576.543z"/>
				</g>
				<g>
					<g>
						<path style="fill:#EACDB0;" d="M1118.654,586.846c0.118-0.417,0.207-0.844,0.262-1.282c0.171-1.365,0.15-3.442-0.483-4.703
							c0.001,0.002-2.592-3.716-2.559-2.09l0.068,3.372l-7.199-6.859l-8.051-0.561l-6.836,8.282l-0.31,11.091
							c5.039,3.333,9.699,8.088,15.877,4.179c1.832-1.159,3.291-2.811,4.723-4.439
							C1115.99,591.739,1117.906,589.488,1118.654,586.846z"/>
					</g>
				</g>
			</g>
		</g>
	</g>
</g>
</svg>
