<?xml version="1.0" encoding="utf-8"?>
<!-- Generator: Adobe Illustrator 27.5.0, SVG Export Plug-In . SVG Version: 6.00 Build 0)  -->
<svg version="1.1" xmlns="http://www.w3.org/2000/svg" xmlns:xlink="http://www.w3.org/1999/xlink" x="0px" y="0px"
	 viewBox="0 0 500 500" style="enable-background:new 0 0 500 500;" xml:space="preserve">
<g id="BACKGROUND">
	<rect style="fill:#FFFFFF;" width="500" height="500"/>
</g>
<g id="OBJECTS">
	<g>
		<g>
			<path style="fill:#EDF6ED;" d="M215.524,441.61C94.989,444.631,18.815,346.113,43.11,257.627
				c24.296-88.486,118.301-27.808,165.303-91.413c47.003-63.605,78.552-114.076,146.2-94.474
				c77.462,22.446,125.402,129.884,77.368,230.806C388.717,393.447,336.058,438.589,215.524,441.61z"/>
			<path style="fill:#EDF6ED;" d="M373.513,398.59c-19.952,23.736-9.135,29.23,10.23,13.519
				C403.108,396.398,394.704,373.379,373.513,398.59z"/>
			<path style="fill:#EDF6ED;" d="M441.473,135.884c-0.556,17.411,12.423,43.845,21.192,26.307
				C471.434,144.653,442.569,101.539,441.473,135.884z"/>
			<path style="fill:#EDF6ED;" d="M96.557,178.633c-20.418,6.005-37.634,27.038,0.365,21.192
				C134.921,193.979,140.037,165.845,96.557,178.633z"/>
		</g>
		<g>
			<path style="fill:#F9C88C;" d="M376.699,337.483c0,0,38.945,2.695,48.205,2.995c9.26,0.299,19.336,28.75,1.634,31.745
				c-17.702,2.995-49.022,0-49.022,0L376.699,337.483z"/>
			<path style="fill:#275D7B;" d="M312.476,322.832c0,0,16.336,0.859,74.731,10.707c4.189,8.068,4.754,29.688,1.767,44.198
				c-5.773-0.419-63.244-1.368-67.283-2.124C321.691,375.613,291.382,343.576,312.476,322.832z"/>
			<path style="fill:#F9C88C;" d="M262.369,332.519c-19.786,0-24.529-10.976-25.212-14.409c14.051-2.829,27.962-3.967,45.261-1.631
				C282.813,320.467,281.802,332.519,262.369,332.519z"/>
			<polygon style="fill:#F9C88C;" points="276.151,307.775 275.429,281.485 242.005,282.403 242.56,302.623 243.282,328.87 
				276.705,327.951 			"/>
			<path style="fill:#EDA968;" d="M275.429,281.485l-33.956,0.533l0.555,11.731l0.722,20.951
				c12.342,0.789,23.545-1.146,33.423-6.255L275.429,281.485z"/>
			<path style="fill:#007895;" d="M192.644,332.896c0,0,19.043-10.397,42.229-15.449c1.004-0.22,1.996-0.427,2.981-0.624
				c0.683,3.431,4.388,13.929,24.175,13.929c19.432,0,20.051-11.167,19.656-15.154c1.438,0.194,2.902,0.404,4.413,0.642
				c10.553,1.661,18.877,3.658,33.009,7.354c0,0,8.065,28.396,6.6,176.406c0,0-44.236,0-122.678,0c0,0,9.559-65.806-0.261-105.485
				C202.768,394.515,195.752,357.836,192.644,332.896z"/>
			<g>
				<g>
					<path style="fill:#F9C88C;" d="M218.307,256.644c4.375,7.627,5.271,13.879,0.337,17.04c-4.928,3.162-16.842,1.826-21.216-5.803
						c-4.38-7.635-3.926-16.379,1.009-19.542C203.366,245.18,213.934,249.013,218.307,256.644z"/>
					<path style="fill:#FFFFFF;" d="M243.49,284.067c0.59-0.288,1.286-0.59,2.018-0.912c-0.234-0.613-0.385-1.043-0.406-1.204
						L243.49,284.067z"/>
					<path style="fill:#F9C88C;" d="M206.715,268.277c8.518,27.114,31.176,42.714,58.73,35.957
						c25.066-6.146,37.181-44.361,32.919-76.869c-4.262-32.51-25.561-55.471-56.168-50.284
						C195.318,185.026,188.765,211.138,206.715,268.277z"/>
					<path style="fill:#F9C88C;" d="M285.532,243.672c-1.991,8.569-1.047,14.809,4.591,16.416
						c5.629,1.605,16.652-3.105,18.642-11.673c1.994-8.573-0.964-16.812-6.597-18.421
						C296.536,228.387,287.52,235.104,285.532,243.672z"/>
					
						<linearGradient id="SVGID_1_" gradientUnits="userSpaceOnUse" x1="-9563.3555" y1="2517.1187" x2="-9575.4141" y2="2524.6145" gradientTransform="matrix(0.9948 0.1014 -0.1014 0.9948 10028.3809 -1286.0214)">
						<stop  offset="0" style="stop-color:#D18078"/>
						<stop  offset="1" style="stop-color:#F6B9AD;stop-opacity:0"/>
					</linearGradient>
					<path style="fill:url(#SVGID_1_);" d="M244.389,246.989c7.214-2.632,13.673-2.373,15.916,2.934
						c2.243,5.306-4.77,9.832-10.837,11.507C243.401,263.104,238.775,249.038,244.389,246.989z"/>
					<g>
						<path style="fill:#A56052;" d="M241.276,248.534c2.635-1.621,5.607-2.786,8.758-3.221c1.573-0.233,3.194-0.238,4.809,0.017
							c1.6,0.286,3.235,0.844,4.586,1.988c1.346,1.124,2.173,3.086,1.844,4.853c-0.28,1.764-1.198,3.23-2.279,4.416
							c-2.178,2.392-4.935,3.982-7.766,5.209c2.48-1.834,4.942-3.715,6.741-6.054c0.872-1.167,1.59-2.46,1.705-3.773
							c0.18-1.302-0.358-2.521-1.364-3.371c-0.987-0.882-2.362-1.391-3.761-1.689c-1.413-0.312-2.902-0.348-4.388-0.28
							C247.177,246.797,244.21,247.55,241.276,248.534z"/>
					</g>
					<g>
						<path style="fill:#A56052;" d="M239.795,276.189c-0.208,1.378,0.322,2.684,0.923,3.845c0.639,1.162,1.477,2.194,2.454,3.052
							c1.952,1.727,4.432,2.746,7.022,3.086c2.595,0.38,5.284,0.16,7.938-0.316c2.662-0.476,5.292-1.251,7.948-2.065
							c-2.365,1.459-4.932,2.613-7.651,3.359c-1.352,0.405-2.757,0.624-4.173,0.794c-1.424,0.112-2.867,0.099-4.304-0.088
							c-1.432-0.212-2.853-0.615-4.175-1.246c-1.313-0.644-2.535-1.501-3.527-2.574c-1.014-1.051-1.784-2.315-2.291-3.661
							c-0.23-0.683-0.408-1.383-0.464-2.098C239.439,277.566,239.489,276.82,239.795,276.189z"/>
					</g>
					<g>
						
							<linearGradient id="SVGID_00000130608456125110808290000014137437652030721158_" gradientUnits="userSpaceOnUse" x1="-9597.332" y1="2502.1567" x2="-9592.3291" y2="2519.1321" gradientTransform="matrix(0.9948 0.1014 -0.1014 0.9948 10028.3809 -1286.0214)">
							<stop  offset="0" style="stop-color:#D89A68"/>
							<stop  offset="1" style="stop-color:#D89A68;stop-opacity:0"/>
						</linearGradient>
						<path style="fill:url(#SVGID_00000130608456125110808290000014137437652030721158_);" d="M238.053,227.361
							c1.466,4.999,6.629,19.535-7.548,22.939c-14.177,3.404-13.431-14.481-13.431-14.481S231.595,229.038,238.053,227.361z"/>
						<path style="fill:#643619;" d="M236.328,247.886c-0.111,1.09-1.085,1.883-2.174,1.772c-1.09-0.111-1.883-1.085-1.772-2.174
							c0.111-1.09,1.084-1.883,2.174-1.772C235.646,245.823,236.439,246.797,236.328,247.886z"/>
						<path style="fill:#964D1E;" d="M234.815,226.921c-16.29,3.675-24.319,11.607-13.867,9.917
							C231.401,235.147,245.558,224.498,234.815,226.921z"/>
					</g>
					<g>
						
							<linearGradient id="SVGID_00000095301641512577841070000001617518571541872786_" gradientUnits="userSpaceOnUse" x1="10524.9229" y1="-2721.7104" x2="10529.9258" y2="-2704.7351" gradientTransform="matrix(-0.9185 0.3953 0.3953 0.9185 11008.3291 -1436.5024)">
							<stop  offset="0" style="stop-color:#D89A68"/>
							<stop  offset="1" style="stop-color:#D89A68;stop-opacity:0"/>
						</linearGradient>
						<path style="fill:url(#SVGID_00000095301641512577841070000001617518571541872786_);" d="M254.199,224.881
							c0.102,5.209-0.46,20.624,14.085,19.616c14.545-1.008,8.466-17.845,8.466-17.845S260.862,224.542,254.199,224.881z"/>
						<path style="fill:#643619;" d="M262.005,243.942c0.433,1.006,1.6,1.471,2.605,1.038c1.006-0.433,1.471-1.6,1.038-2.605
							c-0.433-1.006-1.6-1.471-2.606-1.037C262.036,241.77,261.572,242.936,262.005,243.942z"/>
						<path style="fill:#964D1E;" d="M257.156,223.49c16.642-1.384,26.681,3.774,16.203,5.298
							C262.882,230.312,246.181,224.402,257.156,223.49z"/>
					</g>
					<path style="fill:#F2A09B;" d="M222.758,255.403c0.17,1.105-2.56,2.442-6.097,2.985c-3.537,0.543-6.542,0.088-6.712-1.018
						c-0.17-1.105,2.56-2.442,6.097-2.985C219.583,253.842,222.588,254.298,222.758,255.403z"/>
					<path style="fill:#F2A09B;" d="M290.285,245.031c0.17,1.105-2.56,2.442-6.097,2.985c-3.537,0.543-6.542,0.088-6.712-1.018
						c-0.17-1.105,2.56-2.442,6.097-2.985C287.11,243.47,290.115,243.925,290.285,245.031z"/>
				</g>
				<path id="XMLID_42_" style="fill:#572C1A;" d="M187.053,216.183c1.807,15.247,5.546,25.647,8.171,36.318
					c2.559-4.385,7.163-4.66,9.868,2.31c0,0-4.997-31.561,1.195-37.841c12.775-12.957,14.081,0.381,32.932-7.27
					c12.542-5.09,28.676-19.761,44.655-1.35c4.794,5.523,7.43,22.349,11.36,27.893c0.349-4.287,2.121-5.341,8.25-5.735l1.553-14.504
					c1.353-8.783,2.864-18.116,1.276-23.225c-1.047,3.64-2.999,6.617-2.999,6.617s1.515-26.731-17.55-39.327
					c0.944,4.405,5.368,12.291,5.368,12.291s-24.21-32.148-64.22-19.043c3.055,9.434,21.038,8.01,21.038,8.01
					s-40.811-2.564-54.453,16.662c2.212,3.943,10.842-0.862,10.842-0.862s-19.492,7.277-28.065,24.653
					c2.354-0.361,8.026-1.768,8.026-1.768s-10.12,9.049-4.352,30.915C183.954,223.886,187.053,216.183,187.053,216.183z"/>
				<path style="fill:#572C1A;" d="M211.34,208.844c0,0-5.988,4.742-3.385,11.483c6.362-6.202,14.556-7.287,14.556-7.287
					s-3.757,1.622-7.422,4.972c10.169,1.573,29.084-5.687,29.084-5.687s-9.032,4.697-10.904,7.248
					c16.453-2.876,23.483-12.664,23.483-12.664s-5.524,4.855-7.554,8.65c12.788-4.054,30.126-12.776,30.559-15.63
					C255.059,189.069,223.187,200.943,211.34,208.844z"/>
				<path style="fill:#572C1A;" d="M276.678,201.3c-0.525,1.775,3.864,8.279,8.185,14.993c0.937-2.337-0.119-4.667-0.119-4.667
					s3.362,6.961,4.298,11.104c2.226-4.33-6.131-18.499-6.131-18.499L276.678,201.3z"/>
			</g>
			<g>
				<path style="fill:#F9C88C;" d="M376.694,272.573c16.664,36.02,25.948,71.309,35.107,88.647
					c9.159,17.338,42.372,7.665,28.082-19.923c-14.291-27.589-31.931-57.085-44.65-81.285
					C388.611,247.415,368.717,259.672,376.694,272.573z"/>
				<path style="fill:#F9C88C;" d="M361.654,257.052c-6.919-0.251-11.767,3.462-12.408,5.681c-0.641,2.219,0.218,3.515,2.457,2.805
					c2.239-0.709,12.282,0.589,16.625,3.692c4.343,3.104,16.993,0.792,24.66-6.116c7.666-6.909-3.716-21.818-3.716-21.818
					s-20.482,2.05-29.577,9.167C359.874,252.474,361.654,257.052,361.654,257.052z"/>
				<path style="fill:#F5B384;" d="M361.654,257.052c-3.642-5.408-6.899-13.166-2.973-16.186c3.926-3.02,15.361-8.685,22.11-8.959
					c6.75-0.274,15.649,13.243,8.221,19.503c-7.428,6.26-15.177,14.309-21.074,4.102
					C365.225,256.195,361.654,257.052,361.654,257.052z"/>
			</g>
			<path style="fill:#F9C88C;" d="M142.488,371.711c0,0-34.297,18.646-42.594,22.769c-8.297,4.123-5.63,34.187,11.715,29.549
				c17.344-4.638,44.582-20.385,44.582-20.385L142.488,371.711z"/>
			<path style="fill:#275D7B;" d="M194.803,331.68c0,0-14.499,7.575-63.511,40.813c1.112,7.017,6.26,29.782,15.01,41.736
				c5.076-2.781,58.71-28.349,62.069-30.716C208.371,383.513,222.613,341.774,194.803,331.68z"/>
			<g>
				<path style="fill:#F9C88C;" d="M115.501,312.677c-0.176,39.687,6.055,75.641,4.935,95.217
					c-1.12,19.576-35.348,24.591-33.824-6.442c1.524-31.033,5.301-65.193,6.805-92.491
					C94.201,294.753,117.391,297.627,115.501,312.677z"/>
				<path style="fill:#F9C88C;" d="M122.724,292.307c6.188-3.105,12.141-1.745,13.646,0.007c1.506,1.751,1.264,3.287-1.068,3.573
					c-2.331,0.286-10.925,5.642-13.584,10.271s-15.125,7.787-24.97,4.692c-9.845-3.095-5.693-21.388-5.693-21.388
					s19.479-6.653,30.711-3.962C122.44,287.404,122.724,292.307,122.724,292.307z"/>
				<path style="fill:#F5B384;" d="M122.724,292.307c1.063-6.433,0.799-14.843-4.027-15.956c-4.827-1.114-17.581-1.51-23.833,1.047
					c-6.252,2.557-8.725,18.551,0.633,21.155s19.753,6.702,20.872-5.033C119.12,293.013,122.724,292.307,122.724,292.307z"/>
			</g>
			<path style="fill:#007895;" d="M387.207,333.539c-3.239-0.546-6.341-1.063-9.326-1.555c2.161,8.903,5.352,27.49,0.216,45.39
				c5.5,0.143,9.552,0.267,10.877,0.363C391.96,363.227,391.395,341.607,387.207,333.539z"/>
			<path style="fill:#007895;" d="M131.292,372.493c1.112,7.017,6.26,29.782,15.01,41.736c0.984-0.54,3.801-1.939,7.719-3.857
				c-8.599-14.931-13.192-35.234-14.766-43.257C136.703,368.832,134.06,370.616,131.292,372.493z"/>
			<path style="fill:#FFFFFF;" d="M296.486,353.563c-4.793,0.908-8.318,4.662-9.179,9.18c-2.454-3.89-7.108-6.095-11.901-5.186
				c-6.26,1.186-10.374,7.223-9.187,13.483c3.027,15.975,26.484,20.183,26.484,20.183s20.066-13.69,17.265-28.472
				C308.783,356.49,302.746,352.377,296.486,353.563z"/>
		</g>
		<circle style="fill:#80C1BC;" cx="81.344" cy="201.103" r="42.436"/>
		<circle style="fill:none;stroke:#80C1BC;stroke-miterlimit:10;" cx="81.344" cy="201.103" r="46.969"/>
		<circle style="fill:#80C1BC;" cx="167.862" cy="97.379" r="42.436"/>
		<circle style="fill:none;stroke:#80C1BC;stroke-miterlimit:10;" cx="167.862" cy="97.379" r="46.674"/>
		<circle style="fill:#80C1BC;" cx="309.731" cy="79.171" r="42.436"/>
		<circle style="fill:none;stroke:#80C1BC;stroke-miterlimit:10;" cx="309.731" cy="79.171" r="46.802"/>
		<circle style="fill:#80C1BC;" cx="418.035" cy="155.721" r="42.436"/>
		<circle style="fill:none;stroke:#80C1BC;stroke-miterlimit:10;" cx="418.035" cy="155.721" r="47.031"/>
		<g>
			<g>
				<path style="fill:#FFFFFF;" d="M57.303,196.34c-1.314,1.033-1.542,2.936-0.509,4.251l17.671,22.475
					c1.033,1.314,2.936,1.542,4.251,0.509c1.314-1.033,1.542-2.936,0.508-4.251l-17.671-22.474
					C60.52,195.534,58.617,195.306,57.303,196.34z"/>
				<path style="fill:#FFFFFF;" d="M55.405,205.723c-1.314,1.033-1.542,2.936-0.508,4.251L64.9,222.696
					c1.033,1.314,2.936,1.542,4.25,0.508c1.314-1.033,1.542-2.936,0.508-4.251l-10.003-12.722
					C58.622,204.917,56.719,204.689,55.405,205.723z"/>
				<path style="fill:#FFFFFF;" d="M60.751,219.286c-1.236,0.972-3.027,0.758-3.999-0.479c-0.972-1.236-0.758-3.027,0.479-3.999
					C58.384,216.275,59.919,218.228,60.751,219.286z"/>
			</g>
			<g>
				<path style="fill:#FFFFFF;" d="M85.3,174.326c1.314-1.033,3.217-0.806,4.251,0.509l17.671,22.474
					c1.033,1.314,0.806,3.217-0.508,4.25c-1.314,1.033-3.217,0.806-4.25-0.508l-17.671-22.474
					C83.758,177.263,83.986,175.359,85.3,174.326z"/>
				<path style="fill:#FFFFFF;" d="M94.866,174.695c1.314-1.033,3.217-0.806,4.251,0.509l10.003,12.722
					c1.033,1.314,0.806,3.217-0.508,4.251c-1.314,1.033-3.217,0.805-4.251-0.509l-10.003-12.723
					C93.324,177.632,93.551,175.729,94.866,174.695z"/>
				<path style="fill:#FFFFFF;" d="M106.785,183.09c1.236-0.972,1.451-2.763,0.479-3.999c-0.972-1.236-2.763-1.451-3.999-0.478
					C104.418,180.079,105.953,182.032,106.785,183.09z"/>
			</g>
			
				<rect x="68.67" y="195.846" transform="matrix(0.7861 -0.6181 0.6181 0.7861 -105.2727 92.8295)" style="fill:#FFFFFF;" width="25.634" height="5.34"/>
		</g>
		<g>
			<path style="fill:#FFFFFF;" d="M175.364,120.415c-16.562,5.895-29.064-4.059-30.237-17.851
				c-0.902-10.607,11.365-14.135,19.843-13.285c2.672-4.081,7.589-10.117,16.441-6.635
				C195.193,88.066,191.236,114.765,175.364,120.415z"/>
			<path style="fill:#FFFFFF;" d="M162.93,86.238c0,0-5.18-10.316,0.405-16.638C168.72,78.41,162.93,86.238,162.93,86.238z"/>
		</g>
		<g>
			<path style="fill:#FFFFFF;" d="M327.87,60.253c-2.674,3.315-5.537,6.483-8.419,9.623c-2.884-1.401-5.765-2.813-8.608-4.295
				c-0.429-0.224-0.851-0.335-1.256-0.358c-0.737-0.21-1.516-0.168-2.145,0.176c-3.12,0.449-6.257,0.776-9.398,1.041
				c-1.728,0.146-3.005,0.199-4.191,1.652c-1.873,2.296-3.364,5.024-5.014,7.488c-2.132,3.185,3.009,6.161,5.127,2.998
				c1.386-2.07,2.772-4.141,4.158-6.211c2.455-0.204,4.906-0.457,7.35-0.762c-1.81,10.187-4.238,21.087-9.302,30.022
				c-2.573-1.426-5.012-3.108-7.278-4.966c-2.932-2.404-7.157,1.773-4.199,4.199c3.422,2.805,7.075,5.349,11.094,7.231
				c1.508,0.706,3.121,0.381,4.062-1.066c2.728-4.192,4.814-8.861,6.474-13.74c2.313,1.167,4.627,2.332,6.942,3.494
				c-1.02,3.171-2.262,6.255-3.519,9.348c-1.439,3.539,4.303,5.078,5.726,1.579c1.561-3.839,3.118-7.659,4.227-11.658
				c0.331-1.192-0.201-2.777-1.365-3.353c-3.433-1.701-6.841-3.449-10.265-5.167c1.359-5.001,2.375-10.106,3.251-15.059
				c2.432,1.219,4.874,2.418,7.321,3.604c1.157,0.561,2.663,0.551,3.598-0.464c3.354-3.642,6.717-7.301,9.826-11.155
				C334.447,61.505,330.271,57.277,327.87,60.253z"/>
			<path style="fill:#FFFFFF;" d="M309.489,63.927c3.624,0.093,6.637-2.769,6.73-6.393c0.093-3.624-2.769-6.637-6.393-6.729
				c-3.624-0.093-6.637,2.769-6.73,6.393C303.003,60.821,305.865,63.835,309.489,63.927z"/>
		</g>
		<path style="fill:#FFFFFF;" d="M437.644,143.05c-5.425-1.479-10.973,0.633-14.146,4.88c-0.579-5.27-4.288-9.904-9.714-11.382
			c-7.086-1.931-14.396,2.247-16.327,9.333c-0.997,3.657-0.884,7.238-0.07,10.622l9.854,2.651l5.407-9.31
			c0.29-0.5,0.875-0.748,1.436-0.61c0.009,0.002,0.018,0.004,0.027,0.007c0.547,0.147,0.937,0.632,0.961,1.201l0.634,14.913
			l5.434-9.767c0.292-0.525,0.907-0.771,1.486-0.621c0.579,0.161,0.972,0.699,0.95,1.3l-0.208,5.772l6.025,1.621
			c0.694,0.187,1.105,0.9,0.918,1.594c-0.186,0.693-0.9,1.105-1.594,0.918l-7.024-1.889c-0.585-0.157-0.984-0.697-0.962-1.303
			l0.05-1.398l-5.044,9.065c-0.283,0.509-0.87,0.768-1.436,0.633c-0.013-0.003-0.026-0.006-0.038-0.01
			c-0.547-0.147-0.937-0.632-0.961-1.201l-0.64-15.07l-3.672,6.323c-0.295,0.508-0.895,0.756-1.463,0.603l-9.25-2.488
			c4.347,11.897,16.434,20.728,16.434,20.728s27.704-4.056,32.264-20.788C448.908,152.291,444.729,144.982,437.644,143.05z"/>
		<g>
			<path style="fill:#80C1BC;" d="M337.387,201.574c0,2.202-1.786,3.988-3.988,3.988s-3.988-1.785-3.988-3.988
				c0-2.203,1.785-3.988,3.988-3.988S337.387,199.371,337.387,201.574z"/>
			<path style="fill:#80C1BC;" d="M437.753,240.789c0,1.835-1.488,3.323-3.323,3.323c-1.836,0-3.323-1.488-3.323-3.323
				c0-1.835,1.488-3.323,3.323-3.323C436.265,237.466,437.753,238.954,437.753,240.789z"/>
			<path style="fill:#80C1BC;" d="M330.741,234.807c0,0.367-0.298,0.665-0.665,0.665c-0.367,0-0.665-0.298-0.665-0.665
				s0.298-0.665,0.665-0.665C330.443,234.142,330.741,234.44,330.741,234.807z"/>
			<path style="fill:#80C1BC;" d="M329.411,297.951c0,1.101-0.893,1.994-1.994,1.994c-1.101,0-1.994-0.893-1.994-1.994
				c0-1.101,0.893-1.994,1.994-1.994C328.518,295.957,329.411,296.85,329.411,297.951z"/>
			<path style="fill:#80C1BC;" d="M447.723,285.987c0,1.835-1.488,3.323-3.323,3.323c-1.835,0-3.323-1.488-3.323-3.323
				c0-1.835,1.488-3.323,3.323-3.323C446.235,282.664,447.723,284.151,447.723,285.987z"/>
			<circle style="fill:#80C1BC;" cx="351.013" cy="396.655" r="3.656"/>
			<circle style="fill:#80C1BC;" cx="349.684" cy="449.164" r="3.656"/>
			<path style="fill:#80C1BC;" d="M410.501,433.544c0,0.734-0.595,1.329-1.329,1.329c-0.734,0-1.329-0.595-1.329-1.329
				c0-0.734,0.595-1.329,1.329-1.329C409.906,432.215,410.501,432.81,410.501,433.544z"/>
			<path style="fill:#80C1BC;" d="M160.584,319.885c0,0.734-0.595,1.329-1.329,1.329c-0.734,0-1.329-0.595-1.329-1.329
				s0.595-1.329,1.329-1.329C159.989,318.556,160.584,319.151,160.584,319.885z"/>
			<path style="fill:#80C1BC;" d="M174.543,285.655c0,1.285-1.042,2.326-2.326,2.326s-2.326-1.042-2.326-2.326
				s1.042-2.326,2.326-2.326S174.543,284.37,174.543,285.655z"/>
			<circle style="fill:#80C1BC;" cx="144.965" cy="255.744" r="1.662"/>
			<path style="fill:#80C1BC;" d="M53.572,298.948c0,0.918-0.744,1.662-1.662,1.662c-0.918,0-1.662-0.744-1.662-1.662
				s0.744-1.662,1.662-1.662C52.828,297.286,53.572,298.03,53.572,298.948z"/>
			<path style="fill:#80C1BC;" d="M28.315,381.035c0,1.101-0.893,1.994-1.994,1.994c-1.101,0-1.994-0.893-1.994-1.994
				c0-1.101,0.893-1.994,1.994-1.994C27.422,379.041,28.315,379.934,28.315,381.035z"/>
			<path style="fill:#80C1BC;" d="M150.614,447.502c0,1.101-0.893,1.994-1.994,1.994c-1.101,0-1.994-0.893-1.994-1.994
				c0-1.101,0.893-1.994,1.994-1.994C149.722,445.508,150.614,446.401,150.614,447.502z"/>
			<path style="fill:#80C1BC;" d="M150.614,171.995c0,0.551-0.446,0.997-0.997,0.997c-0.551,0-0.997-0.446-0.997-0.997
				c0-0.551,0.446-0.997,0.997-0.997C150.168,170.999,150.614,171.445,150.614,171.995z"/>
			<path style="fill:#80C1BC;" d="M95.447,137.1c0,1.101-0.893,1.994-1.994,1.994s-1.994-0.893-1.994-1.994
				c0-1.101,0.893-1.994,1.994-1.994S95.447,135.999,95.447,137.1z"/>
			<circle style="fill:#80C1BC;" cx="240.677" cy="88.247" r="3.656"/>
			<circle style="fill:#80C1BC;" cx="261.615" cy="123.142" r="1.994"/>
			<path style="fill:#80C1BC;" d="M381.92,102.87c0,0.918-0.744,1.662-1.662,1.662c-0.918,0-1.662-0.744-1.662-1.662
				s0.744-1.662,1.662-1.662C381.176,101.208,381.92,101.952,381.92,102.87z"/>
			<circle style="fill:#80C1BC;" cx="422.133" cy="68.971" r="1.662"/>
			<path style="fill:#80C1BC;" d="M320.106,156.708c0,1.652-1.339,2.991-2.991,2.991c-1.652,0-2.991-1.339-2.991-2.991
				s1.339-2.991,2.991-2.991C318.767,153.717,320.106,155.056,320.106,156.708z"/>
			<circle style="fill:#80C1BC;" cx="456.031" cy="213.87" r="0.997"/>
			<path style="fill:#80C1BC;" d="M419.807,398.649c0,1.285-1.042,2.326-2.326,2.326c-1.285,0-2.326-1.042-2.326-2.326
				s1.042-2.326,2.326-2.326C418.765,396.323,419.807,397.364,419.807,398.649z"/>
		</g>
	</g>
</g>
</svg>
