<?xml version="1.0" standalone="no"?>
<svg viewBox="0 0 200 200" xmlns="http://www.w3.org/2000/svg">
  <path fill="#60B159" d="M43.1,-75.1C54,-68.4,59.5,-53,64.7,-39C69.9,-25.1,74.7,-12.5,74.9,0.2C75.2,12.8,71,25.7,65.8,39.7C60.7,53.8,54.7,69.1,43.6,76.2C32.5,83.3,16.2,82.4,1,80.6C-14.2,78.8,-28.3,76.2,-38.7,68.6C-49.1,61,-55.6,48.5,-61.4,36.2C-67.1,23.9,-72,12,-72.7,-0.4C-73.4,-12.8,-70,-25.7,-63.6,-36.6C-57.1,-47.6,-47.5,-56.7,-36.4,-63.2C-25.3,-69.7,-12.7,-73.6,1.7,-76.7C16.1,-79.7,32.3,-81.8,43.1,-75.1Z" transform="translate(100 100)" />
</svg>
